<svg width="42" height="42" viewBox="0 0 42 42" fill="none" xmlns="http://www.w3.org/2000/svg">
<path d="M29.505 0H12.495C5.5942 0 0 5.5942 0 12.495V29.505C0 36.4058 5.5942 42 12.495 42H29.505C36.4058 42 42 36.4058 42 29.505V12.495C42 5.5942 36.4058 0 29.505 0Z" fill="black" fill-opacity="0.2"/>
<path fill-rule="evenodd" clip-rule="evenodd" d="M21 9.75C21.2486 9.75 21.4871 9.84877 21.6629 10.0246C21.8387 10.2004 21.9375 10.4389 21.9375 10.6875V20.0625H31.3125C31.5611 20.0625 31.7996 20.1613 31.9754 20.3371C32.1512 20.5129 32.25 20.7514 32.25 21C32.25 21.2486 32.1512 21.4871 31.9754 21.6629C31.7996 21.8387 31.5611 21.9375 31.3125 21.9375H21.9375V31.3125C21.9375 31.5611 21.8387 31.7996 21.6629 31.9754C21.4871 32.1512 21.2486 32.25 21 32.25C20.7514 32.25 20.5129 32.1512 20.3371 31.9754C20.1613 31.7996 20.0625 31.5611 20.0625 31.3125V21.9375H10.6875C10.4389 21.9375 10.2004 21.8387 10.0246 21.6629C9.84877 21.4871 9.75 21.2486 9.75 21C9.75 20.7514 9.84877 20.5129 10.0246 20.3371C10.2004 20.1613 10.4389 20.0625 10.6875 20.0625H20.0625V10.6875C20.0625 10.4389 20.1613 10.2004 20.3371 10.0246C20.5129 9.84877 20.7514 9.75 21 9.75Z" fill="black"/>
</svg>
