<svg width="50" height="50" viewBox="0 0 50 50" fill="none" xmlns="http://www.w3.org/2000/svg">
<path d="M33.4378 4.16667H16.5628C9.7168 4.16667 4.16699 9.71648 4.16699 16.5625V33.4375C4.16699 40.2835 9.7168 45.8333 16.5628 45.8333H33.4378C40.2839 45.8333 45.8337 40.2835 45.8337 33.4375V16.5625C45.8337 9.71648 40.2839 4.16667 33.4378 4.16667Z" fill="black" fill-opacity="0.2"/>
<path d="M33.4378 4.16667H16.5628C9.7168 4.16667 4.16699 9.71648 4.16699 16.5625V33.4375C4.16699 40.2835 9.7168 45.8333 16.5628 45.8333H33.4378C40.2839 45.8333 45.8337 40.2835 45.8337 33.4375V16.5625C45.8337 9.71648 40.2839 4.16667 33.4378 4.16667Z" fill="black" fill-opacity="0.2"/>
<path d="M23.9335 29.7081L22.2836 28.0582L25.1709 25.1708C25.8543 24.4875 25.8543 23.3794 25.1709 22.6959C24.4876 22.0125 23.3795 22.0125 22.6961 22.6959L18.5713 26.8208C16.9767 28.4154 16.9767 31.0009 18.5713 32.5955C20.1659 34.1901 22.7514 34.1901 24.346 32.5955L32.5956 24.346C34.1902 22.7512 34.1902 20.1658 32.5956 18.5712L32.1832 18.1587C30.8163 16.7919 28.6002 16.7919 27.2333 18.1587L25.5834 16.5088C27.8615 14.2307 31.5549 14.2307 33.8329 16.5088L34.2455 16.9213C36.7514 19.4272 36.7514 23.49 34.2455 25.9959L25.996 34.2454C23.49 36.7513 19.4273 36.7513 16.9214 34.2454C14.4155 31.7395 14.4155 27.6767 16.9214 25.1708L21.0462 21.0462C22.6408 19.4516 25.2263 19.4516 26.8209 21.0462C28.4155 22.6408 28.4155 25.2263 26.8209 26.8209L23.9335 29.7081Z" fill="black"/>
</svg>
