<svg width="42" height="42" viewBox="0 0 42 42" fill="none" xmlns="http://www.w3.org/2000/svg">
<path d="M29.505 0H12.495C5.5942 0 0 5.5942 0 12.495V29.505C0 36.4058 5.5942 42 12.495 42H29.505C36.4058 42 42 36.4058 42 29.505V12.495C42 5.5942 36.4058 0 29.505 0Z" fill="black" fill-opacity="0.2"/>
<g clip-path="url(#clip0_138_451)">
<path d="M27.25 11H14.75V16H27.25V11Z" fill="black" fill-opacity="0.3"/>
<path fill-rule="evenodd" clip-rule="evenodd" d="M14.75 8.5H27.25C28.6307 8.5 29.75 9.61929 29.75 11V31C29.75 32.3807 28.6307 33.5 27.25 33.5H14.75C13.3693 33.5 12.25 32.3807 12.25 31V11C12.25 9.61929 13.3693 8.5 14.75 8.5ZM16 21C16.6904 21 17.25 20.4404 17.25 19.75C17.25 19.0596 16.6904 18.5 16 18.5C15.3096 18.5 14.75 19.0596 14.75 19.75C14.75 20.4404 15.3096 21 16 21ZM16 26C16.6904 26 17.25 25.4404 17.25 24.75C17.25 24.0596 16.6904 23.5 16 23.5C15.3096 23.5 14.75 24.0596 14.75 24.75C14.75 25.4404 15.3096 26 16 26ZM21 21C21.6904 21 22.25 20.4404 22.25 19.75C22.25 19.0596 21.6904 18.5 21 18.5C20.3096 18.5 19.75 19.0596 19.75 19.75C19.75 20.4404 20.3096 21 21 21ZM21 26C21.6904 26 22.25 25.4404 22.25 24.75C22.25 24.0596 21.6904 23.5 21 23.5C20.3096 23.5 19.75 24.0596 19.75 24.75C19.75 25.4404 20.3096 26 21 26ZM26 21C26.6904 21 27.25 20.4404 27.25 19.75C27.25 19.0596 26.6904 18.5 26 18.5C25.3096 18.5 24.75 19.0596 24.75 19.75C24.75 20.4404 25.3096 21 26 21ZM26 26C26.6904 26 27.25 25.4404 27.25 24.75C27.25 24.0596 26.6904 23.5 26 23.5C25.3096 23.5 24.75 24.0596 24.75 24.75C24.75 25.4404 25.3096 26 26 26ZM26 31C26.6904 31 27.25 30.4404 27.25 29.75C27.25 29.0596 26.6904 28.5 26 28.5C25.3096 28.5 24.75 29.0596 24.75 29.75C24.75 30.4404 25.3096 31 26 31ZM16 28.5C15.3096 28.5 14.75 29.0596 14.75 29.75C14.75 30.4404 15.3096 31 16 31H21C21.6904 31 22.25 30.4404 22.25 29.75C22.25 29.0596 21.6904 28.5 21 28.5H16ZM14.75 11V16H27.25V11H14.75Z" fill="black"/>
</g>
</svg>
