<svg width="24" height="24" viewBox="0 0 24 24" fill="none" xmlns="http://www.w3.org/2000/svg">
<path d="M7.07031 2.5H16.9297C18.9013 2.5 20.5 4.09866 20.5 6.07031V17.9297C20.5 19.9013 18.9013 21.5 16.9297 21.5H7.07031C5.09866 21.5 3.5 19.9013 3.5 17.9297V6.07031C3.5 4.09866 5.09866 2.5 7.07031 2.5Z" fill="black" fill-opacity="0.2" stroke="black"/>
<path d="M16.26 5H7.74C6.77902 5 6 5.77902 6 6.74V9.26C6 10.221 6.77902 11 7.74 11H16.26C17.221 11 18 10.221 18 9.26V6.74C18 5.77902 17.221 5 16.26 5Z" fill="black"/>
<path d="M16.5 16.33C17.0523 16.33 17.5 15.8823 17.5 15.33C17.5 14.7777 17.0523 14.33 16.5 14.33C15.9477 14.33 15.5 14.7777 15.5 15.33C15.5 15.8823 15.9477 16.33 16.5 16.33Z" fill="black"/>
<path d="M14.4902 18.48C15.0425 18.48 15.4902 18.0323 15.4902 17.48C15.4902 16.9277 15.0425 16.48 14.4902 16.48C13.9379 16.48 13.4902 16.9277 13.4902 17.48C13.4902 18.0323 13.9379 18.48 14.4902 18.48Z" fill="black"/>
<path d="M8.06036 18.23C7.95774 18.2319 7.85586 18.2124 7.76117 18.1728C7.66648 18.1332 7.58107 18.0744 7.51036 18C7.36991 17.8594 7.29102 17.6688 7.29102 17.47C7.29102 17.2713 7.36991 17.0806 7.51036 16.94L9.78036 14.79C9.91574 14.6627 10.0945 14.5919 10.2804 14.5919C10.4662 14.5919 10.645 14.6627 10.7804 14.79C10.9208 14.9306 10.9997 15.1213 10.9997 15.32C10.9997 15.5188 10.9208 15.7094 10.7804 15.85L8.57036 18C8.50499 18.0704 8.4262 18.1271 8.33861 18.1666C8.25102 18.2061 8.15641 18.2276 8.06036 18.23Z" fill="black"/>
<path d="M10.3197 18.23C10.1299 18.2331 9.94666 18.1613 9.80965 18.03L7.53965 15.87C7.3992 15.7294 7.32031 15.5388 7.32031 15.34C7.32031 15.1413 7.3992 14.9506 7.53965 14.81C7.68028 14.6696 7.8709 14.5907 8.06965 14.5907C8.2684 14.5907 8.45903 14.6696 8.59965 14.81L10.8697 16.96C11.0101 17.1006 11.089 17.2913 11.089 17.49C11.089 17.6888 11.0101 17.8794 10.8697 18.02C10.7987 18.0929 10.7128 18.1494 10.6178 18.1856C10.5228 18.2219 10.4211 18.237 10.3197 18.23Z" fill="black"/>
</svg>
