<svg width="24" height="24" viewBox="0 0 24 24" fill="none" xmlns="http://www.w3.org/2000/svg">
<path d="M3.00677 8.77234C2.95055 7.65588 3.24589 6.55307 3.84355 5.62841L3.99924 5.40105L4.0121 5.38859L4.12019 5.26176L4.23342 5.13227L4.24628 5.11892C4.46245 4.89731 4.70177 4.7024 4.95997 4.53598L5.03288 4.48981L5.10579 4.44698L5.27735 4.34819C5.34683 4.31526 5.42232 4.2761 5.4918 4.24317C5.54241 4.22359 5.59302 4.19778 5.64363 4.1782C5.73885 4.13815 5.84007 4.09899 5.94129 4.06606C5.9756 4.04915 6.01163 4.0358 6.04851 4.0269L6.08947 4.01044L6.13429 3.99397C6.59578 3.85602 7.07015 3.76079 7.54965 3.71718L7.5 3.723V2.72836C7.5 2.32956 7.82169 2.0071 8.21955 2.0071C8.61741 2.0071 8.94 2.32956 8.94 2.72836V5.8721C8.94 6.27091 8.61741 6.59427 8.21955 6.59427C7.82169 6.59427 7.5 6.27091 7.5 5.8721L7.50005 5.14529C7.0277 5.19259 6.56389 5.31011 6.124 5.49628C4.98883 6.00696 4.44745 6.97948 4.39615 8.52069L4.39211 8.76878V9.15593H19.6085V8.75899C19.6377 8.04522 19.4945 7.335 19.1908 6.69332C18.8991 6.14419 18.4325 5.71789 17.8689 5.48649C17.51 5.33198 17.1341 5.22419 16.75 5.16538L16.5 5.135L16.5 5.86848C16.5 6.26556 16.1778 6.58719 15.78 6.58719C15.3822 6.58719 15.06 6.26556 15.06 5.86848L15.06 5.081L8.947 5.08154V3.65132L15.06 3.651L15.06 2.72413C15.0564 2.32705 15.3768 2.00273 15.7746 2.00002C16.1724 1.99734 16.4973 2.31627 16.5 2.71335L16.5006 3.71747C16.85 3.75194 17.1965 3.81289 17.5375 3.89997L17.8767 3.99575C17.9041 4.00109 17.9247 4.00821 17.9624 4.02156C18.0002 4.03491 18.0319 4.04826 18.0697 4.06072C18.17 4.09365 18.2635 4.13281 18.3605 4.17286C18.4162 4.19244 18.4677 4.21825 18.5114 4.23783C18.5869 4.27076 18.6641 4.30992 18.7259 4.34285C18.7893 4.37578 18.8503 4.41227 18.9034 4.44164C18.9566 4.47101 18.9978 4.50394 19.0424 4.53064C19.2367 4.65612 19.4213 4.79763 19.5938 4.95328L19.7621 5.11358L19.7698 5.12693L19.8874 5.25175L19.998 5.38325L20.004 5.39571C20.6509 6.29036 20.9989 7.37686 21 8.49003L20.993 8.76878V9.15593H21V16.9102C21 20.2916 19.1116 22 15.3691 22H8.62232C4.88841 22 3 20.2916 3 16.9102V9.15593H3.00677V8.77234ZM16.1159 16.2463C15.6524 16.2463 15.2833 16.6269 15.2833 17.0961C15.2918 17.5652 15.6609 17.9458 16.1159 17.9458C16.5708 17.9458 16.9399 17.5652 16.9399 17.0961C16.9399 16.6269 16.5708 16.2463 16.1159 16.2463ZM12.0043 16.2374C11.5408 16.2463 11.1717 16.6269 11.1717 17.0961C11.1717 17.5652 11.5494 17.9458 12.0043 17.9458C12.4592 17.9458 12.8283 17.5652 12.8283 17.0872C12.8197 16.6269 12.4592 16.2463 12.0043 16.2374ZM7.88412 16.2374C7.4206 16.2374 7.0515 16.6269 7.06009 17.0961C7.06009 17.5652 7.42918 17.9458 7.88412 17.9458C8.33906 17.9458 8.70815 17.5564 8.70815 17.0872C8.70815 16.6181 8.33906 16.2374 7.88412 16.2374ZM16.1159 12.617C15.6524 12.617 15.2918 12.9976 15.2918 13.4668C15.2918 13.9359 15.6609 14.3166 16.1159 14.3166C16.5708 14.3166 16.9399 13.9359 16.9399 13.4668C16.9399 12.9976 16.5708 12.617 16.1159 12.617ZM12.0043 12.6082C11.5408 12.617 11.1717 12.9976 11.1717 13.4668C11.1717 13.9359 11.5494 14.3166 12.0043 14.3166C12.4592 14.3166 12.8283 13.9359 12.8283 13.4579C12.8283 12.9976 12.4592 12.617 12.0043 12.6082ZM7.8927 12.6082C7.42918 12.6082 7.06009 12.9976 7.06009 13.4668C7.06009 13.9359 7.42918 14.3166 7.88412 14.3166C8.34764 14.3166 8.71674 13.9271 8.70815 13.4579C8.70815 12.9888 8.33906 12.6082 7.8927 12.6082Z" fill="black"/>
</svg>
