<svg width="50" height="50" viewBox="0 0 50 50" fill="none" xmlns="http://www.w3.org/2000/svg">
<g clip-path="url(#clip0_141_628)">
<path d="M25 1C31.3652 1 37.4698 3.52842 41.9707 8.0293C46.4716 12.5302 49 18.6348 49 25C49 31.3652 46.4716 37.4698 41.9707 41.9707C37.4698 46.4716 31.3652 49 25 49C18.6348 49 12.5302 46.4716 8.0293 41.9707C3.52842 37.4698 1 31.3652 1 25C1 18.6348 3.52842 12.5302 8.0293 8.0293C12.5302 3.52842 18.6348 1 25 1ZM34.375 13.0605C34.0382 13.0605 33.7047 13.127 33.3936 13.2559C33.1601 13.3526 32.9426 13.4829 32.748 13.6426L32.5615 13.8115L25 21.376L17.4385 13.8115C16.9575 13.3306 16.3051 13.0605 15.625 13.0605C14.9449 13.0605 14.2925 13.3306 13.8115 13.8115C13.3306 14.2925 13.0605 14.9449 13.0605 15.625C13.0605 16.2201 13.2677 16.7937 13.6416 17.25L13.8115 17.4385L21.376 25L13.8115 32.5615C13.5734 32.7996 13.3847 33.0825 13.2559 33.3936C13.127 33.7047 13.0605 34.0382 13.0605 34.375C13.0605 34.7118 13.127 35.0453 13.2559 35.3564C13.3847 35.6675 13.5734 35.9504 13.8115 36.1885C14.2925 36.6694 14.9449 36.9395 15.625 36.9395C15.9618 36.9395 16.2953 36.873 16.6064 36.7441C16.8399 36.6474 17.0574 36.5171 17.252 36.3574L17.4385 36.1885L25 28.623L32.5615 36.1885C32.7996 36.4266 33.0825 36.6153 33.3936 36.7441C33.7047 36.873 34.0382 36.9395 34.375 36.9395C34.7118 36.9395 35.0453 36.873 35.3564 36.7441C35.6675 36.6153 35.9504 36.4266 36.1885 36.1885C36.4266 35.9504 36.6153 35.6675 36.7441 35.3564C36.873 35.0453 36.9395 34.7118 36.9395 34.375C36.9395 34.0382 36.873 33.7047 36.7441 33.3936C36.6474 33.1601 36.5171 32.9426 36.3574 32.748L36.1885 32.5615L28.623 25L36.1885 17.4385C36.4266 17.2004 36.6153 16.9175 36.7441 16.6064C36.873 16.2953 36.9395 15.9618 36.9395 15.625C36.9395 15.2882 36.873 14.9547 36.7441 14.6436C36.6153 14.3325 36.4266 14.0496 36.1885 13.8115C35.9504 13.5734 35.6675 13.3847 35.3564 13.2559C35.0453 13.127 34.7118 13.0605 34.375 13.0605Z" fill="black" fill-opacity="0.7" stroke="black" stroke-width="2"/>
</g>
<defs>
<clipPath id="clip0_141_628">
<rect width="50" height="50" fill="white"/>
</clipPath>
</defs>
</svg>
