<svg width="42" height="42" viewBox="0 0 42 42" fill="none" xmlns="http://www.w3.org/2000/svg">
<path d="M29.505 0H12.495C5.5942 0 0 5.5942 0 12.495V29.505C0 36.4058 5.5942 42 12.495 42H29.505C36.4058 42 42 36.4058 42 29.505V12.495C42 5.5942 36.4058 0 29.505 0Z" fill="black" fill-opacity="0.2"/>
<g clip-path="url(#clip0_139_501)">
<path d="M11 22C11 21.5 11.5 21 12 21C12.5 21 13 21.5 13 22C13 22.3333 13 24 13 27C13 28.1046 13.8954 29 15 29H27C28.1046 29 29 28.1046 29 27V22C29 21.4477 29.4477 21 30 21C30.5523 21 31 21.4477 31 22V27C31 29.2091 29.2091 31 27 31H15C12.7909 31 11 29.2091 11 27C11 24 11 22.3333 11 22Z" fill="black"/>
<path d="M20 23C20 23.5523 20.4477 24 21 24C21.5523 24 22 23.5523 22 23V11C22 10.4477 21.5523 10 21 10C20.4477 10 20 10.4477 20 11V23Z" fill="black"/>
<path d="M25.2929 18.2929C25.6834 17.9024 26.3166 17.9024 26.7071 18.2929C27.0976 18.6834 27.0976 19.3166 26.7071 19.7071L21.7071 24.7071C21.331 25.0832 20.7264 25.0991 20.331 24.7433L15.331 20.2433C14.9205 19.8738 14.8872 19.2415 15.2567 18.831C15.6262 18.4205 16.2585 18.3872 16.669 18.7567L20.9638 22.622L25.2929 18.2929Z" fill="black"/>
</g>
</svg>
