<svg width="42" height="42" viewBox="0 0 42 42" fill="none" xmlns="http://www.w3.org/2000/svg">
<path d="M29.505 0H12.495C5.5942 0 0 5.5942 0 12.495V29.505C0 36.4058 5.5942 42 12.495 42H29.505C36.4058 42 42 36.4058 42 29.505V12.495C42 5.5942 36.4058 0 29.505 0Z" fill="black" fill-opacity="0.2"/>
<path d="M16.4746 33.5H32.2496C32.5811 33.5 32.8991 33.3683 33.1335 33.1339C33.3679 32.8995 33.4996 32.5815 33.4996 32.25C33.4996 31.9185 33.3679 31.6005 33.1335 31.3661C32.8991 31.1317 32.5811 31 32.2496 31H18.4996L16.4746 33.5Z" fill="black" fill-opacity="0.4"/>
<path d="M25.5245 25.525L18.312 32.7375C17.8224 33.2253 17.1594 33.4991 16.4683 33.4991C15.7772 33.4991 15.1142 33.2253 14.6245 32.7375L9.26204 27.375C9.01104 27.1315 8.8115 26.84 8.67523 26.518C8.53896 26.1959 8.46875 25.8497 8.46875 25.5C8.46875 25.1503 8.53896 24.8041 8.67523 24.4821C8.8115 24.16 9.01104 23.8685 9.26204 23.625L16.4745 16.475L25.5245 25.525Z" fill="black"/>
<path d="M16.4746 16.475L23.6871 9.2625C23.9306 9.0115 24.2221 8.81196 24.5442 8.67569C24.8662 8.53942 25.2124 8.46921 25.5621 8.46921C25.9118 8.46921 26.258 8.53942 26.5801 8.67569C26.9021 8.81196 27.1936 9.0115 27.4371 9.2625L32.7371 14.625C33.2249 15.1146 33.4987 15.7776 33.4987 16.4687C33.4987 17.1599 33.2249 17.8229 32.7371 18.3125L25.5246 25.525L16.4746 16.475Z" fill="black" fill-opacity="0.4"/>
</svg>
