<svg width="30" height="30" viewBox="0 0 30 30" fill="none" xmlns="http://www.w3.org/2000/svg">
<g clip-path="url(#clip0_142_638)">
<path d="M15 0.5C23.0067 0.5 29.5 6.99333 29.5 15C29.5 23.0067 23.0067 29.5 15 29.5C6.99333 29.5 0.5 23.0067 0.5 15C0.5 6.99333 6.99333 0.5 15 0.5ZM23.7725 5.48926L18.3936 5.50391C18.3456 5.50396 18.2978 5.50921 18.251 5.51855L18.1123 5.56055C18.0225 5.59797 17.9414 5.65348 17.873 5.72266H17.8721L16.2617 7.3584C16.1857 7.43549 16.1286 7.52861 16.0928 7.62988L16.0645 7.73438C16.0367 7.87683 16.0514 8.02434 16.1074 8.1582C16.1635 8.29213 16.2588 8.40613 16.3799 8.48633C16.5007 8.56635 16.6422 8.60978 16.7871 8.60938V8.6084L19.2129 8.60254L15 12.8154L10.7871 8.60254L13.2129 8.6084C13.3577 8.60899 13.4992 8.56704 13.6201 8.4873C13.7413 8.40727 13.8363 8.29306 13.8926 8.15918C13.9489 8.02519 13.9642 7.87705 13.9365 7.73438C13.9088 7.59183 13.8395 7.46055 13.7373 7.35742L12.1289 5.72363L12.1279 5.72266L12.0166 5.62988C11.9766 5.60293 11.9334 5.58019 11.8887 5.56152C11.7993 5.52427 11.7033 5.50491 11.6064 5.50488H11.6074L6.22656 5.49023H6.22559C6.03513 5.49017 5.85183 5.56396 5.71484 5.69629C5.70587 5.70497 5.69892 5.71553 5.69043 5.72461H5.48828L5.49023 6.22559L5.50488 11.6084V11.6094C5.50572 11.8027 5.58318 11.9881 5.71973 12.125L7.33789 13.7471V13.748C7.44042 13.852 7.57175 13.9231 7.71484 13.9521C7.85812 13.9811 8.00756 13.9671 8.14258 13.9111C8.27756 13.8551 8.39295 13.7595 8.47363 13.6377C8.53414 13.5463 8.57268 13.4426 8.58789 13.335L8.5957 13.2266L8.58301 10.7725L12.8125 15.002L8.60156 19.2119L8.60742 16.7861C8.60772 16.6777 8.58453 16.5711 8.53906 16.4736L8.48633 16.3799L8.41992 16.2939C8.37181 16.2403 8.31646 16.1936 8.25488 16.1562L8.1582 16.1074L8.05566 16.0723C7.98588 16.0544 7.91376 16.0477 7.8418 16.0508L7.7334 16.0635C7.59125 16.0911 7.46041 16.16 7.35742 16.2617L5.72266 17.8711L5.72168 17.8721C5.68726 17.9062 5.65583 17.9434 5.62891 17.9834L5.56055 18.1113C5.52342 18.2004 5.50407 18.2961 5.50391 18.3926L5.48926 23.7725C5.48887 23.8693 5.50808 23.9651 5.54492 24.0547C5.58183 24.1443 5.63557 24.2264 5.7041 24.2949C5.77265 24.3635 5.85471 24.4172 5.94434 24.4541C6.03361 24.4908 6.12905 24.51 6.22559 24.5098V24.5088L11.6084 24.4951C11.8015 24.4945 11.9871 24.4174 12.124 24.2812L13.751 22.6621L13.75 22.6611C13.853 22.5588 13.9243 22.4285 13.9531 22.2861C13.982 22.143 13.9671 21.9943 13.9111 21.8594C13.8551 21.7245 13.7604 21.609 13.6387 21.5283C13.5472 21.4678 13.4436 21.4293 13.3359 21.4141L13.2295 21.4062L10.7725 21.418L15.001 17.1904L19.2275 21.417L16.7725 21.4053C16.6633 21.4049 16.556 21.4296 16.458 21.4756L16.3633 21.5283C16.2725 21.5887 16.1964 21.6682 16.1406 21.7607L16.0918 21.8584C16.036 21.9927 16.0205 22.1405 16.0488 22.2832C16.0701 22.3903 16.1151 22.4912 16.1797 22.5781L16.251 22.6602L17.876 24.2803C18.0131 24.4168 18.199 24.4945 18.3926 24.4951L23.7744 24.5098V24.5088C23.871 24.5091 23.9664 24.4908 24.0557 24.4541C24.1453 24.4172 24.2274 24.3635 24.2959 24.2949C24.3644 24.2264 24.4182 24.1443 24.4551 24.0547C24.4919 23.9651 24.5111 23.8693 24.5107 23.7725L24.4971 18.3926C24.497 18.3446 24.4918 18.2968 24.4824 18.25L24.4404 18.1113L24.3721 17.9834C24.3451 17.9434 24.3137 17.9062 24.2793 17.8721L24.2783 17.8711L22.6406 16.2607L22.5576 16.1904C22.4997 16.1484 22.4357 16.1154 22.3682 16.0918L22.2637 16.0635L22.1562 16.0508C22.0483 16.0464 21.9401 16.0659 21.8398 16.1084C21.7064 16.1649 21.5924 16.2598 21.5127 16.3809C21.4334 16.5013 21.3912 16.6429 21.3916 16.7871V16.7881L21.3975 19.2119L17.1885 15.0029L21.418 10.7725L21.4072 13.2295V13.2314C21.4073 13.3767 21.4505 13.5189 21.5312 13.6396C21.612 13.7604 21.727 13.8546 21.8613 13.9102C21.9956 13.9657 22.1437 13.9797 22.2861 13.9512C22.4285 13.9226 22.5596 13.8528 22.6621 13.75L24.2803 12.125C24.4168 11.9881 24.4943 11.8027 24.4951 11.6094V11.6084L24.5107 6.22559L24.5098 6.22461C24.5099 6.12822 24.4918 6.0325 24.4551 5.94336C24.4365 5.89844 24.4136 5.85563 24.3867 5.81543L24.2949 5.7041L24.1826 5.6123C24.1425 5.58561 24.0995 5.56233 24.0547 5.54395C23.9651 5.50728 23.8692 5.48874 23.7725 5.48926Z" fill="black" fill-opacity="0.2" stroke="black"/>
</g>
<defs>
<clipPath id="clip0_142_638">
<rect width="30" height="30" fill="white"/>
</clipPath>
</defs>
</svg>
