<svg xmlns="http://www.w3.org/2000/svg" width="48" height="48" id="expand">
  <path fill="none" stroke="#000" stroke-linecap="round" stroke-linejoin="round" stroke-width="1.5" d="m5.28 5.278.03 11.483 3.459 3.466-.043-9.047L21.55 24.004 8.775 36.781l.022-8.971-3.488 3.433-.03 11.479 11.482-.032 3.468-3.454-9.047.043 12.822-12.82 12.818 12.818-9.047-.043 3.466 3.456 11.48.032-.028-11.479-3.49-3.433.024 8.972-12.773-12.774 12.824-12.825-.043 9.046 3.454-3.468.033-11.483-11.48.031L27.81 8.8l8.972-.023L24 21.555 11.22 8.775l8.973.023-3.434-3.488L5.28 5.279z"></path>
</svg>
