<svg width="42" height="42" viewBox="0 0 42 42" fill="none" xmlns="http://www.w3.org/2000/svg">
<path d="M29.505 0H12.495C5.5942 0 0 5.5942 0 12.495V29.505C0 36.4058 5.5942 42 12.495 42H29.505C36.4058 42 42 36.4058 42 29.505V12.495C42 5.5942 36.4058 0 29.505 0Z" fill="black" fill-opacity="0.2"/>
<g clip-path="url(#clip0_141_619)">
<path d="M19.9 11C20.4523 11 20.9 11.4477 20.9 12C20.9 12.5523 20.4523 13 19.9 13H15C13.8954 13 13 13.8954 13 15V27C13 28.1046 13.8954 29 15 29H27C28.1046 29 29 28.1046 29 27V25C29 24.4477 29.4477 24 30 24C30.5523 24 31 24.4477 31 25V27C31 29.2091 29.2091 31 27 31H15C12.7909 31 11 29.2091 11 27V15C11 12.7909 12.7909 11 15 11H19.9Z" fill="black" fill-opacity="0.5"/>
<path d="M16.0042 22.8973C16.0042 22.1346 15.8407 19.1246 18.2152 16.7366C19.8132 15.1294 22.2049 14.8507 25.0651 14.7235V10.8379C25.0651 10.4237 25.4009 10.0879 25.8151 10.0879C26.0014 10.0879 26.181 10.1572 26.319 10.2824L32.8272 16.1868C33.134 16.4651 33.157 16.9394 32.8787 17.2462C32.8641 17.2623 32.8488 17.2778 32.8328 17.2925L26.3247 23.3198C26.0208 23.6012 25.5463 23.583 25.2648 23.2791C25.1364 23.1405 25.0651 22.9585 25.0651 22.7695V18.9076C23.2491 18.9575 21.9555 19.073 20.7802 19.4469C19.0954 19.983 17.7916 21.4994 16.869 23.9963C16.7602 24.2908 16.4794 24.4863 16.1655 24.4863H15.9996C15.9996 24.0278 16.0042 23.3014 16.0042 22.8973Z" fill="black"/>
</g>
</svg>
