<svg width="50" height="50" viewBox="0 0 50 50" fill="none" xmlns="http://www.w3.org/2000/svg">
<path d="M37.1458 21.6667C36.723 21.6337 36.3022 21.7519 35.9583 22V14.3542H13.9374V22C13.5935 21.7519 13.1727 21.6337 12.7499 21.6667C11.4374 21.7917 10.5208 23.4792 10.6666 25.4167C10.8124 27.3542 12.1041 28.8542 13.4166 28.7083C13.5813 28.6891 13.7426 28.647 13.8958 28.5833V29.8125C13.8847 30.8796 14.1107 31.9359 14.5574 32.905C15.0042 33.8742 15.6605 34.732 16.4791 35.4167L21.6041 39.5833C22.5523 40.3798 23.7432 40.8301 24.9811 40.8604C26.2191 40.8907 27.4306 40.4991 28.4166 39.75L33.1874 36.2292C34.0695 35.5425 34.7792 34.6596 35.2602 33.6506C35.7412 32.6416 35.9802 31.5343 35.9583 30.4167V28.5625C36.1114 28.6261 36.2727 28.6682 36.4374 28.6875C37.7499 28.8333 38.9791 27.3542 39.1874 25.3958C39.3958 23.4375 38.4583 21.7917 37.1458 21.6667Z" fill="black" fill-opacity="0.3"/>
<path d="M18.7499 14.9375C17.0541 16.0394 15.7158 17.6112 14.8982 19.4609C14.0806 21.3106 13.8192 23.3584 14.1458 25.3542C14.1458 25.3542 7.12493 10.7708 19.7708 9.75C21.3298 8.665 23.1103 7.93961 24.9837 7.62617C26.8571 7.31273 28.7768 7.41907 30.6041 7.9375C32.2798 8.52399 33.7939 9.49662 35.0239 10.7767C36.254 12.0569 37.1655 13.6085 37.6848 15.3062C38.204 17.0039 38.3164 18.8 38.0129 20.5492C37.7093 22.2983 36.9983 23.9515 35.9374 25.375C35.9374 25.375 35.9374 19.0208 28.3749 19.5625C26.5141 19.6418 24.6624 19.2613 22.9836 18.4546C21.3048 17.648 19.8507 16.44 18.7499 14.9375Z" fill="black"/>
<path d="M43.542 47.1667H37.292C36.8776 47.1667 36.4802 47.0021 36.1871 46.709C35.8941 46.416 35.7295 46.0186 35.7295 45.6042C35.7295 45.1898 35.8941 44.7923 36.1871 44.4993C36.4802 44.2063 36.8776 44.0417 37.292 44.0417H43.542C43.7926 44.0417 44.0332 43.9436 44.2124 43.7684C44.3915 43.5932 44.4949 43.3547 44.5003 43.1042V36.1458C44.5003 35.7314 44.6649 35.334 44.958 35.041C45.251 34.748 45.6484 34.5833 46.0628 34.5833C46.4772 34.5833 46.8747 34.748 47.1677 35.041C47.4607 35.334 47.6253 35.7314 47.6253 36.1458V43.1042C47.5987 44.1768 47.1593 45.1979 46.3987 45.9546C45.638 46.7114 44.6148 47.1455 43.542 47.1667Z" fill="black"/>
<path d="M12.9167 47.1667H6.66667C5.57941 47.167 4.53509 46.7424 3.75661 45.9833C2.97814 45.2243 2.52718 44.1911 2.5 43.1042V36.1458C2.5 35.7314 2.66462 35.334 2.95765 35.041C3.25067 34.748 3.6481 34.5833 4.0625 34.5833C4.4769 34.5833 4.87433 34.748 5.16735 35.041C5.46038 35.334 5.625 35.7314 5.625 36.1458V43.1042C5.63045 43.3547 5.73381 43.5932 5.91295 43.7684C6.09209 43.9436 6.33274 44.0417 6.58333 44.0417H12.8333C13.2477 44.0417 13.6452 44.2063 13.9382 44.4993C14.2312 44.7923 14.3958 45.1898 14.3958 45.6042C14.3958 46.0186 14.2312 46.416 13.9382 46.709C13.6452 47.0021 13.2477 47.1667 12.8333 47.1667H12.9167Z" fill="black"/>
<path d="M46.0628 15.1875C45.6484 15.1875 45.251 15.0229 44.958 14.7299C44.6649 14.4368 44.5003 14.0394 44.5003 13.625V6.66667C44.4949 6.41613 44.3915 6.1777 44.2124 6.00246C44.0332 5.82721 43.7926 5.72911 43.542 5.72917H37.292C36.8776 5.72917 36.4802 5.56455 36.1871 5.27153C35.8941 4.9785 35.7295 4.58107 35.7295 4.16667C35.7295 3.75227 35.8941 3.35484 36.1871 3.06182C36.4802 2.76879 36.8776 2.60417 37.292 2.60417H43.542C44.6471 2.60417 45.7069 3.04316 46.4883 3.82456C47.2697 4.60596 47.7087 5.66577 47.7087 6.77084V13.625C47.706 13.8365 47.6611 14.0454 47.5764 14.2393C47.4917 14.4331 47.369 14.608 47.2156 14.7537C47.0622 14.8993 46.8811 15.0128 46.6831 15.0873C46.4851 15.1618 46.2742 15.1959 46.0628 15.1875Z" fill="black"/>
<path d="M4.16699 15.1875C3.75427 15.1821 3.35997 15.0158 3.0681 14.7239C2.77624 14.432 2.60989 14.0377 2.60449 13.625V6.66667C2.63167 5.57976 3.08263 4.54652 3.86111 3.7875C4.63958 3.02849 5.6839 2.60383 6.77116 2.60417H13.0212C13.4356 2.60417 13.833 2.76879 14.126 3.06182C14.419 3.35484 14.5837 3.75227 14.5837 4.16667C14.5837 4.58107 14.419 4.9785 14.126 5.27153C13.833 5.56455 13.4356 5.72917 13.0212 5.72917H6.77116C6.52056 5.72911 6.27991 5.82721 6.10078 6.00246C5.92164 6.1777 5.81827 6.41613 5.81283 6.66667V13.625C5.81021 13.8365 5.76523 14.0454 5.68054 14.2393C5.59585 14.4331 5.47317 14.608 5.31975 14.7537C5.16633 14.8993 4.98528 15.0128 4.78728 15.0873C4.58929 15.1618 4.37838 15.1959 4.16699 15.1875Z" fill="black"/>
</svg>
