<svg width="50" height="50" viewBox="0 0 50 50" fill="none" xmlns="http://www.w3.org/2000/svg">
<path d="M25.5204 43.2083C25.1389 43.1987 24.7689 43.0754 24.4579 42.8542C24.0795 42.5648 23.8301 42.1381 23.7638 41.6664C23.6976 41.1946 23.8197 40.7157 24.1038 40.3333C25.7023 38.1874 26.8374 35.7328 27.4371 33.125C27.5587 32.6726 27.8526 32.2858 28.2558 32.0475C28.6591 31.8092 29.1397 31.7383 29.5946 31.8499C30.0495 31.9616 30.4426 32.247 30.6896 32.645C30.9367 33.043 31.018 33.5219 30.9163 33.9792C30.1894 37.0525 28.8425 39.945 26.9579 42.4792C26.7943 42.707 26.5783 42.8922 26.3281 43.0191C26.078 43.146 25.8009 43.2109 25.5204 43.2083ZM20.3746 39.25C22.9821 36.2761 24.4186 32.4551 24.4163 28.5V19.5C24.3892 19.2499 24.4151 18.9969 24.4922 18.7575C24.5694 18.518 24.6961 18.2975 24.8642 18.1103C25.0322 17.9231 25.2378 17.7734 25.4675 17.6709C25.6972 17.5684 25.946 17.5154 26.1975 17.5154C26.4491 17.5154 26.6978 17.5684 26.9276 17.6709C27.1573 17.7734 27.3629 17.9231 27.5309 18.1103C27.6989 18.2975 27.8256 18.518 27.9028 18.7575C27.98 18.9969 28.0059 19.2499 27.9788 19.5V27.2708C27.9517 27.5209 27.9776 27.7739 28.0547 28.0134C28.1319 28.2528 28.2586 28.4733 28.4267 28.6605C28.5947 28.8477 28.8003 28.9974 29.03 29.0999C29.2597 29.2024 29.5085 29.2554 29.76 29.2554C30.0116 29.2554 30.2603 29.2024 30.4901 29.0999C30.7198 28.9974 30.9254 28.8477 31.0934 28.6605C31.2614 28.4733 31.3881 28.2528 31.4653 28.0134C31.5425 27.7739 31.5684 27.5209 31.5413 27.2708V19.5C31.5869 18.7702 31.4825 18.0388 31.2346 17.3508C30.9866 16.6629 30.6004 16.0331 30.0997 15.5001C29.599 14.9672 28.9945 14.5425 28.3234 14.2521C27.6522 13.9618 26.9288 13.812 26.1975 13.812C25.4663 13.812 24.7428 13.9618 24.0717 14.2521C23.4005 14.5425 22.796 14.9672 22.2953 15.5001C21.7946 16.0331 21.4084 16.6629 21.1605 17.3508C20.9126 18.0388 20.8082 18.7702 20.8538 19.5V28.5C20.8505 31.5674 19.7325 34.529 17.7079 36.8333C17.3984 37.1934 17.2406 37.6595 17.2678 38.1336C17.295 38.6077 17.505 39.0527 17.8538 39.375C18.028 39.5328 18.2318 39.6543 18.4535 39.7324C18.6751 39.8106 18.9101 39.8439 19.1447 39.8303C19.3794 39.8167 19.609 39.7566 19.8201 39.6534C20.0313 39.5502 20.2198 39.406 20.3746 39.2292V39.25ZM15.5204 33.9792C15.9994 33.9525 16.45 33.7433 16.7794 33.3945C17.1088 33.0457 17.292 32.5839 17.2913 32.1042V19.5C17.2883 18.4261 17.4788 17.3605 17.8538 16.3542C18.0171 15.9091 17.9995 15.4177 17.8048 14.9854C17.6101 14.5531 17.2537 14.2143 16.8121 14.0417C16.5933 13.9583 16.3602 13.9192 16.1263 13.9265C15.8923 13.9339 15.6621 13.9875 15.449 14.0844C15.2358 14.1813 15.044 14.3194 14.8847 14.4909C14.7253 14.6624 14.6015 14.8637 14.5204 15.0833C13.9873 16.4944 13.719 17.9916 13.7288 19.5V32.2708C13.7315 32.4997 13.7796 32.7258 13.8703 32.9359C13.961 33.146 14.0925 33.3361 14.2573 33.495C14.422 33.6539 14.6166 33.7785 14.8299 33.8616C15.0432 33.9447 15.2708 33.9847 15.4996 33.9792H15.5204ZM20.8329 12.2917C21.7149 11.618 22.7198 11.1226 23.7913 10.8333C24.2381 10.6847 24.6116 10.3716 24.836 9.95758C25.0604 9.54358 25.1189 9.05971 24.9996 8.60417C24.8729 8.17218 24.5882 7.80373 24.2022 7.57211C23.8161 7.34049 23.3571 7.26268 22.9163 7.35417C21.4119 7.7886 19.9998 8.49468 18.7496 9.4375C18.3756 9.73004 18.1298 10.1563 18.0637 10.6264C17.9976 11.0966 18.1166 11.5741 18.3954 11.9583C18.5614 12.1837 18.7779 12.3671 19.0276 12.4937C19.2772 12.6203 19.553 12.6867 19.8329 12.6875C20.1981 12.6573 20.546 12.5195 20.8329 12.2917ZM37.1871 37.8958C38.1525 34.8573 38.6444 31.6882 38.6454 28.5V19.5C38.6728 16.8927 37.8842 14.342 36.3899 12.2052C34.8956 10.0684 32.7705 8.45235 30.3121 7.58333C29.8617 7.43697 29.3718 7.47275 28.9474 7.683C28.523 7.89326 28.1977 8.26129 28.0413 8.70833C27.8942 9.16162 27.9293 9.65437 28.1394 10.0822C28.3494 10.5099 28.7177 10.8391 29.1663 11C30.929 11.6151 32.4561 12.7643 33.5352 14.2877C34.6143 15.8112 35.1917 17.6331 35.1871 19.5V28.5C35.1943 31.3282 34.7585 34.14 33.8954 36.8333C33.8206 37.0576 33.791 37.2945 33.8081 37.5303C33.8253 37.7662 33.889 37.9963 33.9955 38.2074C34.102 38.4184 34.2492 38.6064 34.4287 38.7603C34.6082 38.9142 34.8164 39.0311 35.0413 39.1042C35.2207 39.133 35.4035 39.133 35.5829 39.1042C35.9477 39.0943 36.3007 38.9733 36.5948 38.7574C36.8889 38.5415 37.1101 38.2409 37.2288 37.8958H37.1871Z" fill="black"/>
<path d="M43.3333 47.3958H37.1875C36.7731 47.3958 36.3757 47.2312 36.0826 46.9382C35.7896 46.6452 35.625 46.2477 35.625 45.8333C35.625 45.4189 35.7896 45.0215 36.0826 44.7285C36.3757 44.4355 36.7731 44.2708 37.1875 44.2708H43.3333C43.5839 44.2654 43.8223 44.162 43.9975 43.9829C44.1728 43.8037 44.2709 43.5631 44.2708 43.3125V36.3333C44.2708 35.9189 44.4355 35.5215 44.7285 35.2285C45.0215 34.9355 45.4189 34.7708 45.8333 34.7708C46.2477 34.7708 46.6452 34.9355 46.9382 35.2285C47.2312 35.5215 47.3958 35.9189 47.3958 36.3333V43.3125C47.3747 44.3853 46.9405 45.4085 46.1838 46.1692C45.427 46.9298 44.406 47.3692 43.3333 47.3958Z" fill="black" fill-opacity="0.3"/>
<path d="M13.0833 47.3958H6.9375C5.85058 47.3687 4.81735 46.9177 4.05833 46.1392C3.29932 45.3607 2.87466 44.3164 2.875 43.2292V36.3333C2.875 35.9189 3.03962 35.5215 3.33265 35.2285C3.62567 34.9355 4.0231 34.7708 4.4375 34.7708C4.8519 34.7708 5.24933 34.9355 5.54235 35.2285C5.83538 35.5215 6 35.9189 6 36.3333V43.3125C5.99994 43.5631 6.09804 43.8037 6.27328 43.9829C6.44853 44.162 6.68696 44.2654 6.9375 44.2708H13.1875C13.6019 44.2708 13.9993 44.4355 14.2924 44.7285C14.5854 45.0215 14.75 45.4189 14.75 45.8333C14.75 46.2477 14.5854 46.6452 14.2924 46.9382C13.9993 47.2312 13.6019 47.3958 13.1875 47.3958H13.0833Z" fill="black" fill-opacity="0.3"/>
<path d="M45.8333 15.2708C45.4206 15.2654 45.0263 15.0991 44.7344 14.8072C44.4426 14.5154 44.2762 14.1211 44.2708 13.7083V6.70833C44.2708 6.45969 44.1721 6.22123 43.9962 6.04542C43.8204 5.8696 43.582 5.77083 43.3333 5.77083H37.1875C36.7731 5.77083 36.3757 5.60621 36.0826 5.31319C35.7896 5.02016 35.625 4.62273 35.625 4.20833C35.625 3.79393 35.7896 3.3965 36.0826 3.10348C36.3757 2.81045 36.7731 2.64583 37.1875 2.64583H43.3333C44.4202 2.67301 45.4535 3.12397 46.2125 3.90245C46.9715 4.68092 47.3962 5.72524 47.3958 6.8125V13.7083C47.3904 14.1211 47.2241 14.5154 46.9322 14.8072C46.6404 15.0991 46.2461 15.2654 45.8333 15.2708Z" fill="black" fill-opacity="0.3"/>
<path d="M4.4375 15.2708C4.02478 15.2654 3.63048 15.0991 3.33861 14.8072C3.04675 14.5154 2.8804 14.1211 2.875 13.7083V6.70833C2.90218 5.62142 3.35314 4.58818 4.13161 3.82916C4.91009 3.07015 5.95441 2.64549 7.04167 2.64583H13.2917C13.7061 2.64583 14.1035 2.81045 14.3965 3.10348C14.6895 3.3965 14.8542 3.79393 14.8542 4.20833C14.8542 4.62273 14.6895 5.02016 14.3965 5.31319C14.1035 5.60621 13.7061 5.77083 13.2917 5.77083H6.9375C6.81439 5.77083 6.69248 5.79508 6.57873 5.8422C6.46499 5.88931 6.36164 5.95836 6.27459 6.04542C6.18753 6.13247 6.11848 6.23582 6.07136 6.34957C6.02425 6.46331 6 6.58522 6 6.70833V13.7083C6 14.1227 5.83538 14.5202 5.54235 14.8132C5.24933 15.1062 4.8519 15.2708 4.4375 15.2708Z" fill="black" fill-opacity="0.3"/>
</svg>
