<svg width="38" height="38" viewBox="0 0 38 38" fill="none" xmlns="http://www.w3.org/2000/svg">
<g clip-path="url(#clip0_136_420)">
<path d="M20.288 36.022H9.777C5.344 36.022 1.75 32.428 1.75 27.995V10.777C1.75 6.344 5.344 2.75 9.777 2.75H20.289C24.722 2.75 28.316 6.344 28.316 10.777V27.996C28.315 32.429 24.721 36.022 20.288 36.022Z" fill="black" fill-opacity="0.2" stroke="black" stroke-miterlimit="10" stroke-linecap="round" stroke-linejoin="round"/>
<path d="M28.3154 15.613V19.386" stroke="black" stroke-miterlimit="10" stroke-linecap="round" stroke-linejoin="round"/>
<path d="M9.78223 10.636H15.0322" stroke="black" stroke-miterlimit="10" stroke-linecap="round" stroke-linejoin="round"/>
<path d="M9.78223 19.386H15.0322" stroke="black" stroke-miterlimit="10" stroke-linecap="round" stroke-linejoin="round"/>
<path d="M9.78223 28.136H15.0322" stroke="black" stroke-miterlimit="10" stroke-linecap="round" stroke-linejoin="round"/>
<g clip-path="url(#clip1_136_420)">
<path d="M36 19.5C36 21.2239 35.3152 22.8772 34.0962 24.0962C32.8772 25.3152 31.2239 26 29.5 26C27.7761 26 26.1228 25.3152 24.9038 24.0962C23.6848 22.8772 23 21.2239 23 19.5C23 17.7761 23.6848 16.1228 24.9038 14.9038C26.1228 13.6848 27.7761 13 29.5 13C31.2239 13 32.8772 13.6848 34.0962 14.9038C35.3152 16.1228 36 17.7761 36 19.5ZM29.5 15.8438C29.5 15.736 29.4572 15.6327 29.381 15.5565C29.3048 15.4803 29.2015 15.4375 29.0938 15.4375C28.986 15.4375 28.8827 15.4803 28.8065 15.5565C28.7303 15.6327 28.6875 15.736 28.6875 15.8438V20.3125C28.6875 20.3841 28.7065 20.4544 28.7424 20.5164C28.7784 20.5783 28.8301 20.6296 28.8922 20.6651L31.736 22.2901C31.8293 22.3406 31.9387 22.3525 32.0407 22.3234C32.1427 22.2943 32.2292 22.2264 32.2819 22.1343C32.3345 22.0422 32.349 21.9331 32.3223 21.8305C32.2956 21.7278 32.2298 21.6397 32.139 21.5849L29.5 20.0769V15.8438Z" fill="black"/>
</g>
</g>
</svg>
