<svg width="42" height="42" viewBox="0 0 42 42" fill="none" xmlns="http://www.w3.org/2000/svg">
<path d="M29.505 0H12.495C5.5942 0 0 5.5942 0 12.495V29.505C0 36.4058 5.5942 42 12.495 42H29.505C36.4058 42 42 36.4058 42 29.505V12.495C42 5.5942 36.4058 0 29.505 0Z" fill="black" fill-opacity="0.2"/>
<g clip-path="url(#clip0_137_427)">
<path d="M23.1237 9.07202H15.1207C14.3187 9.07202 13.5495 9.39062 12.9824 9.95773C12.4153 10.5248 12.0967 11.294 12.0967 12.096V30.24C12.0967 31.042 12.4153 31.8112 12.9824 32.3783C13.5495 32.9454 14.3187 33.264 15.1207 33.264H27.2167C28.0187 33.264 28.7879 32.9454 29.355 32.3783C29.9221 31.8112 30.2407 31.042 30.2407 30.24V16.189C30.2406 15.788 30.0812 15.4035 29.7977 15.12L24.1927 9.51504C23.9092 9.23146 23.5247 9.07211 23.1237 9.07202ZM23.4367 14.364V11.34L27.9727 15.876H24.9487C24.5477 15.876 24.1631 15.7167 23.8795 15.4332C23.596 15.1496 23.4367 14.765 23.4367 14.364ZM18.6799 23.9713C18.6096 24.0416 18.5262 24.0973 18.4344 24.1354C18.3425 24.1734 18.2441 24.193 18.1447 24.193C18.0453 24.193 17.9468 24.1734 17.855 24.1354C17.7632 24.0973 17.6797 24.0416 17.6094 23.9713C17.5391 23.901 17.4834 23.8175 17.4453 23.7257C17.4073 23.6339 17.3877 23.5354 17.3877 23.436C17.3877 23.3366 17.4073 23.2382 17.4453 23.1463C17.4834 23.0545 17.5391 22.9711 17.6094 22.9008L20.6334 19.8768C20.7037 19.8064 20.7871 19.7505 20.8789 19.7124C20.9708 19.6743 21.0692 19.6547 21.1687 19.6547C21.2681 19.6547 21.3666 19.6743 21.4584 19.7124C21.5503 19.7505 21.6337 19.8064 21.7039 19.8768L24.7279 22.9008C24.7982 22.9711 24.854 23.0545 24.892 23.1463C24.9301 23.2382 24.9496 23.3366 24.9496 23.436C24.9496 23.5354 24.9301 23.6339 24.892 23.7257C24.854 23.8175 24.7982 23.901 24.7279 23.9713C24.6576 24.0416 24.5742 24.0973 24.4824 24.1354C24.3905 24.1734 24.2921 24.193 24.1927 24.193C24.0933 24.193 23.9948 24.1734 23.903 24.1354C23.8112 24.0973 23.7277 24.0416 23.6574 23.9713L21.9247 22.237V27.972C21.9247 28.1725 21.845 28.3648 21.7033 28.5066C21.5615 28.6484 21.3692 28.728 21.1687 28.728C20.9682 28.728 20.7759 28.6484 20.6341 28.5066C20.4923 28.3648 20.4127 28.1725 20.4127 27.972V22.237L18.6799 23.9713Z" fill="black"/>
</g>
</svg>
