<svg width="50" height="50" viewBox="0 0 50 50" fill="none" xmlns="http://www.w3.org/2000/svg">
<path d="M33.4378 4.16666H16.5628C9.7168 4.16666 4.16699 9.71646 4.16699 16.5625V33.4375C4.16699 40.2835 9.7168 45.8333 16.5628 45.8333H33.4378C40.2839 45.8333 45.8337 40.2835 45.8337 33.4375V16.5625C45.8337 9.71646 40.2839 4.16666 33.4378 4.16666Z" fill="black" fill-opacity="0.2"/>
<path d="M37.3337 18.0625H12.667C12.2526 18.0625 11.8552 17.8979 11.5621 17.6049C11.2691 17.3118 11.1045 16.9144 11.1045 16.5C11.1045 16.0856 11.2691 15.6882 11.5621 15.3951C11.8552 15.1021 12.2526 14.9375 12.667 14.9375H37.3337C37.7481 14.9375 38.1455 15.1021 38.4385 15.3951C38.7315 15.6882 38.8962 16.0856 38.8962 16.5C38.8962 16.9144 38.7315 17.3118 38.4385 17.6049C38.1455 17.8979 37.7481 18.0625 37.3337 18.0625Z" fill="black"/>
<path d="M37.3337 26.3958H12.667C12.2526 26.3958 11.8552 26.2312 11.5621 25.9382C11.2691 25.6451 11.1045 25.2477 11.1045 24.8333C11.1045 24.4189 11.2691 24.0215 11.5621 23.7285C11.8552 23.4354 12.2526 23.2708 12.667 23.2708H37.3337C37.7481 23.2708 38.1455 23.4354 38.4385 23.7285C38.7315 24.0215 38.8962 24.4189 38.8962 24.8333C38.8962 25.2477 38.7315 25.6451 38.4385 25.9382C38.1455 26.2312 37.7481 26.3958 37.3337 26.3958Z" fill="black"/>
<path d="M37.3337 34.8333H12.667C12.2526 34.8333 11.8552 34.6687 11.5621 34.3757C11.2691 34.0826 11.1045 33.6852 11.1045 33.2708C11.1045 32.8564 11.2691 32.459 11.5621 32.166C11.8552 31.8729 12.2526 31.7083 12.667 31.7083H37.3337C37.7481 31.7083 38.1455 31.8729 38.4385 32.166C38.7315 32.459 38.8962 32.8564 38.8962 33.2708C38.8962 33.6852 38.7315 34.0826 38.4385 34.3757C38.1455 34.6687 37.7481 34.8333 37.3337 34.8333Z" fill="black"/>
</svg>
