<svg width="50" height="50" viewBox="0 0 50 50" fill="none" xmlns="http://www.w3.org/2000/svg">
<g clip-path="url(#clip0_141_630)">
<path d="M25 1C31.3652 1 37.4698 3.52842 41.9707 8.0293C46.4716 12.5302 49 18.6348 49 25C49 31.3652 46.4716 37.4698 41.9707 41.9707C37.4698 46.4716 31.3652 49 25 49C18.6348 49 12.5302 46.4716 8.0293 41.9707C3.52842 37.4698 1 31.3652 1 25C1 18.6348 3.52842 12.5302 8.0293 8.0293C12.5302 3.52842 18.6348 1 25 1ZM14.0625 22.4375C13.3829 22.4375 12.7315 22.7079 12.251 23.1885C11.7704 23.669 11.5 24.3204 11.5 25L11.5127 25.2529C11.5709 25.8397 11.8304 26.391 12.251 26.8115C12.7315 27.2921 13.3829 27.5625 14.0625 27.5625H35.9375C36.6171 27.5625 37.2685 27.2921 37.749 26.8115C38.2296 26.331 38.5 25.6796 38.5 25C38.5 24.3204 38.2296 23.669 37.749 23.1885C37.2685 22.7079 36.6171 22.4375 35.9375 22.4375H14.0625Z" fill="black" fill-opacity="0.2" stroke="black" stroke-width="2"/>
</g>
<defs>
<clipPath id="clip0_141_630">
<rect width="50" height="50" fill="white"/>
</clipPath>
</defs>
</svg>
