<svg width="50" height="50" viewBox="0 0 50 50" fill="none" xmlns="http://www.w3.org/2000/svg">
<path d="M35.1046 4.16667H12.0421C9.94056 4.18319 7.93134 5.03247 6.45508 6.52826C4.97881 8.02406 4.15601 10.0443 4.1671 12.1458V26.7292C4.15601 28.8307 4.97881 30.851 6.45508 32.3467C7.93134 33.8425 9.94056 34.6918 12.0421 34.7083H21.2921V40.1875H15.1671C14.7527 40.1875 14.3553 40.3521 14.0622 40.6452C13.7692 40.9382 13.6046 41.3356 13.6046 41.75C13.6046 42.1644 13.7692 42.5618 14.0622 42.8549C14.3553 43.1479 14.7527 43.3125 15.1671 43.3125H31.9796C32.394 43.3125 32.7914 43.1479 33.0845 42.8549C33.3775 42.5618 33.5421 42.1644 33.5421 41.75C33.5421 41.3356 33.3775 40.9382 33.0845 40.6452C32.7914 40.3521 32.394 40.1875 31.9796 40.1875H25.8546V34.6458H35.1046C37.2025 34.6238 39.2064 33.7721 40.6782 32.277C42.1499 30.7818 42.9699 28.7647 42.9588 26.6667V12.0833C42.9534 9.99615 42.1262 7.99507 40.6562 6.51336C39.1861 5.03166 37.1917 4.18858 35.1046 4.16667Z" fill="black" fill-opacity="0.3"/>
<path d="M41.8131 19.7917H29.3132C28.2299 19.8242 27.2019 20.2775 26.4474 21.0554C25.6928 21.8333 25.271 22.8746 25.2715 23.9583V41.6667C25.271 42.7504 25.6928 43.7917 26.4474 44.5696C27.2019 45.3475 28.2299 45.8008 29.3132 45.8333H41.8131C42.8927 45.7955 43.9155 45.3399 44.6656 44.5626C45.4157 43.7852 45.8346 42.7469 45.834 41.6667V23.8958C45.8186 22.8264 45.3926 21.8039 44.6441 21.0399C43.8956 20.2759 42.882 19.829 41.8131 19.7917ZM35.5631 42.3542C35.1032 42.3624 34.6513 42.2333 34.2651 41.9834C33.8789 41.7335 33.576 41.374 33.3952 40.951C33.2144 40.528 33.1638 40.0607 33.25 39.6089C33.3362 39.157 33.5552 38.7411 33.8789 38.4143C34.2027 38.0876 34.6166 37.8648 35.0677 37.7745C35.5187 37.6842 35.9865 37.7305 36.4111 37.9075C36.8357 38.0844 37.1979 38.384 37.4514 38.7679C37.7048 39.1518 37.8381 39.6025 37.834 40.0625C37.8367 40.3625 37.78 40.66 37.6671 40.9379C37.5543 41.2158 37.3874 41.4686 37.1763 41.6817C36.9651 41.8948 36.7139 42.0639 36.437 42.1793C36.1601 42.2948 35.8631 42.3542 35.5631 42.3542Z" fill="black"/>
</svg>
