<svg width="42" height="42" viewBox="0 0 42 42" fill="none" xmlns="http://www.w3.org/2000/svg">
<path d="M29.505 0H12.495C5.5942 0 0 5.5942 0 12.495V29.505C0 36.4058 5.5942 42 12.495 42H29.505C36.4058 42 42 36.4058 42 29.505V12.495C42 5.5942 36.4058 0 29.505 0Z" fill="black" fill-opacity="0.2"/>
<g clip-path="url(#clip0_144_657)">
<path fill-rule="evenodd" clip-rule="evenodd" d="M15.1663 19.8333H24.4997C25.7883 19.8333 26.833 18.7887 26.833 17.5V16.3333H29.1663V17.5C29.1663 20.0773 27.077 22.1667 24.4997 22.1667H15.1663V24.5C15.1663 25.1443 14.644 25.6667 13.9997 25.6667C13.3553 25.6667 12.833 25.1443 12.833 24.5V17.5C12.833 16.8557 13.3553 16.3333 13.9997 16.3333C14.644 16.3333 15.1663 16.8557 15.1663 17.5V19.8333Z" fill="black" fill-opacity="0.3"/>
<path d="M13.9997 31.5C15.2883 31.5 16.333 30.4553 16.333 29.1667C16.333 27.878 15.2883 26.8333 13.9997 26.8333C12.711 26.8333 11.6663 27.878 11.6663 29.1667C11.6663 30.4553 12.711 31.5 13.9997 31.5ZM13.9997 33.8333C11.4223 33.8333 9.33301 31.744 9.33301 29.1667C9.33301 26.5893 11.4223 24.5 13.9997 24.5C16.577 24.5 18.6663 26.5893 18.6663 29.1667C18.6663 31.744 16.577 33.8333 13.9997 33.8333Z" fill="black"/>
<path d="M27.9997 15.1667C29.2883 15.1667 30.333 14.122 30.333 12.8333C30.333 11.5447 29.2883 10.5 27.9997 10.5C26.711 10.5 25.6663 11.5447 25.6663 12.8333C25.6663 14.122 26.711 15.1667 27.9997 15.1667ZM27.9997 17.5C25.4223 17.5 23.333 15.4107 23.333 12.8333C23.333 10.256 25.4223 8.16666 27.9997 8.16666C30.577 8.16666 32.6663 10.256 32.6663 12.8333C32.6663 15.4107 30.577 17.5 27.9997 17.5Z" fill="black"/>
<path d="M13.9997 15.1667C15.2883 15.1667 16.333 14.122 16.333 12.8333C16.333 11.5447 15.2883 10.5 13.9997 10.5C12.711 10.5 11.6663 11.5447 11.6663 12.8333C11.6663 14.122 12.711 15.1667 13.9997 15.1667ZM13.9997 17.5C11.4223 17.5 9.33301 15.4107 9.33301 12.8333C9.33301 10.256 11.4223 8.16666 13.9997 8.16666C16.577 8.16666 18.6663 10.256 18.6663 12.8333C18.6663 15.4107 16.577 17.5 13.9997 17.5Z" fill="black"/>
</g>
</svg>
