<svg width="42" height="42" viewBox="0 0 42 42" fill="none" xmlns="http://www.w3.org/2000/svg">
<path d="M29.505 0H12.495C5.5942 0 0 5.5942 0 12.495V29.505C0 36.4058 5.5942 42 12.495 42H29.505C36.4058 42 42 36.4058 42 29.505V12.495C42 5.5942 36.4058 0 29.505 0Z" fill="black" fill-opacity="0.2"/>
<path d="M18.5627 8C18.3472 8 18.1406 8.0856 17.9882 8.23798C17.8358 8.39035 17.7502 8.59701 17.7502 8.8125C17.7502 9.02799 17.8358 9.23465 17.9882 9.38702C18.1406 9.5394 18.3472 9.625 18.5627 9.625H19.3752V11.3637C16.529 11.7751 13.9441 13.2492 12.1407 15.4893C10.3373 17.7295 9.44928 20.5695 9.6552 23.438C9.86112 26.3064 11.1457 28.9905 13.2506 30.9501C15.3555 32.9097 18.1244 33.9994 21.0002 34C23.1808 33.9999 25.3154 33.3731 27.1498 32.1941C28.9842 31.0151 30.4411 29.3337 31.3469 27.3502C32.2527 25.3666 32.5693 23.1645 32.259 21.0061C31.9486 18.8477 31.0244 16.824 29.5965 15.176L29.6176 15.1565L30.1928 14.5813L30.7665 15.1565C30.8414 15.2341 30.9311 15.296 31.0302 15.3386C31.1293 15.3812 31.2359 15.4036 31.3438 15.4045C31.4517 15.4055 31.5587 15.3849 31.6586 15.344C31.7584 15.3032 31.8491 15.2429 31.9254 15.1666C32.0017 15.0903 32.062 14.9996 32.1029 14.8997C32.1437 14.7999 32.1643 14.6929 32.1634 14.585C32.1624 14.4771 32.14 14.3705 32.0974 14.2714C32.0548 14.1722 31.9929 14.0826 31.9153 14.0076L29.6176 11.7083C29.5426 11.6306 29.453 11.5687 29.3539 11.5262C29.2547 11.4836 29.1481 11.4612 29.0402 11.4602C28.9323 11.4593 28.8254 11.4799 28.7255 11.5207C28.6257 11.5616 28.5349 11.6219 28.4586 11.6982C28.3824 11.7745 28.322 11.8652 28.2812 11.965C28.2403 12.0649 28.2198 12.1719 28.2207 12.2798C28.2216 12.3876 28.2441 12.4943 28.2866 12.5934C28.3292 12.6925 28.3911 12.7822 28.4687 12.8571L29.044 13.4324L28.4687 14.0076L28.4492 14.0271C26.8043 12.5981 24.7822 11.674 22.6252 11.3654V9.625H23.4377C23.6532 9.625 23.8599 9.5394 24.0122 9.38702C24.1646 9.23465 24.2502 9.02799 24.2502 8.8125C24.2502 8.59701 24.1646 8.39035 24.0122 8.23798C23.8599 8.0856 23.6532 8 23.4377 8H18.5627ZM21.8127 17.1V22.625C21.8127 22.8405 21.7271 23.0472 21.5747 23.1995C21.4224 23.3519 21.2157 23.4375 21.0002 23.4375H15.3127C15.0972 23.4375 14.8906 23.3519 14.7382 23.1995C14.5858 23.0472 14.5002 22.8405 14.5002 22.625C14.5002 22.4095 14.5858 22.2028 14.7382 22.0505C14.8906 21.8981 15.0972 21.8125 15.3127 21.8125H20.1877V17.1C20.1877 16.8845 20.2733 16.6778 20.4257 16.5255C20.5781 16.3731 20.7847 16.2875 21.0002 16.2875C21.2157 16.2875 21.4224 16.3731 21.5747 16.5255C21.7271 16.6778 21.8127 16.8845 21.8127 17.1Z" fill="black"/>
</svg>
