<svg width="500" height="500" viewBox="0 0 500 500" fill="none" xmlns="http://www.w3.org/2000/svg">
<path d="M117.991 455.538L15.6432 317.104C7.3432 305.875 2.12893 292.653 0.528929 278.765C-1.07583 264.878 0.986021 250.814 6.50983 237.978L74.848 79.9428C80.3669 67.1268 89.1526 55.9967 100.319 47.673C111.486 39.3497 124.643 34.1272 138.462 32.532L309.257 12.5147C323.081 10.931 337.077 13.0173 349.843 18.5636C362.605 24.1104 373.7 32.9234 382.009 44.1215L484.358 182.56C492.657 193.788 497.871 207.008 499.472 220.895C501.075 234.783 499.013 248.847 493.491 261.683L425.152 419.72C419.629 432.531 410.837 443.653 399.67 451.978C388.504 460.295 375.352 465.525 361.538 467.13L190.743 487.144C176.919 488.764 162.914 486.691 150.138 481.14C137.367 475.593 126.281 466.763 117.991 455.538Z" fill="#004C39"/>
<path d="M171.385 284.054C141.616 296.947 114.398 314.059 88.2959 335.905C93.8908 315.806 116.9 292.782 140.088 283.469C150.748 279.188 161.787 275.825 172.73 272.28C183.388 268.828 194.144 265.674 205.674 262.14C205.674 200.409 205.674 138.449 205.674 75.8546C208.815 75.6499 211.187 75.2925 213.547 75.3716C249.667 76.5829 286.01 75.7688 321.85 79.6197C369.364 84.7247 398.311 120.691 398.079 169.087C397.85 216.758 368.15 251.117 320.856 257.178C302.659 259.511 284.214 259.996 265.865 261.019C258.139 261.449 250.367 261.09 241.809 261.09C241.809 314.857 241.809 367.743 241.809 421.386C229.712 421.386 218.392 421.386 206.173 421.386C206.173 372.95 206.173 324.23 206.173 275.512C199.382 292.305 201.144 311.326 189.422 326.764C189.422 318.003 189.422 309.24 189.422 300.478C188.717 300.376 188.011 300.273 187.307 300.172C183.692 315.57 180.076 330.97 176.46 346.368C175.801 346.268 175.141 346.169 174.482 346.07C173.637 336.169 172.792 326.267 171.947 316.368C171.434 316.295 170.921 316.224 170.409 316.151C167.486 331.032 164.564 345.911 161.642 360.792C160.843 360.694 160.044 360.595 159.246 360.498C158.467 354.246 157.689 347.995 156.911 341.744C156.114 341.566 155.317 341.386 154.519 341.208C151.103 352.147 147.687 363.086 144.271 374.024C143.685 373.995 143.1 373.965 142.514 373.935C142.514 366.472 142.514 359.009 142.514 351.544C130.65 368.755 130.005 391.677 111.589 404.931C108.329 377.317 135.92 323.872 172.909 286.188C172.863 284.947 172.124 284.501 171.385 284.054ZM333.689 118.914C304.079 105.545 272.68 111.318 241.796 109.267C241.796 148.821 241.796 187.292 241.796 228.53C266.828 227.047 291.401 226.996 315.553 223.775C340.746 220.417 355.652 203.772 360.871 179.137C365.761 156.064 355.476 133.322 333.689 118.914Z" fill="#FBFCFC"/>
</svg>
