<svg width="50" height="50" viewBox="0 0 50 50" fill="none" xmlns="http://www.w3.org/2000/svg">
<path d="M30.7694 3.04257C31.9331 2.91102 33.1112 3.08575 34.1861 3.54738C35.2605 4.00913 36.1956 4.74239 36.8959 5.6748L46.6811 18.7627C47.337 19.6401 47.7643 20.6636 47.9263 21.7419L47.9554 21.9582C48.0822 23.0437 47.9374 24.1425 47.535 25.1571L47.4514 25.3586L40.9178 40.2975C40.4524 41.3647 39.7118 42.2923 38.7711 42.9856C37.8305 43.6784 36.7227 44.1135 35.5599 44.2471L19.2297 46.1392C18.1389 46.2655 17.0343 46.1218 16.014 45.7224L15.8114 45.6395L15.6113 45.5497C14.6204 45.0852 13.759 44.3843 13.1042 43.5078L3.31889 30.4198C2.6629 29.5423 2.23478 28.5191 2.07281 27.4406L2.04461 27.2244C1.90931 26.0666 2.08303 24.8938 2.54869 23.824L2.5478 23.8232L9.08131 8.88509L9.08219 8.88421C9.54727 7.81638 10.2876 6.88929 11.228 6.19618C12.1682 5.50324 13.2761 5.0682 14.4393 4.93543H14.441L30.7703 3.04344L30.7694 3.04257Z" fill="black" fill-opacity="0.2"/>
<path d="M17.7991 29.5081C14.8949 30.7564 12.2394 32.4131 9.69287 34.5282C10.2387 32.5822 12.4836 30.3531 14.7458 29.4514C15.7858 29.0369 16.8627 28.7113 17.9304 28.3681C18.9703 28.0338 20.0196 27.7287 21.1446 27.3864C21.1446 21.4097 21.1446 15.4109 21.1446 9.35057C21.4508 9.33076 21.6823 9.29616 21.9124 9.30382C25.4364 9.42109 28.9821 9.34227 32.4788 9.7151C37.1142 10.2094 39.9385 13.6916 39.9157 18.3773C39.8933 22.9926 36.9958 26.3192 32.3818 26.906C30.6065 27.1318 28.807 27.1789 27.0167 27.2778C26.263 27.3195 25.5048 27.2848 24.6699 27.2848C24.6699 32.4904 24.6699 37.6107 24.6699 42.8043C23.4896 42.8043 22.3852 42.8043 21.1931 42.8043C21.1931 38.1147 21.1931 33.3979 21.1931 28.6811C20.5307 30.3069 20.7025 32.1485 19.5588 33.6432C19.5588 32.7948 19.5588 31.9465 19.5588 31.0983C19.4901 31.0883 19.4213 31.0785 19.3526 31.0685C18.9998 32.5594 18.6471 34.0503 18.2943 35.5411C18.2299 35.5316 18.1657 35.5219 18.1013 35.5122C18.0189 34.5537 17.9364 33.5951 17.854 32.6366C17.804 32.6296 17.7539 32.6226 17.7039 32.6157C17.4188 34.0563 17.1337 35.4969 16.8486 36.9376C16.7707 36.9282 16.6928 36.9187 16.6149 36.9092C16.5389 36.3039 16.463 35.6987 16.3871 35.0935C16.3093 35.0762 16.2315 35.0589 16.1537 35.0415C15.8204 36.1007 15.4871 37.1598 15.1539 38.2189C15.0967 38.216 15.0396 38.213 14.9825 38.2101C14.9825 37.4875 14.9825 36.765 14.9825 36.0423C13.825 37.7086 13.762 39.9279 11.9653 41.2111C11.6474 38.5375 14.3392 33.3633 17.9479 29.7147C17.9434 29.5945 17.8712 29.5513 17.7991 29.5081ZM33.6338 13.5196C30.7449 12.2251 27.6817 12.7841 24.6686 12.5855C24.6686 16.415 24.6686 20.1397 24.6686 24.1323C27.1107 23.9888 29.5081 23.9838 31.8643 23.672C34.3222 23.3468 35.7764 21.7353 36.2856 19.3502C36.7626 17.1162 35.7593 14.9144 33.6338 13.5196Z" fill="black"/>
</svg>
