<svg width="24" height="24" viewBox="0 0 24 24" fill="none" xmlns="http://www.w3.org/2000/svg">
<path d="M9.03004 11.4C11.6479 11.4 13.77 9.29574 13.77 6.7C13.77 4.10426 11.6479 2 9.03004 2C6.41221 2 4.29004 4.10426 4.29004 6.7C4.29004 9.29574 6.41221 11.4 9.03004 11.4Z" fill="black" fill-opacity="0.5"/>
<path d="M9.03 22C12.9126 22 16.06 19.8957 16.06 17.3C16.06 14.7043 12.9126 12.6 9.03 12.6C5.14744 12.6 2 14.7043 2 17.3C2 19.8957 5.14744 22 9.03 22Z" fill="black"/>
<path d="M16.3899 4C15.8397 4.00063 15.2966 4.1236 14.7999 4.36C15.219 5.37715 15.3548 6.48884 15.1928 7.57698C15.0308 8.66511 14.5771 9.68904 13.8799 10.54C14.3322 10.9519 14.8783 11.2472 15.4706 11.4003C16.063 11.5534 16.6838 11.5596 17.2791 11.4185C17.8744 11.2773 18.4262 10.993 18.8868 10.5902C19.3473 10.1874 19.7026 9.67837 19.9218 9.10718C20.141 8.53599 20.2175 7.91993 20.1447 7.31247C20.0719 6.705 19.852 6.12448 19.504 5.62127C19.156 5.11807 18.6905 4.70738 18.1478 4.42486C17.6051 4.14233 17.0017 3.99649 16.3899 4Z" fill="black" fill-opacity="0.5"/>
<path d="M16.3897 12.5C15.8287 12.4995 15.2691 12.5565 14.7197 12.67C15.5458 13.1379 16.2391 13.8085 16.7342 14.6186C17.2293 15.4286 17.51 16.3514 17.5497 17.3C17.5453 18.2621 17.2565 19.2015 16.7197 20C19.6597 19.89 21.9997 18.26 21.9997 16.26C21.9997 14.26 19.4897 12.5 16.3897 12.5Z" fill="black"/>
</svg>
