<svg width="42" height="42" viewBox="0 0 42 42" fill="none" xmlns="http://www.w3.org/2000/svg">
<path d="M29.505 0H12.495C5.5942 0 0 5.5942 0 12.495V29.505C0 36.4058 5.5942 42 12.495 42H29.505C36.4058 42 42 36.4058 42 29.505V12.495C42 5.5942 36.4058 0 29.505 0Z" fill="black" fill-opacity="0.2"/>
<g clip-path="url(#clip0_144_675)">
<path d="M15.1637 12.0702C15.7798 11.6668 16.6062 11.8393 17.0096 12.4554C17.4129 13.0714 17.2405 13.8979 16.6244 14.3012C14.3793 15.7711 12.9997 18.2671 12.9997 21C12.9997 25.4183 16.5814 29 20.9997 29C25.418 29 28.9997 25.4183 28.9997 21C28.9997 18.3273 27.6808 15.8796 25.5164 14.396C24.9091 13.9796 24.7542 13.1497 25.1705 12.5424C25.5869 11.935 26.4168 11.7801 27.0242 12.1965C29.9064 14.1722 31.6663 17.4385 31.6663 21C31.6663 26.891 26.8907 31.6667 20.9997 31.6667C15.1086 31.6667 10.333 26.891 10.333 21C10.333 17.358 12.1738 14.0277 15.1637 12.0702Z" fill="black"/>
<path d="M22.3337 10.3333C22.3337 9.59695 21.7367 9 21.0003 9C20.2639 9 19.667 9.59695 19.667 10.3333V21C19.667 21.7364 20.2639 22.3333 21.0003 22.3333C21.7367 22.3333 22.3337 21.7364 22.3337 21V10.3333Z" fill="black" fill-opacity="0.5"/>
</g>
<defs>
<clipPath id="clip0_144_675">
<rect width="32" height="32" fill="white" transform="translate(5 5)"/>
</clipPath>
</defs>
</svg>
