<svg width="42" height="42" viewBox="0 0 42 42" fill="none" xmlns="http://www.w3.org/2000/svg">
<path d="M29.505 0H12.495C5.5942 0 0 5.5942 0 12.495V29.505C0 36.4058 5.5942 42 12.495 42H29.505C36.4058 42 42 36.4058 42 29.505V12.495C42 5.5942 36.4058 0 29.505 0Z" fill="black" fill-opacity="0.2"/>
<path fill-rule="evenodd" clip-rule="evenodd" d="M21 11.625C18.9738 11.6258 17.0024 12.283 15.3811 13.4982C13.7597 14.7134 12.5757 16.4212 12.0064 18.3658C11.437 20.3103 11.513 22.387 12.223 24.2848C12.9329 26.1826 14.2386 27.7992 15.9444 28.8927C17.6503 29.9861 19.6644 30.4975 21.6853 30.3502C23.7061 30.2029 25.6249 29.4048 27.1541 28.0755C28.6833 26.7462 29.7407 24.9573 30.1679 22.9766C30.5951 20.996 30.3691 18.9302 29.5238 17.0888C29.4318 16.8649 29.4299 16.6141 29.5186 16.3889C29.6073 16.1636 29.7797 15.9815 29.9997 15.8804C30.2196 15.7794 30.4701 15.7674 30.6988 15.8469C30.9274 15.9264 31.1164 16.0912 31.2263 16.3069C32.2406 18.5167 32.5117 20.9957 31.9989 23.3726C31.4861 25.7494 30.217 27.8962 28.3818 29.4912C26.5465 31.0863 24.2439 32.0438 21.8187 32.2203C19.3936 32.3968 16.9766 31.7829 14.9297 30.4705C12.8828 29.158 11.3162 27.2177 10.4645 24.9402C9.61291 22.6627 9.52211 20.1705 10.2057 17.8371C10.8894 15.5036 12.3106 13.4545 14.2566 11.9965C16.2025 10.5386 18.5685 9.75041 21 9.75V11.625Z" fill="black"/>
<path d="M21 14.3737V7.00123C21 6.91216 21.0254 6.82494 21.0733 6.74979C21.1211 6.67464 21.1893 6.61467 21.27 6.5769C21.3506 6.53912 21.4404 6.52511 21.5287 6.5365C21.617 6.5479 21.7003 6.58422 21.7687 6.64123L26.1938 10.3275C26.4188 10.515 26.4188 10.86 26.1938 11.0475L21.7687 14.7337C21.7003 14.7907 21.617 14.8271 21.5287 14.8385C21.4404 14.8498 21.3506 14.8358 21.27 14.7981C21.1893 14.7603 21.1211 14.7003 21.0733 14.6252C21.0254 14.55 21 14.4628 21 14.3737Z" fill="black"/>
</svg>
