<svg xmlns="http://www.w3.org/2000/svg" viewBox="0 0 512 512" id="reload">
  <path d="m443.102 320.302-.653.18-52.243 15.848a11.82 11.82 0 0 0-6.966 5.739 11.85 11.85 0 0 0-.898 9.049l.017.054a11.78 11.78 0 0 0 4.913 6.482h.044a11.84 11.84 0 0 0 8.016 1.761l28.064-3.923-17.895 21.992a194 194 0 0 1-19.44 20.589 193.4 193.4 0 0 1-22.19 17.53 191 191 0 0 1-51.378 24.548c-17.937 5.47-36.912 8.415-56.493 8.415s-38.556-2.946-56.493-8.415a191 191 0 0 1-51.378-24.548 193.8 193.8 0 0 1-42.192-38.799 192.3 192.3 0 0 1-28.867-49.358c-1.197-3.017-3.526-5.273-6.323-6.481-2.819-1.219-6.072-1.374-9.085-.181-3.018 1.197-5.274 3.527-6.482 6.324h-.044a11.84 11.84 0 0 0-.136 9.088c8.031 20.106 19.032 38.765 32.461 55.436 13.545 16.811 29.512 31.535 47.353 43.618a216.5 216.5 0 0 0 57.856 27.719c19.976 6.132 41.242 9.433 63.329 9.433s43.352-3.301 63.329-9.433a216.5 216.5 0 0 0 57.856-27.719 217.4 217.4 0 0 0 28.956-23.505 217.5 217.5 0 0 0 24.525-28.095l13.153-17.968 6.645 21.848a11.82 11.82 0 0 0 5.753 7.013 11.86 11.86 0 0 0 8.979.92l.071-.021a11.82 11.82 0 0 0 7.015-5.753 11.86 11.86 0 0 0 .899-9.051c-2.061-6.797-3.566-12.12-5.096-17.53-3.458-12.234-7.03-24.868-11.035-35.481a12 12 0 0 0-.981-2.042 11.7 11.7 0 0 0-1.393-1.804l-.27-.291c-.412-.422-.872-.82-1.372-1.188a12 12 0 0 0-1.721-1.06l.009-.017c-.137-.066-.054-.002-.612-.243-.689-.296-.638-.295-.661-.312l-.01.029a12 12 0 0 0-.826-.276h-.043l-.688-.194c-.86-.162-1.561-.251-2.151-.268a13.6 13.6 0 0 0-2.051.108l.003.021-1.177.227zm-6.674-21.246 1.091-.3.262-.088c.604-.15 1.162-.277 1.657-.374a26 26 0 0 1 1.703-.288h.174c1.967-.254 3.787-.357 5.626-.304 1.937.056 3.761.261 5.651.619l.174.044c1.074.22 1.923.416 2.514.585l-.003.012a35 35 0 0 1 2.443.787l.131.088 1.677.632c.212.091.78.368 1.781.87h.043a34 34 0 0 1 4.865 2.981 34 34 0 0 1 4.339 3.806l.531.552a33.7 33.7 0 0 1 3.924 5.208 34.3 34.3 0 0 1 2.902 5.883c4.372 11.585 8.068 24.655 11.646 37.313 1.828 6.468 3.633 12.848 4.921 17.096a34.02 34.02 0 0 1-2.557 25.985c-3.972 7.428-10.674 13.398-19.23 16.267l-.08.04-.889.27a34.02 34.02 0 0 1-25.981-2.557 34.3 34.3 0 0 1-6.894-4.861 239.39 239.39 0 0 1-49.179 44.344c-19.476 13.191-40.935 23.583-63.791 30.599-22.199 6.814-45.669 10.483-69.877 10.483s-47.677-3.668-69.876-10.483c-22.857-7.016-44.316-17.41-63.792-30.599a239.8 239.8 0 0 1-52.241-48.068 238.7 238.7 0 0 1-35.779-61.199c-3.469-8.749-3.067-18.083.392-26.094l-.037-.016c3.459-8.007 9.995-14.704 18.784-18.191 8.795-3.487 18.13-3.096 26.113.353 8.008 3.46 14.703 9.995 18.19 18.782 6.311 15.799 14.969 30.474 25.553 43.602a171.5 171.5 0 0 0 37.304 34.348 168.6 168.6 0 0 0 45.354 21.668c15.7 4.788 32.497 7.366 50.034 7.366s34.334-2.578 50.034-7.366a168.5 168.5 0 0 0 45.354-21.668 171 171 0 0 0 19.659-15.522 168 168 0 0 0 4.99-4.766l-.768-.476.013-.02c-6.604-4.236-11.79-10.746-14.239-18.823l-.524-1.731v-.201a34.02 34.02 0 0 1 3.08-24.051c4.121-7.707 11.179-13.844 20.197-16.577 17.491-5.304 35.085-10.921 52.63-15.96ZM124.685 154.347a11.84 11.84 0 0 0-8.016-1.761l-28.065 3.922 17.896-21.991a194 194 0 0 1 19.44-20.589 193.4 193.4 0 0 1 22.19-17.531 191 191 0 0 1 51.378-24.548c17.937-5.47 36.912-8.415 56.493-8.415s38.556 2.946 56.493 8.415a191 191 0 0 1 51.378 24.548 193.8 193.8 0 0 1 42.191 38.799 192.2 192.2 0 0 1 28.868 49.359c1.197 3.016 3.526 5.273 6.323 6.481 2.819 1.218 6.073 1.373 9.085.18 3.018-1.197 5.274-3.527 6.482-6.324h.043a11.84 11.84 0 0 0 .136-9.088c-8.031-20.106-19.032-38.765-32.461-55.436-13.545-16.811-29.512-31.535-47.353-43.618a216.5 216.5 0 0 0-57.856-27.719c-19.976-6.132-41.242-9.433-63.329-9.433s-43.352 3.301-63.329 9.433a216.5 216.5 0 0 0-57.856 27.719 217.4 217.4 0 0 0-28.957 23.505 217.6 217.6 0 0 0-24.525 28.096L68.17 146.33l-6.634-21.861a11.82 11.82 0 0 0-5.753-7.013 11.85 11.85 0 0 0-8.994-.915l-.056.017a11.82 11.82 0 0 0-7.016 5.753 11.86 11.86 0 0 0-.899 9.051l15.832 52.184.024-.007.082.263.013-.004.035.11-.026.009c.235.711.591 1.469 1.048 2.252a12 12 0 0 0 1.504 2.058l.028.033.013-.014.219.262q.539.55 1.274 1.105c.577.436 1.093.778 1.533 1.013l.224.119.018-.031.353.172-.006.013c.574.265.942.409 1.544.599q.495.154.868.24l-.004.018.111.024.003-.019c.346.067.673.137 1.025.186l.002-.015.687.056v.017c.245.017.478.044.725.05v-.042h.036v.043l.448-.013c-.002-.021.231-.018.263-.02v-.017l.57-.047v.012l.136-.015-.002-.014.061-.007.002.015.069.003c.77-.104 1.42-.289 2.165-.498l.005.02 52.093-15.804a11.82 11.82 0 0 0 6.965-5.738 11.86 11.86 0 0 0 .899-9.049l-.016-.052c-.852-2.769-2.657-5.013-4.957-6.484Zm11.278-19.243.768.476c6.585 4.216 11.766 10.732 14.225 18.843l.525 1.73v.202c2.026 8.399.738 16.906-3.081 24.051-4.12 7.707-11.178 13.844-20.197 16.577-15.498 4.704-38.114 10.108-52.367 15.897l.006.018c-.451.136-.939.27-1.453.4l-.906.208-.002-.01-.797.176c-.49.071-1.017.219-1.478.277l-.003-.024-.993.137c-.158.054-.158.052-.323.052l-.492.053c-.173 0-.212.008-.383.051-.99.081-1.99.09-2.984.097l-.043.044-.167-.044c-.834-.012-1.692-.069-2.516-.069l-1.298-.142-.131-.044-.52-.058-.002.014c-.696-.083-1.652-.236-2.338-.432l-.503-.111h-.086a35 35 0 0 1-2.527-.677q-.916-.286-2.434-.888c-.35-.117-.624-.259-.959-.403h-.043c-.371-.162-.871-.417-1.244-.541l-.353-.172-.403-.247-.537-.279c-1.691-.905-3.194-1.858-4.502-2.846a34 34 0 0 1-3.828-3.394l-.02.02-.22-.263-.433-.456a34 34 0 0 1-4.385-5.899c-1.173-2.008-2.179-4.264-2.984-6.755l-.044-.045-.13-.455v-.088l-15.856-52.264a34.02 34.02 0 0 1 2.557-25.985c3.971-7.426 10.67-13.394 19.222-16.263l.088-.045.89-.269a34.03 34.03 0 0 1 25.982 2.557 34.3 34.3 0 0 1 6.895 4.862 240 240 0 0 1 17.256-18.484 239.4 239.4 0 0 1 31.923-25.861c19.476-13.189 40.935-23.583 63.792-30.599 22.2-6.815 45.669-10.482 69.876-10.482s47.678 3.669 69.877 10.482c22.857 7.016 44.315 17.408 63.791 30.599a239.8 239.8 0 0 1 52.241 48.068 238.7 238.7 0 0 1 35.779 61.199c3.469 8.749 3.067 18.083-.392 26.094l.037.016c-3.459 8.007-9.995 14.704-18.784 18.191-8.794 3.487-18.129 3.096-26.113-.352-8.007-3.459-14.703-9.995-18.19-18.783-6.311-15.799-14.971-30.475-25.554-43.602a171.4 171.4 0 0 0-37.303-34.348 168.5 168.5 0 0 0-45.354-21.668c-15.7-4.788-32.497-7.366-50.034-7.366s-34.334 2.578-50.034 7.366a168.5 168.5 0 0 0-45.354 21.668 171 171 0 0 0-19.659 15.522 168 168 0 0 0-4.99 4.766Z" style="fill:#000;fill-rule:evenodd;stroke-width:0"></path>
</svg>
