<svg width="42" height="42" viewBox="0 0 42 42" fill="none" xmlns="http://www.w3.org/2000/svg">
<path d="M29.505 0H12.495C5.5942 0 0 5.5942 0 12.495V29.505C0 36.4058 5.5942 42 12.495 42H29.505C36.4058 42 42 36.4058 42 29.505V12.495C42 5.5942 36.4058 0 29.505 0Z" fill="black" fill-opacity="0.2"/>
<g clip-path="url(#clip0_138_457)">
<path d="M13.8571 10H20.7364C21.0911 10 21.4343 10.1257 21.7051 10.3547L26.4687 14.3839C26.8057 14.6689 27 15.0879 27 15.5292V28.0833C27 29.8739 26.9796 30 25.1429 30H13.8571C12.0204 30 12 29.8739 12 28.0833V11.9167C12 10.1261 12.0204 10 13.8571 10ZM17 21C16.4477 21 16 21.4477 16 22C16 22.5523 16.4477 23 17 23H24C24.5523 23 25 22.5523 25 22C25 21.4477 24.5523 21 24 21H17ZM17 25C16.4477 25 16 25.4477 16 26C16 26.5523 16.4477 27 17 27H20C20.5523 27 21 26.5523 21 26C21 25.4477 20.5523 25 20 25H17Z" fill="black" fill-opacity="0.3"/>
<path d="M15.8571 12H23.7364C24.0911 12 24.4343 12.1257 24.7051 12.3547L29.4687 16.3839C29.8057 16.6689 30 17.0879 30 17.5292V30.0833C30 31.8739 29.9796 32 28.1429 32H15.8571C14.0204 32 14 31.8739 14 30.0833V13.9167C14 12.1261 14.0204 12 15.8571 12ZM17 21C16.4477 21 16 21.4477 16 22C16 22.5523 16.4477 23 17 23H24C24.5523 23 25 22.5523 25 22C25 21.4477 24.5523 21 24 21H17ZM17 25C16.4477 25 16 25.4477 16 26C16 26.5523 16.4477 27 17 27H20C20.5523 27 21 26.5523 21 26C21 25.4477 20.5523 25 20 25H17Z" fill="black"/>
</g>
</svg>
