<svg width="42" height="42" viewBox="0 0 42 42" fill="none" xmlns="http://www.w3.org/2000/svg">
<path d="M29.505 0H12.495C5.5942 0 0 5.5942 0 12.495V29.505C0 36.4058 5.5942 42 12.495 42H29.505C36.4058 42 42 36.4058 42 29.505V12.495C42 5.5942 36.4058 0 29.505 0Z" fill="black" fill-opacity="0.2"/>
<g clip-path="url(#clip0_144_713)">
<path fill-rule="evenodd" clip-rule="evenodd" d="M19.7904 15.75H19.889C20.1887 15.75 20.4396 15.9771 20.4694 16.2753L21.0002 21.5833L24.7897 23.7487C24.9714 23.8526 25.0836 24.0459 25.0836 24.2552V24.5C25.0836 24.7461 24.8841 24.9455 24.638 24.9455C24.5984 24.9455 24.559 24.9403 24.5208 24.9298L19.132 23.4602C18.8621 23.3866 18.6824 23.1316 18.7039 22.8527L19.2088 16.2886C19.2322 15.9847 19.4856 15.75 19.7904 15.75Z" fill="black"/>
<path fill-rule="evenodd" clip-rule="evenodd" d="M15.6218 10.3074C17.0945 9.68033 18.7152 9.33332 20.417 9.33332C27.1825 9.33332 32.667 14.8178 32.667 21.5833C32.667 28.3488 27.1825 33.8333 20.417 33.8333C13.6515 33.8333 8.16699 28.3488 8.16699 21.5833C8.16699 20.4343 8.32519 19.3222 8.62098 18.2677L10.8676 18.8979C10.6248 19.7634 10.5003 20.6639 10.5003 21.5833C10.5003 27.0601 14.9402 31.5 20.417 31.5C25.8938 31.5 30.3337 27.0601 30.3337 21.5833C30.3337 16.1065 25.8938 11.6667 20.417 11.6667C19.3072 11.6667 18.2264 11.8486 17.2072 12.1969L18.5964 13.8525C18.6773 13.9489 18.7248 14.0688 18.7319 14.1944C18.7502 14.5161 18.5042 14.7916 18.1825 14.8098L12.5044 15.1316C12.4479 15.1348 12.3911 15.1298 12.3361 15.1166C12.0227 15.0419 11.8292 14.7272 11.904 14.4139L13.2206 8.8942C13.2496 8.7724 13.3171 8.66318 13.413 8.58269C13.6598 8.3756 14.0278 8.40779 14.2348 8.65459L15.6218 10.3074Z" fill="black" fill-opacity="0.5"/>
</g>
</svg>
