<svg width="42" height="42" viewBox="0 0 42 42" fill="none" xmlns="http://www.w3.org/2000/svg">
<path d="M29.505 0H12.495C5.5942 0 0 5.5942 0 12.495V29.505C0 36.4058 5.5942 42 12.495 42H29.505C36.4058 42 42 36.4058 42 29.505V12.495C42 5.5942 36.4058 0 29.505 0Z" fill="black" fill-opacity="0.2"/>
<g clip-path="url(#clip0_143_648)">
<path fill-rule="evenodd" clip-rule="evenodd" d="M14.75 9.75H27.25C30.0114 9.75 32.25 11.9886 32.25 14.75C32.25 17.5114 30.0114 19.75 27.25 19.75H14.75C11.9886 19.75 9.75 17.5114 9.75 14.75C9.75 11.9886 11.9886 9.75 14.75 9.75ZM14.75 17.25C16.1307 17.25 17.25 16.1307 17.25 14.75C17.25 13.3693 16.1307 12.25 14.75 12.25C13.3693 12.25 12.25 13.3693 12.25 14.75C12.25 16.1307 13.3693 17.25 14.75 17.25Z" fill="black"/>
<path fill-rule="evenodd" clip-rule="evenodd" d="M14.75 22.25H27.25C30.0114 22.25 32.25 24.4886 32.25 27.25C32.25 30.0114 30.0114 32.25 27.25 32.25H14.75C11.9886 32.25 9.75 30.0114 9.75 27.25C9.75 24.4886 11.9886 22.25 14.75 22.25ZM27.25 29.75C28.6307 29.75 29.75 28.6307 29.75 27.25C29.75 25.8693 28.6307 24.75 27.25 24.75C25.8693 24.75 24.75 25.8693 24.75 27.25C24.75 28.6307 25.8693 29.75 27.25 29.75Z" fill="black" fill-opacity="0.5"/>
</g>
</svg>
