<svg width="24" height="24" viewBox="0 0 24 24" fill="none" xmlns="http://www.w3.org/2000/svg">
<path d="M11 2.5H13V3.5C13 3.76522 12.8946 4.01957 12.7071 4.20711C12.5196 4.39464 12.2652 4.5 12 4.5C11.7348 4.5 11.4804 4.39464 11.2929 4.20711C11.1054 4.01957 11 3.76522 11 3.5V2.5Z" fill="black"/>
<path d="M18 5.25V18.75C18 19.4793 17.7103 20.1788 17.1945 20.6945C16.6788 21.2103 15.9793 21.5 15.25 21.5H8.75C8.38886 21.5 8.03127 21.4289 7.69762 21.2907C7.36398 21.1525 7.06082 20.9499 6.80546 20.6945C6.28973 20.1788 6 19.4793 6 18.75V5.25C6 4.52065 6.28973 3.82118 6.80546 3.30546C7.32118 2.78973 8.02065 2.5 8.75 2.5H15.25C15.9793 2.5 16.6788 2.78973 17.1945 3.30546C17.7103 3.82118 18 4.52065 18 5.25ZM16 11.5C16.0003 10.8946 15.8632 10.297 15.599 9.75227C15.3347 9.20755 14.9503 8.72991 14.4747 8.35536C13.999 7.98081 13.4445 7.71911 12.853 7.59C12.2616 7.46089 11.6485 7.46773 11.06 7.61C10.3902 7.77743 9.77508 8.11539 9.27458 8.591C8.77408 9.06661 8.40521 9.66368 8.20386 10.3241C8.00251 10.9845 7.97554 11.6858 8.12557 12.3598C8.27559 13.0337 8.59751 13.6574 9.06 14.17L11.3 16.69C11.3937 16.7931 11.508 16.8755 11.6354 16.9319C11.7628 16.9883 11.9007 17.0174 12.04 17.0174C12.1793 17.0174 12.3172 16.9883 12.4446 16.9319C12.572 16.8755 12.6863 16.7931 12.78 16.69L15 14.17C15.65 13.433 16.0059 12.4826 16 11.5Z" fill="black" fill-opacity="0.3"/>
<path d="M12 13C12.8284 13 13.5 12.3284 13.5 11.5C13.5 10.6716 12.8284 10 12 10C11.1716 10 10.5 10.6716 10.5 11.5C10.5 12.3284 11.1716 13 12 13Z" fill="black"/>
</svg>
