<svg width="50" height="50" viewBox="0 0 50 50" fill="none" xmlns="http://www.w3.org/2000/svg">
<path d="M33.4378 4.16667H16.5628C9.7168 4.16667 4.16699 9.71648 4.16699 16.5625V33.4375C4.16699 40.2835 9.7168 45.8333 16.5628 45.8333H33.4378C40.2839 45.8333 45.8337 40.2835 45.8337 33.4375V16.5625C45.8337 9.71648 40.2839 4.16667 33.4378 4.16667Z" fill="black" fill-opacity="0.2"/>
<path d="M31.9385 23.0408C32.0174 23.0352 32.0976 23.045 32.1724 23.0712C32.247 23.0975 32.3155 23.1398 32.3739 23.1933C32.432 23.2469 32.4778 23.3125 32.5101 23.3846C32.5414 23.4546 32.5568 23.5298 32.5589 23.6065L31.8753 33.9762C31.8335 34.5527 31.5695 35.0902 31.1389 35.4756C30.7078 35.861 30.1439 36.0656 29.5662 36.0433L20.6652 36.0413L20.6449 36.0433C20.084 36.0819 19.528 35.9079 19.0905 35.555C18.7078 35.2463 18.4387 34.8206 18.3235 34.3465L18.2848 34.139L17.4385 23.5962C17.4418 23.5233 17.4575 23.4515 17.4873 23.3846C17.5197 23.3123 17.5673 23.2471 17.6256 23.1933C17.684 23.1398 17.7523 23.0975 17.8271 23.0712C17.9018 23.0452 17.982 23.0352 18.061 23.0408L18.0814 23.0427H31.916L31.9385 23.0408Z" fill="black" stroke="black" stroke-width="0.6"/>
<path d="M15.1719 17.5741C21.6804 16.655 28.286 16.6561 34.7948 17.5741C35.0429 17.6144 35.2667 17.7516 35.4152 17.9545C35.5606 18.1532 35.6219 18.4004 35.5902 18.6442C35.5512 18.8566 35.4396 19.048 35.2729 19.1854C35.105 19.3237 34.8942 19.3982 34.6767 19.3949H34.4752C28.2135 18.5326 21.8625 18.5344 15.6012 19.401L15.5768 19.4051L15.5544 19.4092C15.4286 19.4366 15.2984 19.4392 15.1719 19.4153C15.0452 19.3912 14.923 19.3406 14.8159 19.2688C14.7091 19.1971 14.6175 19.1039 14.5473 18.9962C14.5122 18.9422 14.4833 18.8848 14.4598 18.8253L14.4069 18.6401C14.386 18.52 14.3898 18.3969 14.4171 18.278C14.4444 18.1587 14.4941 18.0456 14.5656 17.9464C14.637 17.8473 14.7279 17.7638 14.8321 17.7002C14.9364 17.6367 15.0532 17.5942 15.1739 17.5761L15.1719 17.5741Z" fill="black" stroke="black" stroke-width="0.6"/>
<path d="M27.0419 13.1246C27.4273 13.1613 27.7892 13.3307 28.0631 13.6047C28.34 13.8818 28.5092 14.2481 28.5433 14.6383L28.5515 14.6912L28.9848 17.1468H21.0156L21.449 14.6912L21.4571 14.6383C21.4912 14.2481 21.6604 13.8818 21.9373 13.6047C22.2112 13.3307 22.5729 13.1613 22.9585 13.1246H27.0419Z" fill="black" stroke="black" stroke-width="0.6"/>
</svg>
