<svg width="24" height="24" viewBox="0 0 24 24" fill="none" xmlns="http://www.w3.org/2000/svg">
<path d="M16.0207 1.97303L7.88081 2.01707C4.58924 2.03488 1.93534 4.71766 1.95314 8.00923L1.99686 16.0891C2.01467 19.3807 4.69745 22.0346 7.98902 22.0168L16.1289 21.9727C19.4205 21.9549 22.0744 19.2721 22.0566 15.9806L22.0129 7.90069C21.995 4.60913 19.3123 1.95522 16.0207 1.97303Z" fill="black" fill-opacity="0.2"/>
<path d="M12.0002 15.71C14.0989 15.71 15.8002 14.0087 15.8002 11.91C15.8002 9.81136 14.0989 8.11005 12.0002 8.11005C9.90151 8.11005 8.2002 9.81136 8.2002 11.91C8.2002 14.0087 9.90151 15.71 12.0002 15.71Z" fill="black"/>
<path d="M18.5 21.47C18.0267 20.1239 17.1472 18.9579 15.9829 18.1331C14.8186 17.3082 13.4269 16.8652 12 16.8652C10.5731 16.8652 9.18141 17.3082 8.01709 18.1331C6.85277 18.9579 5.97325 20.1239 5.5 21.47C6.2843 21.8282 7.13786 22.0091 8 22H16.13C16.9476 21.9846 17.7537 21.8043 18.5 21.47Z" fill="black"/>
</svg>
