<svg width="50" height="50" viewBox="0 0 50 50" fill="none" xmlns="http://www.w3.org/2000/svg">
<path d="M42.709 29.1667C44.4349 29.1667 45.834 27.7676 45.834 26.0417C45.834 24.3158 44.4349 22.9167 42.709 22.9167C40.9831 22.9167 39.584 24.3158 39.584 26.0417C39.584 27.7676 40.9831 29.1667 42.709 29.1667Z" fill="black" fill-opacity="0.5"/>
<path d="M39.2118 2.18481L7.0143 10.8121C5.90291 11.1099 5.24336 12.2523 5.54116 13.3637L8.23719 23.4254C8.53499 24.5368 9.67736 25.1963 10.7887 24.8985L42.9863 16.2712C44.0977 15.9734 44.7572 14.8311 44.4594 13.7197L41.7634 3.65795C41.4656 2.54656 40.3232 1.88702 39.2118 2.18481Z" fill="black" fill-opacity="0.2"/>
<path fill-rule="evenodd" clip-rule="evenodd" d="M45.8337 19.4517C44.8572 18.9882 43.7896 18.7485 42.7087 18.75C38.6816 18.75 35.417 22.0146 35.417 26.0417C35.417 30.0688 38.6816 33.3334 42.7087 33.3334C43.7896 33.3349 44.8572 33.0952 45.8337 32.6317V37.5C45.8337 39.8013 43.9682 41.6667 41.667 41.6667H8.33366C6.03241 41.6667 4.16699 39.8013 4.16699 37.5V12.5C4.16699 10.1988 6.03241 8.33337 8.33366 8.33337H41.667C43.9682 8.33337 45.8337 10.1988 45.8337 12.5V19.4517Z" fill="black"/>
</svg>
