<svg width="24" height="24" viewBox="0 0 24 24" fill="none" xmlns="http://www.w3.org/2000/svg">
<path fill-rule="evenodd" clip-rule="evenodd" d="M5.28999 13.27H9.28999C10.551 13.2476 11.5927 14.2491 11.62 15.51V19.51C11.6145 20.7724 10.5925 21.7945 9.32999 21.8H5.32999C4.06906 21.8167 3.03191 20.8108 3.00999 19.55V15.55C3.00999 14.2908 4.03079 13.27 5.28999 13.27ZM9.28999 20.3C9.7263 20.3 10.08 19.9463 10.08 19.51V15.51C10.08 15.3013 9.99646 15.1014 9.84801 14.9549C9.69957 14.8083 9.49859 14.7273 9.28999 14.73H5.28999C5.08313 14.73 4.88473 14.8121 4.73845 14.9584C4.59217 15.1047 4.50999 15.3031 4.50999 15.51V19.51C4.50996 19.9424 4.8576 20.2945 5.28999 20.3H9.28999Z" fill="black"/>
<path d="M8.05999 16.78V16.21C8.05999 15.7957 7.72421 15.46 7.30999 15.46C6.89578 15.46 6.55999 15.7957 6.55999 16.21V16.78H5.99999C5.58578 16.78 5.24999 17.1157 5.24999 17.53C5.24999 17.9442 5.58578 18.28 5.99999 18.28H6.56999V18.86C6.56999 19.2742 6.90578 19.61 7.31999 19.61C7.73421 19.61 8.06999 19.2742 8.06999 18.86V18.28H8.64999C9.06421 18.28 9.39999 17.9442 9.39999 17.53C9.39999 17.1157 9.06421 16.78 8.64999 16.78H8.05999Z" fill="black"/>
<path fill-rule="evenodd" clip-rule="evenodd" d="M13.05 2.42996L20.05 9.42996C20.1988 9.58149 20.2784 9.78775 20.27 9.99996V17C20.27 19.6233 18.1433 21.75 15.52 21.75H12.65C12.2358 21.75 11.9 21.4142 11.9 21C11.9 20.5857 12.2358 20.25 12.65 20.25H15.52C17.3149 20.25 18.77 18.7949 18.77 17V10.75H14.52C13.0012 10.75 11.77 9.51874 11.77 7.99996V3.73996H9.51999C7.72345 3.74547 6.26999 5.20341 6.26999 6.99996V12C6.26999 12.4142 5.93421 12.75 5.51999 12.75C5.10578 12.75 4.76999 12.4142 4.76999 12V6.99996C4.75933 5.73327 5.25506 4.51478 6.14702 3.61532C7.03897 2.71585 8.25326 2.20992 9.51999 2.20996H12.52C12.7188 2.21014 12.9095 2.28927 13.05 2.42996ZM13.27 4.76996V7.99996C13.2755 8.68641 13.8335 9.23998 14.52 9.23996H17.74L13.27 4.76996Z" fill="black"/>
</svg>
