<svg width="250" height="50" viewBox="0 0 250 50" fill="none" xmlns="http://www.w3.org/2000/svg">
<path d="M11.3271 46.8242L1.50175 33.1461C0.704947 32.0366 0.204377 30.7302 0.0507771 29.3579C-0.10328 27.9859 0.0946578 26.5962 0.624944 25.3279L7.1854 9.71317C7.71524 8.44688 8.55862 7.34711 9.63068 6.52469C10.7027 5.70234 11.9657 5.18627 13.2923 5.02868L29.6886 3.05085C31.0158 2.89437 32.3593 3.10052 33.5849 3.64852C34.8101 4.19658 35.8753 5.06738 36.6729 6.17382L46.4984 19.8524C47.2951 20.9618 47.7956 22.268 47.9493 23.6401C48.1032 25.0123 47.9053 26.402 47.3751 27.6702L40.8145 43.2851C40.2844 44.551 39.4404 45.6499 38.3684 46.4724C37.2963 47.2942 36.0338 47.811 34.7076 47.9696L18.3113 49.9471C16.9842 50.1072 15.6398 49.9024 14.4132 49.3539C13.1872 48.8058 12.123 47.9333 11.3271 46.8242Z" fill="#004C39"/>
<path d="M22.0547 40.7803C22.1111 40.7786 22.2061 40.8359 22.2422 40.9206C22.1533 40.912 22.1233 40.8756 22.0547 40.7803Z" fill="#004C39"/>
<path d="M15.9339 31.0646C13.1663 32.2636 10.6357 33.8548 8.20898 35.8863C8.72912 34.0173 10.8684 31.8763 13.0242 31.0103C14.0153 30.6122 15.0415 30.2994 16.0589 29.9698C17.0499 29.6488 18.0499 29.3555 19.1218 29.0269C19.1218 23.2865 19.1218 17.5248 19.1218 11.7041C19.4138 11.6851 19.6344 11.6519 19.8538 11.6593C23.2118 11.7719 26.5906 11.6962 29.9228 12.0543C34.3402 12.529 37.0315 15.8734 37.0099 20.3739C36.9887 24.8068 34.2274 28.0019 29.8304 28.5654C28.1386 28.7824 26.4237 28.8275 24.7178 28.9226C23.9995 28.9626 23.277 28.9292 22.4813 28.9292C22.4813 33.929 22.4813 38.8469 22.4813 43.8352C21.3566 43.8352 20.3041 43.8352 19.1681 43.8352C19.1681 39.3311 19.1681 34.8006 19.1681 30.2703C18.5368 31.8319 18.7007 33.6007 17.6108 35.0363C17.6108 34.2216 17.6108 33.4067 17.6108 32.5919C17.5453 32.5825 17.4796 32.5729 17.4142 32.5635C17.078 33.9953 16.7419 35.4274 16.4057 36.8592C16.3444 36.85 16.2831 36.8408 16.2218 36.8315C16.1432 35.9108 16.0646 34.9901 15.9861 34.0695C15.9384 34.0628 15.8908 34.0561 15.8431 34.0493C15.5714 35.4331 15.2997 36.8167 15.028 38.2005C14.9538 38.1914 14.8795 38.1822 14.8052 38.1732C14.7329 37.5919 14.6606 37.0106 14.5883 36.4293C14.5141 36.4127 14.4399 36.396 14.3659 36.3794C14.0482 37.3966 13.7306 38.4139 13.4131 39.431C13.3586 39.4282 13.3042 39.4255 13.2498 39.4227C13.2498 38.7287 13.2498 38.0347 13.2498 37.3406C12.1467 38.941 12.0867 41.0725 10.3745 42.305C10.0715 39.7372 12.6366 34.7674 16.0756 31.2631C16.0713 31.1476 16.0026 31.1063 15.9339 31.0646ZM31.0235 15.7082C28.2706 14.465 25.3514 15.0019 22.4801 14.8112C22.4801 18.4893 22.4801 22.0667 22.4801 25.9014C24.8073 25.7636 27.0919 25.7588 29.3373 25.4593C31.6795 25.1471 33.0654 23.5993 33.5506 21.3084C34.0052 19.1628 33.049 17.048 31.0235 15.7082Z" fill="#FBFCFC"/>
<path d="M56.6738 27.737V7.21148H63.7741C65.2785 7.21148 66.5353 7.53506 67.5443 8.18229C68.5534 8.81097 69.3056 9.62462 69.801 10.6232C70.3147 11.6217 70.5716 12.6572 70.5716 13.7297C70.5716 14.8392 70.3147 15.8932 69.801 16.8918C69.3056 17.8903 68.5534 18.7132 67.5443 19.3604C66.5353 19.9891 65.2785 20.3035 63.7741 20.3035H58.7929V27.737H56.6738ZM63.7741 9.12535H58.7929V18.3896H63.7741C64.8198 18.3896 65.6913 18.1677 66.3885 17.7239C67.0857 17.2801 67.6086 16.7069 67.9571 16.0042C68.3057 15.283 68.48 14.5341 68.48 13.7575C68.48 12.9808 68.3057 12.2412 67.9571 11.5385C67.6086 10.8173 67.0857 10.2348 66.3885 9.79104C65.6913 9.34725 64.8198 9.12535 63.7741 9.12535ZM79.3896 12.7589C80.3985 12.7589 81.2335 12.9346 81.894 13.2859C82.5545 13.6188 83.0774 14.0164 83.4626 14.4786C83.866 14.9409 84.1601 15.3385 84.3433 15.6713H84.5084V13.0363H86.5449V27.737H84.5084V25.102H84.3433C84.1601 25.4533 83.866 25.8602 83.4626 26.3224C83.0774 26.7662 82.5545 27.1638 81.894 27.5151C81.2335 27.848 80.3985 28.0144 79.3896 28.0144C78.2888 28.0144 77.3256 27.8018 76.5 27.3764C75.6744 26.9326 74.9864 26.3502 74.436 25.629C73.8856 24.8894 73.4728 24.0664 73.1976 23.1604C72.9405 22.2543 72.8123 21.3297 72.8123 20.3867C72.8123 19.4436 72.9405 18.519 73.1976 17.6129C73.4728 16.7069 73.8856 15.8932 74.436 15.1721C74.9864 14.4324 75.6744 13.8499 76.5 13.4246C77.3256 12.9808 78.2888 12.7589 79.3896 12.7589ZM79.6924 14.5618C78.6097 14.5618 77.7109 14.8485 76.9954 15.4217C76.2799 15.9949 75.7476 16.7254 75.3992 17.6129C75.0509 18.5005 74.8763 19.4251 74.8763 20.3867C74.8763 21.3482 75.0509 22.2728 75.3992 23.1604C75.7476 24.048 76.2799 24.7784 76.9954 25.3516C77.7109 25.9248 78.6097 26.2115 79.6924 26.2115C80.7562 26.2115 81.6369 25.9248 82.3343 25.3516C83.0498 24.7784 83.5821 24.048 83.9305 23.1604C84.2977 22.2728 84.4809 21.3482 84.4809 20.3867C84.4809 19.4251 84.2977 18.5005 83.9305 17.6129C83.5821 16.7254 83.0498 15.9949 82.3343 15.4217C81.6369 14.8485 80.7562 14.5618 79.6924 14.5618ZM90.6657 27.737V13.0363H92.7297V14.9502H92.8398C93.1339 14.3584 93.5829 13.8499 94.1883 13.4246C94.7938 12.9808 95.6382 12.7589 96.7202 12.7589C97.0693 12.7589 97.372 12.7774 97.6284 12.8144C97.9036 12.8514 98.0412 12.8699 98.0412 12.8699V14.867C98.0412 14.867 97.8949 14.8485 97.6008 14.8115C97.3075 14.7745 96.9954 14.756 96.6651 14.756C95.9134 14.756 95.2341 14.9132 94.6286 15.2275C94.042 15.5234 93.5742 16.0412 93.2251 16.7808C92.8949 17.502 92.7297 18.4913 92.7297 19.7487V27.737H90.6657ZM106.265 12.7589C107.274 12.7589 108.109 12.9346 108.769 13.2859C109.429 13.6188 109.952 14.0164 110.338 14.4786C110.742 14.9409 111.035 15.3385 111.218 15.6713H111.383V13.0363H113.42V27.737H111.383V25.102H111.218C111.035 25.4533 110.742 25.8602 110.338 26.3224C109.952 26.7662 109.429 27.1638 108.769 27.5151C108.109 27.848 107.274 28.0144 106.265 28.0144C105.164 28.0144 104.201 27.8018 103.375 27.3764C102.549 26.9326 101.861 26.3502 101.311 25.629C100.761 24.8894 100.348 24.0664 100.073 23.1604C99.8162 22.2543 99.6873 21.3297 99.6873 20.3867C99.6873 19.4436 99.8162 18.519 100.073 17.6129C100.348 16.7069 100.761 15.8932 101.311 15.1721C101.861 14.4324 102.549 13.8499 103.375 13.4246C104.201 12.9808 105.164 12.7589 106.265 12.7589ZM106.567 14.5618C105.485 14.5618 104.586 14.8485 103.87 15.4217C103.155 15.9949 102.623 16.7254 102.274 17.6129C101.926 18.5005 101.751 19.4251 101.751 20.3867C101.751 21.3482 101.926 22.2728 102.274 23.1604C102.623 24.048 103.155 24.7784 103.87 25.3516C104.586 25.9248 105.485 26.2115 106.567 26.2115C107.632 26.2115 108.513 25.9248 109.209 25.3516C109.925 24.7784 110.457 24.048 110.805 23.1604C111.173 22.2728 111.356 21.3482 111.356 20.3867C111.356 19.4251 111.173 18.5005 110.805 17.6129C110.457 16.7254 109.925 15.9949 109.209 15.4217C108.513 14.8485 107.632 14.5618 106.567 14.5618ZM123.68 28.0144C122.579 28.0144 121.616 27.8018 120.79 27.3764C119.965 26.9326 119.277 26.3502 118.726 25.629C118.176 24.8894 117.763 24.0664 117.488 23.1604C117.231 22.2543 117.103 21.3297 117.103 20.3867C117.103 19.4436 117.231 18.519 117.488 17.6129C117.763 16.7069 118.176 15.8932 118.726 15.1721C119.277 14.4324 119.965 13.8499 120.79 13.4246C121.616 12.9808 122.579 12.7589 123.68 12.7589C124.689 12.7589 125.524 12.9346 126.184 13.2859C126.845 13.6188 127.368 14.0164 127.753 14.4786C128.157 14.9409 128.45 15.3385 128.634 15.6713H128.799V6.65674H130.835V27.737H128.799V25.102H128.634C128.45 25.4533 128.157 25.8602 127.753 26.3224C127.368 26.7662 126.845 27.1638 126.184 27.5151C125.524 27.848 124.689 28.0144 123.68 28.0144ZM123.983 26.2115C125.047 26.2115 125.928 25.9248 126.625 25.3516C127.34 24.7784 127.872 24.048 128.221 23.1604C128.588 22.2728 128.771 21.3482 128.771 20.3867C128.771 19.4251 128.588 18.5005 128.221 17.6129C127.872 16.7254 127.34 15.9949 126.625 15.4217C125.928 14.8485 125.047 14.5618 123.983 14.5618C122.901 14.5618 122.001 14.8485 121.286 15.4217C120.57 15.9949 120.039 16.7254 119.689 17.6129C119.341 18.5005 119.167 19.4251 119.167 20.3867C119.167 21.3482 119.341 22.2728 119.689 23.1604C120.039 24.048 120.57 24.7784 121.286 25.3516C122.001 25.9248 122.901 26.2115 123.983 26.2115ZM136.546 10.2071C136.125 10.2071 135.776 10.0591 135.501 9.76331C135.225 9.46747 135.088 9.12535 135.088 8.73703C135.088 8.33024 135.225 7.98813 135.501 7.71075C135.776 7.41491 136.125 7.26696 136.546 7.26696C136.95 7.26696 137.289 7.41491 137.565 7.71075C137.859 7.98813 138.005 8.33024 138.005 8.73703C138.005 9.14382 137.859 9.49521 137.565 9.79104C137.289 10.0684 136.95 10.2071 136.546 10.2071ZM135.528 27.737V13.0363H137.592V27.737H135.528ZM147.006 28.0144C145.905 28.0144 144.997 27.8572 144.281 27.5429C143.584 27.2285 143.024 26.8402 142.602 26.3779C142.199 25.9156 141.906 25.4533 141.722 24.991C141.538 24.5288 141.419 24.1405 141.364 23.8261C141.309 23.5117 141.281 23.3545 141.281 23.3545H143.4C143.4 23.3545 143.428 23.5025 143.483 23.7983C143.538 24.0757 143.676 24.4086 143.896 24.7969C144.135 25.1667 144.501 25.4996 144.997 25.7954C145.492 26.0728 146.171 26.2115 147.033 26.2115C147.969 26.2115 148.712 25.9711 149.262 25.4903C149.813 25.0095 150.088 24.4178 150.088 23.7151C150.088 23.0494 149.859 22.5317 149.4 22.1618C148.959 21.792 148.363 21.5239 147.611 21.3575L145.685 20.9137C144.951 20.7288 144.281 20.4791 143.676 20.1648C143.07 19.8504 142.584 19.4343 142.217 18.9166C141.851 18.3803 141.667 17.7239 141.667 16.9472C141.667 15.7083 142.116 14.7005 143.015 13.9239C143.915 13.1472 145.089 12.7589 146.538 12.7589C147.51 12.7589 148.308 12.9069 148.932 13.2027C149.574 13.4801 150.079 13.8314 150.446 14.2567C150.831 14.6821 151.106 15.1073 151.271 15.5327C151.455 15.9394 151.574 16.2908 151.629 16.5867C151.684 16.864 151.711 17.0027 151.711 17.0027H149.703C149.703 17.0027 149.666 16.8825 149.592 16.6421C149.537 16.3832 149.409 16.0967 149.207 15.7823C149.024 15.4494 148.712 15.1628 148.271 14.9224C147.85 14.6635 147.272 14.5341 146.538 14.5341C145.584 14.5341 144.868 14.7653 144.391 15.2275C143.933 15.6898 143.703 16.2168 143.703 16.8086C143.703 17.3818 143.905 17.8348 144.309 18.1677C144.731 18.5005 145.299 18.7502 146.015 18.9166L147.969 19.3881C149.198 19.684 150.198 20.174 150.968 20.8582C151.739 21.5239 152.124 22.4485 152.124 23.6319C152.124 24.427 151.914 25.1575 151.491 25.8232C151.088 26.4889 150.501 27.0251 149.73 27.4319C148.978 27.8202 148.07 28.0144 147.006 28.0144ZM161.875 28.0144C160.7 28.0144 159.682 27.8018 158.82 27.3764C157.958 26.9326 157.252 26.3409 156.701 25.6013C156.151 24.8616 155.738 24.0387 155.463 23.1327C155.206 22.2266 155.078 21.3113 155.078 20.3867C155.078 19.4621 155.206 18.5467 155.463 17.6407C155.738 16.7346 156.151 15.9117 156.701 15.1721C157.252 14.4324 157.94 13.8499 158.765 13.4246C159.609 12.9808 160.609 12.7589 161.765 12.7589C162.976 12.7589 164.049 13.0456 164.985 13.6188C165.939 14.192 166.682 15.0427 167.214 16.1706C167.764 17.2801 168.04 18.6762 168.04 20.3589V20.9691H157.169C157.205 21.9122 157.407 22.7813 157.775 23.5764C158.16 24.3716 158.691 25.0095 159.371 25.4903C160.068 25.9711 160.903 26.2115 161.875 26.2115C162.682 26.2115 163.352 26.0728 163.884 25.7954C164.416 25.4996 164.82 25.1667 165.095 24.7969C165.388 24.4086 165.59 24.0757 165.7 23.7983C165.829 23.521 165.893 23.3823 165.893 23.3823H167.847C167.847 23.3823 167.801 23.5394 167.709 23.8538C167.617 24.1497 167.452 24.5288 167.214 24.991C166.975 25.4533 166.627 25.9156 166.168 26.3779C165.728 26.8402 165.159 27.2285 164.462 27.5429C163.765 27.8572 162.902 28.0144 161.875 28.0144ZM157.197 19.3049H165.976C165.921 18.177 165.691 17.2708 165.288 16.5867C164.902 15.884 164.398 15.3755 163.774 15.0611C163.15 14.7467 162.481 14.5896 161.765 14.5896C160.462 14.5896 159.407 15.0241 158.6 15.8932C157.793 16.7438 157.325 17.881 157.197 19.3049Z" fill="#73C41D"/>
<path d="M171.803 27.7375V7.21191H175.023V15.8659H184.132V7.21191H187.352V27.7375H184.132V18.7506H175.023V27.7375H171.803ZM191.53 27.7375V7.21191H199.098C200.547 7.21191 201.767 7.49856 202.758 8.07177C203.767 8.62651 204.528 9.36615 205.042 10.2907C205.556 11.1968 205.813 12.1861 205.813 13.2586C205.813 14.553 205.446 15.7272 204.712 16.7813C203.996 17.8353 202.941 18.5749 201.547 19.0002L206.446 27.7375H202.841L198.217 19.3608H194.75V27.7375H191.53ZM199.043 10.0411H194.75V16.6426H199.043C200.199 16.6426 201.07 16.3097 201.657 15.644C202.244 14.9599 202.538 14.1924 202.538 13.3418C202.538 12.4913 202.244 11.7331 201.657 11.0674C201.07 10.3832 200.199 10.0411 199.043 10.0411ZM210.315 27.7375V7.21191H214.581L220.112 18.8893L225.727 7.21191H229.937V27.7375H226.772V12.0382L221.626 22.6338H218.626L213.48 11.9827V27.7375H210.315Z" fill="#004C39"/>
<path d="M62.7963 44.5259H61.7913L57.7047 38.1797H57.6637C57.6739 38.3485 57.6859 38.5415 57.6995 38.7585C57.7132 38.9722 57.7235 39.2013 57.7303 39.4459C57.7406 39.687 57.7457 39.9334 57.7457 40.1849V44.5259H56.9355V36.9704H57.9354L62.0067 43.2959H62.0426C62.0357 43.1754 62.0272 43.0049 62.0169 42.7843C62.0067 42.5604 61.9965 42.321 61.9862 42.066C61.9794 41.8076 61.9759 41.5681 61.9759 41.3477V36.9704H62.7963V44.5259ZM65.5652 36.4846V38.8877C65.5652 39.0255 65.5618 39.1651 65.5549 39.3063C65.5481 39.4441 65.5361 39.5716 65.5191 39.6887H65.5754C65.6916 39.4889 65.8386 39.3219 66.0164 39.1875C66.1976 39.0497 66.4027 38.9463 66.6317 38.8774C66.8607 38.8051 67.1034 38.7689 67.3598 38.7689C67.8111 38.7689 68.1871 38.8412 68.4878 38.9859C68.7921 39.1306 69.0194 39.3546 69.1698 39.6578C69.3237 39.9609 69.4006 40.3537 69.4006 40.836V44.5259H68.5597V40.8929C68.5597 40.4209 68.452 40.0678 68.2366 39.8335C68.0247 39.5992 67.6982 39.482 67.2572 39.482C66.8402 39.482 66.507 39.563 66.2574 39.7249C66.0113 39.8834 65.8335 40.1177 65.7241 40.4278C65.6181 40.7378 65.5652 41.1168 65.5652 41.5647V44.5259H64.714V36.4846H65.5652ZM73.2565 38.7689C73.9264 38.7689 74.424 38.9205 74.7484 39.2236C75.0736 39.5268 75.2358 40.0109 75.2358 40.6758V44.5259H74.6152L74.4515 43.6887H74.4102C74.253 43.8954 74.0886 44.0695 73.9177 44.2107C73.7468 44.3485 73.5484 44.4536 73.3231 44.5259C73.1008 44.5949 72.8278 44.6293 72.5026 44.6293C72.1609 44.6293 71.8566 44.569 71.59 44.4484C71.3268 44.3278 71.1183 44.1452 70.9644 43.9006C70.814 43.656 70.7388 43.3459 70.7388 42.9704C70.7388 42.4054 70.961 41.9713 71.4054 41.6681C71.8498 41.3649 72.5265 41.1995 73.4361 41.1719L74.4051 41.1306V40.7843C74.4051 40.2951 74.3008 39.9523 74.0923 39.7559C73.8837 39.5595 73.5897 39.4613 73.2102 39.4613C72.9161 39.4613 72.6359 39.5044 72.3694 39.5905C72.1028 39.6767 71.8498 39.7784 71.6105 39.8954L71.349 39.2443C71.602 39.1134 71.8925 39.0014 72.2207 38.9084C72.549 38.8154 72.8944 38.7689 73.2565 38.7689ZM74.395 41.7353L73.5382 41.7714C72.8379 41.799 72.3438 41.9144 72.0566 42.1177C71.7695 42.321 71.6259 42.6086 71.6259 42.9808C71.6259 43.3046 71.7234 43.544 71.9182 43.6991C72.113 43.8541 72.3711 43.9316 72.6924 43.9316C73.1913 43.9316 73.5998 43.7921 73.9177 43.513C74.2357 43.234 74.395 42.8154 74.395 42.2572V41.7353ZM73.6157 36.4226C73.7012 36.5776 73.8207 36.7534 73.9742 36.9497C74.1285 37.1427 74.2907 37.3322 74.4616 37.5182C74.6325 37.7043 74.7846 37.8645 74.9179 37.9989V38.1125H74.3124C74.1285 37.9919 73.9387 37.8438 73.7439 37.6681C73.5484 37.4924 73.3594 37.3098 73.1747 37.1203C72.99 37.3098 72.8017 37.4924 72.6105 37.6681C72.4222 37.8403 72.2361 37.9885 72.0515 38.1125H71.467V37.9989C71.5968 37.8611 71.7438 37.6991 71.9079 37.513C72.0754 37.327 72.2344 37.1375 72.3848 36.9446C72.5388 36.7516 72.6598 36.5776 72.7488 36.4226H73.6157ZM79.6506 38.7585C80.3169 38.7585 80.821 38.9239 81.1628 39.2546C81.5046 39.5819 81.6756 40.1091 81.6756 40.836V44.5259H80.8347V40.8929C80.8347 40.4209 80.7275 40.0678 80.5117 39.8335C80.3003 39.5992 79.9736 39.482 79.5326 39.482C78.9105 39.482 78.4731 39.6594 78.2196 40.0143C77.9668 40.3692 77.8401 40.8843 77.8401 41.5595V44.5259H76.9891V38.8619H77.6764L77.8046 39.6784H77.851C77.9705 39.4786 78.1225 39.3115 78.3072 39.1771C78.4919 39.0393 78.6983 38.9359 78.9271 38.867C79.1567 38.7947 79.3972 38.7585 79.6506 38.7585ZM89.7926 42.9756C89.7926 43.3373 89.7021 43.6422 89.521 43.8903C89.3428 44.1349 89.0865 44.3192 88.7519 44.4432C88.4202 44.5673 88.0241 44.6293 87.562 44.6293C87.1695 44.6293 86.8291 44.5983 86.5416 44.5363C86.2548 44.4743 86.0035 44.3864 85.7884 44.2727V43.482C86.0172 43.5957 86.2903 43.6991 86.6082 43.7921C86.9261 43.8851 87.2513 43.9316 87.583 43.9316C88.0682 43.9316 88.4202 43.8524 88.6389 43.6939C88.8576 43.5354 88.967 43.3201 88.967 43.0479C88.967 42.8929 88.9228 42.7568 88.8337 42.6397C88.7483 42.5191 88.6034 42.4036 88.3977 42.2934C88.1928 42.1797 87.9089 42.0557 87.5468 41.9213C87.1876 41.7835 86.8769 41.6474 86.614 41.513C86.354 41.3752 86.1519 41.2081 86.0085 41.0117C85.8688 40.8154 85.7985 40.5604 85.7985 40.2469C85.7985 39.768 85.9897 39.4011 86.3728 39.1461C86.7588 38.8877 87.2651 38.7585 87.8901 38.7585C88.229 38.7585 88.5448 38.793 88.8388 38.8619C89.1364 38.9273 89.4131 39.0169 89.6695 39.1306L89.3827 39.8179C89.1502 39.7181 88.9025 39.6336 88.6389 39.5647C88.376 39.4958 88.1073 39.4613 87.8343 39.4613C87.4411 39.4613 87.1383 39.5268 86.9261 39.6578C86.7176 39.7887 86.614 39.9678 86.614 40.1952C86.614 40.3709 86.6618 40.5157 86.7574 40.6293C86.8566 40.743 87.0138 40.8498 87.2289 40.9497C87.4439 41.0497 87.7278 41.1668 88.0798 41.3011C88.4325 41.4321 88.7367 41.5681 88.9931 41.7095C89.2494 41.8473 89.4457 42.016 89.5826 42.2159C89.7223 42.4122 89.7926 42.6655 89.7926 42.9756ZM97.4888 37.9833L97.5605 38.097C97.5236 38.3451 97.4649 38.5828 97.3867 38.8102C97.3114 39.0376 97.2071 39.2426 97.0739 39.4252C96.9406 39.6078 96.7697 39.7594 96.5611 39.88C96.3562 40.0005 96.1027 40.0781 95.8021 40.1125V44.5259H95.1047L94.9816 43.7301H94.9353C94.8194 43.9265 94.6709 44.0919 94.4899 44.2262C94.3081 44.3605 94.1031 44.4605 93.8743 44.5259C93.6454 44.5949 93.4028 44.6293 93.1464 44.6293C92.6945 44.6293 92.3172 44.557 92.013 44.4122C91.7089 44.2676 91.48 44.0436 91.3258 43.7404C91.1751 43.4373 91.1005 43.0479 91.1005 42.5724V38.8722H91.9616V42.5105C91.9616 42.9824 92.0674 43.3356 92.2795 43.5699C92.4917 43.8007 92.8147 43.9162 93.2486 43.9162C93.8707 43.9162 94.3081 43.7387 94.5616 43.3838C94.8179 43.0289 94.9461 42.5156 94.9461 41.8438V38.8722H95.8021V39.5027C96.0209 39.4613 96.1867 39.3735 96.2997 39.2392C96.4127 39.1048 96.4894 38.9308 96.53 38.7172C96.5713 38.5035 96.5915 38.2589 96.5915 37.9833H97.4888ZM93.3253 46.3399C93.1819 46.3399 93.061 46.2934 92.9618 46.2003C92.8625 46.1073 92.8126 45.9661 92.8126 45.7766C92.8126 45.5837 92.8625 45.4407 92.9618 45.3476C93.061 45.2581 93.1819 45.2133 93.3253 45.2133C93.4723 45.2133 93.5955 45.2581 93.6947 45.3476C93.7939 45.4407 93.8431 45.5837 93.8431 45.7766C93.8431 45.9661 93.7939 46.1073 93.6947 46.2003C93.5955 46.2934 93.4723 46.3399 93.3253 46.3399ZM100.376 42.066V41.3011H102.919V42.066H100.376ZM110.297 37.6371C109.884 37.6371 109.512 37.7095 109.18 37.8541C108.852 37.9954 108.572 38.2021 108.339 38.4743C108.11 38.743 107.934 39.0686 107.811 39.4511C107.688 39.8335 107.626 40.2641 107.626 40.743C107.626 41.377 107.723 41.9282 107.918 42.3968C108.117 42.8619 108.411 43.2219 108.8 43.4768C109.194 43.7318 109.684 43.8593 110.272 43.8593C110.607 43.8593 110.922 43.8317 111.216 43.7766C111.513 43.718 111.802 43.6457 112.082 43.5595V44.3244C111.809 44.4278 111.521 44.5035 111.221 44.5518C110.919 44.6035 110.562 44.6293 110.149 44.6293C109.386 44.6293 108.749 44.4708 108.236 44.1538C107.727 43.8335 107.344 43.3821 107.088 42.7999C106.835 42.2176 106.708 41.5303 106.708 40.7378C106.708 40.1659 106.787 39.644 106.944 39.1719C107.105 38.6965 107.337 38.2865 107.642 37.942C107.949 37.5975 108.325 37.3322 108.77 37.1461C109.218 36.9566 109.73 36.8619 110.308 36.8619C110.687 36.8619 111.053 36.8998 111.405 36.9756C111.757 37.0513 112.075 37.1599 112.359 37.3012L112.01 38.0454C111.771 37.9351 111.508 37.8403 111.221 37.7611C110.937 37.6784 110.629 37.6371 110.297 37.6371ZM114.43 36.4846V38.8877C114.43 39.0255 114.427 39.1651 114.42 39.3063C114.413 39.4441 114.402 39.5716 114.384 39.6887H114.441C114.557 39.4889 114.704 39.3219 114.882 39.1875C115.063 39.0497 115.268 38.9463 115.497 38.8774C115.726 38.8051 115.969 38.7689 116.225 38.7689C116.676 38.7689 117.052 38.8412 117.353 38.9859C117.658 39.1306 117.885 39.3546 118.035 39.6578C118.189 39.9609 118.266 40.3537 118.266 40.836V44.5259H117.425V40.8929C117.425 40.4209 117.317 40.0678 117.102 39.8335C116.89 39.5992 116.563 39.482 116.122 39.482C115.706 39.482 115.372 39.563 115.123 39.7249C114.877 39.8834 114.698 40.1177 114.589 40.4278C114.483 40.7378 114.43 41.1168 114.43 41.5647V44.5259H113.58V36.4846H114.43ZM122.122 38.7689C122.792 38.7689 123.289 38.9205 123.614 39.2236C123.939 39.5268 124.101 40.0109 124.101 40.6758V44.5259H123.48L123.317 43.6887H123.275C123.118 43.8954 122.954 44.0695 122.783 44.2107C122.612 44.3485 122.414 44.4536 122.188 44.5259C121.966 44.5949 121.693 44.6293 121.368 44.6293C121.026 44.6293 120.722 44.569 120.455 44.4484C120.192 44.3278 119.984 44.1452 119.83 43.9006C119.68 43.656 119.604 43.3459 119.604 42.9704C119.604 42.4054 119.827 41.9713 120.271 41.6681C120.715 41.3649 121.392 41.1995 122.301 41.1719L123.27 41.1306V40.7843C123.27 40.2951 123.166 39.9523 122.957 39.7559C122.749 39.5595 122.455 39.4613 122.075 39.4613C121.781 39.4613 121.501 39.5044 121.235 39.5905C120.968 39.6767 120.715 39.7784 120.476 39.8954L120.214 39.2443C120.468 39.1134 120.758 39.0014 121.086 38.9084C121.414 38.8154 121.76 38.7689 122.122 38.7689ZM123.26 41.7353L122.403 41.7714C121.703 41.799 121.209 41.9144 120.922 42.1177C120.635 42.321 120.491 42.6086 120.491 42.9808C120.491 43.3046 120.589 43.544 120.783 43.6991C120.978 43.8541 121.237 43.9316 121.558 43.9316C122.056 43.9316 122.465 43.7921 122.783 43.513C123.101 43.234 123.26 42.8154 123.26 42.2572V41.7353ZM123.573 38.1125H123.091C122.916 37.9919 122.735 37.8576 122.548 37.7095C122.363 37.5613 122.183 37.4028 122.009 37.234C121.828 37.4028 121.645 37.5613 121.46 37.7095C121.279 37.8576 121.101 37.9919 120.927 38.1125H120.44V37.9885C120.56 37.8576 120.686 37.7181 120.82 37.5699C120.953 37.4218 121.085 37.2684 121.214 37.11C121.344 36.9515 121.462 36.7947 121.568 36.6397H122.45C122.555 36.7947 122.672 36.9515 122.799 37.11C122.928 37.2684 123.06 37.4218 123.194 37.5699C123.327 37.7181 123.454 37.8576 123.573 37.9885V38.1125ZM123.167 36.9859C123.308 36.8137 123.426 36.65 123.522 36.495C123.621 36.34 123.725 36.1522 123.834 35.9316H124.69V36.0402C124.543 36.24 124.38 36.4312 124.198 36.6138C124.021 36.793 123.841 36.9566 123.66 37.1048H123.167V36.9859ZM131.957 38.7585C132.575 38.7585 133.041 38.9221 133.356 39.2494C133.671 39.5733 133.828 40.0953 133.828 40.8154V44.5259H132.987V40.8567C132.987 40.3985 132.888 40.0557 132.689 39.8283C132.495 39.5975 132.204 39.482 131.817 39.482C131.274 39.482 130.88 39.6405 130.633 39.9575C130.387 40.2745 130.264 40.7413 130.264 41.358V44.5259H129.418V40.8567C129.418 40.5501 129.374 40.2951 129.285 40.0919C129.199 39.8886 129.07 39.737 128.895 39.637C128.724 39.5337 128.507 39.482 128.244 39.482C127.871 39.482 127.572 39.5595 127.347 39.7146C127.121 39.8696 126.957 40.1005 126.854 40.4071C126.755 40.7103 126.706 41.0841 126.706 41.5286V44.5259H125.854V38.8619H126.542L126.67 39.6629H126.716C126.829 39.4665 126.97 39.3011 127.141 39.1668C127.312 39.0324 127.504 38.9308 127.716 38.8619C127.928 38.793 128.154 38.7585 128.393 38.7585C128.82 38.7585 129.177 38.8395 129.465 39.0014C129.755 39.1599 129.965 39.4028 130.095 39.7301H130.141C130.326 39.4028 130.578 39.1599 130.9 39.0014C131.221 38.8395 131.573 38.7585 131.957 38.7585ZM140.555 44.6293C140.049 44.6293 139.603 44.5242 139.217 44.314C138.831 44.1039 138.53 43.7835 138.314 43.3528C138.099 42.9221 137.991 42.3795 137.991 41.7249C137.991 41.0393 138.104 40.4795 138.33 40.0454C138.559 39.6078 138.874 39.2839 139.273 39.0738C139.673 38.8636 140.128 38.7585 140.637 38.7585C140.917 38.7585 141.187 38.7878 141.447 38.8464C141.71 38.9015 141.926 38.9722 142.093 39.0583L141.837 39.7766C141.666 39.7077 141.468 39.6457 141.242 39.5905C141.02 39.5354 140.812 39.5078 140.617 39.5078C140.227 39.5078 139.902 39.5923 139.643 39.7611C139.386 39.93 139.193 40.178 139.063 40.5053C138.937 40.8326 138.874 41.2357 138.874 41.7146C138.874 42.1728 138.935 42.5638 139.058 42.8877C139.184 43.2116 139.37 43.4596 139.617 43.6319C139.866 43.8007 140.177 43.8851 140.55 43.8851C140.847 43.8851 141.116 43.8541 141.355 43.7921C141.594 43.7266 141.812 43.6508 142.007 43.5647V44.3296C141.818 44.426 141.608 44.5001 141.376 44.5518C141.146 44.6035 140.873 44.6293 140.555 44.6293ZM148.185 41.6836C148.185 42.1487 148.125 42.5638 148.005 42.9291C147.886 43.2943 147.713 43.6026 147.487 43.8541C147.262 44.1057 146.988 44.2986 146.667 44.433C146.349 44.5638 145.988 44.6293 145.585 44.6293C145.209 44.6293 144.864 44.5638 144.549 44.433C144.239 44.2986 143.968 44.1057 143.74 43.8541C143.514 43.6026 143.338 43.2943 143.211 42.9291C143.088 42.5638 143.027 42.1487 143.027 41.6836C143.027 41.0634 143.131 40.5363 143.339 40.1022C143.548 39.6646 143.845 39.3322 144.231 39.1048C144.621 38.874 145.084 38.7585 145.621 38.7585C146.134 38.7585 146.581 38.874 146.965 39.1048C147.351 39.3356 147.65 39.6698 147.862 40.1073C148.077 40.5415 148.185 41.0669 148.185 41.6836ZM143.908 41.6836C143.908 42.1384 143.968 42.5328 144.088 42.867C144.207 43.2012 144.392 43.4596 144.642 43.6422C144.891 43.8249 145.213 43.9162 145.606 43.9162C145.996 43.9162 146.315 43.8249 146.565 43.6422C146.818 43.4596 147.004 43.2012 147.124 42.867C147.243 42.5328 147.303 42.1384 147.303 41.6836C147.303 41.2322 147.243 40.843 147.124 40.5157C147.004 40.1849 146.819 39.93 146.57 39.7508C146.32 39.5716 145.997 39.482 145.601 39.482C145.016 39.482 144.587 39.6767 144.314 40.066C144.044 40.4554 143.908 40.9945 143.908 41.6836ZM146.047 36.4226C146.132 36.5776 146.252 36.7534 146.405 36.9497C146.56 37.1427 146.722 37.3322 146.893 37.5182C147.064 37.7043 147.216 37.8645 147.349 37.9989V38.1125H146.744C146.56 37.9919 146.37 37.8438 146.175 37.6681C145.98 37.4924 145.791 37.3098 145.606 37.1203C145.421 37.3098 145.233 37.4924 145.042 37.6681C144.853 37.8403 144.667 37.9885 144.483 38.1125H143.898V37.9989C144.029 37.8611 144.175 37.6991 144.339 37.513C144.507 37.327 144.666 37.1375 144.816 36.9446C144.97 36.7516 145.091 36.5776 145.18 36.4226H146.047ZM152.318 38.7585C152.984 38.7585 153.488 38.9239 153.83 39.2546C154.172 39.5819 154.343 40.1091 154.343 40.836V44.5259H153.502V40.8929C153.502 40.4209 153.394 40.0678 153.179 39.8335C152.967 39.5992 152.641 39.482 152.2 39.482C151.578 39.482 151.14 39.6594 150.887 40.0143C150.634 40.3692 150.507 40.8843 150.507 41.5595V44.5259H149.656V38.8619H150.344L150.472 39.6784H150.518C150.638 39.4786 150.79 39.3115 150.975 39.1771C151.159 39.0393 151.366 38.9359 151.594 38.867C151.824 38.7947 152.064 38.7585 152.318 38.7585ZM157.666 47.0686C156.928 47.0686 156.358 46.929 155.958 46.65C155.558 46.3743 155.358 45.9868 155.358 45.4872C155.358 45.1323 155.47 44.8292 155.691 44.5776C155.917 44.3261 156.228 44.159 156.625 44.0763C156.478 44.0074 156.351 43.904 156.245 43.7662C156.143 43.6284 156.092 43.47 156.092 43.2908C156.092 43.0841 156.148 42.9032 156.261 42.7482C156.377 42.5897 156.553 42.4381 156.789 42.2934C156.495 42.1728 156.256 41.9695 156.071 41.6836C155.89 41.3942 155.799 41.0583 155.799 40.6758C155.799 40.2693 155.883 39.923 156.051 39.637C156.218 39.3477 156.46 39.1272 156.778 38.9756C157.096 38.824 157.481 38.7482 157.932 38.7482C158.031 38.7482 158.131 38.7534 158.23 38.7637C158.333 38.7706 158.43 38.7827 158.522 38.7999C158.614 38.8137 158.695 38.8309 158.763 38.8516H160.691V39.4045L159.655 39.5337C159.758 39.6681 159.843 39.83 159.911 40.0195C159.98 40.209 160.014 40.4192 160.014 40.65C160.014 41.215 159.824 41.6646 159.445 41.9988C159.065 42.3296 158.544 42.4949 157.881 42.4949C157.723 42.4949 157.563 42.4811 157.399 42.4536C157.232 42.5466 157.104 42.65 157.014 42.7637C156.929 42.8774 156.886 43.0083 156.886 43.1565C156.886 43.2667 156.919 43.3546 156.983 43.42C157.052 43.4854 157.149 43.5337 157.276 43.5647C157.403 43.5923 157.555 43.606 157.732 43.606H158.722C159.334 43.606 159.802 43.7352 160.127 43.9937C160.455 44.2521 160.619 44.6293 160.619 45.1254C160.619 45.7524 160.366 46.2331 159.86 46.5673C159.354 46.9015 158.623 47.0686 157.666 47.0686ZM157.692 46.3968C158.156 46.3968 158.54 46.3485 158.845 46.252C159.152 46.159 159.382 46.023 159.532 45.8438C159.686 45.6681 159.763 45.4579 159.763 45.2133C159.763 44.9859 159.711 44.8136 159.609 44.6965C159.507 44.5828 159.356 44.507 159.157 44.4691C158.96 44.4278 158.717 44.4071 158.43 44.4071H157.456C157.203 44.4071 156.982 44.4467 156.794 44.5259C156.606 44.6052 156.46 44.7223 156.358 44.8773C156.259 45.0324 156.209 45.2254 156.209 45.4562C156.209 45.7628 156.337 45.9954 156.594 46.1538C156.85 46.3158 157.216 46.3968 157.692 46.3968ZM157.912 41.8696C158.319 41.8696 158.624 41.7662 158.829 41.5595C159.035 41.3528 159.137 41.0513 159.137 40.6551C159.137 40.2314 159.033 39.9144 158.824 39.7043C158.616 39.4906 158.309 39.3838 157.902 39.3838C157.512 39.3838 157.211 39.4941 156.999 39.7146C156.791 39.9316 156.686 40.2503 156.686 40.6707C156.686 41.0565 156.792 41.3528 157.004 41.5595C157.216 41.7662 157.519 41.8696 157.912 41.8696ZM164.05 42.066V41.3011H166.593V42.066H164.05ZM173.069 44.5259H172.192V37.7456H169.833V36.9704H175.417V37.7456H173.069V44.5259ZM177.273 44.5259H176.422V38.8619H177.273V44.5259ZM178.335 36.4175V36.5208C178.267 36.6207 178.173 36.7413 178.053 36.8826C177.936 37.0204 177.807 37.1668 177.663 37.3219C177.519 37.4735 177.374 37.6181 177.227 37.7559C177.083 37.8938 176.95 38.0126 176.827 38.1125H176.258V37.9885C176.368 37.8576 176.487 37.7008 176.617 37.5182C176.747 37.3322 176.873 37.1427 176.996 36.9497C177.119 36.7534 177.222 36.5759 177.304 36.4175H178.335ZM181.739 38.7585C182.406 38.7585 182.91 38.9239 183.252 39.2546C183.594 39.5819 183.765 40.1091 183.765 40.836V44.5259H182.924V40.8929C182.924 40.4209 182.816 40.0678 182.601 39.8335C182.389 39.5992 182.062 39.482 181.621 39.482C180.999 39.482 180.562 39.6594 180.309 40.0143C180.055 40.3692 179.929 40.8843 179.929 41.5595V44.5259H179.079V38.8619H179.765L179.893 39.6784H179.94C180.059 39.4786 180.211 39.3115 180.396 39.1771C180.581 39.0393 180.788 38.9359 181.017 38.867C181.245 38.7947 181.487 38.7585 181.739 38.7585ZM186.369 36.4846V38.8877C186.369 39.0255 186.366 39.1651 186.359 39.3063C186.353 39.4441 186.34 39.5716 186.324 39.6887H186.38C186.496 39.4889 186.643 39.3219 186.82 39.1875C187.002 39.0497 187.207 38.9463 187.436 38.8774C187.665 38.8051 187.907 38.7689 188.164 38.7689C188.616 38.7689 188.992 38.8412 189.292 38.9859C189.596 39.1306 189.824 39.3546 189.974 39.6578C190.128 39.9609 190.205 40.3537 190.205 40.836V44.5259H189.364V40.8929C189.364 40.4209 189.257 40.0678 189.041 39.8335C188.829 39.5992 188.503 39.482 188.062 39.482C187.645 39.482 187.311 39.563 187.062 39.7249C186.815 39.8834 186.638 40.1177 186.529 40.4278C186.423 40.7378 186.369 41.1168 186.369 41.5647V44.5259H185.518V36.4846H186.369ZM195.543 44.5259H194.686V36.4846H195.543V44.5259ZM203.67 37.9833L203.742 38.097C203.704 38.3451 203.646 38.5828 203.567 38.8102C203.492 39.0376 203.388 39.2426 203.254 39.4252C203.121 39.6078 202.95 39.7594 202.742 39.88C202.537 40.0005 202.284 40.0781 201.983 40.1125V44.5259H201.285L201.162 43.7301H201.116C201 43.9265 200.851 44.0919 200.67 44.2262C200.489 44.3605 200.284 44.4605 200.055 44.5259C199.826 44.5949 199.583 44.6293 199.327 44.6293C198.876 44.6293 198.498 44.557 198.194 44.4122C197.889 44.2676 197.66 44.0436 197.506 43.7404C197.356 43.4373 197.281 43.0479 197.281 42.5724V38.8722H198.142V42.5105C198.142 42.9824 198.249 43.3356 198.46 43.5699C198.672 43.8007 198.995 43.9162 199.429 43.9162C200.051 43.9162 200.489 43.7387 200.742 43.3838C200.998 43.0289 201.127 42.5156 201.127 41.8438V38.8722H201.983V39.5027C202.201 39.4613 202.367 39.3735 202.48 39.2392C202.593 39.1048 202.67 38.9308 202.711 38.7172C202.752 38.5035 202.773 38.2589 202.773 37.9833H203.67ZM209.151 41.6836C209.151 42.3038 209.045 42.8343 208.833 43.2753C208.624 43.7129 208.325 44.0488 207.936 44.283C207.55 44.5139 207.088 44.6293 206.552 44.6293C206.052 44.6293 205.61 44.5139 205.223 44.283C204.837 44.0488 204.535 43.7129 204.316 43.2753C204.1 42.8343 203.993 42.3038 203.993 41.6836C203.993 40.7533 204.223 40.0333 204.685 39.5234C205.15 39.0135 205.784 38.7585 206.587 38.7585C206.96 38.7585 207.3 38.8223 207.608 38.9497C207.919 39.0772 208.186 39.2581 208.408 39.4924C208.609 39.4269 208.761 39.3253 208.864 39.1875C208.966 39.0462 209.035 38.874 209.069 38.6707C209.103 38.4674 209.121 38.2417 209.121 37.9937H210.023L210.095 38.1022C210.04 38.426 209.96 38.7138 209.853 38.9652C209.748 39.2167 209.607 39.4303 209.433 39.6061C209.262 39.7818 209.047 39.9196 208.787 40.0195C208.903 40.2435 208.992 40.4949 209.054 40.774C209.118 41.0531 209.151 41.3563 209.151 41.6836ZM204.874 41.6836C204.874 42.1659 204.933 42.5742 205.049 42.9084C205.168 43.2392 205.353 43.4906 205.603 43.6629C205.856 43.8317 206.179 43.9162 206.572 43.9162C206.968 43.9162 207.292 43.83 207.541 43.6577C207.791 43.4854 207.973 43.234 208.09 42.9032C208.209 42.569 208.269 42.1624 208.269 41.6836C208.269 41.2081 208.209 40.8067 208.09 40.4795C207.973 40.1522 207.791 39.9041 207.541 39.7353C207.292 39.5665 206.967 39.482 206.567 39.482C205.979 39.482 205.55 39.6698 205.28 40.0454C205.01 40.4174 204.874 40.9635 204.874 41.6836ZM213.386 38.7585C214.053 38.7585 214.557 38.9239 214.899 39.2546C215.241 39.5819 215.412 40.1091 215.412 40.836V44.5259H214.571V40.8929C214.571 40.4209 214.463 40.0678 214.248 39.8335C214.036 39.5992 213.709 39.482 213.269 39.482C212.646 39.482 212.209 39.6594 211.956 40.0143C211.703 40.3692 211.576 40.8843 211.576 41.5595V44.5259H210.725V38.8619H211.413L211.541 39.6784H211.586C211.706 39.4786 211.858 39.3115 212.043 39.1771C212.227 39.0393 212.435 38.9359 212.663 38.867C212.892 38.7947 213.133 38.7585 213.386 38.7585ZM218.735 47.0686C217.996 47.0686 217.427 46.929 217.027 46.65C216.627 46.3743 216.427 45.9868 216.427 45.4872C216.427 45.1323 216.538 44.8292 216.76 44.5776C216.986 44.3261 217.297 44.159 217.694 44.0763C217.547 44.0074 217.42 43.904 217.314 43.7662C217.211 43.6284 217.16 43.47 217.16 43.2908C217.16 43.0841 217.217 42.9032 217.33 42.7482C217.445 42.5897 217.622 42.4381 217.857 42.2934C217.563 42.1728 217.324 41.9695 217.14 41.6836C216.959 41.3942 216.868 41.0583 216.868 40.6758C216.868 40.2693 216.951 39.923 217.119 39.637C217.287 39.3477 217.529 39.1272 217.847 38.9756C218.165 38.824 218.55 38.7482 219.001 38.7482C219.1 38.7482 219.199 38.7534 219.299 38.7637C219.401 38.7706 219.499 38.7827 219.591 38.7999C219.683 38.8137 219.764 38.8309 219.832 38.8516H221.76V39.4045L220.724 39.5337C220.827 39.6681 220.912 39.83 220.98 40.0195C221.048 40.209 221.083 40.4192 221.083 40.65C221.083 41.215 220.893 41.6646 220.514 41.9988C220.134 42.3296 219.613 42.4949 218.95 42.4949C218.792 42.4949 218.632 42.4811 218.468 42.4536C218.3 42.5466 218.172 42.65 218.083 42.7637C217.998 42.8774 217.955 43.0083 217.955 43.1565C217.955 43.2667 217.988 43.3546 218.052 43.42C218.121 43.4854 218.218 43.5337 218.345 43.5647C218.471 43.5923 218.623 43.606 218.801 43.606H219.79C220.402 43.606 220.871 43.7352 221.195 43.9937C221.523 44.2521 221.688 44.6293 221.688 45.1254C221.688 45.7524 221.435 46.2331 220.929 46.5673C220.423 46.9015 219.691 47.0686 218.735 47.0686ZM218.76 46.3968C219.225 46.3968 219.609 46.3485 219.914 46.252C220.221 46.159 220.45 46.023 220.601 45.8438C220.754 45.6681 220.832 45.4579 220.832 45.2133C220.832 44.9859 220.78 44.8136 220.678 44.6965C220.575 44.5828 220.425 44.507 220.226 44.4691C220.028 44.4278 219.785 44.4071 219.499 44.4071H218.524C218.271 44.4071 218.051 44.4467 217.863 44.5259C217.675 44.6052 217.529 44.7223 217.427 44.8773C217.328 45.0324 217.278 45.2254 217.278 45.4562C217.278 45.7628 217.406 45.9954 217.663 46.1538C217.919 46.3158 218.285 46.3968 218.76 46.3968ZM218.981 41.8696C219.387 41.8696 219.693 41.7662 219.898 41.5595C220.103 41.3528 220.206 41.0513 220.206 40.6551C220.206 40.2314 220.102 39.9144 219.893 39.7043C219.685 39.4906 219.377 39.3838 218.971 39.3838C218.58 39.3838 218.28 39.4941 218.068 39.7146C217.86 39.9316 217.755 40.2503 217.755 40.6707C217.755 41.0565 217.861 41.3528 218.073 41.5595C218.285 41.7662 218.587 41.8696 218.981 41.8696Z" fill="black" fill-opacity="0.4"/>
</svg>
