<svg width="250" height="64" viewBox="0 0 250 64" fill="none" xmlns="http://www.w3.org/2000/svg">
<g clip-path="url(#clip0_417_249)">
<mask id="mask0_417_249" style="mask-type:luminance" maskUnits="userSpaceOnUse" x="0" y="0" width="250" height="64">
<path d="M250 0H0V64H250V0Z" fill="white"/>
</mask>
<g mask="url(#mask0_417_249)">
<path d="M78.2266 48.1855C78.2266 44.4799 78.2266 40.8982 78.2266 37.3164C78.2266 35.2647 78.2253 35.2587 80.1903 34.8826C80.5116 34.8211 80.8472 34.8384 81.3184 34.8107C81.3184 35.5862 81.3184 36.3342 81.3184 37.2287C85.0691 33.2389 88.6353 32.9263 93.5059 37.1491C95.7253 35.2241 98.3103 34.0141 101.306 34.1272C104.234 34.238 106.79 35.3425 108.878 38.0357C108.878 36.9739 108.752 36.2983 108.92 35.7055C109.042 35.2783 109.494 34.8374 109.912 34.6328C110.278 34.4537 110.85 34.4766 111.243 34.6308C111.592 34.7672 112.065 35.2056 112.067 35.5135C112.114 42.3872 112.103 49.2614 112.103 56.3362C111.216 56.3362 110.363 56.3973 109.53 56.2985C109.284 56.2693 108.94 55.803 108.908 55.5084C108.822 54.7061 108.878 53.8887 108.878 52.9188C108.067 53.5739 107.432 54.199 106.694 54.6636C100.246 58.7292 91.7516 54.971 90.2641 47.6735C89.7541 45.175 89.9784 42.7779 91.1147 40.4976C91.4322 39.8603 91.3309 39.466 90.8409 38.9969C89.0428 37.2751 86.0234 36.3008 84.0359 38.155C82.9891 39.1316 82.0941 40.7104 81.9359 42.108C81.5097 45.8753 81.5084 49.6911 81.3559 53.4884C81.3197 54.3859 81.3503 55.2858 81.3503 56.2621C80.3297 56.2621 79.3997 56.2621 78.2266 56.2621C78.2266 53.6153 78.2266 50.9622 78.2266 48.1855ZM93.5059 47.4842C93.6278 47.8284 93.7272 48.1828 93.8753 48.5151C96.2616 53.8627 103.357 55.1049 107.141 50.8414C109.362 48.3387 109.761 44.5832 108.141 41.4193C106.648 38.5039 103.836 37.0404 100.345 37.3082C95.3747 37.69 92.2441 43.0111 93.5059 47.4842Z" fill="#71C11D"/>
<path d="M236.29 41.2102C234.471 42.9746 232.138 42.9461 229.683 43.3818C234.274 46.1454 237.42 49.8475 238.864 54.8556C239.058 55.5282 239.209 56.2131 239.224 56.9609C237.033 55.5932 235.928 53.3818 234.373 51.0734C234.373 52.45 234.373 53.4456 234.373 54.4412C234.22 54.4723 234.067 54.5032 233.913 54.5343C233.395 53.0171 232.877 51.5001 232.245 49.6533C232.142 50.977 232.065 51.9674 231.988 52.9578C231.804 52.9845 231.62 53.0109 231.435 53.0374C230.965 51.5263 230.495 50.0156 229.975 48.3456C229.915 49.3735 229.864 50.2325 229.814 51.0914C229.641 51.1268 229.468 51.1623 229.296 51.1979C228.783 49.7175 228.27 48.2371 227.75 46.7352C227.687 47.3814 227.625 48.0021 227.563 48.6229C227.41 48.6594 227.257 48.6962 227.105 48.7328C226.82 48.0639 226.511 47.4041 226.258 46.7236C225.943 45.878 225.731 44.9897 225.36 44.1713C225.195 43.8068 224.751 43.5676 224.433 43.2716C224.275 43.638 223.982 44.003 223.978 44.3707C223.943 47.8682 223.972 51.3662 223.94 54.8637C223.935 55.3404 223.759 56.1914 223.557 56.2242C222.723 56.3599 221.844 56.2821 220.992 56.186C220.874 56.1726 220.745 55.6179 220.744 55.3137C220.731 46.5486 220.738 37.7836 220.727 29.0183C220.725 28.2303 221.037 27.897 221.83 27.919C225.332 28.0161 228.841 27.9795 232.333 28.2093C235.821 28.4391 238.53 31.6344 238.605 35.1576C238.655 37.4812 238.208 39.5625 236.29 41.2102ZM230.467 40.0308C230.795 40.0075 231.13 40.0214 231.45 39.9554C234.01 39.4256 235.124 38.1669 235.152 35.8011C235.181 33.2282 234.155 31.7261 231.528 31.3493C229.263 31.0246 226.927 31.1711 224.622 31.1807C224.4 31.1815 223.995 31.6853 223.989 31.9626C223.938 34.3469 223.975 36.7332 223.948 39.1182C223.941 39.8239 224.231 40.0493 224.907 40.039C226.682 40.012 228.457 40.0306 230.467 40.0308Z" fill="#004C39"/>
<path d="M138.64 28.6855C138.64 37.937 138.64 47.0683 138.64 56.27C137.641 56.27 136.749 56.27 135.702 56.27C135.702 55.2141 135.702 54.1387 135.702 52.9343C129.026 58.748 122.169 56.1034 119.057 52.2726C115.564 47.9707 115.765 41.4014 120.147 37.2316C124.034 33.5329 130.601 32.5583 135.662 37.8602C135.662 34.5557 135.645 31.3609 135.681 28.1666C135.687 27.6891 135.862 26.8581 136.097 26.8047C136.834 26.6382 137.696 26.609 138.387 26.8611C138.645 26.9555 138.566 27.9701 138.64 28.6855ZM135.185 48.5141C135.344 47.4323 135.631 46.3515 135.641 45.2682C135.69 40.2383 131.866 36.8031 126.853 37.3149C122.09 37.8011 118.631 42.979 120.179 47.6841C121.198 50.7848 124.11 53.1626 127.077 53.3725C130.685 53.6275 133.551 51.9672 135.185 48.5141Z" fill="#72C31D"/>
<path d="M15.6267 60.0064L2.07179 41.7404C0.972538 40.2587 0.281957 38.5142 0.0700518 36.6817C-0.142484 34.8494 0.130589 32.9937 0.862162 31.3L9.91288 10.4478C10.6438 8.75674 11.8074 7.28813 13.2863 6.18985C14.7653 5.09162 16.5078 4.40252 18.3379 4.19204L40.9581 1.55082C42.7889 1.34186 44.6426 1.61714 46.3333 2.34896C48.0236 3.08084 49.4931 4.24368 50.5935 5.72124L64.1488 23.9878C65.2475 25.4693 65.9381 27.2136 66.15 29.0459C66.3625 30.8785 66.0894 32.7342 65.3581 34.4278L56.3073 55.2802C55.5759 56.9707 54.4114 58.4382 52.9325 59.5366C51.4536 60.634 49.7118 61.3241 47.8822 61.5359L25.2621 64.1765C23.4312 64.3905 21.5764 64.1169 19.8844 63.3847C18.1929 62.6526 16.7248 61.4875 15.6267 60.0064Z" fill="#004C39"/>
<path d="M210.846 35.5826C210.846 33.4009 210.902 31.3406 210.828 29.2846C210.774 27.7628 211.772 27.9642 212.729 27.9105C213.757 27.8527 214.317 28.041 214.311 29.2967C214.262 37.8182 214.27 46.3403 214.306 54.8619C214.309 55.8496 214.001 56.1429 213.033 56.1116C210.533 56.0305 210.862 56.3725 210.85 53.9333C210.834 50.5986 210.819 47.2637 210.864 43.9295C210.876 43.0071 210.567 42.7234 209.653 42.7333C205.893 42.7741 202.132 42.7872 198.373 42.7266C197.325 42.7096 197.147 43.126 197.156 44.0321C197.194 47.6134 197.139 51.1957 197.192 54.7767C197.207 55.7821 196.937 56.1503 195.882 56.1169C193.949 56.056 193.947 56.1148 193.946 54.1861C193.946 45.9524 193.939 37.7186 193.964 29.485C193.965 28.9985 194.133 28.1404 194.357 28.0934C195.181 27.9211 196.067 27.9716 196.914 28.0672C197.041 28.0812 197.158 28.7862 197.161 29.1725C197.181 32.2188 197.211 35.2661 197.15 38.3114C197.13 39.3129 197.477 39.5664 198.431 39.5548C202.149 39.5091 205.868 39.5079 209.586 39.5553C210.555 39.5679 210.943 39.2877 210.861 38.2983C210.789 37.4396 210.846 36.5705 210.846 35.5826Z" fill="#004B38"/>
<path d="M170.457 54.3111C164.292 49.2676 164.834 40.1841 171.094 35.9635C177.128 31.8949 185.865 34.6344 187.716 42.7594C187.922 43.6621 187.919 44.6119 188.026 45.679C181.81 45.679 175.676 45.679 169.578 45.679C168.983 47.8616 171.156 51.5704 173.693 52.6727C175.861 53.615 177.979 53.5705 180.152 52.8341C182.355 52.0873 183.636 50.3361 184.762 48.4836C188.042 49.984 187.888 49.5328 185.64 52.5697C184.094 54.6577 181.84 55.7349 179.189 56.1398C176.032 56.6222 173.181 56.09 170.457 54.3111ZM170.872 40.4196C170.484 41.2437 170.096 42.0677 169.674 42.9653C174.676 42.9653 179.506 42.9653 184.424 42.9653C183.711 39.9515 181.789 38.2303 178.94 37.3819C176.051 36.5215 172.301 38.0889 170.872 40.4196Z" fill="#72C31D"/>
<path d="M57.9054 55.3188C57.5161 55.0418 57.2467 54.7394 56.9198 54.5226C52.8948 51.8534 51.1086 47.0863 52.3655 42.3276C53.5191 37.96 57.4697 34.7086 62.1815 34.4817C63.6169 34.4126 65.0776 34.865 66.6263 35.0609C68.0232 35.8604 69.3207 36.6772 70.6832 37.5357C70.6832 37.0222 70.7194 36.3862 70.6744 35.7558C70.6163 34.9302 70.8888 34.5737 71.7869 34.5752C73.6613 34.5786 73.6613 34.5344 73.6613 36.4166C73.6619 42.5489 73.6613 48.6811 73.6613 54.8135C73.6613 55.262 73.6613 55.7105 73.6613 56.2499C72.6738 56.2499 71.7532 56.2499 70.7282 56.2499C70.7282 55.1925 70.7282 54.1406 70.7282 52.7993C66.8807 56.4303 62.6826 57.2393 57.9054 55.3188ZM65.3626 37.4331C61.1753 36.4096 57.5907 37.9491 55.6721 41.5946C53.9268 44.9108 54.7606 49.1679 57.6862 51.6745C58.0622 51.9967 58.589 52.1443 59.2118 52.4443C62.7476 54.2132 67.0044 53.3198 69.1732 50.4325C71.9788 46.6981 71.2813 39.8095 65.3626 37.4331Z" fill="#72C21D"/>
<path d="M151.871 51.2173C153.214 51.8734 154.422 52.7163 155.758 53.2293C157.13 53.7561 158.979 52.7934 159.598 51.5033C160.255 50.1328 159.952 48.6957 158.574 47.7144C157.375 46.8609 156.03 46.213 154.754 45.4663C153.273 44.5994 151.942 43.5811 151.318 41.8978C150.552 39.8296 151.165 37.2147 152.739 35.7709C154.657 34.0113 157.27 33.5781 159.697 34.7961C160.886 35.3925 161.933 36.2705 163.044 37.0212C163.147 37.2303 163.25 37.4393 163.353 37.6482C162.826 37.9677 162.23 38.2142 161.788 38.6249C161.208 39.1636 160.778 39.1166 160.179 38.6644C159.499 38.1512 158.769 37.6525 157.984 37.3388C156.445 36.7237 154.919 37.3229 154.237 38.6756C153.57 39.9988 153.907 41.1995 155.382 42.1775C157.121 43.3305 158.99 44.2947 160.69 45.4976C164.034 47.8627 163.347 53.1892 160.459 55.0312C157.071 57.1914 152.454 56.456 150.072 53.1766C150.639 52.5448 151.216 51.9021 151.871 51.2173Z" fill="#72C21D"/>
<path d="M146.8 56.0116C145.87 56.2229 144.957 56.3182 143.848 56.4344C143.848 55.8053 143.848 55.3708 143.848 54.9367C143.848 48.7297 143.848 42.5226 143.848 36.3159C143.848 34.5845 143.849 34.585 145.624 34.5946C145.985 34.5966 146.346 34.5948 146.816 34.5948C146.816 41.7786 146.816 48.8372 146.8 56.0116Z" fill="#73C41D"/>
<path d="M146.782 26.6975C148.243 28.4174 147.938 30.2106 146.186 30.8973C145.056 31.3401 144.178 30.9403 143.461 30.1236C142.752 29.3173 142.785 28.0116 143.563 27.184C144.28 26.4223 145.133 25.8334 146.273 26.4107C146.418 26.484 146.558 26.5698 146.782 26.6975Z" fill="#71C11D"/>
<path d="M22.6977 37.3797C18.7552 39.081 15.1503 41.3388 11.6934 44.2213C12.4344 41.5694 15.4817 38.5314 18.5527 37.3026C19.9645 36.7377 21.4265 36.2939 22.8759 35.8261C24.2875 35.3707 25.712 34.9546 27.239 34.4883C27.239 26.343 27.239 18.1676 27.239 9.90849C27.655 9.88145 27.9692 9.83432 28.2817 9.84474C33.0654 10.0046 37.8787 9.89713 42.6254 10.4053C48.9181 11.0789 52.7519 15.8245 52.7212 22.2103C52.6909 28.5002 48.7574 33.0339 42.4937 33.8335C40.0838 34.1414 37.6408 34.2054 35.2107 34.3403C34.1874 34.3971 33.1582 34.3497 32.0247 34.3497C32.0247 41.4441 32.0247 48.4222 32.0247 55.5003C30.4225 55.5003 28.9233 55.5003 27.305 55.5003C27.305 49.1092 27.305 42.6808 27.305 36.2526C26.4057 38.4684 26.6391 40.9782 25.0865 43.0151C25.0865 41.8592 25.0865 40.703 25.0865 39.5468C24.9932 39.5335 24.8997 39.5198 24.8065 39.5065C24.3276 41.5382 23.8487 43.5701 23.3699 45.6019C23.2825 45.5887 23.1952 45.5756 23.1079 45.5625C22.996 44.2561 22.884 42.9497 22.7721 41.6435C22.7042 41.6339 22.6363 41.6244 22.5684 41.6148C22.1814 43.5783 21.7944 45.5416 21.4073 47.505C21.3015 47.4922 21.1957 47.4791 21.09 47.4662C20.9869 46.6414 20.8839 45.8166 20.7809 44.9917C20.6752 44.9683 20.5696 44.9445 20.464 44.9211C20.0116 46.3644 19.5592 47.8077 19.1067 49.251C19.0292 49.2471 18.9517 49.2431 18.8741 49.2392C18.8741 48.2545 18.8741 47.2698 18.8741 46.2848C17.3029 48.5557 17.2174 51.5803 14.7783 53.329C14.3466 49.6855 18.0008 42.6336 22.8996 37.6614C22.8935 37.4976 22.7956 37.4387 22.6977 37.3797ZM44.1934 15.5901C40.2718 13.826 36.1133 14.5878 32.023 14.3171C32.023 19.5362 32.023 24.6123 32.023 30.0536C35.3382 29.8579 38.5927 29.8511 41.7914 29.4261C45.1279 28.9831 47.1021 26.7868 47.7934 23.5363C48.4409 20.4918 47.0788 17.491 44.1934 15.5901Z" fill="#FBFCFC"/>
<path d="M22.7383 37.44C22.7965 37.4382 22.8943 37.4971 22.9316 37.584C22.84 37.5751 22.809 37.5378 22.7383 37.44Z" fill="#004C39"/>
</g>
</g>
<defs>
<clipPath id="clip0_417_249">
<rect width="250" height="64" fill="white"/>
</clipPath>
</defs>
</svg>
