<svg width="3431" height="606" viewBox="0 0 3431 606" fill="none" xmlns="http://www.w3.org/2000/svg">
<path d="M151.47 565.053L20.0819 388.692C9.42681 374.387 2.73301 357.543 0.679011 339.849C-1.38109 322.158 1.2658 304.241 8.35698 287.888L96.0858 86.5569C103.171 70.2297 114.449 56.0503 128.785 45.4462C143.12 34.8426 160.01 28.1893 177.75 26.157L397.007 0.65567C414.754 -1.36188 432.721 1.29605 449.109 8.36183C465.493 15.4282 479.737 26.6557 490.403 40.9217L621.793 217.288C632.447 231.592 639.14 248.434 641.196 266.125C643.253 283.818 640.607 301.736 633.517 318.088L545.787 519.421C538.698 535.743 527.411 549.912 513.076 560.517C498.74 571.113 481.857 577.776 464.123 579.821L244.866 605.318C227.119 607.382 209.141 604.741 192.739 597.669C176.344 590.602 162.113 579.353 151.47 565.053Z" fill="#001A6E"/>
<path d="M304.533 479.695C305.312 479.672 306.624 480.456 307.122 481.617C305.895 481.498 305.48 481 304.533 479.695Z" fill="#001A6E"/>
<path d="M276.452 294C315.719 294 347.551 262.436 347.551 223.5C347.551 184.564 315.719 153 276.452 153C237.184 153 205.352 184.564 205.352 223.5C205.352 262.436 237.184 294 276.452 294Z" fill="white"/>
<path d="M276.45 453C334.689 453 381.9 421.435 381.9 382.5C381.9 343.564 334.689 312 276.45 312C218.212 312 171 343.564 171 382.5C171 421.435 218.212 453 276.45 453Z" fill="white"/>
<path d="M386.849 183C378.596 183.009 370.45 184.854 362.999 188.4C369.286 203.657 371.323 220.333 368.893 236.655C366.463 252.977 359.657 268.336 349.199 281.1C355.984 287.278 364.175 291.708 373.06 294.004C381.946 296.301 391.258 296.394 400.187 294.277C409.117 292.159 417.394 287.895 424.303 281.853C431.21 275.811 436.54 268.175 439.828 259.608C443.116 251.04 444.263 241.799 443.171 232.687C442.079 223.575 438.781 214.867 433.561 207.319C428.341 199.771 421.358 193.611 413.218 189.373C405.077 185.135 396.026 182.947 386.849 183Z" fill="white"/>
<path d="M386.845 310.5C378.43 310.493 370.036 311.348 361.795 313.05C374.186 320.069 384.586 330.128 392.012 342.279C399.439 354.429 403.649 368.271 404.245 382.5C404.179 396.932 399.847 411.023 391.795 423C435.895 421.35 470.995 396.9 470.995 366.9C470.995 336.9 433.345 310.5 386.845 310.5Z" fill="white"/>
<path d="M777.56 353V116.2H860.12C877.613 116.2 892.227 119.933 903.96 127.4C915.693 134.653 924.44 144.04 930.2 155.56C936.173 167.08 939.16 179.027 939.16 191.4C939.16 204.2 936.173 216.36 930.2 227.88C924.44 239.4 915.693 248.893 903.96 256.36C892.227 263.613 877.613 267.24 860.12 267.24H802.2V353H777.56ZM860.12 138.28H802.2V245.16H860.12C872.28 245.16 882.413 242.6 890.52 237.48C898.627 232.36 904.707 225.747 908.76 217.64C912.813 209.32 914.84 200.68 914.84 191.72C914.84 182.76 912.813 174.227 908.76 166.12C904.707 157.8 898.627 151.08 890.52 145.96C882.413 140.84 872.28 138.28 860.12 138.28ZM1041.7 180.2C1053.43 180.2 1063.14 182.227 1070.82 186.28C1078.5 190.12 1084.58 194.707 1089.06 200.04C1093.75 205.373 1097.16 209.96 1099.3 213.8H1101.22V183.4H1124.9V353H1101.22V322.6H1099.3C1097.16 326.653 1093.75 331.347 1089.06 336.68C1084.58 341.8 1078.5 346.387 1070.82 350.44C1063.14 354.28 1053.43 356.2 1041.7 356.2C1028.9 356.2 1017.7 353.747 1008.1 348.84C998.495 343.72 990.495 337 984.095 328.68C977.695 320.147 972.895 310.653 969.695 300.2C966.708 289.747 965.215 279.08 965.215 268.2C965.215 257.32 966.708 246.653 969.695 236.2C972.895 225.747 977.695 216.36 984.095 208.04C990.495 199.507 998.495 192.787 1008.1 187.88C1017.7 182.76 1028.9 180.2 1041.7 180.2ZM1045.22 201C1032.63 201 1022.18 204.307 1013.86 210.92C1005.54 217.533 999.348 225.96 995.295 236.2C991.242 246.44 989.215 257.107 989.215 268.2C989.215 279.293 991.242 289.96 995.295 300.2C999.348 310.44 1005.54 318.867 1013.86 325.48C1022.18 332.093 1032.63 335.4 1045.22 335.4C1057.59 335.4 1067.83 332.093 1075.94 325.48C1084.26 318.867 1090.44 310.44 1094.5 300.2C1098.76 289.96 1100.9 279.293 1100.9 268.2C1100.9 257.107 1098.76 246.44 1094.5 236.2C1090.44 225.96 1084.26 217.533 1075.94 210.92C1067.83 204.307 1057.59 201 1045.22 201ZM1172.81 353V183.4H1196.81V205.48H1198.09C1201.51 198.653 1206.73 192.787 1213.77 187.88C1220.81 182.76 1230.63 180.2 1243.21 180.2C1247.27 180.2 1250.79 180.413 1253.77 180.84C1256.97 181.267 1258.57 181.48 1258.57 181.48V204.52C1258.57 204.52 1256.87 204.307 1253.45 203.88C1250.04 203.453 1246.41 203.24 1242.57 203.24C1233.83 203.24 1225.93 205.053 1218.89 208.68C1212.07 212.093 1206.63 218.067 1202.57 226.6C1198.73 234.92 1196.81 246.333 1196.81 260.84V353H1172.81ZM1354.2 180.2C1365.93 180.2 1375.64 182.227 1383.32 186.28C1391 190.12 1397.08 194.707 1401.56 200.04C1406.25 205.373 1409.66 209.96 1411.8 213.8H1413.72V183.4H1437.4V353H1413.72V322.6H1411.8C1409.66 326.653 1406.25 331.347 1401.56 336.68C1397.08 341.8 1391 346.387 1383.32 350.44C1375.64 354.28 1365.93 356.2 1354.2 356.2C1341.4 356.2 1330.2 353.747 1320.6 348.84C1311 343.72 1303 337 1296.6 328.68C1290.2 320.147 1285.4 310.653 1282.2 300.2C1279.21 289.747 1277.72 279.08 1277.72 268.2C1277.72 257.32 1279.21 246.653 1282.2 236.2C1285.4 225.747 1290.2 216.36 1296.6 208.04C1303 199.507 1311 192.787 1320.6 187.88C1330.2 182.76 1341.4 180.2 1354.2 180.2ZM1357.72 201C1345.13 201 1334.68 204.307 1326.36 210.92C1318.04 217.533 1311.85 225.96 1307.8 236.2C1303.74 246.44 1301.72 257.107 1301.72 268.2C1301.72 279.293 1303.74 289.96 1307.8 300.2C1311.85 310.44 1318.04 318.867 1326.36 325.48C1334.68 332.093 1345.13 335.4 1357.72 335.4C1370.09 335.4 1380.33 332.093 1388.44 325.48C1396.76 318.867 1402.94 310.44 1407 300.2C1411.26 289.96 1413.4 279.293 1413.4 268.2C1413.4 257.107 1411.26 246.44 1407 236.2C1402.94 225.96 1396.76 217.533 1388.44 210.92C1380.33 204.307 1370.09 201 1357.72 201ZM1556.7 356.2C1543.9 356.2 1532.7 353.747 1523.1 348.84C1513.5 343.72 1505.5 337 1499.1 328.68C1492.7 320.147 1487.9 310.653 1484.7 300.2C1481.71 289.747 1480.22 279.08 1480.22 268.2C1480.22 257.32 1481.71 246.653 1484.7 236.2C1487.9 225.747 1492.7 216.36 1499.1 208.04C1505.5 199.507 1513.5 192.787 1523.1 187.88C1532.7 182.76 1543.9 180.2 1556.7 180.2C1568.43 180.2 1578.14 182.227 1585.82 186.28C1593.5 190.12 1599.58 194.707 1604.06 200.04C1608.75 205.373 1612.16 209.96 1614.3 213.8H1616.22V109.8H1639.9V353H1616.22V322.6H1614.3C1612.16 326.653 1608.75 331.347 1604.06 336.68C1599.58 341.8 1593.5 346.387 1585.82 350.44C1578.14 354.28 1568.43 356.2 1556.7 356.2ZM1560.22 335.4C1572.59 335.4 1582.83 332.093 1590.94 325.48C1599.26 318.867 1605.44 310.44 1609.5 300.2C1613.76 289.96 1615.9 279.293 1615.9 268.2C1615.9 257.107 1613.76 246.44 1609.5 236.2C1605.44 225.96 1599.26 217.533 1590.94 210.92C1582.83 204.307 1572.59 201 1560.22 201C1547.63 201 1537.18 204.307 1528.86 210.92C1520.54 217.533 1514.35 225.96 1510.3 236.2C1506.24 246.44 1504.22 257.107 1504.22 268.2C1504.22 279.293 1506.24 289.96 1510.3 300.2C1514.35 310.44 1520.54 318.867 1528.86 325.48C1537.18 332.093 1547.63 335.4 1560.22 335.4ZM1706.31 150.76C1701.4 150.76 1697.35 149.053 1694.15 145.64C1690.95 142.227 1689.35 138.28 1689.35 133.8C1689.35 129.107 1690.95 125.16 1694.15 121.96C1697.35 118.547 1701.4 116.84 1706.31 116.84C1711 116.84 1714.95 118.547 1718.15 121.96C1721.56 125.16 1723.27 129.107 1723.27 133.8C1723.27 138.493 1721.56 142.547 1718.15 145.96C1714.95 149.16 1711 150.76 1706.31 150.76ZM1694.47 353V183.4H1718.47V353H1694.47ZM1827.92 356.2C1815.12 356.2 1804.56 354.387 1796.24 350.76C1788.13 347.133 1781.63 342.653 1776.72 337.32C1772.03 331.987 1768.61 326.653 1766.48 321.32C1764.35 315.987 1762.96 311.507 1762.32 307.88C1761.68 304.253 1761.36 302.44 1761.36 302.44H1786C1786 302.44 1786.32 304.147 1786.96 307.56C1787.6 310.76 1789.2 314.6 1791.76 319.08C1794.53 323.347 1798.8 327.187 1804.56 330.6C1810.32 333.8 1818.21 335.4 1828.24 335.4C1839.12 335.4 1847.76 332.627 1854.16 327.08C1860.56 321.533 1863.76 314.707 1863.76 306.6C1863.76 298.92 1861.09 292.947 1855.76 288.68C1850.64 284.413 1843.71 281.32 1834.96 279.4L1812.56 274.28C1804.03 272.147 1796.24 269.267 1789.2 265.64C1782.16 262.013 1776.51 257.213 1772.24 251.24C1767.97 245.053 1765.84 237.48 1765.84 228.52C1765.84 214.227 1771.07 202.6 1781.52 193.64C1791.97 184.68 1805.63 180.2 1822.48 180.2C1833.79 180.2 1843.07 181.907 1850.32 185.32C1857.79 188.52 1863.65 192.573 1867.92 197.48C1872.4 202.387 1875.6 207.293 1877.52 212.2C1879.65 216.893 1881.04 220.947 1881.68 224.36C1882.32 227.56 1882.64 229.16 1882.64 229.16H1859.28C1859.28 229.16 1858.85 227.773 1858 225C1857.36 222.013 1855.87 218.707 1853.52 215.08C1851.39 211.24 1847.76 207.933 1842.64 205.16C1837.73 202.173 1831.01 200.68 1822.48 200.68C1811.39 200.68 1803.07 203.347 1797.52 208.68C1792.19 214.013 1789.52 220.093 1789.52 226.92C1789.52 233.533 1791.87 238.76 1796.56 242.6C1801.47 246.44 1808.08 249.32 1816.4 251.24L1839.12 256.68C1853.41 260.093 1865.04 265.747 1874 273.64C1882.96 281.32 1887.44 291.987 1887.44 305.64C1887.44 314.813 1884.99 323.24 1880.08 330.92C1875.39 338.6 1868.56 344.787 1859.6 349.48C1850.85 353.96 1840.29 356.2 1827.92 356.2ZM2000.82 356.2C1987.16 356.2 1975.32 353.747 1965.3 348.84C1955.27 343.72 1947.06 336.893 1940.66 328.36C1934.26 319.827 1929.46 310.333 1926.26 299.88C1923.27 289.427 1921.78 278.867 1921.78 268.2C1921.78 257.533 1923.27 246.973 1926.26 236.52C1929.46 226.067 1934.26 216.573 1940.66 208.04C1947.06 199.507 1955.06 192.787 1964.66 187.88C1974.47 182.76 1986.1 180.2 1999.54 180.2C2013.62 180.2 2026.1 183.507 2036.98 190.12C2048.07 196.733 2056.71 206.547 2062.9 219.56C2069.3 232.36 2072.5 248.467 2072.5 267.88V274.92H1946.1C1946.52 285.8 1948.87 295.827 1953.14 305C1957.62 314.173 1963.8 321.533 1971.7 327.08C1979.8 332.627 1989.51 335.4 2000.82 335.4C2010.2 335.4 2017.99 333.8 2024.18 330.6C2030.36 327.187 2035.06 323.347 2038.26 319.08C2041.67 314.6 2044.02 310.76 2045.3 307.56C2046.79 304.36 2047.54 302.76 2047.54 302.76H2070.26C2070.26 302.76 2069.72 304.573 2068.66 308.2C2067.59 311.613 2065.67 315.987 2062.9 321.32C2060.12 326.653 2056.07 331.987 2050.74 337.32C2045.62 342.653 2039 347.133 2030.9 350.76C2022.79 354.387 2012.76 356.2 2000.82 356.2ZM1946.42 255.72H2048.5C2047.86 242.707 2045.19 232.253 2040.5 224.36C2036.02 216.253 2030.15 210.387 2022.9 206.76C2015.64 203.133 2007.86 201.32 1999.54 201.32C1984.39 201.32 1972.12 206.333 1962.74 216.36C1953.35 226.173 1947.91 239.293 1946.42 255.72Z" fill="#73C41D"/>
<path d="M2114.98 353V116.2H2208.42C2227.4 116.2 2243.19 120.04 2255.78 127.72C2268.36 135.187 2277.75 145 2283.94 157.16C2290.34 169.107 2293.54 181.587 2293.54 194.6C2293.54 207.613 2290.34 220.2 2283.94 232.36C2277.75 244.307 2268.36 254.12 2255.78 261.8C2243.19 269.48 2227.4 273.32 2208.42 273.32H2158.5V353H2114.98ZM2208.1 153.96H2158.5V235.56H2208.1C2217.48 235.56 2225.27 233.64 2231.46 229.8C2237.64 225.747 2242.23 220.627 2245.22 214.44C2248.42 208.04 2250.02 201.533 2250.02 194.92C2250.02 188.093 2248.42 181.587 2245.22 175.4C2242.23 169.213 2237.64 164.093 2231.46 160.04C2225.27 155.987 2217.48 153.96 2208.1 153.96ZM2401.88 356.2C2383.32 356.2 2367.54 352.04 2354.52 343.72C2341.51 335.4 2331.59 324.627 2324.76 311.4C2318.15 297.96 2314.84 283.56 2314.84 268.2C2314.84 252.84 2318.15 238.547 2324.76 225.32C2331.59 211.88 2341.51 201 2354.52 192.68C2367.54 184.36 2383.32 180.2 2401.88 180.2C2420.66 180.2 2436.44 184.36 2449.24 192.68C2462.26 201 2472.07 211.88 2478.68 225.32C2485.51 238.547 2488.92 252.84 2488.92 268.2C2488.92 283.56 2485.51 297.96 2478.68 311.4C2472.07 324.627 2462.26 335.4 2449.24 343.72C2436.44 352.04 2420.66 356.2 2401.88 356.2ZM2401.88 320.68C2411.48 320.68 2419.48 318.227 2425.88 313.32C2432.5 308.413 2437.51 302.013 2440.92 294.12C2444.34 286.013 2446.04 277.373 2446.04 268.2C2446.04 258.813 2444.34 250.173 2440.92 242.28C2437.51 234.387 2432.5 227.987 2425.88 223.08C2419.48 218.173 2411.48 215.72 2401.88 215.72C2392.5 215.72 2384.5 218.173 2377.88 223.08C2371.27 227.987 2366.26 234.387 2362.84 242.28C2359.43 250.173 2357.72 258.813 2357.72 268.2C2357.72 277.373 2359.43 286.013 2362.84 294.12C2366.26 302.013 2371.27 308.413 2377.88 313.32C2384.5 318.227 2392.5 320.68 2401.88 320.68ZM2526.15 353V183.4H2568.39V206.76H2569.99C2572.98 200.147 2577.89 194.067 2584.71 188.52C2591.54 182.973 2601.78 180.2 2615.43 180.2C2619.7 180.2 2623.22 180.52 2625.99 181.16C2628.77 181.587 2630.15 181.8 2630.15 181.8V223.08C2630.15 223.08 2628.55 222.867 2625.35 222.44C2622.37 222.013 2618.63 221.8 2614.15 221.8C2599.22 221.8 2587.91 225.96 2580.23 234.28C2572.55 242.6 2568.71 256.04 2568.71 274.6V353H2526.15ZM2737.01 356.2C2725.49 356.2 2715.99 354.493 2708.53 351.08C2701.06 347.667 2695.19 343.187 2690.93 337.64C2686.87 332.093 2683.99 326.013 2682.29 319.4C2680.58 312.787 2679.73 306.28 2679.73 299.88V217.64H2650.61V183.4H2679.73V141.16H2722.29V183.4H2760.37V217.64H2722.29V298.92C2722.29 314.067 2730.82 321.64 2747.89 321.64C2751.94 321.64 2755.67 321.427 2759.09 321C2762.71 320.36 2764.53 320.04 2764.53 320.04V353.32C2764.53 353.32 2761.75 353.747 2756.21 354.6C2750.87 355.667 2744.47 356.2 2737.01 356.2ZM2868.17 180.2C2879.05 180.2 2888.01 182.013 2895.05 185.64C2902.09 189.053 2907.63 192.893 2911.69 197.16C2915.74 201.213 2918.51 204.52 2920.01 207.08H2921.93V183.4H2964.49V353H2921.93V329.32H2920.01C2918.51 331.88 2915.74 335.293 2911.69 339.56C2907.63 343.827 2902.09 347.667 2895.05 351.08C2888.01 354.493 2879.05 356.2 2868.17 356.2C2855.58 356.2 2844.59 353.747 2835.21 348.84C2825.82 343.72 2817.93 337 2811.53 328.68C2805.34 320.147 2800.65 310.653 2797.45 300.2C2794.46 289.747 2792.97 279.08 2792.97 268.2C2792.97 257.32 2794.46 246.653 2797.45 236.2C2800.65 225.747 2805.34 216.36 2811.53 208.04C2817.93 199.507 2825.82 192.787 2835.21 187.88C2844.59 182.76 2855.58 180.2 2868.17 180.2ZM2879.37 215.08C2869.77 215.08 2861.66 217.747 2855.05 223.08C2848.65 228.2 2843.85 234.813 2840.65 242.92C2837.45 251.027 2835.85 259.453 2835.85 268.2C2835.85 276.947 2837.45 285.373 2840.65 293.48C2843.85 301.587 2848.65 308.307 2855.05 313.64C2861.66 318.76 2869.77 321.32 2879.37 321.32C2888.97 321.32 2896.97 318.76 2903.37 313.64C2909.77 308.307 2914.57 301.587 2917.77 293.48C2920.97 285.373 2922.57 276.947 2922.57 268.2C2922.57 259.453 2920.97 251.027 2917.77 242.92C2914.57 234.813 2909.77 228.2 2903.37 223.08C2896.97 217.747 2888.97 215.08 2879.37 215.08ZM3008.1 353L3008.42 109.8H3050.66V353H3008.1Z" fill="#001A6E"/>
<path d="M854.936 499.103C854.936 507.599 853.779 515.293 851.466 522.184C849.153 529.075 845.708 534.905 841.129 539.672C836.598 544.439 830.934 547.908 824.137 550.08L848.493 575.639H831.288L811.251 552.274C810.638 552.274 810.001 552.298 809.34 552.345C808.726 552.392 808.113 552.416 807.499 552.416C799.475 552.416 792.466 551.142 786.471 548.593C780.524 546.044 775.568 542.41 771.603 537.689C767.685 532.969 764.735 527.329 762.753 520.768C760.818 514.207 759.85 506.938 759.85 498.961C759.85 488.389 761.597 479.114 765.089 471.137C768.582 463.16 773.869 456.953 780.949 452.516C788.076 448.079 796.997 445.861 807.711 445.861C817.954 445.861 826.568 448.056 833.554 452.445C840.587 456.835 845.897 463.018 849.484 470.995C853.118 478.925 854.936 488.294 854.936 499.103ZM772.523 499.103C772.523 507.882 773.774 515.482 776.276 521.901C778.778 528.32 782.601 533.276 787.746 536.769C792.938 540.262 799.522 542.008 807.499 542.008C815.523 542.008 822.084 540.262 827.182 536.769C832.326 533.276 836.126 528.32 838.581 521.901C841.035 515.482 842.262 507.882 842.262 499.103C842.262 485.745 839.454 475.314 833.837 467.809C828.267 460.257 819.559 456.481 807.711 456.481C799.687 456.481 793.079 458.204 787.887 461.649C782.695 465.095 778.825 470.004 776.276 476.376C773.774 482.701 772.523 490.277 772.523 499.103ZM940.321 473.402V551H930.692L928.993 540.097H928.356C926.751 542.787 924.674 545.053 922.125 546.894C919.577 548.734 916.697 550.103 913.488 551C910.325 551.944 906.951 552.416 903.363 552.416C897.227 552.416 892.082 551.425 887.929 549.442C883.775 547.46 880.636 544.392 878.512 540.238C876.435 536.085 875.397 530.751 875.397 524.237V473.402H887.292V523.388C887.292 529.854 888.755 534.692 891.681 537.902C894.608 541.064 899.068 542.646 905.062 542.646C910.821 542.646 915.399 541.56 918.798 539.389C922.243 537.217 924.722 534.031 926.232 529.831C927.742 525.583 928.498 520.39 928.498 514.254V473.402H940.321ZM952.924 473.402H965.526L982.66 518.432C983.651 521.075 984.572 523.624 985.421 526.078C986.271 528.485 987.026 530.798 987.687 533.017C988.348 535.235 988.867 537.383 989.245 539.459H989.74C990.401 537.099 991.345 534.008 992.572 530.185C993.799 526.314 995.121 522.373 996.537 518.361L1012.75 473.402H1025.42L991.652 562.399C989.858 567.166 987.758 571.32 985.351 574.86C982.991 578.4 980.111 581.114 976.713 583.002C973.314 584.937 969.208 585.905 964.394 585.905C962.175 585.905 960.216 585.763 958.517 585.48C956.818 585.244 955.355 584.961 954.127 584.63V575.214C955.166 575.45 956.417 575.662 957.88 575.851C959.39 576.04 960.948 576.134 962.553 576.134C965.479 576.134 968.004 575.568 970.128 574.435C972.3 573.349 974.164 571.745 975.722 569.621C977.279 567.497 978.625 564.971 979.757 562.045L984.005 551.142L952.924 473.402ZM1100.54 542.787C1102.48 542.787 1104.46 542.622 1106.49 542.292C1108.52 541.961 1110.17 541.56 1111.45 541.088V550.221C1110.08 550.835 1108.17 551.354 1105.71 551.779C1103.3 552.204 1100.94 552.416 1098.63 552.416C1094.53 552.416 1090.8 551.708 1087.45 550.292C1084.09 548.829 1081.4 546.374 1079.37 542.929C1077.39 539.483 1076.4 534.716 1076.4 528.627V482.606H1065.36V476.872L1076.47 472.27L1081.14 455.419H1088.22V473.402H1110.95V482.606H1088.22V528.273C1088.22 533.135 1089.33 536.769 1091.55 539.176C1093.82 541.583 1096.81 542.787 1100.54 542.787ZM1162.42 471.986C1163.98 471.986 1165.61 472.081 1167.31 472.27C1169.01 472.411 1170.52 472.624 1171.84 472.907L1170.35 483.81C1169.08 483.48 1167.66 483.22 1166.1 483.031C1164.55 482.842 1163.08 482.748 1161.72 482.748C1158.6 482.748 1155.65 483.385 1152.87 484.66C1150.13 485.887 1147.72 487.681 1145.64 490.041C1143.57 492.353 1141.94 495.162 1140.76 498.466C1139.58 501.723 1138.99 505.357 1138.99 509.369V551H1127.16V473.402H1136.94L1138.21 487.704H1138.71C1140.31 484.825 1142.25 482.205 1144.51 479.845C1146.78 477.438 1149.4 475.526 1152.37 474.11C1155.39 472.694 1158.74 471.986 1162.42 471.986ZM1198.25 551H1186.5V473.402H1198.25V551ZM1187.56 439.914C1188.69 442.085 1190.08 444.516 1191.73 447.206C1193.43 449.849 1195.2 452.445 1197.04 454.994C1198.93 457.496 1200.66 459.643 1202.21 461.437V463.136H1194.21C1192.51 461.767 1190.65 460.139 1188.62 458.251C1186.64 456.363 1184.65 454.381 1182.67 452.304C1180.69 450.18 1178.9 448.174 1177.29 446.286C1175.69 444.35 1174.44 442.698 1173.54 441.33V439.914H1187.56ZM1259.92 471.986C1269.12 471.986 1276.08 474.252 1280.8 478.783C1285.52 483.267 1287.88 490.489 1287.88 500.448V551H1276.27V501.227C1276.27 494.761 1274.78 489.923 1271.81 486.713C1268.88 483.503 1264.38 481.898 1258.29 481.898C1249.7 481.898 1243.66 484.329 1240.16 489.191C1236.67 494.053 1234.92 501.109 1234.92 510.36V551H1223.17V473.402H1232.66L1234.43 484.589H1235.06C1236.72 481.851 1238.82 479.562 1241.37 477.721C1243.92 475.833 1246.77 474.417 1249.93 473.473C1253.1 472.482 1256.42 471.986 1259.92 471.986ZM1323.85 440.834V473.756C1323.85 475.644 1323.8 477.556 1323.71 479.491C1323.61 481.379 1323.45 483.126 1323.21 484.73H1323.99C1325.6 481.993 1327.63 479.704 1330.08 477.863C1332.58 475.975 1335.41 474.559 1338.58 473.615C1341.74 472.624 1345.09 472.128 1348.63 472.128C1354.86 472.128 1360.05 473.119 1364.21 475.102C1368.41 477.084 1371.55 480.152 1373.62 484.306C1375.75 488.459 1376.81 493.84 1376.81 500.448V551H1365.2V501.227C1365.2 494.761 1363.71 489.923 1360.74 486.713C1357.81 483.503 1353.3 481.898 1347.21 481.898C1341.45 481.898 1336.85 483.008 1333.41 485.226C1330.01 487.397 1327.55 490.607 1326.04 494.855C1324.58 499.103 1323.85 504.295 1323.85 510.431V551H1312.1V440.834H1323.85ZM1475.43 471.986C1484.64 471.986 1491.6 474.252 1496.32 478.783C1501.04 483.267 1503.4 490.489 1503.4 500.448V551H1491.79V501.227C1491.79 494.761 1490.3 489.923 1487.33 486.713C1484.4 483.503 1479.89 481.898 1473.81 481.898C1465.21 481.898 1459.17 484.329 1455.68 489.191C1452.19 494.053 1450.44 501.109 1450.44 510.36V551H1438.69V473.402H1448.18L1449.95 484.589H1450.58C1452.23 481.851 1454.33 479.562 1456.88 477.721C1459.43 475.833 1462.29 474.417 1465.45 473.473C1468.61 472.482 1471.94 471.986 1475.43 471.986ZM1539.37 440.834V473.756C1539.37 475.644 1539.32 477.556 1539.23 479.491C1539.13 481.379 1538.97 483.126 1538.73 484.73H1539.51C1541.11 481.993 1543.14 479.704 1545.6 477.863C1548.1 475.975 1550.93 474.559 1554.09 473.615C1557.26 472.624 1560.61 472.128 1564.15 472.128C1570.38 472.128 1575.57 473.119 1579.72 475.102C1583.92 477.084 1587.06 480.152 1589.14 484.306C1591.26 488.459 1592.33 493.84 1592.33 500.448V551H1580.71V501.227C1580.71 494.761 1579.23 489.923 1576.25 486.713C1573.33 483.503 1568.82 481.898 1562.73 481.898C1556.97 481.898 1552.37 483.008 1548.92 485.226C1545.53 487.397 1543.07 490.607 1541.56 494.855C1540.1 499.103 1539.37 504.295 1539.37 510.431V551H1527.61V440.834H1539.37ZM1645.57 472.128C1654.82 472.128 1661.69 474.205 1666.17 478.358C1670.65 482.512 1672.9 489.144 1672.9 498.253V551H1664.33L1662.06 539.53H1661.5C1659.33 542.362 1657.06 544.746 1654.7 546.681C1652.34 548.569 1649.6 550.009 1646.49 551C1643.42 551.944 1639.64 552.416 1635.16 552.416C1630.44 552.416 1626.24 551.59 1622.56 549.938C1618.92 548.286 1616.04 545.784 1613.92 542.433C1611.84 539.082 1610.8 534.834 1610.8 529.689C1610.8 521.948 1613.87 516.001 1620.01 511.847C1626.14 507.694 1635.49 505.428 1648.05 505.05L1661.43 504.484V499.74C1661.43 493.038 1659.99 488.341 1657.11 485.651C1654.23 482.96 1650.17 481.615 1644.93 481.615C1640.87 481.615 1637 482.205 1633.32 483.385C1629.64 484.565 1626.14 485.958 1622.84 487.562L1619.23 478.642C1622.72 476.848 1626.73 475.314 1631.27 474.04C1635.8 472.765 1640.56 472.128 1645.57 472.128ZM1661.29 512.768L1649.46 513.263C1639.79 513.641 1632.97 515.222 1629 518.007C1625.04 520.792 1623.05 524.733 1623.05 529.831C1623.05 534.267 1624.4 537.548 1627.09 539.672C1629.78 541.796 1633.34 542.858 1637.78 542.858C1644.67 542.858 1650.31 540.946 1654.7 537.123C1659.09 533.3 1661.29 527.565 1661.29 519.918V512.768ZM1650.52 439.984C1651.7 442.108 1653.36 444.516 1655.48 447.206C1657.6 449.849 1659.85 452.445 1662.21 454.994C1664.57 457.543 1666.67 459.738 1668.51 461.579V463.136H1660.15C1657.6 461.484 1654.98 459.455 1652.29 457.047C1649.6 454.64 1646.98 452.139 1644.44 449.542C1641.89 452.139 1639.29 454.64 1636.65 457.047C1634.05 459.407 1631.48 461.437 1628.93 463.136H1620.86V461.579C1622.65 459.691 1624.68 457.472 1626.95 454.923C1629.26 452.375 1631.45 449.778 1633.53 447.135C1635.66 444.492 1637.33 442.108 1638.56 439.984H1650.52ZM1733.86 471.986C1743.06 471.986 1750.02 474.252 1754.74 478.783C1759.46 483.267 1761.82 490.489 1761.82 500.448V551H1750.21V501.227C1750.21 494.761 1748.72 489.923 1745.75 486.713C1742.82 483.503 1738.32 481.898 1732.23 481.898C1723.64 481.898 1717.6 484.329 1714.1 489.191C1710.61 494.053 1708.86 501.109 1708.86 510.36V551H1697.11V473.402H1706.6L1708.37 484.589H1709.01C1710.66 481.851 1712.76 479.562 1715.31 477.721C1717.86 475.833 1720.71 474.417 1723.87 473.473C1727.04 472.482 1730.36 471.986 1733.86 471.986ZM1873.9 529.76C1873.9 534.716 1872.65 538.893 1870.15 542.292C1867.69 545.643 1864.15 548.168 1859.53 549.867C1854.95 551.566 1849.47 552.416 1843.1 552.416C1837.67 552.416 1832.98 551.991 1829.01 551.142C1825.05 550.292 1821.58 549.088 1818.6 547.531V536.698C1821.77 538.256 1825.54 539.672 1829.93 540.946C1834.32 542.221 1838.81 542.858 1843.39 542.858C1850.09 542.858 1854.95 541.772 1857.97 539.601C1860.99 537.43 1862.5 534.48 1862.5 530.751C1862.5 528.627 1861.89 526.763 1860.66 525.158C1859.48 523.506 1857.47 521.924 1854.64 520.414C1851.81 518.856 1847.89 517.157 1842.89 515.316C1837.93 513.428 1833.64 511.564 1830 509.723C1826.42 507.835 1823.63 505.546 1821.65 502.855C1819.71 500.165 1818.75 496.672 1818.75 492.377C1818.75 485.816 1821.39 480.789 1826.68 477.296C1832.01 473.756 1839 471.986 1847.63 471.986C1852.31 471.986 1856.67 472.458 1860.73 473.402C1864.84 474.299 1868.66 475.526 1872.2 477.084L1868.24 486.5C1865.03 485.132 1861.6 483.975 1857.97 483.031C1854.34 482.087 1850.63 481.615 1846.85 481.615C1841.43 481.615 1837.25 482.512 1834.32 484.306C1831.44 486.099 1830 488.554 1830 491.669C1830 494.076 1830.66 496.059 1831.99 497.616C1833.36 499.174 1835.53 500.637 1838.5 502.006C1841.47 503.375 1845.39 504.979 1850.25 506.82C1855.11 508.614 1859.32 510.478 1862.86 512.414C1866.4 514.302 1869.11 516.614 1871 519.352C1872.93 522.042 1873.9 525.512 1873.9 529.76ZM1980.17 461.366L1981.16 462.924C1980.64 466.322 1979.84 469.579 1978.76 472.694C1977.72 475.81 1976.28 478.618 1974.44 481.12C1972.6 483.621 1970.24 485.698 1967.36 487.35C1964.53 489.002 1961.03 490.064 1956.88 490.536V551H1947.25L1945.55 540.097H1944.91C1943.31 542.787 1941.26 545.053 1938.75 546.894C1936.25 548.734 1933.42 550.103 1930.26 551C1927.1 551.944 1923.74 552.416 1920.2 552.416C1913.97 552.416 1908.76 551.425 1904.56 549.442C1900.36 547.46 1897.19 544.392 1895.07 540.238C1892.99 536.085 1891.95 530.751 1891.95 524.237V473.544H1903.85V523.388C1903.85 529.854 1905.31 534.692 1908.24 537.902C1911.17 541.064 1915.63 542.646 1921.62 542.646C1930.21 542.646 1936.25 540.215 1939.75 535.353C1943.29 530.491 1945.06 523.458 1945.06 514.254V473.544H1956.88V482.182C1959.9 481.615 1962.19 480.412 1963.75 478.571C1965.3 476.73 1966.37 474.346 1966.93 471.42C1967.5 468.493 1967.78 465.142 1967.78 461.366H1980.17ZM1922.68 575.851C1920.7 575.851 1919.02 575.214 1917.66 573.939C1916.29 572.665 1915.6 570.73 1915.6 568.134C1915.6 565.491 1916.29 563.532 1917.66 562.257C1919.02 561.03 1920.7 560.417 1922.68 560.417C1924.71 560.417 1926.41 561.03 1927.78 562.257C1929.15 563.532 1929.83 565.491 1929.83 568.134C1929.83 570.73 1929.15 572.665 1927.78 573.939C1926.41 575.214 1924.71 575.851 1922.68 575.851ZM2054.23 552.416C2044.41 552.416 2036.62 549.065 2030.87 542.362C2025.15 535.66 2022.3 525.701 2022.3 512.484C2022.3 499.127 2025.23 489.049 2031.08 482.252C2036.93 475.408 2044.72 471.986 2054.44 471.986C2058.55 471.986 2062.14 472.529 2065.2 473.615C2068.27 474.7 2070.92 476.164 2073.13 478.004C2075.35 479.798 2077.22 481.851 2078.73 484.164H2079.58C2079.39 482.701 2079.2 480.695 2079.01 478.146C2078.82 475.597 2078.73 473.52 2078.73 471.916V440.834H2090.48V551H2080.99L2079.22 539.955H2078.73C2077.26 542.268 2075.4 544.368 2073.13 546.256C2070.92 548.144 2068.25 549.655 2065.13 550.788C2062.07 551.873 2058.43 552.416 2054.23 552.416ZM2056.07 542.646C2064.38 542.646 2070.25 540.285 2073.7 535.565C2077.15 530.845 2078.87 523.836 2078.87 514.538V512.414C2078.87 502.549 2077.22 494.973 2073.91 489.687C2070.66 484.4 2064.71 481.757 2056.07 481.757C2048.85 481.757 2043.44 484.542 2039.86 490.111C2036.27 495.634 2034.48 503.186 2034.48 512.768C2034.48 522.302 2036.25 529.665 2039.79 534.857C2043.37 540.049 2048.8 542.646 2056.07 542.646ZM2144.43 472.128C2153.68 472.128 2160.55 474.205 2165.03 478.358C2169.52 482.512 2171.76 489.144 2171.76 498.253V551H2163.19L2160.93 539.53H2160.36C2158.19 542.362 2155.92 544.746 2153.56 546.681C2151.2 548.569 2148.47 550.009 2145.35 551C2142.28 551.944 2138.51 552.416 2134.02 552.416C2129.3 552.416 2125.1 551.59 2121.42 549.938C2117.79 548.286 2114.91 545.784 2112.78 542.433C2110.71 539.082 2109.67 534.834 2109.67 529.689C2109.67 521.948 2112.74 516.001 2118.87 511.847C2125.01 507.694 2134.35 505.428 2146.91 505.05L2160.29 504.484V499.74C2160.29 493.038 2158.85 488.341 2155.97 485.651C2153.09 482.96 2149.03 481.615 2143.79 481.615C2139.73 481.615 2135.86 482.205 2132.18 483.385C2128.5 484.565 2125.01 485.958 2121.7 487.562L2118.09 478.642C2121.59 476.848 2125.6 475.314 2130.13 474.04C2134.66 472.765 2139.43 472.128 2144.43 472.128ZM2160.15 512.768L2148.32 513.263C2138.65 513.641 2131.83 515.222 2127.86 518.007C2123.9 520.792 2121.92 524.733 2121.92 529.831C2121.92 534.267 2123.26 537.548 2125.95 539.672C2128.64 541.796 2132.21 542.858 2136.64 542.858C2143.53 542.858 2149.17 540.946 2153.56 537.123C2157.95 533.3 2160.15 527.565 2160.15 519.918V512.768ZM2138.41 439.914C2139.54 442.085 2140.94 444.516 2142.59 447.206C2144.29 449.849 2146.06 452.445 2147.9 454.994C2149.79 457.496 2151.51 459.643 2153.07 461.437V463.136H2145.07C2143.37 461.767 2141.5 460.139 2139.47 458.251C2137.49 456.363 2135.51 454.381 2133.53 452.304C2131.54 450.18 2129.75 448.174 2128.15 446.286C2126.54 444.35 2125.29 442.698 2124.39 441.33V439.914H2138.41ZM2232.72 471.986C2241.92 471.986 2248.88 474.252 2253.6 478.783C2258.33 483.267 2260.69 490.489 2260.69 500.448V551H2249.07V501.227C2249.07 494.761 2247.59 489.923 2244.61 486.713C2241.69 483.503 2237.18 481.898 2231.09 481.898C2222.5 481.898 2216.46 484.329 2212.97 489.191C2209.47 494.053 2207.73 501.109 2207.73 510.36V551H2195.97V473.402H2205.46L2207.23 484.589H2207.87C2209.52 481.851 2211.62 479.562 2214.17 477.721C2216.72 475.833 2219.57 474.417 2222.74 473.473C2225.9 472.482 2229.23 471.986 2232.72 471.986ZM2296.65 440.834V473.756C2296.65 475.644 2296.6 477.556 2296.51 479.491C2296.42 481.379 2296.25 483.126 2296.01 484.73H2296.79C2298.4 481.993 2300.43 479.704 2302.88 477.863C2305.38 475.975 2308.22 474.559 2311.38 473.615C2314.54 472.624 2317.89 472.128 2321.43 472.128C2327.66 472.128 2332.85 473.119 2337.01 475.102C2341.21 477.084 2344.35 480.152 2346.42 484.306C2348.55 488.459 2349.61 493.84 2349.61 500.448V551H2338V501.227C2338 494.761 2336.51 489.923 2333.54 486.713C2330.61 483.503 2326.1 481.898 2320.02 481.898C2314.26 481.898 2309.66 483.008 2306.21 485.226C2302.81 487.397 2300.36 490.607 2298.85 494.855C2297.38 499.103 2296.65 504.295 2296.65 510.431V551H2284.9V440.834H2296.65ZM2442.57 552.416C2435.59 552.416 2429.43 550.976 2424.09 548.097C2418.76 545.218 2414.61 540.828 2411.63 534.928C2408.66 529.028 2407.17 521.594 2407.17 512.626C2407.17 503.233 2408.73 495.563 2411.84 489.616C2415.01 483.621 2419.35 479.184 2424.87 476.305C2430.39 473.426 2436.67 471.986 2443.71 471.986C2447.58 471.986 2451.3 472.388 2454.89 473.19C2458.53 473.945 2461.5 474.913 2463.81 476.093L2460.27 485.934C2457.91 484.99 2455.17 484.14 2452.06 483.385C2448.99 482.63 2446.11 482.252 2443.42 482.252C2438.04 482.252 2433.56 483.409 2429.97 485.722C2426.43 488.035 2423.76 491.433 2421.97 495.917C2420.22 500.401 2419.35 505.924 2419.35 512.484C2419.35 518.762 2420.2 524.119 2421.9 528.556C2423.64 532.993 2426.22 536.391 2429.62 538.751C2433.06 541.064 2437.36 542.221 2442.5 542.221C2446.61 542.221 2450.31 541.796 2453.62 540.946C2456.92 540.049 2459.92 539.011 2462.61 537.831V548.31C2460.01 549.631 2457.11 550.646 2453.9 551.354C2450.74 552.062 2446.96 552.416 2442.57 552.416ZM2492.77 440.834V473.756C2492.77 475.644 2492.72 477.556 2492.63 479.491C2492.53 481.379 2492.37 483.126 2492.13 484.73H2492.91C2494.52 481.993 2496.55 479.704 2499 477.863C2501.5 475.975 2504.33 474.559 2507.5 473.615C2510.66 472.624 2514.01 472.128 2517.55 472.128C2523.78 472.128 2528.97 473.119 2533.13 475.102C2537.33 477.084 2540.47 480.152 2542.54 484.306C2544.67 488.459 2545.73 493.84 2545.73 500.448V551H2534.12V501.227C2534.12 494.761 2532.63 489.923 2529.66 486.713C2526.73 483.503 2522.22 481.898 2516.13 481.898C2510.38 481.898 2505.77 483.008 2502.33 485.226C2498.93 487.397 2496.48 490.607 2494.96 494.855C2493.5 499.103 2492.77 504.295 2492.77 510.431V551H2481.02V440.834H2492.77ZM2636.85 512.06C2636.85 518.432 2636.02 524.119 2634.37 529.123C2632.72 534.126 2630.34 538.35 2627.22 541.796C2624.11 545.242 2620.33 547.885 2615.89 549.726C2611.5 551.519 2606.52 552.416 2600.95 552.416C2595.76 552.416 2590.99 551.519 2586.65 549.726C2582.36 547.885 2578.63 545.242 2575.47 541.796C2572.35 538.35 2569.92 534.126 2568.17 529.123C2566.47 524.119 2565.62 518.432 2565.62 512.06C2565.62 503.563 2567.06 496.342 2569.94 490.395C2572.82 484.4 2576.93 479.845 2582.26 476.73C2587.64 473.568 2594.04 471.986 2601.45 471.986C2608.53 471.986 2614.71 473.568 2620 476.73C2625.33 479.892 2629.46 484.471 2632.39 490.465C2635.36 496.413 2636.85 503.611 2636.85 512.06ZM2577.8 512.06C2577.8 518.29 2578.63 523.694 2580.28 528.273C2581.93 532.851 2584.48 536.391 2587.93 538.893C2591.37 541.395 2595.81 542.646 2601.24 542.646C2606.62 542.646 2611.03 541.395 2614.48 538.893C2617.97 536.391 2620.54 532.851 2622.19 528.273C2623.85 523.694 2624.67 518.29 2624.67 512.06C2624.67 505.876 2623.85 500.543 2622.19 496.059C2620.54 491.527 2617.99 488.035 2614.55 485.58C2611.1 483.126 2606.64 481.898 2601.17 481.898C2593.09 481.898 2587.17 484.565 2583.4 489.899C2579.67 495.233 2577.8 502.619 2577.8 512.06ZM2731.58 471.986C2740.79 471.986 2747.75 474.252 2752.47 478.783C2757.19 483.267 2759.55 490.489 2759.55 500.448V551H2747.94V501.227C2747.94 494.761 2746.45 489.923 2743.48 486.713C2740.55 483.503 2736.04 481.898 2729.95 481.898C2721.36 481.898 2715.32 484.329 2711.83 489.191C2708.33 494.053 2706.59 501.109 2706.59 510.36V551H2694.84V473.402H2704.32L2706.09 484.589H2706.73C2708.38 481.851 2710.48 479.562 2713.03 477.721C2715.58 475.833 2718.44 474.417 2721.6 473.473C2724.76 472.482 2728.09 471.986 2731.58 471.986ZM2795.51 440.834V473.756C2795.51 475.644 2795.47 477.556 2795.37 479.491C2795.28 481.379 2795.11 483.126 2794.88 484.73H2795.66C2797.26 481.993 2799.29 479.704 2801.74 477.863C2804.25 475.975 2807.08 474.559 2810.24 473.615C2813.4 472.624 2816.75 472.128 2820.29 472.128C2826.52 472.128 2831.72 473.119 2835.87 475.102C2840.07 477.084 2843.21 480.152 2845.29 484.306C2847.41 488.459 2848.47 493.84 2848.47 500.448V551H2836.86V501.227C2836.86 494.761 2835.38 489.923 2832.4 486.713C2829.47 483.503 2824.97 481.898 2818.88 481.898C2813.12 481.898 2808.52 483.008 2805.07 485.226C2801.67 487.397 2799.22 490.607 2797.71 494.855C2796.25 499.103 2795.51 504.295 2795.51 510.431V551H2783.76V440.834H2795.51ZM2901.72 472.128C2910.97 472.128 2917.83 474.205 2922.32 478.358C2926.8 482.512 2929.04 489.144 2929.04 498.253V551H2920.48L2918.21 539.53H2917.65C2915.47 542.362 2913.21 544.746 2910.85 546.681C2908.49 548.569 2905.75 550.009 2902.64 551C2899.57 551.944 2895.79 552.416 2891.31 552.416C2886.59 552.416 2882.39 551.59 2878.71 549.938C2875.07 548.286 2872.19 545.784 2870.07 542.433C2867.99 539.082 2866.95 534.834 2866.95 529.689C2866.95 521.948 2870.02 516.001 2876.16 511.847C2882.29 507.694 2891.64 505.428 2904.19 505.05L2917.57 504.484V499.74C2917.57 493.038 2916.14 488.341 2913.26 485.651C2910.38 482.96 2906.32 481.615 2901.08 481.615C2897.02 481.615 2893.15 482.205 2889.47 483.385C2885.79 484.565 2882.29 485.958 2878.99 487.562L2875.38 478.642C2878.87 476.848 2882.88 475.314 2887.41 474.04C2891.94 472.765 2896.71 472.128 2901.72 472.128ZM2917.43 512.768L2905.61 513.263C2895.93 513.641 2889.11 515.222 2885.15 518.007C2881.18 520.792 2879.2 524.733 2879.2 529.831C2879.2 534.267 2880.55 537.548 2883.24 539.672C2885.93 541.796 2889.49 542.858 2893.93 542.858C2900.82 542.858 2906.46 540.946 2910.85 537.123C2915.24 533.3 2917.43 527.565 2917.43 519.918V512.768ZM2906.67 439.984C2907.85 442.108 2909.5 444.516 2911.63 447.206C2913.75 449.849 2915.99 452.445 2918.35 454.994C2920.71 457.543 2922.81 459.738 2924.65 461.579V463.136H2916.3C2913.75 461.484 2911.13 459.455 2908.44 457.047C2905.75 454.64 2903.13 452.139 2900.58 449.542C2898.03 452.139 2895.44 454.64 2892.79 457.047C2890.2 459.407 2887.63 461.437 2885.08 463.136H2877.01V461.579C2878.8 459.691 2880.83 457.472 2883.09 454.923C2885.41 452.375 2887.6 449.778 2889.68 447.135C2891.8 444.492 2893.48 442.108 2894.71 439.984H2906.67ZM2990 471.986C2999.21 471.986 3006.17 474.252 3010.89 478.783C3015.61 483.267 3017.97 490.489 3017.97 500.448V551H3006.36V501.227C3006.36 494.761 3004.87 489.923 3001.9 486.713C2998.97 483.503 2994.46 481.898 2988.38 481.898C2979.78 481.898 2973.74 484.329 2970.25 489.191C2966.76 494.053 2965.01 501.109 2965.01 510.36V551H2953.26V473.402H2962.75L2964.52 484.589H2965.15C2966.8 481.851 2968.91 479.562 2971.45 477.721C2974 475.833 2976.86 474.417 2980.02 473.473C2983.18 472.482 2986.51 471.986 2990 471.986ZM3096.91 551L3067.46 473.402H3080.06L3097.13 520.343C3098.31 523.553 3099.51 527.093 3100.74 530.963C3101.96 534.834 3102.81 537.949 3103.29 540.309H3103.78C3104.35 537.949 3105.29 534.834 3106.61 530.963C3107.93 527.046 3109.14 523.506 3110.22 520.343L3127.29 473.402H3139.89L3110.37 551H3096.91ZM3164.1 473.402V551H3152.35V473.402H3164.1ZM3158.37 444.374C3160.3 444.374 3161.96 445.011 3163.32 446.286C3164.74 447.513 3165.45 449.448 3165.45 452.091C3165.45 454.687 3164.74 456.623 3163.32 457.897C3161.96 459.171 3160.3 459.809 3158.37 459.809C3156.34 459.809 3154.64 459.171 3153.27 457.897C3151.95 456.623 3151.29 454.687 3151.29 452.091C3151.29 449.448 3151.95 447.513 3153.27 446.286C3154.64 445.011 3156.34 444.374 3158.37 444.374ZM3218.9 471.986C3225.51 471.986 3231.17 473.45 3235.9 476.376C3240.62 479.302 3244.23 483.409 3246.73 488.695C3249.23 493.935 3250.48 500.071 3250.48 507.104V514.396H3196.88C3197.03 523.506 3199.29 530.444 3203.68 535.211C3208.07 539.979 3214.25 542.362 3222.23 542.362C3227.14 542.362 3231.48 541.914 3235.26 541.017C3239.03 540.12 3242.95 538.799 3247.01 537.052V547.389C3243.09 549.136 3239.2 550.41 3235.33 551.212C3231.51 552.015 3226.97 552.416 3221.73 552.416C3214.28 552.416 3207.76 550.906 3202.19 547.885C3196.67 544.817 3192.38 540.333 3189.31 534.433C3186.24 528.533 3184.71 521.311 3184.71 512.768C3184.71 504.413 3186.1 497.191 3188.88 491.103C3191.72 484.966 3195.68 480.246 3200.78 476.942C3205.92 473.638 3211.96 471.986 3218.9 471.986ZM3218.76 481.615C3212.48 481.615 3207.48 483.668 3203.75 487.775C3200.02 491.881 3197.8 497.616 3197.1 504.979H3238.16C3238.11 500.354 3237.38 496.295 3235.97 492.802C3234.6 489.262 3232.5 486.524 3229.66 484.589C3226.83 482.606 3223.2 481.615 3218.76 481.615ZM3224 439.984C3225.18 442.108 3226.83 444.516 3228.96 447.206C3231.08 449.849 3233.32 452.445 3235.68 454.994C3238.04 457.543 3240.14 459.738 3241.98 461.579V463.136H3233.63C3231.08 461.484 3228.46 459.455 3225.77 457.047C3223.08 454.64 3220.46 452.139 3217.91 449.542C3215.36 452.139 3212.77 454.64 3210.12 457.047C3207.53 459.407 3204.96 461.437 3202.41 463.136H3194.33V461.579C3196.13 459.691 3198.16 457.472 3200.42 454.923C3202.74 452.375 3204.93 449.778 3207.01 447.135C3209.13 444.492 3210.81 442.108 3212.04 439.984H3224ZM3307.19 471.986C3316.4 471.986 3323.36 474.252 3328.08 478.783C3332.8 483.267 3335.16 490.489 3335.16 500.448V551H3323.55V501.227C3323.55 494.761 3322.06 489.923 3319.09 486.713C3316.16 483.503 3311.65 481.898 3305.56 481.898C3296.97 481.898 3290.93 484.329 3287.44 489.191C3283.95 494.053 3282.2 501.109 3282.2 510.36V551H3270.45V473.402H3279.93L3281.7 484.589H3282.34C3283.99 481.851 3286.09 479.562 3288.64 477.721C3291.19 475.833 3294.05 474.417 3297.21 473.473C3300.37 472.482 3303.7 471.986 3307.19 471.986Z" fill="black" fill-opacity="0.4"/>
</svg>
