<svg width="3376" height="606" viewBox="0 0 3376 606" fill="none" xmlns="http://www.w3.org/2000/svg">
<path d="M151.47 565.053L20.0819 388.692C9.42681 374.387 2.73301 357.543 0.679011 339.849C-1.38109 322.158 1.2658 304.241 8.35698 287.888L96.0858 86.5569C103.171 70.2297 114.449 56.0503 128.785 45.4462C143.12 34.8426 160.01 28.1893 177.75 26.157L397.007 0.65567C414.754 -1.36188 432.721 1.29605 449.109 8.36183C465.493 15.4282 479.737 26.6557 490.403 40.9217L621.793 217.288C632.447 231.592 639.14 248.434 641.196 266.125C643.253 283.818 640.607 301.736 633.517 318.088L545.787 519.421C538.698 535.743 527.411 549.912 513.076 560.517C498.74 571.113 481.857 577.776 464.123 579.821L244.866 605.318C227.119 607.382 209.141 604.741 192.739 597.669C176.344 590.602 162.113 579.353 151.47 565.053Z" fill="#5E1675"/>
<path d="M304.533 479.695C305.312 479.672 306.624 480.456 307.122 481.617C305.895 481.498 305.48 481 304.533 479.695Z" fill="#5E1675"/>
<path d="M468.333 460.666H175.666C172.351 460.666 169.171 459.349 166.827 457.005C164.483 454.661 163.166 451.481 163.166 448.166C163.166 444.851 164.483 441.671 166.827 439.327C169.171 436.983 172.351 435.666 175.666 435.666H468.333C471.648 435.666 474.827 436.983 477.172 439.327C479.516 441.671 480.833 444.851 480.833 448.166C480.833 451.481 479.516 454.661 477.172 457.005C474.827 459.349 471.648 460.666 468.333 460.666Z" fill="white"/>
<path d="M413.88 196.833H399.952C390.497 196.833 382.832 205.638 382.832 216.5V390.833C382.832 401.695 390.497 410.5 399.952 410.5H413.88C423.335 410.5 431 401.695 431 390.833V216.5C431 205.638 423.335 196.833 413.88 196.833Z" fill="white"/>
<path d="M320.458 125H311.542C302.958 125 296 134.62 296 146.487V388.513C296 400.38 302.958 410 311.542 410H320.458C329.042 410 336 400.38 336 388.513V146.487C336 134.62 329.042 125 320.458 125Z" fill="white"/>
<path d="M233.923 279H222.743C215.153 279 209 287.805 209 298.667V390.833C209 401.695 215.153 410.5 222.743 410.5H233.923C241.513 410.5 247.665 401.695 247.665 390.833V298.667C247.665 287.805 241.513 279 233.923 279Z" fill="white"/>
<path d="M772.56 320V83.2H855.12C872.613 83.2 887.227 86.9333 898.96 94.4C910.693 101.653 919.44 111.04 925.2 122.56C931.173 134.08 934.16 146.027 934.16 158.4C934.16 171.2 931.173 183.36 925.2 194.88C919.44 206.4 910.693 215.893 898.96 223.36C887.227 230.613 872.613 234.24 855.12 234.24H797.2V320H772.56ZM855.12 105.28H797.2V212.16H855.12C867.28 212.16 877.413 209.6 885.52 204.48C893.627 199.36 899.707 192.747 903.76 184.64C907.813 176.32 909.84 167.68 909.84 158.72C909.84 149.76 907.813 141.227 903.76 133.12C899.707 124.8 893.627 118.08 885.52 112.96C877.413 107.84 867.28 105.28 855.12 105.28ZM1036.7 147.2C1048.43 147.2 1058.14 149.227 1065.82 153.28C1073.5 157.12 1079.58 161.707 1084.06 167.04C1088.75 172.373 1092.16 176.96 1094.3 180.8H1096.22V150.4H1119.9V320H1096.22V289.6H1094.3C1092.16 293.653 1088.75 298.347 1084.06 303.68C1079.58 308.8 1073.5 313.387 1065.82 317.44C1058.14 321.28 1048.43 323.2 1036.7 323.2C1023.9 323.2 1012.7 320.747 1003.1 315.84C993.495 310.72 985.495 304 979.095 295.68C972.695 287.147 967.895 277.653 964.695 267.2C961.708 256.747 960.215 246.08 960.215 235.2C960.215 224.32 961.708 213.653 964.695 203.2C967.895 192.747 972.695 183.36 979.095 175.04C985.495 166.507 993.495 159.787 1003.1 154.88C1012.7 149.76 1023.9 147.2 1036.7 147.2ZM1040.22 168C1027.63 168 1017.18 171.307 1008.86 177.92C1000.54 184.533 994.348 192.96 990.295 203.2C986.242 213.44 984.215 224.107 984.215 235.2C984.215 246.293 986.242 256.96 990.295 267.2C994.348 277.44 1000.54 285.867 1008.86 292.48C1017.18 299.093 1027.63 302.4 1040.22 302.4C1052.59 302.4 1062.83 299.093 1070.94 292.48C1079.26 285.867 1085.44 277.44 1089.5 267.2C1093.76 256.96 1095.9 246.293 1095.9 235.2C1095.9 224.107 1093.76 213.44 1089.5 203.2C1085.44 192.96 1079.26 184.533 1070.94 177.92C1062.83 171.307 1052.59 168 1040.22 168ZM1167.81 320V150.4H1191.81V172.48H1193.09C1196.51 165.653 1201.73 159.787 1208.77 154.88C1215.81 149.76 1225.63 147.2 1238.21 147.2C1242.27 147.2 1245.79 147.413 1248.77 147.84C1251.97 148.267 1253.57 148.48 1253.57 148.48V171.52C1253.57 171.52 1251.87 171.307 1248.45 170.88C1245.04 170.453 1241.41 170.24 1237.57 170.24C1228.83 170.24 1220.93 172.053 1213.89 175.68C1207.07 179.093 1201.63 185.067 1197.57 193.6C1193.73 201.92 1191.81 213.333 1191.81 227.84V320H1167.81ZM1349.2 147.2C1360.93 147.2 1370.64 149.227 1378.32 153.28C1386 157.12 1392.08 161.707 1396.56 167.04C1401.25 172.373 1404.66 176.96 1406.8 180.8H1408.72V150.4H1432.4V320H1408.72V289.6H1406.8C1404.66 293.653 1401.25 298.347 1396.56 303.68C1392.08 308.8 1386 313.387 1378.32 317.44C1370.64 321.28 1360.93 323.2 1349.2 323.2C1336.4 323.2 1325.2 320.747 1315.6 315.84C1306 310.72 1298 304 1291.6 295.68C1285.2 287.147 1280.4 277.653 1277.2 267.2C1274.21 256.747 1272.72 246.08 1272.72 235.2C1272.72 224.32 1274.21 213.653 1277.2 203.2C1280.4 192.747 1285.2 183.36 1291.6 175.04C1298 166.507 1306 159.787 1315.6 154.88C1325.2 149.76 1336.4 147.2 1349.2 147.2ZM1352.72 168C1340.13 168 1329.68 171.307 1321.36 177.92C1313.04 184.533 1306.85 192.96 1302.8 203.2C1298.74 213.44 1296.72 224.107 1296.72 235.2C1296.72 246.293 1298.74 256.96 1302.8 267.2C1306.85 277.44 1313.04 285.867 1321.36 292.48C1329.68 299.093 1340.13 302.4 1352.72 302.4C1365.09 302.4 1375.33 299.093 1383.44 292.48C1391.76 285.867 1397.94 277.44 1402 267.2C1406.26 256.96 1408.4 246.293 1408.4 235.2C1408.4 224.107 1406.26 213.44 1402 203.2C1397.94 192.96 1391.76 184.533 1383.44 177.92C1375.33 171.307 1365.09 168 1352.72 168ZM1551.7 323.2C1538.9 323.2 1527.7 320.747 1518.1 315.84C1508.5 310.72 1500.5 304 1494.1 295.68C1487.7 287.147 1482.9 277.653 1479.7 267.2C1476.71 256.747 1475.22 246.08 1475.22 235.2C1475.22 224.32 1476.71 213.653 1479.7 203.2C1482.9 192.747 1487.7 183.36 1494.1 175.04C1500.5 166.507 1508.5 159.787 1518.1 154.88C1527.7 149.76 1538.9 147.2 1551.7 147.2C1563.43 147.2 1573.14 149.227 1580.82 153.28C1588.5 157.12 1594.58 161.707 1599.06 167.04C1603.75 172.373 1607.16 176.96 1609.3 180.8H1611.22V76.8H1634.9V320H1611.22V289.6H1609.3C1607.16 293.653 1603.75 298.347 1599.06 303.68C1594.58 308.8 1588.5 313.387 1580.82 317.44C1573.14 321.28 1563.43 323.2 1551.7 323.2ZM1555.22 302.4C1567.59 302.4 1577.83 299.093 1585.94 292.48C1594.26 285.867 1600.44 277.44 1604.5 267.2C1608.76 256.96 1610.9 246.293 1610.9 235.2C1610.9 224.107 1608.76 213.44 1604.5 203.2C1600.44 192.96 1594.26 184.533 1585.94 177.92C1577.83 171.307 1567.59 168 1555.22 168C1542.63 168 1532.18 171.307 1523.86 177.92C1515.54 184.533 1509.35 192.96 1505.3 203.2C1501.24 213.44 1499.22 224.107 1499.22 235.2C1499.22 246.293 1501.24 256.96 1505.3 267.2C1509.35 277.44 1515.54 285.867 1523.86 292.48C1532.18 299.093 1542.63 302.4 1555.22 302.4ZM1701.31 117.76C1696.4 117.76 1692.35 116.053 1689.15 112.64C1685.95 109.227 1684.35 105.28 1684.35 100.8C1684.35 96.1067 1685.95 92.16 1689.15 88.96C1692.35 85.5467 1696.4 83.84 1701.31 83.84C1706 83.84 1709.95 85.5467 1713.15 88.96C1716.56 92.16 1718.27 96.1067 1718.27 100.8C1718.27 105.493 1716.56 109.547 1713.15 112.96C1709.95 116.16 1706 117.76 1701.31 117.76ZM1689.47 320V150.4H1713.47V320H1689.47ZM1822.92 323.2C1810.12 323.2 1799.56 321.387 1791.24 317.76C1783.13 314.133 1776.63 309.653 1771.72 304.32C1767.03 298.987 1763.61 293.653 1761.48 288.32C1759.35 282.987 1757.96 278.507 1757.32 274.88C1756.68 271.253 1756.36 269.44 1756.36 269.44H1781C1781 269.44 1781.32 271.147 1781.96 274.56C1782.6 277.76 1784.2 281.6 1786.76 286.08C1789.53 290.347 1793.8 294.187 1799.56 297.6C1805.32 300.8 1813.21 302.4 1823.24 302.4C1834.12 302.4 1842.76 299.627 1849.16 294.08C1855.56 288.533 1858.76 281.707 1858.76 273.6C1858.76 265.92 1856.09 259.947 1850.76 255.68C1845.64 251.413 1838.71 248.32 1829.96 246.4L1807.56 241.28C1799.03 239.147 1791.24 236.267 1784.2 232.64C1777.16 229.013 1771.51 224.213 1767.24 218.24C1762.97 212.053 1760.84 204.48 1760.84 195.52C1760.84 181.227 1766.07 169.6 1776.52 160.64C1786.97 151.68 1800.63 147.2 1817.48 147.2C1828.79 147.2 1838.07 148.907 1845.32 152.32C1852.79 155.52 1858.65 159.573 1862.92 164.48C1867.4 169.387 1870.6 174.293 1872.52 179.2C1874.65 183.893 1876.04 187.947 1876.68 191.36C1877.32 194.56 1877.64 196.16 1877.64 196.16H1854.28C1854.28 196.16 1853.85 194.773 1853 192C1852.36 189.013 1850.87 185.707 1848.52 182.08C1846.39 178.24 1842.76 174.933 1837.64 172.16C1832.73 169.173 1826.01 167.68 1817.48 167.68C1806.39 167.68 1798.07 170.347 1792.52 175.68C1787.19 181.013 1784.52 187.093 1784.52 193.92C1784.52 200.533 1786.87 205.76 1791.56 209.6C1796.47 213.44 1803.08 216.32 1811.4 218.24L1834.12 223.68C1848.41 227.093 1860.04 232.747 1869 240.64C1877.96 248.32 1882.44 258.987 1882.44 272.64C1882.44 281.813 1879.99 290.24 1875.08 297.92C1870.39 305.6 1863.56 311.787 1854.6 316.48C1845.85 320.96 1835.29 323.2 1822.92 323.2ZM1995.82 323.2C1982.16 323.2 1970.32 320.747 1960.3 315.84C1950.27 310.72 1942.06 303.893 1935.66 295.36C1929.26 286.827 1924.46 277.333 1921.26 266.88C1918.27 256.427 1916.78 245.867 1916.78 235.2C1916.78 224.533 1918.27 213.973 1921.26 203.52C1924.46 193.067 1929.26 183.573 1935.66 175.04C1942.06 166.507 1950.06 159.787 1959.66 154.88C1969.47 149.76 1981.1 147.2 1994.54 147.2C2008.62 147.2 2021.1 150.507 2031.98 157.12C2043.07 163.733 2051.71 173.547 2057.9 186.56C2064.3 199.36 2067.5 215.467 2067.5 234.88V241.92H1941.1C1941.52 252.8 1943.87 262.827 1948.14 272C1952.62 281.173 1958.8 288.533 1966.7 294.08C1974.8 299.627 1984.51 302.4 1995.82 302.4C2005.2 302.4 2012.99 300.8 2019.18 297.6C2025.36 294.187 2030.06 290.347 2033.26 286.08C2036.67 281.6 2039.02 277.76 2040.3 274.56C2041.79 271.36 2042.54 269.76 2042.54 269.76H2065.26C2065.26 269.76 2064.72 271.573 2063.66 275.2C2062.59 278.613 2060.67 282.987 2057.9 288.32C2055.12 293.653 2051.07 298.987 2045.74 304.32C2040.62 309.653 2034 314.133 2025.9 317.76C2017.79 321.387 2007.76 323.2 1995.82 323.2ZM1941.42 222.72H2043.5C2042.86 209.707 2040.19 199.253 2035.5 191.36C2031.02 183.253 2025.15 177.387 2017.9 173.76C2010.64 170.133 2002.86 168.32 1994.54 168.32C1979.39 168.32 1967.12 173.333 1957.74 183.36C1948.35 193.173 1942.91 206.293 1941.42 222.72Z" fill="#73C41D"/>
<path d="M2098.14 320L2179.74 83.2H2236.38L2318.3 320H2272.86L2255.9 270.08H2160.54L2143.58 320H2098.14ZM2173.02 232.32H2243.42L2208.22 127.68L2173.02 232.32ZM2398.04 323.2C2380.33 323.2 2366.89 317.76 2357.72 306.88C2348.76 296 2344.28 282.027 2344.28 264.96V150.4H2386.52V257.92C2386.52 267.093 2388.97 274.453 2393.88 280C2398.78 285.333 2405.72 288 2414.68 288C2422.57 288 2428.97 285.973 2433.88 281.92C2438.78 277.867 2442.3 272.64 2444.44 266.24C2446.78 259.84 2447.96 253.227 2447.96 246.4V150.4H2490.52V320H2447.96V295.68H2446.04C2443.9 299.52 2440.81 303.573 2436.76 307.84C2432.92 312.107 2427.8 315.733 2421.4 318.72C2415.21 321.707 2407.42 323.2 2398.04 323.2ZM2602.86 323.2C2590.27 323.2 2579.28 320.747 2569.9 315.84C2560.51 310.72 2552.62 304 2546.22 295.68C2540.03 287.147 2535.34 277.653 2532.14 267.2C2529.15 256.747 2527.66 246.08 2527.66 235.2C2527.66 224.32 2529.15 213.653 2532.14 203.2C2535.34 192.747 2540.03 183.36 2546.22 175.04C2552.62 166.507 2560.51 159.787 2569.9 154.88C2579.28 149.76 2590.27 147.2 2602.86 147.2C2613.74 147.2 2622.7 149.013 2629.74 152.64C2636.78 156.053 2642.32 159.893 2646.38 164.16C2650.43 168.213 2653.2 171.52 2654.7 174.08H2656.62V76.8H2699.18V320H2656.62V296.32H2654.7C2653.2 298.88 2650.43 302.293 2646.38 306.56C2642.32 310.827 2636.78 314.667 2629.74 318.08C2622.7 321.493 2613.74 323.2 2602.86 323.2ZM2614.06 288.32C2623.66 288.32 2631.66 285.76 2638.06 280.64C2644.46 275.307 2649.26 268.587 2652.46 260.48C2655.66 252.373 2657.26 243.947 2657.26 235.2C2657.26 226.453 2655.66 218.027 2652.46 209.92C2649.26 201.813 2644.46 195.2 2638.06 190.08C2631.66 184.747 2623.66 182.08 2614.06 182.08C2604.46 182.08 2596.35 184.747 2589.74 190.08C2583.34 195.2 2578.54 201.813 2575.34 209.92C2572.14 218.027 2570.54 226.453 2570.54 235.2C2570.54 243.947 2572.14 252.373 2575.34 260.48C2578.54 268.587 2583.34 275.307 2589.74 280.64C2596.35 285.76 2604.46 288.32 2614.06 288.32ZM2767.69 124.16C2760.22 124.16 2754.04 121.707 2749.13 116.8C2744.44 111.893 2742.09 106.027 2742.09 99.2C2742.09 92.3733 2744.44 86.5066 2749.13 81.6C2754.04 76.6933 2760.22 74.24 2767.69 74.24C2775.16 74.24 2781.34 76.6933 2786.25 81.6C2791.16 86.5066 2793.61 92.3733 2793.61 99.2C2793.61 106.027 2791.16 111.893 2786.25 116.8C2781.34 121.707 2775.16 124.16 2767.69 124.16ZM2746.57 320V150.4H2789.13V320H2746.57ZM2909.82 323.2C2898.3 323.2 2888.81 321.493 2881.34 318.08C2873.87 314.667 2868.01 310.187 2863.74 304.64C2859.69 299.093 2856.81 293.013 2855.1 286.4C2853.39 279.787 2852.54 273.28 2852.54 266.88V184.64H2823.42V150.4H2852.54V108.16H2895.1V150.4H2933.18V184.64H2895.1V265.92C2895.1 281.067 2903.63 288.64 2920.7 288.64C2924.75 288.64 2928.49 288.427 2931.9 288C2935.53 287.36 2937.34 287.04 2937.34 287.04V320.32C2937.34 320.32 2934.57 320.747 2929.02 321.6C2923.69 322.667 2917.29 323.2 2909.82 323.2Z" fill="#5E1675"/>
<path d="M804.411 423.623C798.699 423.623 793.555 424.614 788.976 426.596C784.445 428.531 780.574 431.363 777.365 435.092C774.202 438.774 771.771 443.234 770.072 448.474C768.373 453.713 767.523 459.613 767.523 466.174C767.523 474.859 768.869 482.411 771.559 488.83C774.297 495.202 778.356 500.135 783.737 503.627C789.165 507.12 795.938 508.867 804.057 508.867C808.682 508.867 813.025 508.489 817.084 507.734C821.19 506.931 825.179 505.94 829.049 504.76V515.239C825.273 516.655 821.308 517.693 817.155 518.354C813.001 519.062 808.069 519.416 802.357 519.416C791.832 519.416 783.029 517.245 775.949 512.902C768.916 508.513 763.629 502.329 760.089 494.353C756.597 486.376 754.85 476.959 754.85 466.103C754.85 458.268 755.936 451.117 758.107 444.65C760.325 438.137 763.535 432.52 767.736 427.8C771.984 423.08 777.176 419.445 783.312 416.896C789.495 414.3 796.575 413.002 804.552 413.002C809.792 413.002 814.842 413.522 819.704 414.56C824.565 415.598 828.955 417.085 832.873 419.021L828.058 429.216C824.754 427.705 821.12 426.407 817.155 425.322C813.237 424.189 808.989 423.623 804.411 423.623ZM916.63 479.06C916.63 485.432 915.804 491.119 914.152 496.123C912.5 501.126 910.116 505.35 907.001 508.796C903.886 512.242 900.11 514.885 895.673 516.726C891.283 518.519 886.304 519.416 880.734 519.416C875.542 519.416 870.775 518.519 866.432 516.726C862.137 514.885 858.408 512.242 855.246 508.796C852.13 505.35 849.7 501.126 847.953 496.123C846.254 491.119 845.404 485.432 845.404 479.06C845.404 470.563 846.844 463.342 849.723 457.395C852.602 451.4 856.709 446.845 862.042 443.73C867.423 440.568 873.819 438.986 881.229 438.986C888.31 438.986 894.493 440.568 899.779 443.73C905.113 446.892 909.243 451.471 912.169 457.465C915.143 463.413 916.63 470.611 916.63 479.06ZM857.582 479.06C857.582 485.29 858.408 490.694 860.06 495.273C861.712 499.851 864.261 503.391 867.707 505.893C871.152 508.395 875.589 509.646 881.017 509.646C886.398 509.646 890.811 508.395 894.257 505.893C897.75 503.391 900.322 499.851 901.974 495.273C903.626 490.694 904.452 485.29 904.452 479.06C904.452 472.876 903.626 467.543 901.974 463.059C900.322 458.527 897.773 455.035 894.328 452.58C890.882 450.126 886.422 448.898 880.946 448.898C872.875 448.898 866.951 451.565 863.175 456.899C859.446 462.233 857.582 469.619 857.582 479.06ZM887.106 406.984C888.286 409.108 889.938 411.516 892.062 414.206C894.186 416.849 896.428 419.445 898.788 421.994C901.148 424.543 903.249 426.738 905.089 428.579V430.136H896.735C894.186 428.484 891.566 426.455 888.876 424.047C886.186 421.64 883.566 419.139 881.017 416.542C878.468 419.139 875.872 421.64 873.229 424.047C870.633 426.407 868.061 428.437 865.512 430.136H857.44V428.579C859.234 426.691 861.264 424.472 863.529 421.923C865.842 419.375 868.037 416.778 870.114 414.135C872.238 411.492 873.913 409.108 875.141 406.984H887.106ZM973.695 438.986C982.899 438.986 989.861 441.252 994.582 445.783C999.302 450.267 1001.66 457.489 1001.66 467.448V518H990.05V468.227C990.05 461.761 988.563 456.923 985.59 453.713C982.663 450.503 978.156 448.898 972.067 448.898C963.476 448.898 957.435 451.329 953.942 456.191C950.449 461.053 948.703 468.109 948.703 477.36V518H936.95V440.402H946.437L948.207 451.589H948.844C950.496 448.851 952.597 446.562 955.146 444.721C957.694 442.833 960.55 441.417 963.712 440.473C966.875 439.482 970.202 438.986 973.695 438.986ZM1047.54 552.834C1037.35 552.834 1029.49 550.922 1023.96 547.099C1018.44 543.323 1015.68 538.013 1015.68 531.169C1015.68 526.307 1017.21 522.154 1020.28 518.708C1023.4 515.262 1027.69 512.973 1033.17 511.84C1031.14 510.896 1029.39 509.48 1027.93 507.592C1026.51 505.704 1025.8 503.533 1025.8 501.079C1025.8 498.247 1026.58 495.769 1028.14 493.645C1029.75 491.473 1032.18 489.396 1035.43 487.414C1031.37 485.762 1028.07 482.977 1025.52 479.06C1023.02 475.095 1021.77 470.493 1021.77 465.253C1021.77 459.684 1022.93 454.94 1025.24 451.022C1027.55 447.058 1030.9 444.037 1035.29 441.96C1039.68 439.883 1044.99 438.845 1051.22 438.845C1052.59 438.845 1053.96 438.916 1055.33 439.057C1056.74 439.152 1058.09 439.317 1059.36 439.553C1060.64 439.742 1061.75 439.978 1062.69 440.261H1089.31V447.836L1075.01 449.606C1076.43 451.447 1077.61 453.666 1078.55 456.262C1079.5 458.858 1079.97 461.737 1079.97 464.899C1079.97 472.64 1077.35 478.8 1072.11 483.378C1066.87 487.91 1059.67 490.175 1050.51 490.175C1048.34 490.175 1046.12 489.986 1043.86 489.609C1041.55 490.883 1039.78 492.299 1038.55 493.857C1037.37 495.415 1036.78 497.208 1036.78 499.238C1036.78 500.748 1037.23 501.952 1038.12 502.849C1039.07 503.745 1040.41 504.406 1042.16 504.831C1043.91 505.209 1046.01 505.397 1048.46 505.397H1062.13C1070.57 505.397 1077.04 507.167 1081.52 510.708C1086.06 514.248 1088.32 519.416 1088.32 526.213C1088.32 534.803 1084.83 541.388 1077.84 545.966C1070.86 550.545 1060.76 552.834 1047.54 552.834ZM1047.89 543.63C1054.31 543.63 1059.62 542.969 1063.82 541.647C1068.07 540.373 1071.24 538.509 1073.31 536.054C1075.44 533.647 1076.5 530.768 1076.5 527.417C1076.5 524.301 1075.79 521.941 1074.37 520.336C1072.96 518.779 1070.88 517.74 1068.14 517.221C1065.41 516.655 1062.05 516.372 1058.09 516.372H1044.64C1041.14 516.372 1038.1 516.914 1035.5 518C1032.91 519.086 1030.9 520.69 1029.49 522.814C1028.12 524.938 1027.43 527.582 1027.43 530.744C1027.43 534.945 1029.2 538.131 1032.74 540.302C1036.28 542.521 1041.33 543.63 1047.89 543.63ZM1050.94 481.608C1056.56 481.608 1060.78 480.192 1063.61 477.36C1066.44 474.528 1067.86 470.398 1067.86 464.97C1067.86 459.165 1066.42 454.822 1063.54 451.943C1060.66 449.016 1056.41 447.553 1050.8 447.553C1045.42 447.553 1041.26 449.064 1038.34 452.084C1035.46 455.058 1034.02 459.424 1034.02 465.183C1034.02 470.469 1035.48 474.528 1038.41 477.36C1041.33 480.192 1045.51 481.608 1050.94 481.608ZM1173.35 519.416C1166.37 519.416 1160.21 517.976 1154.87 515.097C1149.54 512.218 1145.39 507.828 1142.41 501.928C1139.44 496.028 1137.95 488.594 1137.95 479.626C1137.95 470.233 1139.51 462.563 1142.63 456.616C1145.79 450.621 1150.13 446.184 1155.65 443.305C1161.18 440.426 1167.45 438.986 1174.49 438.986C1178.36 438.986 1182.09 439.388 1185.67 440.19C1189.31 440.945 1192.28 441.913 1194.59 443.093L1191.05 452.934C1188.69 451.99 1185.96 451.14 1182.84 450.385C1179.77 449.63 1176.89 449.252 1174.2 449.252C1168.82 449.252 1164.34 450.409 1160.75 452.722C1157.21 455.035 1154.54 458.433 1152.75 462.917C1151 467.401 1150.13 472.924 1150.13 479.484C1150.13 485.762 1150.98 491.119 1152.68 495.556C1154.43 499.993 1157 503.391 1160.4 505.751C1163.84 508.064 1168.14 509.221 1173.28 509.221C1177.39 509.221 1181.09 508.796 1184.4 507.946C1187.7 507.049 1190.7 506.011 1193.39 504.831V515.31C1190.79 516.631 1187.89 517.646 1184.68 518.354C1181.52 519.062 1177.74 519.416 1173.35 519.416ZM1275.87 440.402V518H1266.24L1264.54 507.097H1263.91C1262.3 509.787 1260.23 512.053 1257.68 513.894C1255.13 515.734 1252.25 517.103 1249.04 518C1245.88 518.944 1242.5 519.416 1238.92 519.416C1232.78 519.416 1227.63 518.425 1223.48 516.442C1219.33 514.46 1216.19 511.392 1214.06 507.238C1211.99 503.085 1210.95 497.751 1210.95 491.237V440.402H1222.84V490.388C1222.84 496.854 1224.31 501.692 1227.23 504.902C1230.16 508.064 1234.62 509.646 1240.61 509.646C1246.37 509.646 1250.95 508.56 1254.35 506.389C1257.8 504.217 1260.27 501.031 1261.78 496.831C1263.29 492.583 1264.05 487.39 1264.05 481.254V440.402H1275.87ZM1241.75 542.851C1239.76 542.851 1238.09 542.214 1236.72 540.939C1235.35 539.665 1234.67 537.73 1234.67 535.134C1234.67 532.491 1235.35 530.532 1236.72 529.257C1238.09 528.03 1239.76 527.417 1241.75 527.417C1243.78 527.417 1245.48 528.03 1246.84 529.257C1248.21 530.532 1248.9 532.491 1248.9 535.134C1248.9 537.73 1248.21 539.665 1246.84 540.939C1245.48 542.214 1243.78 542.851 1241.75 542.851ZM1366 519.416C1356.18 519.416 1348.4 516.088 1342.64 509.433C1336.93 502.731 1334.07 492.842 1334.07 479.768C1334.07 466.221 1337 456.097 1342.85 449.394C1348.7 442.692 1356.47 439.34 1366.14 439.34C1370.25 439.34 1373.84 439.883 1376.91 440.969C1379.97 442.054 1382.62 443.518 1384.84 445.358C1387.1 447.199 1388.99 449.252 1390.5 451.518H1391.35C1391.11 450.055 1390.9 448.049 1390.71 445.5C1390.57 442.951 1390.5 440.827 1390.5 439.128V429.853H1359.13V421.003H1390.5V407.834H1402.25V421.003H1413.23V429.853H1402.25V518H1392.62L1390.92 506.955H1390.36C1388.89 509.268 1387.05 511.368 1384.84 513.256C1382.62 515.144 1379.95 516.655 1376.83 517.788C1373.77 518.873 1370.16 519.416 1366 519.416ZM1367.91 509.646C1376.22 509.646 1382.07 507.333 1385.47 502.707C1388.87 498.034 1390.57 491.072 1390.57 481.821V479.555C1390.57 469.643 1388.94 462.091 1385.69 456.899C1382.43 451.707 1376.48 449.111 1367.84 449.111C1360.62 449.111 1355.22 451.825 1351.63 457.253C1348.09 462.681 1346.32 470.209 1346.32 479.838C1346.32 489.373 1348.09 496.736 1351.63 501.928C1355.17 507.073 1360.6 509.646 1367.91 509.646ZM1456.34 439.128C1465.6 439.128 1472.46 441.205 1476.95 445.358C1481.43 449.512 1483.67 456.144 1483.67 465.253V518H1475.11L1472.84 506.53H1472.27C1470.1 509.362 1467.84 511.746 1465.48 513.681C1463.12 515.569 1460.38 517.009 1457.26 518C1454.2 518.944 1450.42 519.416 1445.94 519.416C1441.22 519.416 1437.02 518.59 1433.33 516.938C1429.7 515.286 1426.82 512.784 1424.7 509.433C1422.62 506.082 1421.58 501.834 1421.58 496.689C1421.58 488.948 1424.65 483.001 1430.79 478.847C1436.92 474.694 1446.27 472.428 1458.82 472.05L1472.2 471.484V466.74C1472.2 460.038 1470.76 455.341 1467.88 452.651C1465.01 449.96 1460.95 448.615 1455.71 448.615C1451.65 448.615 1447.78 449.205 1444.1 450.385C1440.41 451.565 1436.92 452.958 1433.62 454.562L1430.01 445.642C1433.5 443.848 1437.51 442.314 1442.04 441.04C1446.57 439.765 1451.34 439.128 1456.34 439.128ZM1472.06 479.768L1460.24 480.263C1450.56 480.641 1443.74 482.222 1439.78 485.007C1435.81 487.792 1433.83 491.733 1433.83 496.831C1433.83 501.267 1435.17 504.548 1437.87 506.672C1440.56 508.796 1444.12 509.858 1448.56 509.858C1455.45 509.858 1461.09 507.946 1465.48 504.123C1469.87 500.3 1472.06 494.565 1472.06 486.918V479.768ZM1475.74 406.914V408.33C1474.8 409.698 1473.5 411.35 1471.85 413.286C1470.24 415.174 1468.45 417.18 1466.47 419.304C1464.49 421.381 1462.48 423.363 1460.45 425.251C1458.47 427.139 1456.63 428.767 1454.93 430.136H1447.07V428.437C1448.58 426.643 1450.23 424.496 1452.03 421.994C1453.82 419.445 1455.57 416.849 1457.26 414.206C1458.96 411.516 1460.38 409.085 1461.51 406.914H1475.74ZM1544.63 438.986C1553.84 438.986 1560.8 441.252 1565.52 445.783C1570.24 450.267 1572.6 457.489 1572.6 467.448V518H1560.99V468.227C1560.99 461.761 1559.5 456.923 1556.53 453.713C1553.6 450.503 1549.09 448.898 1543 448.898C1534.41 448.898 1528.37 451.329 1524.88 456.191C1521.39 461.053 1519.64 468.109 1519.64 477.36V518H1507.89V440.402H1517.37L1519.14 451.589H1519.78C1521.43 448.851 1523.53 446.562 1526.08 444.721C1528.63 442.833 1531.49 441.417 1534.65 440.473C1537.81 439.482 1541.14 438.986 1544.63 438.986ZM1608.57 407.834V440.756C1608.57 442.644 1608.52 444.556 1608.42 446.491C1608.33 448.379 1608.16 450.126 1607.93 451.73H1608.71C1610.31 448.993 1612.34 446.704 1614.8 444.863C1617.3 442.975 1620.13 441.559 1623.29 440.615C1626.45 439.624 1629.81 439.128 1633.35 439.128C1639.58 439.128 1644.77 440.119 1648.92 442.102C1653.12 444.084 1656.26 447.152 1658.34 451.306C1660.46 455.459 1661.52 460.84 1661.52 467.448V518H1649.91V468.227C1649.91 461.761 1648.43 456.923 1645.45 453.713C1642.53 450.503 1638.02 448.898 1631.93 448.898C1626.17 448.898 1621.57 450.008 1618.12 452.226C1614.73 454.397 1612.27 457.607 1610.76 461.855C1609.3 466.103 1608.57 471.295 1608.57 477.431V518H1596.81V407.834H1608.57ZM1745.07 552.834C1734.87 552.834 1727.02 550.922 1721.49 547.099C1715.97 543.323 1713.21 538.013 1713.21 531.169C1713.21 526.307 1714.74 522.154 1717.81 518.708C1720.93 515.262 1725.22 512.973 1730.7 511.84C1728.67 510.896 1726.92 509.48 1725.46 507.592C1724.04 505.704 1723.33 503.533 1723.33 501.079C1723.33 498.247 1724.11 495.769 1725.67 493.645C1727.28 491.473 1729.71 489.396 1732.96 487.414C1728.9 485.762 1725.6 482.977 1723.05 479.06C1720.55 475.095 1719.3 470.493 1719.3 465.253C1719.3 459.684 1720.45 454.94 1722.77 451.022C1725.08 447.058 1728.43 444.037 1732.82 441.96C1737.21 439.883 1742.52 438.845 1748.75 438.845C1750.12 438.845 1751.49 438.916 1752.86 439.057C1754.27 439.152 1755.62 439.317 1756.89 439.553C1758.17 439.742 1759.28 439.978 1760.22 440.261H1786.84V447.836L1772.54 449.606C1773.96 451.447 1775.14 453.666 1776.08 456.262C1777.02 458.858 1777.5 461.737 1777.5 464.899C1777.5 472.64 1774.88 478.8 1769.64 483.378C1764.4 487.91 1757.2 490.175 1748.04 490.175C1745.87 490.175 1743.65 489.986 1741.39 489.609C1739.08 490.883 1737.31 492.299 1736.08 493.857C1734.9 495.415 1734.31 497.208 1734.31 499.238C1734.31 500.748 1734.76 501.952 1735.65 502.849C1736.6 503.745 1737.94 504.406 1739.69 504.831C1741.44 505.209 1743.54 505.397 1745.99 505.397H1759.65C1768.1 505.397 1774.57 507.167 1779.05 510.708C1783.59 514.248 1785.85 519.416 1785.85 526.213C1785.85 534.803 1782.36 541.388 1775.37 545.966C1768.39 550.545 1758.29 552.834 1745.07 552.834ZM1745.42 543.63C1751.84 543.63 1757.15 542.969 1761.35 541.647C1765.6 540.373 1768.76 538.509 1770.84 536.054C1772.97 533.647 1774.03 530.768 1774.03 527.417C1774.03 524.301 1773.32 521.941 1771.9 520.336C1770.49 518.779 1768.41 517.74 1765.67 517.221C1762.94 516.655 1759.58 516.372 1755.62 516.372H1742.17C1738.67 516.372 1735.63 516.914 1733.03 518C1730.44 519.086 1728.43 520.69 1727.02 522.814C1725.65 524.938 1724.96 527.582 1724.96 530.744C1724.96 534.945 1726.73 538.131 1730.27 540.302C1733.81 542.521 1738.86 543.63 1745.42 543.63ZM1748.47 481.608C1754.09 481.608 1758.31 480.192 1761.14 477.36C1763.97 474.528 1765.39 470.398 1765.39 464.97C1765.39 459.165 1763.95 454.822 1761.07 451.943C1758.19 449.016 1753.94 447.553 1748.33 447.553C1742.95 447.553 1738.79 449.064 1735.87 452.084C1732.99 455.058 1731.55 459.424 1731.55 465.183C1731.55 470.469 1733.01 474.528 1735.94 477.36C1738.86 480.192 1743.04 481.608 1748.47 481.608ZM1813.89 440.402V518H1802.14V440.402H1813.89ZM1808.15 411.374C1810.09 411.374 1811.74 412.011 1813.11 413.286C1814.53 414.513 1815.23 416.448 1815.23 419.091C1815.23 421.687 1814.53 423.623 1813.11 424.897C1811.74 426.171 1810.09 426.809 1808.15 426.809C1806.12 426.809 1804.42 426.171 1803.06 424.897C1801.73 423.623 1801.07 421.687 1801.07 419.091C1801.07 416.448 1801.73 414.513 1803.06 413.286C1804.42 412.011 1806.12 411.374 1808.15 411.374ZM1867.84 439.128C1877.09 439.128 1883.96 441.205 1888.44 445.358C1892.93 449.512 1895.17 456.144 1895.17 465.253V518H1886.6L1884.33 506.53H1883.77C1881.6 509.362 1879.33 511.746 1876.97 513.681C1874.61 515.569 1871.87 517.009 1868.76 518C1865.69 518.944 1861.91 519.416 1857.43 519.416C1852.71 519.416 1848.51 518.59 1844.83 516.938C1841.19 515.286 1838.31 512.784 1836.19 509.433C1834.11 506.082 1833.08 501.834 1833.08 496.689C1833.08 488.948 1836.14 483.001 1842.28 478.847C1848.42 474.694 1857.76 472.428 1870.32 472.05L1883.7 471.484V466.74C1883.7 460.038 1882.26 455.341 1879.38 452.651C1876.5 449.96 1872.44 448.615 1867.2 448.615C1863.14 448.615 1859.27 449.205 1855.59 450.385C1851.91 451.565 1848.42 452.958 1845.11 454.562L1841.5 445.642C1844.99 443.848 1849.01 442.314 1853.54 441.04C1858.07 439.765 1862.84 439.128 1867.84 439.128ZM1883.56 479.768L1871.73 480.263C1862.06 480.641 1855.24 482.222 1851.27 485.007C1847.31 487.792 1845.32 491.733 1845.32 496.831C1845.32 501.267 1846.67 504.548 1849.36 506.672C1852.05 508.796 1855.61 509.858 1860.05 509.858C1866.94 509.858 1872.58 507.946 1876.97 504.123C1881.36 500.3 1883.56 494.565 1883.56 486.918V479.768ZM1887.24 406.914V408.33C1886.29 409.698 1885 411.35 1883.34 413.286C1881.74 415.174 1879.95 417.18 1877.96 419.304C1875.98 421.381 1873.97 423.363 1871.94 425.251C1869.96 427.139 1868.12 428.767 1866.42 430.136H1858.56V428.437C1860.07 426.643 1861.73 424.496 1863.52 421.994C1865.31 419.445 1867.06 416.849 1868.76 414.206C1870.46 411.516 1871.87 409.085 1873.01 406.914H1887.24ZM1974.11 518L1944.66 440.402H1957.26L1974.32 487.343C1975.5 490.553 1976.71 494.093 1977.93 497.963C1979.16 501.834 1980.01 504.949 1980.48 507.309H1980.98C1981.54 504.949 1982.49 501.834 1983.81 497.963C1985.13 494.046 1986.34 490.506 1987.42 487.343L2004.48 440.402H2017.09L1987.56 518H1974.11ZM2058.58 439.128C2067.83 439.128 2074.69 441.205 2079.18 445.358C2083.66 449.512 2085.9 456.144 2085.9 465.253V518H2077.34L2075.07 506.53H2074.51C2072.33 509.362 2070.07 511.746 2067.71 513.681C2065.35 515.569 2062.61 517.009 2059.5 518C2056.43 518.944 2052.65 519.416 2048.17 519.416C2043.45 519.416 2039.25 518.59 2035.57 516.938C2031.93 515.286 2029.05 512.784 2026.93 509.433C2024.85 506.082 2023.81 501.834 2023.81 496.689C2023.81 488.948 2026.88 483.001 2033.02 478.847C2039.15 474.694 2048.5 472.428 2061.05 472.05L2074.44 471.484V466.74C2074.44 460.038 2073 455.341 2070.12 452.651C2067.24 449.96 2063.18 448.615 2057.94 448.615C2053.88 448.615 2050.01 449.205 2046.33 450.385C2042.65 451.565 2039.15 452.958 2035.85 454.562L2032.24 445.642C2035.73 443.848 2039.74 442.314 2044.27 441.04C2048.81 439.765 2053.57 439.128 2058.58 439.128ZM2074.29 479.768L2062.47 480.263C2052.79 480.641 2045.97 482.222 2042.01 485.007C2038.04 487.792 2036.06 491.733 2036.06 496.831C2036.06 501.267 2037.41 504.548 2040.1 506.672C2042.79 508.796 2046.35 509.858 2050.79 509.858C2057.68 509.858 2063.32 507.946 2067.71 504.123C2072.1 500.3 2074.29 494.565 2074.29 486.918V479.768ZM2052.56 406.914C2053.69 409.085 2055.08 411.516 2056.73 414.206C2058.43 416.849 2060.2 419.445 2062.04 421.994C2063.93 424.496 2065.66 426.643 2067.21 428.437V430.136H2059.21C2057.51 428.767 2055.65 427.139 2053.62 425.251C2051.64 423.363 2049.65 421.381 2047.67 419.304C2045.69 417.18 2043.9 415.174 2042.29 413.286C2040.69 411.35 2039.44 409.698 2038.54 408.33V406.914H2052.56ZM2159.47 407.834V465.041C2159.47 466.929 2159.4 469.242 2159.25 471.979C2159.11 474.67 2158.99 477.054 2158.9 479.13H2159.4C2160.39 477.903 2161.83 476.086 2163.71 473.679C2165.65 471.271 2167.28 469.336 2168.6 467.873L2194.37 440.402H2208.18L2176.95 473.537L2210.44 518H2196.28L2168.88 481.254L2159.47 489.892V518H2147.78V407.834H2159.47ZM2235.72 440.402V518H2223.97V440.402H2235.72ZM2229.98 411.374C2231.92 411.374 2233.57 412.011 2234.94 413.286C2236.36 414.513 2237.06 416.448 2237.06 419.091C2237.06 421.687 2236.36 423.623 2234.94 424.897C2233.57 426.171 2231.92 426.809 2229.98 426.809C2227.95 426.809 2226.26 426.171 2224.89 424.897C2223.57 423.623 2222.9 421.687 2222.9 419.091C2222.9 416.448 2223.57 414.513 2224.89 413.286C2226.26 412.011 2227.95 411.374 2229.98 411.374ZM2290.52 438.986C2297.13 438.986 2302.79 440.45 2307.51 443.376C2312.23 446.302 2315.84 450.409 2318.34 455.695C2320.85 460.935 2322.1 467.071 2322.1 474.104V481.396H2268.5C2268.64 490.506 2270.91 497.444 2275.3 502.211C2279.69 506.979 2285.87 509.362 2293.85 509.362C2298.76 509.362 2303.1 508.914 2306.87 508.017C2310.65 507.12 2314.57 505.799 2318.63 504.052V514.389C2314.71 516.136 2310.82 517.41 2306.94 518.212C2303.12 519.015 2298.59 519.416 2293.35 519.416C2285.89 519.416 2279.38 517.906 2273.81 514.885C2268.29 511.817 2263.99 507.333 2260.92 501.433C2257.86 495.533 2256.32 488.311 2256.32 479.768C2256.32 471.413 2257.71 464.191 2260.5 458.103C2263.33 451.966 2267.3 447.246 2272.39 443.942C2277.54 440.638 2283.58 438.986 2290.52 438.986ZM2290.38 448.615C2284.1 448.615 2279.1 450.668 2275.37 454.775C2271.64 458.881 2269.42 464.616 2268.71 471.979H2309.78C2309.73 467.354 2309 463.295 2307.58 459.802C2306.21 456.262 2304.11 453.524 2301.28 451.589C2298.45 449.606 2294.81 448.615 2290.38 448.615ZM2295.48 409.958C2296.94 412.082 2298.54 414.23 2300.29 416.401C2302.08 418.572 2303.9 420.673 2305.74 422.702C2307.58 424.732 2309.33 426.643 2310.98 428.437V430.136H2304.33C2301.92 428.484 2299.42 426.643 2296.82 424.614C2294.27 422.584 2291.79 420.413 2289.39 418.1C2286.88 420.413 2284.36 422.584 2281.81 424.614C2279.31 426.643 2276.85 428.484 2274.45 430.136H2267.72V428.437C2269.37 426.643 2271.12 424.732 2272.96 422.702C2274.8 420.673 2276.62 418.572 2278.41 416.401C2280.21 414.23 2281.83 412.082 2283.3 409.958H2295.48ZM2309.78 391.762C2314.07 391.762 2317.4 392.588 2319.76 394.24C2322.12 395.845 2323.3 398.323 2323.3 401.674C2323.3 404.412 2322.4 406.489 2320.61 407.905C2318.86 409.321 2316.72 410.312 2314.17 410.878L2313.74 416.613H2308.15L2307.51 407.48C2310.34 407.055 2312.49 406.465 2313.95 405.71C2315.46 404.955 2316.22 403.704 2316.22 401.958C2316.22 400.258 2315.56 399.078 2314.24 398.417C2312.96 397.757 2311.24 397.426 2309.07 397.426C2308.03 397.426 2307.04 397.473 2306.1 397.568C2305.2 397.662 2304.44 397.78 2303.83 397.922V392.329C2304.49 392.14 2305.32 391.998 2306.31 391.904C2307.3 391.809 2308.46 391.762 2309.78 391.762ZM2426.31 438.986C2434.86 438.986 2441.3 441.228 2445.64 445.712C2449.99 450.149 2452.16 457.3 2452.16 467.165V518H2440.55V467.731C2440.55 461.454 2439.18 456.757 2436.44 453.642C2433.75 450.48 2429.74 448.898 2424.4 448.898C2416.9 448.898 2411.45 451.07 2408.05 455.412C2404.65 459.755 2402.95 466.15 2402.95 474.599V518H2391.27V467.731C2391.27 463.531 2390.65 460.038 2389.43 457.253C2388.25 454.468 2386.45 452.391 2384.05 451.022C2381.69 449.606 2378.69 448.898 2375.06 448.898C2369.91 448.898 2365.78 449.96 2362.67 452.084C2359.55 454.208 2357.28 457.371 2355.87 461.572C2354.5 465.725 2353.81 470.847 2353.81 476.936V518H2342.06V440.402H2351.55L2353.32 451.376H2353.96C2355.51 448.686 2357.47 446.42 2359.83 444.58C2362.19 442.739 2364.84 441.346 2367.76 440.402C2370.69 439.458 2373.8 438.986 2377.11 438.986C2383.01 438.986 2387.94 440.096 2391.91 442.314C2395.92 444.485 2398.82 447.813 2400.61 452.297H2401.25C2403.8 447.813 2407.29 444.485 2411.73 442.314C2416.17 440.096 2421.03 438.986 2426.31 438.986ZM2564.16 496.76C2564.16 501.716 2562.91 505.893 2560.41 509.292C2557.96 512.643 2554.42 515.168 2549.79 516.867C2545.21 518.566 2539.74 519.416 2533.37 519.416C2527.94 519.416 2523.24 518.991 2519.28 518.142C2515.31 517.292 2511.84 516.088 2508.87 514.531V503.698C2512.03 505.256 2515.81 506.672 2520.2 507.946C2524.59 509.221 2529.07 509.858 2533.65 509.858C2540.35 509.858 2545.21 508.772 2548.23 506.601C2551.25 504.43 2552.77 501.48 2552.77 497.751C2552.77 495.627 2552.15 493.763 2550.92 492.158C2549.74 490.506 2547.74 488.924 2544.91 487.414C2542.07 485.856 2538.16 484.157 2533.15 482.316C2528.2 480.428 2523.9 478.564 2520.27 476.723C2516.68 474.835 2513.9 472.546 2511.91 469.855C2509.98 467.165 2509.01 463.672 2509.01 459.377C2509.01 452.816 2511.65 447.789 2516.94 444.296C2522.27 440.756 2529.26 438.986 2537.9 438.986C2542.57 438.986 2546.94 439.458 2551 440.402C2555.1 441.299 2558.92 442.526 2562.46 444.084L2558.5 453.5C2555.29 452.132 2551.87 450.975 2548.23 450.031C2544.6 449.087 2540.89 448.615 2537.12 448.615C2531.69 448.615 2527.51 449.512 2524.59 451.306C2521.71 453.099 2520.27 455.554 2520.27 458.669C2520.27 461.076 2520.93 463.059 2522.25 464.616C2523.62 466.174 2525.79 467.637 2528.76 469.006C2531.74 470.375 2535.65 471.979 2540.52 473.82C2545.38 475.614 2549.58 477.478 2553.12 479.414C2556.66 481.302 2559.37 483.614 2561.26 486.352C2563.2 489.042 2564.16 492.512 2564.16 496.76ZM2649.97 479.06C2649.97 485.432 2649.15 491.119 2647.5 496.123C2645.84 501.126 2643.46 505.35 2640.35 508.796C2637.23 512.242 2633.45 514.885 2629.02 516.726C2624.63 518.519 2619.65 519.416 2614.08 519.416C2608.89 519.416 2604.12 518.519 2599.78 516.726C2595.48 514.885 2591.75 512.242 2588.59 508.796C2585.48 505.35 2583.04 501.126 2581.3 496.123C2579.6 491.119 2578.75 485.432 2578.75 479.06C2578.75 470.563 2580.19 463.342 2583.07 457.395C2585.95 451.4 2590.05 446.845 2595.39 443.73C2600.77 440.568 2607.16 438.986 2614.57 438.986C2621.65 438.986 2627.84 440.568 2633.12 443.73C2638.46 446.892 2642.59 451.471 2645.51 457.465C2648.49 463.413 2649.97 470.611 2649.97 479.06ZM2590.93 479.06C2590.93 485.29 2591.75 490.694 2593.4 495.273C2595.06 499.851 2597.61 503.391 2601.05 505.893C2604.5 508.395 2608.93 509.646 2614.36 509.646C2619.74 509.646 2624.16 508.395 2627.6 505.893C2631.09 503.391 2633.67 499.851 2635.32 495.273C2636.97 490.694 2637.8 485.29 2637.8 479.06C2637.8 472.876 2636.97 467.543 2635.32 463.059C2633.67 458.527 2631.12 455.035 2627.67 452.58C2624.23 450.126 2619.77 448.898 2614.29 448.898C2606.22 448.898 2600.3 451.565 2596.52 456.899C2592.79 462.233 2590.93 469.619 2590.93 479.06ZM2699.32 439.128C2708.57 439.128 2715.44 441.205 2719.93 445.358C2724.41 449.512 2726.65 456.144 2726.65 465.253V518H2718.08L2715.82 506.53H2715.25C2713.08 509.362 2710.82 511.746 2708.46 513.681C2706.1 515.569 2703.36 517.009 2700.24 518C2697.18 518.944 2693.4 519.416 2688.92 519.416C2684.19 519.416 2679.99 518.59 2676.31 516.938C2672.68 515.286 2669.8 512.784 2667.67 509.433C2665.6 506.082 2664.56 501.834 2664.56 496.689C2664.56 488.948 2667.63 483.001 2673.76 478.847C2679.9 474.694 2689.25 472.428 2701.8 472.05L2715.18 471.484V466.74C2715.18 460.038 2713.74 455.341 2710.86 452.651C2707.98 449.96 2703.92 448.615 2698.69 448.615C2694.63 448.615 2690.76 449.205 2687.07 450.385C2683.39 451.565 2679.9 452.958 2676.6 454.562L2672.98 445.642C2676.48 443.848 2680.49 442.314 2685.02 441.04C2689.55 439.765 2694.32 439.128 2699.32 439.128ZM2715.04 479.768L2703.22 480.263C2693.54 480.641 2686.72 482.222 2682.76 485.007C2678.79 487.792 2676.81 491.733 2676.81 496.831C2676.81 501.267 2678.15 504.548 2680.84 506.672C2683.53 508.796 2687.1 509.858 2691.53 509.858C2698.43 509.858 2704.07 507.946 2708.46 504.123C2712.85 500.3 2715.04 494.565 2715.04 486.918V479.768ZM2718.72 406.914V408.33C2717.78 409.698 2716.48 411.35 2714.83 413.286C2713.22 415.174 2711.43 417.18 2709.45 419.304C2707.46 421.381 2705.46 423.363 2703.43 425.251C2701.45 427.139 2699.61 428.767 2697.91 430.136H2690.05V428.437C2691.56 426.643 2693.21 424.496 2695 421.994C2696.8 419.445 2698.54 416.849 2700.24 414.206C2701.94 411.516 2703.36 409.085 2704.49 406.914H2718.72ZM2775.93 509.787C2777.86 509.787 2779.85 509.622 2781.88 509.292C2783.91 508.961 2785.56 508.56 2786.83 508.088V517.221C2785.46 517.835 2783.55 518.354 2781.1 518.779C2778.69 519.204 2776.33 519.416 2774.02 519.416C2769.91 519.416 2766.18 518.708 2762.83 517.292C2759.48 515.829 2756.79 513.374 2754.76 509.929C2752.78 506.483 2751.79 501.716 2751.79 495.627V449.606H2740.74V443.872L2751.86 439.27L2756.53 422.419H2763.61V440.402H2786.34V449.606H2763.61V495.273C2763.61 500.135 2764.72 503.769 2766.94 506.176C2769.2 508.583 2772.2 509.787 2775.93 509.787ZM2876.96 438.986C2886.17 438.986 2893.13 441.252 2897.85 445.783C2902.57 450.267 2904.93 457.489 2904.93 467.448V518H2893.32V468.227C2893.32 461.761 2891.83 456.923 2888.86 453.713C2885.93 450.503 2881.42 448.898 2875.33 448.898C2866.74 448.898 2860.7 451.329 2857.21 456.191C2853.72 461.053 2851.97 468.109 2851.97 477.36V518H2840.22V440.402H2849.7L2851.47 451.589H2852.11C2853.76 448.851 2855.86 446.562 2858.41 444.721C2860.96 442.833 2863.82 441.417 2866.98 440.473C2870.14 439.482 2873.47 438.986 2876.96 438.986ZM2996.05 479.06C2996.05 485.432 2995.22 491.119 2993.57 496.123C2991.92 501.126 2989.54 505.35 2986.42 508.796C2983.3 512.242 2979.53 514.885 2975.09 516.726C2970.7 518.519 2965.72 519.416 2960.15 519.416C2954.96 519.416 2950.19 518.519 2945.85 516.726C2941.56 514.885 2937.83 512.242 2934.66 508.796C2931.55 505.35 2929.12 501.126 2927.37 496.123C2925.67 491.119 2924.82 485.432 2924.82 479.06C2924.82 470.563 2926.26 463.342 2929.14 457.395C2932.02 451.4 2936.13 446.845 2941.46 443.73C2946.84 440.568 2953.24 438.986 2960.65 438.986C2967.73 438.986 2973.91 440.568 2979.2 443.73C2984.53 446.892 2988.66 451.471 2991.59 457.465C2994.56 463.413 2996.05 470.611 2996.05 479.06ZM2937 479.06C2937 485.29 2937.83 490.694 2939.48 495.273C2941.13 499.851 2943.68 503.391 2947.13 505.893C2950.57 508.395 2955.01 509.646 2960.44 509.646C2965.82 509.646 2970.23 508.395 2973.68 505.893C2977.17 503.391 2979.74 499.851 2981.39 495.273C2983.05 490.694 2983.87 485.29 2983.87 479.06C2983.87 472.876 2983.05 467.543 2981.39 463.059C2979.74 458.527 2977.19 455.035 2973.75 452.58C2970.3 450.126 2965.84 448.898 2960.37 448.898C2952.29 448.898 2946.37 451.565 2942.59 456.899C2938.87 462.233 2937 469.619 2937 479.06ZM2960.01 542.851C2958.03 542.851 2956.35 542.214 2954.98 540.939C2953.62 539.665 2952.93 537.73 2952.93 535.134C2952.93 532.491 2953.62 530.532 2954.98 529.257C2956.35 528.03 2958.03 527.417 2960.01 527.417C2962.04 527.417 2963.74 528.03 2965.11 529.257C2966.48 530.532 2967.16 532.491 2967.16 535.134C2967.16 537.73 2966.48 539.665 2965.11 540.939C2963.74 542.214 2962.04 542.851 2960.01 542.851ZM2966.52 406.984C2967.7 409.108 2969.36 411.516 2971.48 414.206C2973.6 416.849 2975.85 419.445 2978.21 421.994C2980.57 424.543 2982.67 426.738 2984.51 428.579V430.136H2976.15C2973.6 428.484 2970.99 426.455 2968.29 424.047C2965.6 421.64 2962.98 419.139 2960.44 416.542C2957.89 419.139 2955.29 421.64 2952.65 424.047C2950.05 426.407 2947.48 428.437 2944.93 430.136H2936.86V428.579C2938.65 426.691 2940.68 424.472 2942.95 421.923C2945.26 419.375 2947.46 416.778 2949.53 414.135C2951.66 411.492 2953.33 409.108 2954.56 406.984H2966.52ZM3028.12 440.402V518H3016.37V440.402H3028.12ZM3022.39 411.374C3024.32 411.374 3025.97 412.011 3027.34 413.286C3028.76 414.513 3029.47 416.448 3029.47 419.091C3029.47 421.687 3028.76 423.623 3027.34 424.897C3025.97 426.171 3024.32 426.809 3022.39 426.809C3020.36 426.809 3018.66 426.171 3017.29 424.897C3015.97 423.623 3015.31 421.687 3015.31 419.091C3015.31 416.448 3015.97 414.513 3017.29 413.286C3018.66 412.011 3020.36 411.374 3022.39 411.374ZM3102.46 407.834V435.375C3102.46 438.538 3102.37 441.606 3102.18 444.58C3102.04 447.553 3101.92 449.866 3101.83 451.518H3102.46C3104.59 448.025 3107.65 445.075 3111.67 442.668C3115.68 440.261 3120.8 439.057 3127.03 439.057C3136.75 439.057 3144.49 442.432 3150.25 449.182C3156.06 455.884 3158.96 465.867 3158.96 479.13C3158.96 487.862 3157.64 495.226 3155 501.22C3152.35 507.215 3148.62 511.746 3143.81 514.814C3139 517.882 3133.31 519.416 3126.75 519.416C3120.61 519.416 3115.56 518.283 3111.6 516.018C3107.68 513.705 3104.66 510.896 3102.53 507.592H3101.61L3099.21 518H3090.71V407.834H3102.46ZM3125.12 448.898C3119.5 448.898 3115.04 450.008 3111.74 452.226C3108.43 454.397 3106.05 457.701 3104.59 462.138C3103.17 466.528 3102.46 472.097 3102.46 478.847V479.484C3102.46 489.255 3104.09 496.736 3107.35 501.928C3110.6 507.073 3116.53 509.646 3125.12 509.646C3132.34 509.646 3137.74 507.002 3141.33 501.716C3144.97 496.429 3146.78 488.877 3146.78 479.06C3146.78 469.053 3144.99 461.525 3141.4 456.474C3137.86 451.424 3132.43 448.898 3125.12 448.898ZM3246.4 479.06C3246.4 485.432 3245.57 491.119 3243.92 496.123C3242.27 501.126 3239.89 505.35 3236.77 508.796C3233.66 512.242 3229.88 514.885 3225.44 516.726C3221.05 518.519 3216.07 519.416 3210.5 519.416C3205.31 519.416 3200.55 518.519 3196.2 516.726C3191.91 514.885 3188.18 512.242 3185.02 508.796C3181.9 505.35 3179.47 501.126 3177.72 496.123C3176.02 491.119 3175.17 485.432 3175.17 479.06C3175.17 470.563 3176.61 463.342 3179.49 457.395C3182.37 451.4 3186.48 446.845 3191.81 443.73C3197.19 440.568 3203.59 438.986 3211 438.986C3218.08 438.986 3224.26 440.568 3229.55 443.73C3234.88 446.892 3239.01 451.471 3241.94 457.465C3244.91 463.413 3246.4 470.611 3246.4 479.06ZM3187.35 479.06C3187.35 485.29 3188.18 490.694 3189.83 495.273C3191.48 499.851 3194.03 503.391 3197.48 505.893C3200.92 508.395 3205.36 509.646 3210.79 509.646C3216.17 509.646 3220.58 508.395 3224.03 505.893C3227.52 503.391 3230.09 499.851 3231.74 495.273C3233.4 490.694 3234.22 485.29 3234.22 479.06C3234.22 472.876 3233.4 467.543 3231.74 463.059C3230.09 458.527 3227.54 455.035 3224.1 452.58C3220.65 450.126 3216.19 448.898 3210.72 448.898C3202.65 448.898 3196.72 451.565 3192.95 456.899C3189.22 462.233 3187.35 469.619 3187.35 479.06ZM3210.36 542.851C3208.38 542.851 3206.7 542.214 3205.34 540.939C3203.97 539.665 3203.28 537.73 3203.28 535.134C3203.28 532.491 3203.97 530.532 3205.34 529.257C3206.7 528.03 3208.38 527.417 3210.36 527.417C3212.39 527.417 3214.09 528.03 3215.46 529.257C3216.83 530.532 3217.51 532.491 3217.51 535.134C3217.51 537.73 3216.83 539.665 3215.46 540.939C3214.09 542.214 3212.39 542.851 3210.36 542.851ZM3216.88 406.984C3218.06 409.108 3219.71 411.516 3221.83 414.206C3223.96 416.849 3226.2 419.445 3228.56 421.994C3230.92 424.543 3233.02 426.738 3234.86 428.579V430.136H3226.51C3223.96 428.484 3221.34 426.455 3218.65 424.047C3215.96 421.64 3213.34 419.139 3210.79 416.542C3208.24 419.139 3205.64 421.64 3203 424.047C3200.4 426.407 3197.83 428.437 3195.28 430.136H3187.21V428.579C3189 426.691 3191.03 424.472 3193.3 421.923C3195.61 419.375 3197.81 416.778 3199.88 414.135C3202.01 411.492 3203.68 409.108 3204.91 406.984H3216.88Z" fill="black" fill-opacity="0.4"/>
</svg>
