<svg width="4207" height="606" viewBox="0 0 4207 606" fill="none" xmlns="http://www.w3.org/2000/svg">
<path d="M151.47 565.053L20.0819 388.692C9.42681 374.387 2.73301 357.543 0.679011 339.849C-1.38109 322.158 1.2658 304.241 8.35698 287.888L96.0858 86.5569C103.171 70.2297 114.449 56.0503 128.785 45.4462C143.12 34.8426 160.01 28.1893 177.75 26.157L397.007 0.65567C414.754 -1.36188 432.721 1.29605 449.109 8.36183C465.493 15.4282 479.737 26.6557 490.403 40.9217L621.793 217.288C632.447 231.592 639.14 248.434 641.196 266.125C643.253 283.818 640.607 301.736 633.517 318.088L545.787 519.421C538.698 535.743 527.411 549.912 513.076 560.517C498.74 571.113 481.857 577.776 464.123 579.821L244.866 605.318C227.119 607.382 209.141 604.741 192.739 597.669C176.344 590.602 162.113 579.353 151.47 565.053Z" fill="#164B60"/>
<path d="M304.533 479.695C305.312 479.672 306.624 480.456 307.122 481.617C305.895 481.498 305.48 481 304.533 479.695Z" fill="#164B60"/>
<path d="M188.085 340H256V470H159V372.458C159 368.196 159.752 363.975 161.214 360.037C162.676 356.099 164.818 352.521 167.519 349.507C170.22 346.493 173.426 344.102 176.955 342.471C180.483 340.84 184.266 340 188.085 340Z" fill="white"/>
<path d="M299.499 275.5H342.666C351.241 275.5 359.465 278.907 365.529 284.97C371.593 291.034 374.999 299.258 374.999 307.833V469.667H267.166V307.833C267.166 303.587 268.002 299.383 269.627 295.46C271.252 291.537 273.634 287.973 276.636 284.97C279.639 281.968 283.203 279.586 287.126 277.961C291.049 276.336 295.253 275.5 299.499 275.5Z" fill="white"/>
<path d="M388 389H454.559C458.294 389 461.992 389.836 465.443 391.461C468.893 393.086 472.029 395.468 474.67 398.47C477.311 401.473 479.406 405.037 480.835 408.96C482.264 412.883 483 417.087 483 421.333V470H388V389Z" fill="white"/>
<path d="M340.999 241.834L325.499 234.5C323.819 233.756 322.002 233.372 320.165 233.372C318.328 233.372 316.511 233.756 314.832 234.5L299.165 241.167C297.092 242.064 294.818 242.397 292.574 242.134C290.33 241.87 288.196 241.019 286.386 239.666C284.577 238.313 283.156 236.507 282.269 234.429C281.381 232.351 281.058 230.076 281.332 227.834L283.332 211.167C283.583 209.369 283.429 207.539 282.882 205.808C282.334 204.078 281.405 202.492 280.165 201.167L268.832 188C267.367 186.288 266.372 184.224 265.945 182.012C265.517 179.799 265.673 177.513 266.396 175.379C267.118 173.244 268.383 171.334 270.067 169.836C271.751 168.338 273.795 167.303 275.999 166.834L292.665 163.5C294.459 163.132 296.157 162.393 297.649 161.331C299.141 160.269 300.396 158.908 301.332 157.334L309.999 142.667C311.118 140.691 312.741 139.048 314.703 137.904C316.664 136.761 318.894 136.158 321.165 136.158C323.436 136.158 325.666 136.761 327.628 137.904C329.59 139.048 331.213 140.691 332.332 142.667L340.665 157.5C341.54 159.107 342.753 160.506 344.221 161.599C345.688 162.692 347.375 163.455 349.165 163.834L365.832 167.667C368.025 168.188 370.045 169.271 371.693 170.808C373.342 172.346 374.562 174.286 375.234 176.437C375.907 178.589 376.008 180.878 375.528 183.081C375.049 185.283 374.005 187.323 372.499 189L360.832 201.5C359.6 202.836 358.666 204.418 358.091 206.142C357.516 207.866 357.314 209.692 357.499 211.5L358.999 228.167C359.358 230.457 359.09 232.801 358.224 234.95C357.358 237.1 355.926 238.975 354.081 240.377C352.235 241.778 350.044 242.654 347.741 242.91C345.437 243.167 343.107 242.795 340.999 241.834Z" fill="white"/>
<path d="M781.56 320V83.2H864.12C881.613 83.2 896.227 86.9333 907.96 94.4C919.693 101.653 928.44 111.04 934.2 122.56C940.173 134.08 943.16 146.027 943.16 158.4C943.16 171.2 940.173 183.36 934.2 194.88C928.44 206.4 919.693 215.893 907.96 223.36C896.227 230.613 881.613 234.24 864.12 234.24H806.2V320H781.56ZM864.12 105.28H806.2V212.16H864.12C876.28 212.16 886.413 209.6 894.52 204.48C902.627 199.36 908.707 192.747 912.76 184.64C916.813 176.32 918.84 167.68 918.84 158.72C918.84 149.76 916.813 141.227 912.76 133.12C908.707 124.8 902.627 118.08 894.52 112.96C886.413 107.84 876.28 105.28 864.12 105.28ZM1045.7 147.2C1057.43 147.2 1067.14 149.227 1074.82 153.28C1082.5 157.12 1088.58 161.707 1093.06 167.04C1097.75 172.373 1101.16 176.96 1103.3 180.8H1105.22V150.4H1128.9V320H1105.22V289.6H1103.3C1101.16 293.653 1097.75 298.347 1093.06 303.68C1088.58 308.8 1082.5 313.387 1074.82 317.44C1067.14 321.28 1057.43 323.2 1045.7 323.2C1032.9 323.2 1021.7 320.747 1012.1 315.84C1002.5 310.72 994.495 304 988.095 295.68C981.695 287.147 976.895 277.653 973.695 267.2C970.708 256.747 969.215 246.08 969.215 235.2C969.215 224.32 970.708 213.653 973.695 203.2C976.895 192.747 981.695 183.36 988.095 175.04C994.495 166.507 1002.5 159.787 1012.1 154.88C1021.7 149.76 1032.9 147.2 1045.7 147.2ZM1049.22 168C1036.63 168 1026.18 171.307 1017.86 177.92C1009.54 184.533 1003.35 192.96 999.295 203.2C995.242 213.44 993.215 224.107 993.215 235.2C993.215 246.293 995.242 256.96 999.295 267.2C1003.35 277.44 1009.54 285.867 1017.86 292.48C1026.18 299.093 1036.63 302.4 1049.22 302.4C1061.59 302.4 1071.83 299.093 1079.94 292.48C1088.26 285.867 1094.44 277.44 1098.5 267.2C1102.76 256.96 1104.9 246.293 1104.9 235.2C1104.9 224.107 1102.76 213.44 1098.5 203.2C1094.44 192.96 1088.26 184.533 1079.94 177.92C1071.83 171.307 1061.59 168 1049.22 168ZM1176.81 320V150.4H1200.81V172.48H1202.09C1205.51 165.653 1210.73 159.787 1217.77 154.88C1224.81 149.76 1234.63 147.2 1247.21 147.2C1251.27 147.2 1254.79 147.413 1257.77 147.84C1260.97 148.267 1262.57 148.48 1262.57 148.48V171.52C1262.57 171.52 1260.87 171.307 1257.45 170.88C1254.04 170.453 1250.41 170.24 1246.57 170.24C1237.83 170.24 1229.93 172.053 1222.89 175.68C1216.07 179.093 1210.63 185.067 1206.57 193.6C1202.73 201.92 1200.81 213.333 1200.81 227.84V320H1176.81ZM1358.2 147.2C1369.93 147.2 1379.64 149.227 1387.32 153.28C1395 157.12 1401.08 161.707 1405.56 167.04C1410.25 172.373 1413.66 176.96 1415.8 180.8H1417.72V150.4H1441.4V320H1417.72V289.6H1415.8C1413.66 293.653 1410.25 298.347 1405.56 303.68C1401.08 308.8 1395 313.387 1387.32 317.44C1379.64 321.28 1369.93 323.2 1358.2 323.2C1345.4 323.2 1334.2 320.747 1324.6 315.84C1315 310.72 1307 304 1300.6 295.68C1294.2 287.147 1289.4 277.653 1286.2 267.2C1283.21 256.747 1281.72 246.08 1281.72 235.2C1281.72 224.32 1283.21 213.653 1286.2 203.2C1289.4 192.747 1294.2 183.36 1300.6 175.04C1307 166.507 1315 159.787 1324.6 154.88C1334.2 149.76 1345.4 147.2 1358.2 147.2ZM1361.72 168C1349.13 168 1338.68 171.307 1330.36 177.92C1322.04 184.533 1315.85 192.96 1311.8 203.2C1307.74 213.44 1305.72 224.107 1305.72 235.2C1305.72 246.293 1307.74 256.96 1311.8 267.2C1315.85 277.44 1322.04 285.867 1330.36 292.48C1338.68 299.093 1349.13 302.4 1361.72 302.4C1374.09 302.4 1384.33 299.093 1392.44 292.48C1400.76 285.867 1406.94 277.44 1411 267.2C1415.26 256.96 1417.4 246.293 1417.4 235.2C1417.4 224.107 1415.26 213.44 1411 203.2C1406.94 192.96 1400.76 184.533 1392.44 177.92C1384.33 171.307 1374.09 168 1361.72 168ZM1560.7 323.2C1547.9 323.2 1536.7 320.747 1527.1 315.84C1517.5 310.72 1509.5 304 1503.1 295.68C1496.7 287.147 1491.9 277.653 1488.7 267.2C1485.71 256.747 1484.22 246.08 1484.22 235.2C1484.22 224.32 1485.71 213.653 1488.7 203.2C1491.9 192.747 1496.7 183.36 1503.1 175.04C1509.5 166.507 1517.5 159.787 1527.1 154.88C1536.7 149.76 1547.9 147.2 1560.7 147.2C1572.43 147.2 1582.14 149.227 1589.82 153.28C1597.5 157.12 1603.58 161.707 1608.06 167.04C1612.75 172.373 1616.16 176.96 1618.3 180.8H1620.22V76.8H1643.9V320H1620.22V289.6H1618.3C1616.16 293.653 1612.75 298.347 1608.06 303.68C1603.58 308.8 1597.5 313.387 1589.82 317.44C1582.14 321.28 1572.43 323.2 1560.7 323.2ZM1564.22 302.4C1576.59 302.4 1586.83 299.093 1594.94 292.48C1603.26 285.867 1609.44 277.44 1613.5 267.2C1617.76 256.96 1619.9 246.293 1619.9 235.2C1619.9 224.107 1617.76 213.44 1613.5 203.2C1609.44 192.96 1603.26 184.533 1594.94 177.92C1586.83 171.307 1576.59 168 1564.22 168C1551.63 168 1541.18 171.307 1532.86 177.92C1524.54 184.533 1518.35 192.96 1514.3 203.2C1510.24 213.44 1508.22 224.107 1508.22 235.2C1508.22 246.293 1510.24 256.96 1514.3 267.2C1518.35 277.44 1524.54 285.867 1532.86 292.48C1541.18 299.093 1551.63 302.4 1564.22 302.4ZM1710.31 117.76C1705.4 117.76 1701.35 116.053 1698.15 112.64C1694.95 109.227 1693.35 105.28 1693.35 100.8C1693.35 96.1067 1694.95 92.16 1698.15 88.96C1701.35 85.5467 1705.4 83.84 1710.31 83.84C1715 83.84 1718.95 85.5467 1722.15 88.96C1725.56 92.16 1727.27 96.1067 1727.27 100.8C1727.27 105.493 1725.56 109.547 1722.15 112.96C1718.95 116.16 1715 117.76 1710.31 117.76ZM1698.47 320V150.4H1722.47V320H1698.47ZM1831.92 323.2C1819.12 323.2 1808.56 321.387 1800.24 317.76C1792.13 314.133 1785.63 309.653 1780.72 304.32C1776.03 298.987 1772.61 293.653 1770.48 288.32C1768.35 282.987 1766.96 278.507 1766.32 274.88C1765.68 271.253 1765.36 269.44 1765.36 269.44H1790C1790 269.44 1790.32 271.147 1790.96 274.56C1791.6 277.76 1793.2 281.6 1795.76 286.08C1798.53 290.347 1802.8 294.187 1808.56 297.6C1814.32 300.8 1822.21 302.4 1832.24 302.4C1843.12 302.4 1851.76 299.627 1858.16 294.08C1864.56 288.533 1867.76 281.707 1867.76 273.6C1867.76 265.92 1865.09 259.947 1859.76 255.68C1854.64 251.413 1847.71 248.32 1838.96 246.4L1816.56 241.28C1808.03 239.147 1800.24 236.267 1793.2 232.64C1786.16 229.013 1780.51 224.213 1776.24 218.24C1771.97 212.053 1769.84 204.48 1769.84 195.52C1769.84 181.227 1775.07 169.6 1785.52 160.64C1795.97 151.68 1809.63 147.2 1826.48 147.2C1837.79 147.2 1847.07 148.907 1854.32 152.32C1861.79 155.52 1867.65 159.573 1871.92 164.48C1876.4 169.387 1879.6 174.293 1881.52 179.2C1883.65 183.893 1885.04 187.947 1885.68 191.36C1886.32 194.56 1886.64 196.16 1886.64 196.16H1863.28C1863.28 196.16 1862.85 194.773 1862 192C1861.36 189.013 1859.87 185.707 1857.52 182.08C1855.39 178.24 1851.76 174.933 1846.64 172.16C1841.73 169.173 1835.01 167.68 1826.48 167.68C1815.39 167.68 1807.07 170.347 1801.52 175.68C1796.19 181.013 1793.52 187.093 1793.52 193.92C1793.52 200.533 1795.87 205.76 1800.56 209.6C1805.47 213.44 1812.08 216.32 1820.4 218.24L1843.12 223.68C1857.41 227.093 1869.04 232.747 1878 240.64C1886.96 248.32 1891.44 258.987 1891.44 272.64C1891.44 281.813 1888.99 290.24 1884.08 297.92C1879.39 305.6 1872.56 311.787 1863.6 316.48C1854.85 320.96 1844.29 323.2 1831.92 323.2ZM2004.82 323.2C1991.16 323.2 1979.32 320.747 1969.3 315.84C1959.27 310.72 1951.06 303.893 1944.66 295.36C1938.26 286.827 1933.46 277.333 1930.26 266.88C1927.27 256.427 1925.78 245.867 1925.78 235.2C1925.78 224.533 1927.27 213.973 1930.26 203.52C1933.46 193.067 1938.26 183.573 1944.66 175.04C1951.06 166.507 1959.06 159.787 1968.66 154.88C1978.47 149.76 1990.1 147.2 2003.54 147.2C2017.62 147.2 2030.1 150.507 2040.98 157.12C2052.07 163.733 2060.71 173.547 2066.9 186.56C2073.3 199.36 2076.5 215.467 2076.5 234.88V241.92H1950.1C1950.52 252.8 1952.87 262.827 1957.14 272C1961.62 281.173 1967.8 288.533 1975.7 294.08C1983.8 299.627 1993.51 302.4 2004.82 302.4C2014.2 302.4 2021.99 300.8 2028.18 297.6C2034.36 294.187 2039.06 290.347 2042.26 286.08C2045.67 281.6 2048.02 277.76 2049.3 274.56C2050.79 271.36 2051.54 269.76 2051.54 269.76H2074.26C2074.26 269.76 2073.72 271.573 2072.66 275.2C2071.59 278.613 2069.67 282.987 2066.9 288.32C2064.12 293.653 2060.07 298.987 2054.74 304.32C2049.62 309.653 2043 314.133 2034.9 317.76C2026.79 321.387 2016.76 323.2 2004.82 323.2ZM1950.42 222.72H2052.5C2051.86 209.707 2049.19 199.253 2044.5 191.36C2040.02 183.253 2034.15 177.387 2026.9 173.76C2019.64 170.133 2011.86 168.32 2003.54 168.32C1988.39 168.32 1976.12 173.333 1966.74 183.36C1957.35 193.173 1951.91 206.293 1950.42 222.72Z" fill="#73C41D"/>
<path d="M2118.98 320V83.2H2277.7V120.96H2162.5V181.12H2263.3V217.92H2162.5V282.24H2279.3V320H2118.98ZM2370.43 320L2307.39 150.4H2350.59L2393.15 271.36L2435.07 150.4H2478.27L2414.91 320H2370.43ZM2571.54 147.2C2582.42 147.2 2591.38 149.013 2598.42 152.64C2605.46 156.053 2611.01 159.893 2615.06 164.16C2619.12 168.213 2621.89 171.52 2623.38 174.08H2625.3V150.4H2667.86V320H2625.3V296.32H2623.38C2621.89 298.88 2619.12 302.293 2615.06 306.56C2611.01 310.827 2605.46 314.667 2598.42 318.08C2591.38 321.493 2582.42 323.2 2571.54 323.2C2558.96 323.2 2547.97 320.747 2538.58 315.84C2529.2 310.72 2521.3 304 2514.9 295.68C2508.72 287.147 2504.02 277.653 2500.82 267.2C2497.84 256.747 2496.34 246.08 2496.34 235.2C2496.34 224.32 2497.84 213.653 2500.82 203.2C2504.02 192.747 2508.72 183.36 2514.9 175.04C2521.3 166.507 2529.2 159.787 2538.58 154.88C2547.97 149.76 2558.96 147.2 2571.54 147.2ZM2582.74 182.08C2573.14 182.08 2565.04 184.747 2558.42 190.08C2552.02 195.2 2547.22 201.813 2544.02 209.92C2540.82 218.027 2539.22 226.453 2539.22 235.2C2539.22 243.947 2540.82 252.373 2544.02 260.48C2547.22 268.587 2552.02 275.307 2558.42 280.64C2565.04 285.76 2573.14 288.32 2582.74 288.32C2592.34 288.32 2600.34 285.76 2606.74 280.64C2613.14 275.307 2617.94 268.587 2621.14 260.48C2624.34 252.373 2625.94 243.947 2625.94 235.2C2625.94 226.453 2624.34 218.027 2621.14 209.92C2617.94 201.813 2613.14 195.2 2606.74 190.08C2600.34 184.747 2592.34 182.08 2582.74 182.08ZM2711.48 320L2711.8 76.8H2754.04V320H2711.48ZM2850.79 323.2C2833.08 323.2 2819.64 317.76 2810.47 306.88C2801.51 296 2797.03 282.027 2797.03 264.96V150.4H2839.27V257.92C2839.27 267.093 2841.72 274.453 2846.63 280C2851.53 285.333 2858.47 288 2867.43 288C2875.32 288 2881.72 285.973 2886.63 281.92C2891.53 277.867 2895.05 272.64 2897.19 266.24C2899.53 259.84 2900.71 253.227 2900.71 246.4V150.4H2943.27V320H2900.71V295.68H2898.79C2896.65 299.52 2893.56 303.573 2889.51 307.84C2885.67 312.107 2880.55 315.733 2874.15 318.72C2867.96 321.707 2860.17 323.2 2850.79 323.2ZM3055.61 147.2C3066.49 147.2 3075.45 149.013 3082.49 152.64C3089.53 156.053 3095.07 159.893 3099.13 164.16C3103.18 168.213 3105.95 171.52 3107.45 174.08H3109.37V150.4H3151.93V320H3109.37V296.32H3107.45C3105.95 298.88 3103.18 302.293 3099.13 306.56C3095.07 310.827 3089.53 314.667 3082.49 318.08C3075.45 321.493 3066.49 323.2 3055.61 323.2C3043.02 323.2 3032.03 320.747 3022.65 315.84C3013.26 310.72 3005.37 304 2998.97 295.68C2992.78 287.147 2988.09 277.653 2984.89 267.2C2981.9 256.747 2980.41 246.08 2980.41 235.2C2980.41 224.32 2981.9 213.653 2984.89 203.2C2988.09 192.747 2992.78 183.36 2998.97 175.04C3005.37 166.507 3013.26 159.787 3022.65 154.88C3032.03 149.76 3043.02 147.2 3055.61 147.2ZM3066.81 182.08C3057.21 182.08 3049.1 184.747 3042.49 190.08C3036.09 195.2 3031.29 201.813 3028.09 209.92C3024.89 218.027 3023.29 226.453 3023.29 235.2C3023.29 243.947 3024.89 252.373 3028.09 260.48C3031.29 268.587 3036.09 275.307 3042.49 280.64C3049.1 285.76 3057.21 288.32 3066.81 288.32C3076.41 288.32 3084.41 285.76 3090.81 280.64C3097.21 275.307 3102.01 268.587 3105.21 260.48C3108.41 252.373 3110.01 243.947 3110.01 235.2C3110.01 226.453 3108.41 218.027 3105.21 209.92C3102.01 201.813 3097.21 195.2 3090.81 190.08C3084.41 184.747 3076.41 182.08 3066.81 182.08ZM3264.45 323.2C3252.93 323.2 3243.43 321.493 3235.97 318.08C3228.5 314.667 3222.63 310.187 3218.37 304.64C3214.31 299.093 3211.43 293.013 3209.73 286.4C3208.02 279.787 3207.17 273.28 3207.17 266.88V184.64H3178.05V150.4H3207.17V108.16H3249.73V150.4H3287.81V184.64H3249.73V265.92C3249.73 281.067 3258.26 288.64 3275.33 288.64C3279.38 288.64 3283.11 288.427 3286.53 288C3290.15 287.36 3291.97 287.04 3291.97 287.04V320.32C3291.97 320.32 3289.19 320.747 3283.65 321.6C3278.31 322.667 3271.91 323.2 3264.45 323.2ZM3352.32 124.16C3344.85 124.16 3338.66 121.707 3333.76 116.8C3329.06 111.893 3326.72 106.027 3326.72 99.2C3326.72 92.3733 3329.06 86.5066 3333.76 81.6C3338.66 76.6933 3344.85 74.24 3352.32 74.24C3359.78 74.24 3365.97 76.6933 3370.88 81.6C3375.78 86.5066 3378.24 92.3733 3378.24 99.2C3378.24 106.027 3375.78 111.893 3370.88 116.8C3365.97 121.707 3359.78 124.16 3352.32 124.16ZM3331.2 320V150.4H3373.76V320H3331.2ZM3502.45 323.2C3483.89 323.2 3468.1 319.04 3455.09 310.72C3442.07 302.4 3432.15 291.627 3425.33 278.4C3418.71 264.96 3415.41 250.56 3415.41 235.2C3415.41 219.84 3418.71 205.547 3425.33 192.32C3432.15 178.88 3442.07 168 3455.09 159.68C3468.1 151.36 3483.89 147.2 3502.45 147.2C3521.22 147.2 3537.01 151.36 3549.81 159.68C3562.82 168 3572.63 178.88 3579.25 192.32C3586.07 205.547 3589.49 219.84 3589.49 235.2C3589.49 250.56 3586.07 264.96 3579.25 278.4C3572.63 291.627 3562.82 302.4 3549.81 310.72C3537.01 319.04 3521.22 323.2 3502.45 323.2ZM3502.45 287.68C3512.05 287.68 3520.05 285.227 3526.45 280.32C3533.06 275.413 3538.07 269.013 3541.49 261.12C3544.9 253.013 3546.61 244.373 3546.61 235.2C3546.61 225.813 3544.9 217.173 3541.49 209.28C3538.07 201.387 3533.06 194.987 3526.45 190.08C3520.05 185.173 3512.05 182.72 3502.45 182.72C3493.06 182.72 3485.06 185.173 3478.45 190.08C3471.83 194.987 3466.82 201.387 3463.41 209.28C3459.99 217.173 3458.29 225.813 3458.29 235.2C3458.29 244.373 3459.99 253.013 3463.41 261.12C3466.82 269.013 3471.83 275.413 3478.45 280.32C3485.06 285.227 3493.06 287.68 3502.45 287.68ZM3625.47 320V150.4H3668.03V174.72H3669.95C3671.65 171.733 3674.32 168.107 3677.95 163.84C3681.57 159.36 3686.59 155.52 3692.99 152.32C3699.39 148.907 3707.49 147.2 3717.31 147.2C3730.32 147.2 3740.99 150.187 3749.31 156.16C3757.84 161.92 3764.13 169.6 3768.19 179.2C3772.45 188.8 3774.58 199.147 3774.58 210.24V320H3732.03V216C3732.03 206.827 3729.47 198.933 3724.35 192.32C3719.23 185.707 3711.55 182.4 3701.31 182.4C3693.41 182.4 3687.01 184.427 3682.11 188.48C3677.2 192.32 3673.57 197.333 3671.23 203.52C3669.09 209.707 3668.03 216.213 3668.03 223.04V320H3625.47Z" fill="#164B60"/>
<path d="M858.936 443.103C858.936 451.599 857.779 459.293 855.466 466.184C853.153 473.075 849.708 478.905 845.129 483.672C840.598 488.439 834.934 491.908 828.137 494.08L852.493 519.639H835.288L815.251 496.274C814.638 496.274 814.001 496.298 813.34 496.345C812.726 496.392 812.113 496.416 811.499 496.416C803.475 496.416 796.466 495.142 790.471 492.593C784.524 490.044 779.568 486.41 775.603 481.689C771.685 476.969 768.735 471.329 766.753 464.768C764.818 458.207 763.85 450.938 763.85 442.961C763.85 432.389 765.597 423.114 769.089 415.137C772.582 407.16 777.869 400.953 784.949 396.516C792.076 392.079 800.997 389.861 811.711 389.861C821.954 389.861 830.568 392.056 837.554 396.445C844.587 400.835 849.897 407.018 853.484 414.995C857.118 422.925 858.936 432.294 858.936 443.103ZM776.523 443.103C776.523 451.882 777.774 459.482 780.276 465.901C782.778 472.32 786.601 477.276 791.746 480.769C796.938 484.262 803.522 486.008 811.499 486.008C819.523 486.008 826.084 484.262 831.182 480.769C836.326 477.276 840.126 472.32 842.581 465.901C845.035 459.482 846.262 451.882 846.262 443.103C846.262 429.745 843.454 419.314 837.837 411.809C832.267 404.257 823.559 400.481 811.711 400.481C803.687 400.481 797.079 402.204 791.887 405.649C786.695 409.095 782.825 414.004 780.276 420.376C777.774 426.701 776.523 434.277 776.523 443.103ZM944.321 417.402V495H934.692L932.993 484.097H932.356C930.751 486.787 928.674 489.053 926.125 490.894C923.577 492.734 920.697 494.103 917.488 495C914.325 495.944 910.951 496.416 907.363 496.416C901.227 496.416 896.082 495.425 891.929 493.442C887.775 491.46 884.636 488.392 882.512 484.238C880.435 480.085 879.397 474.751 879.397 468.237V417.402H891.292V467.388C891.292 473.854 892.755 478.692 895.681 481.902C898.608 485.064 903.068 486.646 909.062 486.646C914.821 486.646 919.399 485.56 922.798 483.389C926.243 481.217 928.722 478.031 930.232 473.831C931.742 469.583 932.498 464.39 932.498 458.254V417.402H944.321ZM956.924 417.402H969.526L986.66 462.432C987.651 465.075 988.572 467.624 989.421 470.078C990.271 472.485 991.026 474.798 991.687 477.017C992.348 479.235 992.867 481.383 993.245 483.459H993.74C994.401 481.099 995.345 478.008 996.572 474.185C997.799 470.314 999.121 466.373 1000.54 462.361L1016.75 417.402H1029.42L995.652 506.399C993.858 511.166 991.758 515.32 989.351 518.86C986.991 522.4 984.111 525.114 980.713 527.002C977.314 528.937 973.208 529.905 968.394 529.905C966.175 529.905 964.216 529.763 962.517 529.48C960.818 529.244 959.355 528.961 958.127 528.63V519.214C959.166 519.45 960.417 519.662 961.88 519.851C963.39 520.04 964.948 520.134 966.553 520.134C969.479 520.134 972.004 519.568 974.128 518.435C976.3 517.349 978.164 515.745 979.722 513.621C981.279 511.497 982.625 508.971 983.757 506.045L988.005 495.142L956.924 417.402ZM1104.54 486.787C1106.48 486.787 1108.46 486.622 1110.49 486.292C1112.52 485.961 1114.17 485.56 1115.45 485.088V494.221C1114.08 494.835 1112.17 495.354 1109.71 495.779C1107.3 496.204 1104.94 496.416 1102.63 496.416C1098.53 496.416 1094.8 495.708 1091.45 494.292C1088.09 492.829 1085.4 490.374 1083.37 486.929C1081.39 483.483 1080.4 478.716 1080.4 472.627V426.606H1069.36V420.872L1080.47 416.27L1085.14 399.419H1092.22V417.402H1114.95V426.606H1092.22V472.273C1092.22 477.135 1093.33 480.769 1095.55 483.176C1097.82 485.583 1100.81 486.787 1104.54 486.787ZM1166.42 415.986C1167.98 415.986 1169.61 416.081 1171.31 416.27C1173.01 416.411 1174.52 416.624 1175.84 416.907L1174.35 427.81C1173.08 427.48 1171.66 427.22 1170.1 427.031C1168.55 426.842 1167.08 426.748 1165.72 426.748C1162.6 426.748 1159.65 427.385 1156.87 428.66C1154.13 429.887 1151.72 431.681 1149.64 434.041C1147.57 436.353 1145.94 439.162 1144.76 442.466C1143.58 445.723 1142.99 449.357 1142.99 453.369V495H1131.16V417.402H1140.94L1142.21 431.704H1142.71C1144.31 428.825 1146.25 426.205 1148.51 423.845C1150.78 421.438 1153.4 419.526 1156.37 418.11C1159.39 416.694 1162.74 415.986 1166.42 415.986ZM1202.25 495H1190.5V417.402H1202.25V495ZM1191.56 383.914C1192.69 386.085 1194.08 388.516 1195.73 391.206C1197.43 393.849 1199.2 396.445 1201.04 398.994C1202.93 401.496 1204.66 403.643 1206.21 405.437V407.136H1198.21C1196.51 405.767 1194.65 404.139 1192.62 402.251C1190.64 400.363 1188.65 398.381 1186.67 396.304C1184.69 394.18 1182.9 392.174 1181.29 390.286C1179.69 388.35 1178.44 386.698 1177.54 385.33V383.914H1191.56ZM1263.92 415.986C1273.12 415.986 1280.08 418.252 1284.8 422.783C1289.52 427.267 1291.88 434.489 1291.88 444.448V495H1280.27V445.227C1280.27 438.761 1278.78 433.923 1275.81 430.713C1272.88 427.503 1268.38 425.898 1262.29 425.898C1253.7 425.898 1247.66 428.329 1244.16 433.191C1240.67 438.053 1238.92 445.109 1238.92 454.36V495H1227.17V417.402H1236.66L1238.43 428.589H1239.06C1240.72 425.851 1242.82 423.562 1245.37 421.721C1247.92 419.833 1250.77 418.417 1253.93 417.473C1257.1 416.482 1260.42 415.986 1263.92 415.986ZM1327.85 384.834V417.756C1327.85 419.644 1327.8 421.556 1327.71 423.491C1327.61 425.379 1327.45 427.126 1327.21 428.73H1327.99C1329.6 425.993 1331.63 423.704 1334.08 421.863C1336.58 419.975 1339.41 418.559 1342.58 417.615C1345.74 416.624 1349.09 416.128 1352.63 416.128C1358.86 416.128 1364.05 417.119 1368.21 419.102C1372.41 421.084 1375.55 424.152 1377.62 428.306C1379.75 432.459 1380.81 437.84 1380.81 444.448V495H1369.2V445.227C1369.2 438.761 1367.71 433.923 1364.74 430.713C1361.81 427.503 1357.3 425.898 1351.21 425.898C1345.45 425.898 1340.85 427.008 1337.41 429.226C1334.01 431.397 1331.55 434.607 1330.04 438.855C1328.58 443.103 1327.85 448.295 1327.85 454.431V495H1316.1V384.834H1327.85ZM1470.3 496.416C1460.48 496.416 1452.69 493.088 1446.94 486.433C1441.22 479.731 1438.37 469.842 1438.37 456.768C1438.37 443.221 1441.3 433.097 1447.15 426.394C1453 419.692 1460.77 416.34 1470.44 416.34C1474.55 416.34 1478.14 416.883 1481.2 417.969C1484.27 419.054 1486.91 420.518 1489.13 422.358C1491.4 424.199 1493.29 426.252 1494.8 428.518H1495.65C1495.41 427.055 1495.2 425.049 1495.01 422.5C1494.87 419.951 1494.8 417.827 1494.8 416.128V406.853H1463.43V398.003H1494.8V384.834H1506.55V398.003H1517.52V406.853H1506.55V495H1496.92L1495.22 483.955H1494.66C1493.19 486.268 1491.35 488.368 1489.13 490.256C1486.91 492.144 1484.25 493.655 1481.13 494.788C1478.06 495.873 1474.45 496.416 1470.3 496.416ZM1472.21 486.646C1480.52 486.646 1486.37 484.333 1489.77 479.707C1493.17 475.034 1494.87 468.072 1494.87 458.821V456.555C1494.87 446.643 1493.24 439.091 1489.98 433.899C1486.73 428.707 1480.78 426.111 1472.14 426.111C1464.92 426.111 1459.51 428.825 1455.93 434.253C1452.39 439.681 1450.62 447.209 1450.62 456.838C1450.62 466.373 1452.39 473.736 1455.93 478.928C1459.47 484.073 1464.9 486.646 1472.21 486.646ZM1560.64 416.128C1569.89 416.128 1576.76 418.205 1581.25 422.358C1585.73 426.512 1587.97 433.144 1587.97 442.253V495H1579.4L1577.14 483.53H1576.57C1574.4 486.362 1572.14 488.746 1569.78 490.681C1567.42 492.569 1564.68 494.009 1561.56 495C1558.49 495.944 1554.72 496.416 1550.23 496.416C1545.51 496.416 1541.31 495.59 1537.63 493.938C1534 492.286 1531.12 489.784 1528.99 486.433C1526.92 483.082 1525.88 478.834 1525.88 473.689C1525.88 465.948 1528.95 460.001 1535.08 455.847C1541.22 451.694 1550.56 449.428 1563.12 449.05L1576.5 448.484V443.74C1576.5 437.038 1575.06 432.341 1572.18 429.651C1569.3 426.96 1565.24 425.615 1560 425.615C1555.95 425.615 1552.08 426.205 1548.39 427.385C1544.71 428.565 1541.22 429.958 1537.92 431.562L1534.3 422.642C1537.8 420.848 1541.81 419.314 1546.34 418.04C1550.87 416.765 1555.64 416.128 1560.64 416.128ZM1576.36 456.768L1564.54 457.263C1554.86 457.641 1548.04 459.222 1544.07 462.007C1540.11 464.792 1538.13 468.733 1538.13 473.831C1538.13 478.267 1539.47 481.548 1542.16 483.672C1544.85 485.796 1548.42 486.858 1552.85 486.858C1559.75 486.858 1565.39 484.946 1569.78 481.123C1574.17 477.3 1576.36 471.565 1576.36 463.918V456.768ZM1580.04 383.914V385.33C1579.1 386.698 1577.8 388.35 1576.15 390.286C1574.54 392.174 1572.75 394.18 1570.77 396.304C1568.78 398.381 1566.78 400.363 1564.75 402.251C1562.77 404.139 1560.93 405.767 1559.23 407.136H1551.37V405.437C1552.88 403.643 1554.53 401.496 1556.32 398.994C1558.12 396.445 1559.86 393.849 1561.56 391.206C1563.26 388.516 1564.68 386.085 1565.81 383.914H1580.04ZM1648.93 415.986C1658.13 415.986 1665.1 418.252 1669.82 422.783C1674.54 427.267 1676.9 434.489 1676.9 444.448V495H1665.29V445.227C1665.29 438.761 1663.8 433.923 1660.83 430.713C1657.9 427.503 1653.39 425.898 1647.3 425.898C1638.71 425.898 1632.67 428.329 1629.18 433.191C1625.68 438.053 1623.94 445.109 1623.94 454.36V495H1612.19V417.402H1621.67L1623.44 428.589H1624.08C1625.73 425.851 1627.83 423.562 1630.38 421.721C1632.93 419.833 1635.79 418.417 1638.95 417.473C1642.11 416.482 1645.44 415.986 1648.93 415.986ZM1712.86 384.834V417.756C1712.86 419.644 1712.82 421.556 1712.72 423.491C1712.63 425.379 1712.46 427.126 1712.23 428.73H1713.01C1714.61 425.993 1716.64 423.704 1719.09 421.863C1721.6 419.975 1724.43 418.559 1727.59 417.615C1730.75 416.624 1734.1 416.128 1737.64 416.128C1743.87 416.128 1749.07 417.119 1753.22 419.102C1757.42 421.084 1760.56 424.152 1762.64 428.306C1764.76 432.459 1765.82 437.84 1765.82 444.448V495H1754.21V445.227C1754.21 438.761 1752.72 433.923 1749.75 430.713C1746.82 427.503 1742.32 425.898 1736.23 425.898C1730.47 425.898 1725.87 427.008 1722.42 429.226C1719.02 431.397 1716.57 434.607 1715.06 438.855C1713.6 443.103 1712.86 448.295 1712.86 454.431V495H1701.11V384.834H1712.86ZM1849.37 529.834C1839.17 529.834 1831.31 527.922 1825.79 524.099C1820.27 520.323 1817.51 515.013 1817.51 508.169C1817.51 503.307 1819.04 499.154 1822.11 495.708C1825.22 492.262 1829.52 489.973 1835 488.84C1832.97 487.896 1831.22 486.48 1829.76 484.592C1828.34 482.704 1827.63 480.533 1827.63 478.079C1827.63 475.247 1828.41 472.769 1829.97 470.645C1831.57 468.473 1834 466.396 1837.26 464.414C1833.2 462.762 1829.9 459.977 1827.35 456.06C1824.85 452.095 1823.6 447.493 1823.6 442.253C1823.6 436.684 1824.75 431.94 1827.07 428.022C1829.38 424.058 1832.73 421.037 1837.12 418.96C1841.51 416.883 1846.82 415.845 1853.05 415.845C1854.42 415.845 1855.79 415.916 1857.16 416.057C1858.57 416.152 1859.92 416.317 1861.19 416.553C1862.47 416.742 1863.58 416.978 1864.52 417.261H1891.14V424.836L1876.84 426.606C1878.25 428.447 1879.43 430.666 1880.38 433.262C1881.32 435.858 1881.79 438.737 1881.79 441.899C1881.79 449.64 1879.17 455.8 1873.94 460.378C1868.7 464.91 1861.5 467.175 1852.34 467.175C1850.17 467.175 1847.95 466.986 1845.69 466.609C1843.37 467.883 1841.6 469.299 1840.38 470.857C1839.2 472.415 1838.61 474.208 1838.61 476.238C1838.61 477.748 1839.05 478.952 1839.95 479.849C1840.9 480.745 1842.24 481.406 1843.99 481.831C1845.73 482.209 1847.83 482.397 1850.29 482.397H1863.95C1872.4 482.397 1878.87 484.167 1883.35 487.708C1887.88 491.248 1890.15 496.416 1890.15 503.213C1890.15 511.803 1886.66 518.388 1879.67 522.966C1872.68 527.545 1862.58 529.834 1849.37 529.834ZM1849.72 520.63C1856.14 520.63 1861.45 519.969 1865.65 518.647C1869.9 517.373 1873.06 515.509 1875.14 513.054C1877.26 510.647 1878.33 507.768 1878.33 504.417C1878.33 501.301 1877.62 498.941 1876.2 497.336C1874.79 495.779 1872.71 494.74 1869.97 494.221C1867.23 493.655 1863.88 493.372 1859.92 493.372H1846.46C1842.97 493.372 1839.93 493.914 1837.33 495C1834.74 496.086 1832.73 497.69 1831.31 499.814C1829.94 501.938 1829.26 504.582 1829.26 507.744C1829.26 511.945 1831.03 515.131 1834.57 517.302C1838.11 519.521 1843.16 520.63 1849.72 520.63ZM1852.77 458.608C1858.38 458.608 1862.61 457.192 1865.44 454.36C1868.27 451.528 1869.69 447.398 1869.69 441.97C1869.69 436.165 1868.25 431.822 1865.37 428.943C1862.49 426.016 1858.24 424.553 1852.62 424.553C1847.24 424.553 1843.09 426.064 1840.16 429.084C1837.28 432.058 1835.84 436.424 1835.84 442.183C1835.84 447.469 1837.31 451.528 1840.23 454.36C1843.16 457.192 1847.34 458.608 1852.77 458.608ZM1918.19 417.402V495H1906.43V417.402H1918.19ZM1912.45 388.374C1914.39 388.374 1916.04 389.011 1917.41 390.286C1918.82 391.513 1919.53 393.448 1919.53 396.091C1919.53 398.687 1918.82 400.623 1917.41 401.897C1916.04 403.171 1914.39 403.809 1912.45 403.809C1910.42 403.809 1908.72 403.171 1907.35 401.897C1906.03 400.623 1905.37 398.687 1905.37 396.091C1905.37 393.448 1906.03 391.513 1907.35 390.286C1908.72 389.011 1910.42 388.374 1912.45 388.374ZM1972.14 416.128C1981.39 416.128 1988.26 418.205 1992.74 422.358C1997.22 426.512 1999.47 433.144 1999.47 442.253V495H1990.9L1988.63 483.53H1988.07C1985.9 486.362 1983.63 488.746 1981.27 490.681C1978.91 492.569 1976.17 494.009 1973.06 495C1969.99 495.944 1966.21 496.416 1961.73 496.416C1957.01 496.416 1952.81 495.59 1949.13 493.938C1945.49 492.286 1942.61 489.784 1940.49 486.433C1938.41 483.082 1937.37 478.834 1937.37 473.689C1937.37 465.948 1940.44 460.001 1946.58 455.847C1952.71 451.694 1962.06 449.428 1974.61 449.05L1988 448.484V443.74C1988 437.038 1986.56 432.341 1983.68 429.651C1980.8 426.96 1976.74 425.615 1971.5 425.615C1967.44 425.615 1963.57 426.205 1959.89 427.385C1956.21 428.565 1952.71 429.958 1949.41 431.562L1945.8 422.642C1949.29 420.848 1953.3 419.314 1957.83 418.04C1962.37 416.765 1967.13 416.128 1972.14 416.128ZM1987.85 456.768L1976.03 457.263C1966.35 457.641 1959.53 459.222 1955.57 462.007C1951.6 464.792 1949.62 468.733 1949.62 473.831C1949.62 478.267 1950.97 481.548 1953.66 483.672C1956.35 485.796 1959.91 486.858 1964.35 486.858C1971.24 486.858 1976.88 484.946 1981.27 481.123C1985.66 477.3 1987.85 471.565 1987.85 463.918V456.768ZM1991.54 383.914V385.33C1990.59 386.698 1989.29 388.35 1987.64 390.286C1986.04 392.174 1984.24 394.18 1982.26 396.304C1980.28 398.381 1978.27 400.363 1976.24 402.251C1974.26 404.139 1972.42 405.767 1970.72 407.136H1962.86V405.437C1964.37 403.643 1966.02 401.496 1967.82 398.994C1969.61 396.445 1971.36 393.849 1973.06 391.206C1974.76 388.516 1976.17 386.085 1977.3 383.914H1991.54ZM2098.09 415.986C2107.29 415.986 2114.26 418.252 2118.98 422.783C2123.7 427.267 2126.06 434.489 2126.06 444.448V495H2114.45V445.227C2114.45 438.761 2112.96 433.923 2109.99 430.713C2107.06 427.503 2102.55 425.898 2096.46 425.898C2087.87 425.898 2081.83 428.329 2078.34 433.191C2074.84 438.053 2073.1 445.109 2073.1 454.36V495H2061.35V417.402H2070.83L2072.6 428.589H2073.24C2074.89 425.851 2076.99 423.562 2079.54 421.721C2082.09 419.833 2084.95 418.417 2088.11 417.473C2091.27 416.482 2094.6 415.986 2098.09 415.986ZM2162.02 384.834V417.756C2162.02 419.644 2161.98 421.556 2161.88 423.491C2161.79 425.379 2161.62 427.126 2161.39 428.73H2162.17C2163.77 425.993 2165.8 423.704 2168.25 421.863C2170.76 419.975 2173.59 418.559 2176.75 417.615C2179.91 416.624 2183.26 416.128 2186.8 416.128C2193.03 416.128 2198.23 417.119 2202.38 419.102C2206.58 421.084 2209.72 424.152 2211.8 428.306C2213.92 432.459 2214.98 437.84 2214.98 444.448V495H2203.37V445.227C2203.37 438.761 2201.88 433.923 2198.91 430.713C2195.98 427.503 2191.48 425.898 2185.39 425.898C2179.63 425.898 2175.03 427.008 2171.58 429.226C2168.18 431.397 2165.73 434.607 2164.22 438.855C2162.76 443.103 2162.02 448.295 2162.02 454.431V495H2150.27V384.834H2162.02ZM2268.23 416.128C2277.48 416.128 2284.34 418.205 2288.83 422.358C2293.31 426.512 2295.55 433.144 2295.55 442.253V495H2286.99L2284.72 483.53H2284.16C2281.98 486.362 2279.72 488.746 2277.36 490.681C2275 492.569 2272.26 494.009 2269.15 495C2266.08 495.944 2262.3 496.416 2257.82 496.416C2253.1 496.416 2248.9 495.59 2245.21 493.938C2241.58 492.286 2238.7 489.784 2236.58 486.433C2234.5 483.082 2233.46 478.834 2233.46 473.689C2233.46 465.948 2236.53 460.001 2242.67 455.847C2248.8 451.694 2258.15 449.428 2270.7 449.05L2284.08 448.484V443.74C2284.08 437.038 2282.64 432.341 2279.77 429.651C2276.89 426.96 2272.83 425.615 2267.59 425.615C2263.53 425.615 2259.66 426.205 2255.98 427.385C2252.29 428.565 2248.8 429.958 2245.5 431.562L2241.89 422.642C2245.38 420.848 2249.39 419.314 2253.92 418.04C2258.45 416.765 2263.22 416.128 2268.23 416.128ZM2283.94 456.768L2272.12 457.263C2262.44 457.641 2255.62 459.222 2251.66 462.007C2247.69 464.792 2245.71 468.733 2245.71 473.831C2245.71 478.267 2247.06 481.548 2249.75 483.672C2252.44 485.796 2256 486.858 2260.44 486.858C2267.33 486.858 2272.97 484.946 2277.36 481.123C2281.75 477.3 2283.94 471.565 2283.94 463.918V456.768ZM2273.18 383.984C2274.36 386.108 2276.01 388.516 2278.14 391.206C2280.26 393.849 2282.5 396.445 2284.86 398.994C2287.22 401.543 2289.32 403.738 2291.16 405.579V407.136H2282.81C2280.26 405.484 2277.64 403.455 2274.95 401.047C2272.26 398.64 2269.64 396.139 2267.09 393.542C2264.54 396.139 2261.95 398.64 2259.3 401.047C2256.71 403.407 2254.14 405.437 2251.59 407.136H2243.52V405.579C2245.31 403.691 2247.34 401.472 2249.6 398.923C2251.92 396.375 2254.11 393.778 2256.19 391.135C2258.31 388.492 2259.99 386.108 2261.22 383.984H2273.18ZM2356.51 415.986C2365.72 415.986 2372.68 418.252 2377.4 422.783C2382.12 427.267 2384.48 434.489 2384.48 444.448V495H2372.87V445.227C2372.87 438.761 2371.38 433.923 2368.41 430.713C2365.48 427.503 2360.97 425.898 2354.89 425.898C2346.29 425.898 2340.25 428.329 2336.76 433.191C2333.27 438.053 2331.52 445.109 2331.52 454.36V495H2319.77V417.402H2329.26L2331.03 428.589H2331.66C2333.31 425.851 2335.42 423.562 2337.96 421.721C2340.51 419.833 2343.37 418.417 2346.53 417.473C2349.69 416.482 2353.02 415.986 2356.51 415.986ZM2463.42 495L2433.97 417.402H2446.57L2463.64 464.343C2464.82 467.553 2466.02 471.093 2467.25 474.963C2468.47 478.834 2469.32 481.949 2469.79 484.309H2470.29C2470.86 481.949 2471.8 478.834 2473.12 474.963C2474.44 471.046 2475.65 467.506 2476.73 464.343L2493.8 417.402H2506.4L2476.88 495H2463.42ZM2530.61 417.402V495H2518.86V417.402H2530.61ZM2524.88 388.374C2526.81 388.374 2528.47 389.011 2529.83 390.286C2531.25 391.513 2531.96 393.448 2531.96 396.091C2531.96 398.687 2531.25 400.623 2529.83 401.897C2528.47 403.171 2526.81 403.809 2524.88 403.809C2522.85 403.809 2521.15 403.171 2519.78 401.897C2518.46 400.623 2517.8 398.687 2517.8 396.091C2517.8 393.448 2518.46 391.513 2519.78 390.286C2521.15 389.011 2522.85 388.374 2524.88 388.374ZM2585.41 415.986C2592.02 415.986 2597.68 417.45 2602.4 420.376C2607.12 423.302 2610.74 427.409 2613.24 432.695C2615.74 437.935 2616.99 444.071 2616.99 451.104V458.396H2563.39C2563.54 467.506 2565.8 474.444 2570.19 479.211C2574.58 483.979 2580.76 486.362 2588.74 486.362C2593.65 486.362 2597.99 485.914 2601.77 485.017C2605.54 484.12 2609.46 482.799 2613.52 481.052V491.389C2609.6 493.136 2605.71 494.41 2601.84 495.212C2598.02 496.015 2593.48 496.416 2588.24 496.416C2580.79 496.416 2574.27 494.906 2568.7 491.885C2563.18 488.817 2558.89 484.333 2555.82 478.433C2552.75 472.533 2551.22 465.311 2551.22 456.768C2551.22 448.413 2552.61 441.191 2555.39 435.103C2558.23 428.966 2562.19 424.246 2567.29 420.942C2572.43 417.638 2578.47 415.986 2585.41 415.986ZM2585.27 425.615C2578.99 425.615 2573.99 427.668 2570.26 431.775C2566.53 435.881 2564.31 441.616 2563.61 448.979H2604.67C2604.62 444.354 2603.89 440.295 2602.48 436.802C2601.11 433.262 2599.01 430.524 2596.17 428.589C2593.34 426.606 2589.71 425.615 2585.27 425.615ZM2590.51 383.984C2591.69 386.108 2593.34 388.516 2595.47 391.206C2597.59 393.849 2599.83 396.445 2602.19 398.994C2604.55 401.543 2606.65 403.738 2608.49 405.579V407.136H2600.14C2597.59 405.484 2594.97 403.455 2592.28 401.047C2589.59 398.64 2586.97 396.139 2584.42 393.542C2581.87 396.139 2579.28 398.64 2576.63 401.047C2574.04 403.407 2571.46 405.437 2568.92 407.136H2560.84V405.579C2562.64 403.691 2564.67 401.472 2566.93 398.923C2569.25 396.375 2571.44 393.778 2573.52 391.135C2575.64 388.492 2577.32 386.108 2578.54 383.984H2590.51ZM2673.7 415.986C2682.91 415.986 2689.87 418.252 2694.59 422.783C2699.31 427.267 2701.67 434.489 2701.67 444.448V495H2690.06V445.227C2690.06 438.761 2688.57 433.923 2685.6 430.713C2682.67 427.503 2678.16 425.898 2672.07 425.898C2663.48 425.898 2657.44 428.329 2653.95 433.191C2650.45 438.053 2648.71 445.109 2648.71 454.36V495H2636.96V417.402H2646.44L2648.21 428.589H2648.85C2650.5 425.851 2652.6 423.562 2655.15 421.721C2657.7 419.833 2660.56 418.417 2663.72 417.473C2666.88 416.482 2670.21 415.986 2673.7 415.986ZM2847.8 415.986C2856.34 415.986 2862.79 418.228 2867.13 422.712C2871.47 427.149 2873.64 434.3 2873.64 444.165V495H2862.03V444.731C2862.03 438.454 2860.66 433.757 2857.92 430.642C2855.23 427.48 2851.22 425.898 2845.89 425.898C2838.38 425.898 2832.93 428.07 2829.53 432.412C2826.14 436.755 2824.44 443.15 2824.44 451.599V495H2812.75V444.731C2812.75 440.531 2812.14 437.038 2810.91 434.253C2809.73 431.468 2807.94 429.391 2805.53 428.022C2803.17 426.606 2800.17 425.898 2796.54 425.898C2791.4 425.898 2787.27 426.96 2784.15 429.084C2781.04 431.208 2778.77 434.371 2777.35 438.572C2775.98 442.725 2775.3 447.847 2775.3 453.936V495H2763.55V417.402H2773.03L2774.8 428.376H2775.44C2777 425.686 2778.96 423.42 2781.32 421.58C2783.68 419.739 2786.32 418.346 2789.25 417.402C2792.17 416.458 2795.29 415.986 2798.59 415.986C2804.49 415.986 2809.43 417.096 2813.39 419.314C2817.4 421.485 2820.31 424.813 2822.1 429.297H2822.74C2825.29 424.813 2828.78 421.485 2833.22 419.314C2837.65 417.096 2842.51 415.986 2847.8 415.986ZM2909.54 417.402V495H2897.79V417.402H2909.54ZM2903.8 388.374C2905.74 388.374 2907.39 389.011 2908.76 390.286C2910.18 391.513 2910.88 393.448 2910.88 396.091C2910.88 398.687 2910.18 400.623 2908.76 401.897C2907.39 403.171 2905.74 403.809 2903.8 403.809C2901.77 403.809 2900.07 403.171 2898.71 401.897C2897.38 400.623 2896.72 398.687 2896.72 396.091C2896.72 393.448 2897.38 391.513 2898.71 390.286C2900.07 389.011 2901.77 388.374 2903.8 388.374ZM2971.21 415.986C2980.41 415.986 2987.37 418.252 2992.09 422.783C2996.81 427.267 2999.17 434.489 2999.17 444.448V495H2987.56V445.227C2987.56 438.761 2986.07 433.923 2983.1 430.713C2980.17 427.503 2975.67 425.898 2969.58 425.898C2960.99 425.898 2954.95 428.329 2951.45 433.191C2947.96 438.053 2946.21 445.109 2946.21 454.36V495H2934.46V417.402H2943.95L2945.72 428.589H2946.35C2948.01 425.851 2950.11 423.562 2952.66 421.721C2955.21 419.833 2958.06 418.417 2961.22 417.473C2964.39 416.482 2967.71 415.986 2971.21 415.986ZM3035.14 384.834V417.756C3035.14 419.644 3035.09 421.556 3035 423.491C3034.9 425.379 3034.74 427.126 3034.5 428.73H3035.28C3036.89 425.993 3038.92 423.704 3041.37 421.863C3043.87 419.975 3046.7 418.559 3049.87 417.615C3053.03 416.624 3056.38 416.128 3059.92 416.128C3066.15 416.128 3071.34 417.119 3075.5 419.102C3079.7 421.084 3082.84 424.152 3084.91 428.306C3087.04 432.459 3088.1 437.84 3088.1 444.448V495H3076.49V445.227C3076.49 438.761 3075 433.923 3072.03 430.713C3069.1 427.503 3064.59 425.898 3058.5 425.898C3052.74 425.898 3048.14 427.008 3044.7 429.226C3041.3 431.397 3038.84 434.607 3037.33 438.855C3035.87 443.103 3035.14 448.295 3035.14 454.431V495H3023.39V384.834H3035.14ZM3161.73 384.834V412.375C3161.73 415.538 3161.64 418.606 3161.45 421.58C3161.31 424.553 3161.19 426.866 3161.09 428.518H3161.73C3163.85 425.025 3166.92 422.075 3170.94 419.668C3174.95 417.261 3180.07 416.057 3186.3 416.057C3196.02 416.057 3203.76 419.432 3209.52 426.182C3215.33 432.884 3218.23 442.867 3218.23 456.13C3218.23 464.862 3216.91 472.226 3214.27 478.22C3211.62 484.215 3207.89 488.746 3203.08 491.814C3198.26 494.882 3192.58 496.416 3186.02 496.416C3179.88 496.416 3174.83 495.283 3170.86 493.018C3166.95 490.705 3163.93 487.896 3161.8 484.592H3160.88L3158.47 495H3149.98V384.834H3161.73ZM3184.39 425.898C3178.77 425.898 3174.31 427.008 3171.01 429.226C3167.7 431.397 3165.32 434.701 3163.85 439.138C3162.44 443.528 3161.73 449.097 3161.73 455.847V456.484C3161.73 466.255 3163.36 473.736 3166.62 478.928C3169.87 484.073 3175.8 486.646 3184.39 486.646C3191.61 486.646 3197.01 484.002 3200.6 478.716C3204.24 473.429 3206.05 465.877 3206.05 456.06C3206.05 446.053 3204.26 438.525 3200.67 433.474C3197.13 428.424 3191.7 425.898 3184.39 425.898ZM3267.79 416.128C3277.04 416.128 3283.91 418.205 3288.39 422.358C3292.88 426.512 3295.12 433.144 3295.12 442.253V495H3286.55L3284.29 483.53H3283.72C3281.55 486.362 3279.28 488.746 3276.92 490.681C3274.56 492.569 3271.83 494.009 3268.71 495C3265.64 495.944 3261.87 496.416 3257.38 496.416C3252.66 496.416 3248.46 495.59 3244.78 493.938C3241.15 492.286 3238.27 489.784 3236.14 486.433C3234.07 483.082 3233.03 478.834 3233.03 473.689C3233.03 465.948 3236.1 460.001 3242.23 455.847C3248.37 451.694 3257.71 449.428 3270.27 449.05L3283.65 448.484V443.74C3283.65 437.038 3282.21 432.341 3279.33 429.651C3276.45 426.96 3272.39 425.615 3267.15 425.615C3263.09 425.615 3259.22 426.205 3255.54 427.385C3251.86 428.565 3248.37 429.958 3245.06 431.562L3241.45 422.642C3244.95 420.848 3248.96 419.314 3253.49 418.04C3258.02 416.765 3262.79 416.128 3267.79 416.128ZM3283.51 456.768L3271.68 457.263C3262.01 457.641 3255.19 459.222 3251.22 462.007C3247.26 464.792 3245.28 468.733 3245.28 473.831C3245.28 478.267 3246.62 481.548 3249.31 483.672C3252 485.796 3255.57 486.858 3260 486.858C3266.89 486.858 3272.53 484.946 3276.92 481.123C3281.31 477.3 3283.51 471.565 3283.51 463.918V456.768ZM3266.59 519.851C3264.6 519.851 3262.93 519.214 3261.56 517.939C3260.19 516.665 3259.51 514.73 3259.51 512.134C3259.51 509.491 3260.19 507.532 3261.56 506.257C3262.93 505.03 3264.6 504.417 3266.59 504.417C3268.62 504.417 3270.32 505.03 3271.68 506.257C3273.05 507.532 3273.74 509.491 3273.74 512.134C3273.74 514.73 3273.05 516.665 3271.68 517.939C3270.32 519.214 3268.62 519.851 3266.59 519.851ZM3350.42 496.416C3343.43 496.416 3337.27 494.976 3331.94 492.097C3326.6 489.218 3322.45 484.828 3319.48 478.928C3316.5 473.028 3315.01 465.594 3315.01 456.626C3315.01 447.233 3316.57 439.563 3319.69 433.616C3322.85 427.621 3327.19 423.184 3332.71 420.305C3338.24 417.426 3344.51 415.986 3351.55 415.986C3355.42 415.986 3359.15 416.388 3362.73 417.19C3366.37 417.945 3369.34 418.913 3371.66 420.093L3368.12 429.934C3365.76 428.99 3363.02 428.14 3359.9 427.385C3356.83 426.63 3353.96 426.252 3351.26 426.252C3345.88 426.252 3341.4 427.409 3337.81 429.722C3334.27 432.035 3331.61 435.433 3329.81 439.917C3328.07 444.401 3327.19 449.924 3327.19 456.484C3327.19 462.762 3328.04 468.119 3329.74 472.556C3331.49 476.993 3334.06 480.391 3337.46 482.751C3340.9 485.064 3345.2 486.221 3350.34 486.221C3354.45 486.221 3358.16 485.796 3361.46 484.946C3364.76 484.049 3367.76 483.011 3370.45 481.831V492.31C3367.86 493.631 3364.95 494.646 3361.74 495.354C3358.58 496.062 3354.8 496.416 3350.42 496.416ZM3400.61 384.834V417.756C3400.61 419.644 3400.57 421.556 3400.47 423.491C3400.38 425.379 3400.21 427.126 3399.98 428.73H3400.75C3402.36 425.993 3404.39 423.704 3406.84 421.863C3409.34 419.975 3412.18 418.559 3415.34 417.615C3418.5 416.624 3421.85 416.128 3425.39 416.128C3431.62 416.128 3436.82 417.119 3440.97 419.102C3445.17 421.084 3448.31 424.152 3450.39 428.306C3452.51 432.459 3453.57 437.84 3453.57 444.448V495H3441.96V445.227C3441.96 438.761 3440.47 433.923 3437.5 430.713C3434.57 427.503 3430.07 425.898 3423.98 425.898C3418.22 425.898 3413.62 427.008 3410.17 429.226C3406.77 431.397 3404.32 434.607 3402.81 438.855C3401.34 443.103 3400.61 448.295 3400.61 454.431V495H3388.86V384.834H3400.61ZM3491.24 478.149L3492.16 479.778C3491.31 483.223 3490.22 486.905 3488.9 490.823C3487.63 494.74 3486.21 498.658 3484.65 502.576C3483.14 506.541 3481.61 510.246 3480.05 513.691H3471.27C3472.26 509.915 3473.23 505.927 3474.17 501.726C3475.12 497.572 3475.97 493.466 3476.72 489.407C3477.53 485.3 3478.16 481.548 3478.64 478.149H3491.24ZM3584.06 496.416C3577.07 496.416 3570.91 494.976 3565.58 492.097C3560.24 489.218 3556.09 484.828 3553.12 478.928C3550.14 473.028 3548.66 465.594 3548.66 456.626C3548.66 447.233 3550.21 439.563 3553.33 433.616C3556.49 427.621 3560.83 423.184 3566.36 420.305C3571.88 417.426 3578.16 415.986 3585.19 415.986C3589.06 415.986 3592.79 416.388 3596.38 417.19C3600.01 417.945 3602.99 418.913 3605.3 420.093L3601.76 429.934C3599.4 428.99 3596.66 428.14 3593.54 427.385C3590.48 426.63 3587.6 426.252 3584.91 426.252C3579.53 426.252 3575.04 427.409 3571.46 429.722C3567.92 432.035 3565.25 435.433 3563.45 439.917C3561.71 444.401 3560.83 449.924 3560.83 456.484C3560.83 462.762 3561.68 468.119 3563.38 472.556C3565.13 476.993 3567.7 480.391 3571.1 482.751C3574.55 485.064 3578.84 486.221 3583.99 486.221C3588.09 486.221 3591.8 485.796 3595.1 484.946C3598.41 484.049 3601.4 483.011 3604.09 481.831V492.31C3601.5 493.631 3598.6 494.646 3595.39 495.354C3592.22 496.062 3588.45 496.416 3584.06 496.416ZM3634.26 384.834V417.756C3634.26 419.644 3634.21 421.556 3634.11 423.491C3634.02 425.379 3633.85 427.126 3633.62 428.73H3634.4C3636 425.993 3638.03 423.704 3640.49 421.863C3642.99 419.975 3645.82 418.559 3648.98 417.615C3652.14 416.624 3655.5 416.128 3659.04 416.128C3665.27 416.128 3670.46 417.119 3674.61 419.102C3678.81 421.084 3681.95 424.152 3684.03 428.306C3686.15 432.459 3687.21 437.84 3687.21 444.448V495H3675.6V445.227C3675.6 438.761 3674.12 433.923 3671.14 430.713C3668.22 427.503 3663.71 425.898 3657.62 425.898C3651.86 425.898 3647.26 427.008 3643.81 429.226C3640.42 431.397 3637.96 434.607 3636.45 438.855C3634.99 443.103 3634.26 448.295 3634.26 454.431V495H3622.5V384.834H3634.26ZM3723.18 495H3711.43V417.402H3723.18V495ZM3737.84 383.914V385.33C3736.89 386.698 3735.59 388.35 3733.94 390.286C3732.34 392.174 3730.54 394.18 3728.56 396.304C3726.58 398.381 3724.57 400.363 3722.54 402.251C3720.56 404.139 3718.72 405.767 3717.02 407.136H3709.16V405.437C3710.67 403.643 3712.33 401.496 3714.12 398.994C3715.91 396.445 3717.66 393.849 3719.36 391.206C3721.06 388.516 3722.47 386.085 3723.61 383.914H3737.84ZM3784.85 415.986C3794.05 415.986 3801.01 418.252 3805.73 422.783C3810.45 427.267 3812.81 434.489 3812.81 444.448V495H3801.2V445.227C3801.2 438.761 3799.72 433.923 3796.74 430.713C3793.82 427.503 3789.31 425.898 3783.22 425.898C3774.63 425.898 3768.59 428.329 3765.1 433.191C3761.6 438.053 3759.86 445.109 3759.86 454.36V495H3748.1V417.402H3757.59L3759.36 428.589H3760C3761.65 425.851 3763.75 423.562 3766.3 421.721C3768.85 419.833 3771.7 418.417 3774.87 417.473C3778.03 416.482 3781.36 415.986 3784.85 415.986ZM3848.78 384.834V417.756C3848.78 419.644 3848.73 421.556 3848.64 423.491C3848.55 425.379 3848.38 427.126 3848.14 428.73H3848.92C3850.53 425.993 3852.56 423.704 3855.01 421.863C3857.51 419.975 3860.35 418.559 3863.51 417.615C3866.67 416.624 3870.02 416.128 3873.56 416.128C3879.79 416.128 3884.98 417.119 3889.14 419.102C3893.34 421.084 3896.48 424.152 3898.55 428.306C3900.68 432.459 3901.74 437.84 3901.74 444.448V495H3890.13V445.227C3890.13 438.761 3888.64 433.923 3885.67 430.713C3882.74 427.503 3878.23 425.898 3872.15 425.898C3866.39 425.898 3861.79 427.008 3858.34 429.226C3854.94 431.397 3852.49 434.607 3850.98 438.855C3849.51 443.103 3848.78 448.295 3848.78 454.431V495H3837.03V384.834H3848.78ZM3982.1 455.281L3955.27 417.402H3968.72L3989.18 447.28L4009.57 417.402H4022.88L3996.05 455.281L4024.37 495H4010.92L3989.18 463.352L3967.3 495H3953.99L3982.1 455.281ZM4068.55 416.128C4077.8 416.128 4084.67 418.205 4089.15 422.358C4093.63 426.512 4095.88 433.144 4095.88 442.253V495H4087.31L4085.04 483.53H4084.48C4082.31 486.362 4080.04 488.746 4077.68 490.681C4075.32 492.569 4072.58 494.009 4069.47 495C4066.4 495.944 4062.62 496.416 4058.14 496.416C4053.42 496.416 4049.22 495.59 4045.54 493.938C4041.9 492.286 4039.02 489.784 4036.9 486.433C4034.82 483.082 4033.78 478.834 4033.78 473.689C4033.78 465.948 4036.85 460.001 4042.99 455.847C4049.12 451.694 4058.47 449.428 4071.03 449.05L4084.41 448.484V443.74C4084.41 437.038 4082.97 432.341 4080.09 429.651C4077.21 426.96 4073.15 425.615 4067.91 425.615C4063.85 425.615 4059.98 426.205 4056.3 427.385C4052.62 428.565 4049.12 429.958 4045.82 431.562L4042.21 422.642C4045.7 420.848 4049.71 419.314 4054.25 418.04C4058.78 416.765 4063.54 416.128 4068.55 416.128ZM4084.27 456.768L4072.44 457.263C4062.77 457.641 4055.94 459.222 4051.98 462.007C4048.02 464.792 4046.03 468.733 4046.03 473.831C4046.03 478.267 4047.38 481.548 4050.07 483.672C4052.76 485.796 4056.32 486.858 4060.76 486.858C4067.65 486.858 4073.29 484.946 4077.68 481.123C4082.07 477.3 4084.27 471.565 4084.27 463.918V456.768ZM4087.95 383.914V385.33C4087 386.698 4085.7 388.35 4084.05 390.286C4082.45 392.174 4080.65 394.18 4078.67 396.304C4076.69 398.381 4074.68 400.363 4072.65 402.251C4070.67 404.139 4068.83 405.767 4067.13 407.136H4059.27V405.437C4060.78 403.643 4062.43 401.496 4064.23 398.994C4066.02 396.445 4067.77 393.849 4069.47 391.206C4071.17 388.516 4072.58 386.085 4073.72 383.914H4087.95ZM4151.17 496.416C4144.19 496.416 4138.03 494.976 4132.69 492.097C4127.36 489.218 4123.21 484.828 4120.23 478.928C4117.26 473.028 4115.77 465.594 4115.77 456.626C4115.77 447.233 4117.33 439.563 4120.44 433.616C4123.61 427.621 4127.95 423.184 4133.47 420.305C4138.99 417.426 4145.27 415.986 4152.3 415.986C4156.18 415.986 4159.9 416.388 4163.49 417.19C4167.13 417.945 4170.1 418.913 4172.41 420.093L4168.87 429.934C4166.51 428.99 4163.77 428.14 4160.66 427.385C4157.59 426.63 4154.71 426.252 4152.02 426.252C4146.64 426.252 4142.16 427.409 4138.57 429.722C4135.03 432.035 4132.36 435.433 4130.57 439.917C4128.82 444.401 4127.95 449.924 4127.95 456.484C4127.95 462.762 4128.8 468.119 4130.5 472.556C4132.24 476.993 4134.82 480.391 4138.22 482.751C4141.66 485.064 4145.96 486.221 4151.1 486.221C4155.21 486.221 4158.91 485.796 4162.22 484.946C4165.52 484.049 4168.52 483.011 4171.21 481.831V492.31C4168.61 493.631 4165.71 494.646 4162.5 495.354C4159.34 496.062 4155.56 496.416 4151.17 496.416Z" fill="black" fill-opacity="0.4"/>
</svg>
