<svg width="3065" height="606" viewBox="0 0 3065 606" fill="none" xmlns="http://www.w3.org/2000/svg">
<path d="M151.47 565.053L20.0819 388.692C9.42681 374.387 2.73301 357.543 0.679011 339.849C-1.38109 322.158 1.2658 304.241 8.35698 287.888L96.0858 86.5569C103.171 70.2297 114.449 56.0503 128.785 45.4462C143.12 34.8426 160.01 28.1893 177.75 26.157L397.007 0.65567C414.754 -1.36188 432.721 1.29605 449.109 8.36183C465.493 15.4282 479.737 26.6557 490.403 40.9217L621.793 217.288C632.447 231.592 639.14 248.434 641.195 266.125C643.253 283.818 640.607 301.736 633.517 318.088L545.787 519.421C538.698 535.743 527.411 549.912 513.076 560.517C498.741 571.113 481.857 577.776 464.123 579.821L244.866 605.318C227.119 607.382 209.141 604.741 192.739 597.669C176.344 590.602 162.113 579.353 151.47 565.053Z" fill="#4379F2"/>
<path d="M304.533 479.694C305.312 479.671 306.624 480.456 307.122 481.616C305.895 481.498 305.48 481 304.533 479.694Z" fill="#4379F2"/>
<path d="M485.332 437.667L432.499 387.667C422.454 400.6 410.414 411.852 396.832 421L451.165 472.667C453.45 475.335 456.275 477.489 459.453 478.985C462.631 480.481 466.091 481.285 469.603 481.346C473.116 481.406 476.601 480.72 479.829 479.334C483.056 477.948 485.953 475.892 488.328 473.304C490.703 470.715 492.501 467.653 493.605 464.318C494.709 460.983 495.092 457.451 494.73 453.957C494.368 450.463 493.269 447.086 491.505 444.048C489.742 441.01 487.354 438.38 484.499 436.334L485.332 437.667Z" fill="white"/>
<path d="M312.666 147.333C282.999 147.333 253.998 156.131 229.331 172.613C204.663 189.095 185.437 212.522 174.084 239.931C162.731 267.34 159.761 297.5 165.548 326.597C171.336 355.694 185.622 382.422 206.6 403.4C227.578 424.377 254.305 438.664 283.403 444.451C312.5 450.239 342.66 447.269 370.069 435.915C397.478 424.562 420.904 405.336 437.387 380.669C453.869 356.002 462.666 327.001 462.666 297.334C462.666 257.551 446.863 219.398 418.732 191.267C390.602 163.137 352.449 147.333 312.666 147.333ZM312.666 403.334C291.741 403.333 271.286 397.131 253.886 385.509C236.485 373.887 222.92 357.368 214.905 338.039C206.89 318.71 204.784 297.439 208.854 276.914C212.924 256.389 222.987 237.531 237.772 222.724C252.556 207.916 271.398 197.823 291.917 193.721C312.436 189.618 333.71 191.69 353.051 199.675C372.393 207.66 388.933 221.199 400.582 238.581C412.231 255.963 418.466 276.409 418.499 297.334C418.543 311.252 415.837 325.042 410.536 337.911C405.235 350.781 397.444 362.476 387.61 372.326C377.776 382.175 366.092 389.985 353.231 395.306C340.37 400.628 326.585 403.356 312.666 403.334Z" fill="white"/>
<path d="M313 321.25C339.234 321.25 360.5 299.984 360.5 273.75C360.5 247.516 339.234 226.25 313 226.25C286.766 226.25 265.5 247.516 265.5 273.75C265.5 299.984 286.766 321.25 313 321.25Z" fill="white"/>
<path d="M313 422C342.821 422.034 371.659 411.341 394.25 391.875C388.393 374.991 377.421 360.35 362.86 349.989C348.299 339.628 330.871 334.061 313 334.061C295.129 334.061 277.701 339.628 263.14 349.989C248.579 360.35 237.607 374.991 231.75 391.875C254.341 411.341 283.179 422.034 313 422Z" fill="white"/>
<path d="M788.56 320V83.2H871.12C888.613 83.2 903.227 86.9333 914.96 94.4C926.693 101.653 935.44 111.04 941.2 122.56C947.173 134.08 950.16 146.027 950.16 158.4C950.16 171.2 947.173 183.36 941.2 194.88C935.44 206.4 926.693 215.893 914.96 223.36C903.227 230.613 888.613 234.24 871.12 234.24H813.2V320H788.56ZM871.12 105.28H813.2V212.16H871.12C883.28 212.16 893.413 209.6 901.52 204.48C909.627 199.36 915.707 192.747 919.76 184.64C923.813 176.32 925.84 167.68 925.84 158.72C925.84 149.76 923.813 141.227 919.76 133.12C915.707 124.8 909.627 118.08 901.52 112.96C893.413 107.84 883.28 105.28 871.12 105.28ZM1052.7 147.2C1064.43 147.2 1074.14 149.227 1081.82 153.28C1089.5 157.12 1095.58 161.707 1100.06 167.04C1104.75 172.373 1108.16 176.96 1110.3 180.8H1112.22V150.4H1135.9V320H1112.22V289.6H1110.3C1108.16 293.653 1104.75 298.347 1100.06 303.68C1095.58 308.8 1089.5 313.387 1081.82 317.44C1074.14 321.28 1064.43 323.2 1052.7 323.2C1039.9 323.2 1028.7 320.747 1019.1 315.84C1009.5 310.72 1001.5 304 995.095 295.68C988.695 287.147 983.895 277.653 980.695 267.2C977.708 256.747 976.215 246.08 976.215 235.2C976.215 224.32 977.708 213.653 980.695 203.2C983.895 192.747 988.695 183.36 995.095 175.04C1001.5 166.507 1009.5 159.787 1019.1 154.88C1028.7 149.76 1039.9 147.2 1052.7 147.2ZM1056.22 168C1043.63 168 1033.18 171.307 1024.86 177.92C1016.54 184.533 1010.35 192.96 1006.3 203.2C1002.24 213.44 1000.22 224.107 1000.22 235.2C1000.22 246.293 1002.24 256.96 1006.3 267.2C1010.35 277.44 1016.54 285.867 1024.86 292.48C1033.18 299.093 1043.63 302.4 1056.22 302.4C1068.59 302.4 1078.83 299.093 1086.94 292.48C1095.26 285.867 1101.44 277.44 1105.5 267.2C1109.76 256.96 1111.9 246.293 1111.9 235.2C1111.9 224.107 1109.76 213.44 1105.5 203.2C1101.44 192.96 1095.26 184.533 1086.94 177.92C1078.83 171.307 1068.59 168 1056.22 168ZM1183.81 320V150.4H1207.81V172.48H1209.09C1212.51 165.653 1217.73 159.787 1224.77 154.88C1231.81 149.76 1241.63 147.2 1254.21 147.2C1258.27 147.2 1261.79 147.413 1264.77 147.84C1267.97 148.267 1269.57 148.48 1269.57 148.48V171.52C1269.57 171.52 1267.87 171.307 1264.45 170.88C1261.04 170.453 1257.41 170.24 1253.57 170.24C1244.83 170.24 1236.93 172.053 1229.89 175.68C1223.07 179.093 1217.63 185.067 1213.57 193.6C1209.73 201.92 1207.81 213.333 1207.81 227.84V320H1183.81ZM1365.2 147.2C1376.93 147.2 1386.64 149.227 1394.32 153.28C1402 157.12 1408.08 161.707 1412.56 167.04C1417.25 172.373 1420.66 176.96 1422.8 180.8H1424.72V150.4H1448.4V320H1424.72V289.6H1422.8C1420.66 293.653 1417.25 298.347 1412.56 303.68C1408.08 308.8 1402 313.387 1394.32 317.44C1386.64 321.28 1376.93 323.2 1365.2 323.2C1352.4 323.2 1341.2 320.747 1331.6 315.84C1322 310.72 1314 304 1307.6 295.68C1301.2 287.147 1296.4 277.653 1293.2 267.2C1290.21 256.747 1288.72 246.08 1288.72 235.2C1288.72 224.32 1290.21 213.653 1293.2 203.2C1296.4 192.747 1301.2 183.36 1307.6 175.04C1314 166.507 1322 159.787 1331.6 154.88C1341.2 149.76 1352.4 147.2 1365.2 147.2ZM1368.72 168C1356.13 168 1345.68 171.307 1337.36 177.92C1329.04 184.533 1322.85 192.96 1318.8 203.2C1314.74 213.44 1312.72 224.107 1312.72 235.2C1312.72 246.293 1314.74 256.96 1318.8 267.2C1322.85 277.44 1329.04 285.867 1337.36 292.48C1345.68 299.093 1356.13 302.4 1368.72 302.4C1381.09 302.4 1391.33 299.093 1399.44 292.48C1407.76 285.867 1413.94 277.44 1418 267.2C1422.26 256.96 1424.4 246.293 1424.4 235.2C1424.4 224.107 1422.26 213.44 1418 203.2C1413.94 192.96 1407.76 184.533 1399.44 177.92C1391.33 171.307 1381.09 168 1368.72 168ZM1567.7 323.2C1554.9 323.2 1543.7 320.747 1534.1 315.84C1524.5 310.72 1516.5 304 1510.1 295.68C1503.7 287.147 1498.9 277.653 1495.7 267.2C1492.71 256.747 1491.22 246.08 1491.22 235.2C1491.22 224.32 1492.71 213.653 1495.7 203.2C1498.9 192.747 1503.7 183.36 1510.1 175.04C1516.5 166.507 1524.5 159.787 1534.1 154.88C1543.7 149.76 1554.9 147.2 1567.7 147.2C1579.43 147.2 1589.14 149.227 1596.82 153.28C1604.5 157.12 1610.58 161.707 1615.06 167.04C1619.75 172.373 1623.16 176.96 1625.3 180.8H1627.22V76.8H1650.9V320H1627.22V289.6H1625.3C1623.16 293.653 1619.75 298.347 1615.06 303.68C1610.58 308.8 1604.5 313.387 1596.82 317.44C1589.14 321.28 1579.43 323.2 1567.7 323.2ZM1571.22 302.4C1583.59 302.4 1593.83 299.093 1601.94 292.48C1610.26 285.867 1616.44 277.44 1620.5 267.2C1624.76 256.96 1626.9 246.293 1626.9 235.2C1626.9 224.107 1624.76 213.44 1620.5 203.2C1616.44 192.96 1610.26 184.533 1601.94 177.92C1593.83 171.307 1583.59 168 1571.22 168C1558.63 168 1548.18 171.307 1539.86 177.92C1531.54 184.533 1525.35 192.96 1521.3 203.2C1517.24 213.44 1515.22 224.107 1515.22 235.2C1515.22 246.293 1517.24 256.96 1521.3 267.2C1525.35 277.44 1531.54 285.867 1539.86 292.48C1548.18 299.093 1558.63 302.4 1571.22 302.4ZM1717.31 117.76C1712.4 117.76 1708.35 116.053 1705.15 112.64C1701.95 109.227 1700.35 105.28 1700.35 100.8C1700.35 96.1067 1701.95 92.16 1705.15 88.96C1708.35 85.5467 1712.4 83.84 1717.31 83.84C1722 83.84 1725.95 85.5467 1729.15 88.96C1732.56 92.16 1734.27 96.1067 1734.27 100.8C1734.27 105.493 1732.56 109.547 1729.15 112.96C1725.95 116.16 1722 117.76 1717.31 117.76ZM1705.47 320V150.4H1729.47V320H1705.47ZM1838.92 323.2C1826.12 323.2 1815.56 321.387 1807.24 317.76C1799.13 314.133 1792.63 309.653 1787.72 304.32C1783.03 298.987 1779.61 293.653 1777.48 288.32C1775.35 282.987 1773.96 278.507 1773.32 274.88C1772.68 271.253 1772.36 269.44 1772.36 269.44H1797C1797 269.44 1797.32 271.147 1797.96 274.56C1798.6 277.76 1800.2 281.6 1802.76 286.08C1805.53 290.347 1809.8 294.187 1815.56 297.6C1821.32 300.8 1829.21 302.4 1839.24 302.4C1850.12 302.4 1858.76 299.627 1865.16 294.08C1871.56 288.533 1874.76 281.707 1874.76 273.6C1874.76 265.92 1872.09 259.947 1866.76 255.68C1861.64 251.413 1854.71 248.32 1845.96 246.4L1823.56 241.28C1815.03 239.147 1807.24 236.267 1800.2 232.64C1793.16 229.013 1787.51 224.213 1783.24 218.24C1778.97 212.053 1776.84 204.48 1776.84 195.52C1776.84 181.227 1782.07 169.6 1792.52 160.64C1802.97 151.68 1816.63 147.2 1833.48 147.2C1844.79 147.2 1854.07 148.907 1861.32 152.32C1868.79 155.52 1874.65 159.573 1878.92 164.48C1883.4 169.387 1886.6 174.293 1888.52 179.2C1890.65 183.893 1892.04 187.947 1892.68 191.36C1893.32 194.56 1893.64 196.16 1893.64 196.16H1870.28C1870.28 196.16 1869.85 194.773 1869 192C1868.36 189.013 1866.87 185.707 1864.52 182.08C1862.39 178.24 1858.76 174.933 1853.64 172.16C1848.73 169.173 1842.01 167.68 1833.48 167.68C1822.39 167.68 1814.07 170.347 1808.52 175.68C1803.19 181.013 1800.52 187.093 1800.52 193.92C1800.52 200.533 1802.87 205.76 1807.56 209.6C1812.47 213.44 1819.08 216.32 1827.4 218.24L1850.12 223.68C1864.41 227.093 1876.04 232.747 1885 240.64C1893.96 248.32 1898.44 258.987 1898.44 272.64C1898.44 281.813 1895.99 290.24 1891.08 297.92C1886.39 305.6 1879.56 311.787 1870.6 316.48C1861.85 320.96 1851.29 323.2 1838.92 323.2ZM2011.82 323.2C1998.16 323.2 1986.32 320.747 1976.3 315.84C1966.27 310.72 1958.06 303.893 1951.66 295.36C1945.26 286.827 1940.46 277.333 1937.26 266.88C1934.27 256.427 1932.78 245.867 1932.78 235.2C1932.78 224.533 1934.27 213.973 1937.26 203.52C1940.46 193.067 1945.26 183.573 1951.66 175.04C1958.06 166.507 1966.06 159.787 1975.66 154.88C1985.47 149.76 1997.1 147.2 2010.54 147.2C2024.62 147.2 2037.1 150.507 2047.98 157.12C2059.07 163.733 2067.71 173.547 2073.9 186.56C2080.3 199.36 2083.5 215.467 2083.5 234.88V241.92H1957.1C1957.52 252.8 1959.87 262.827 1964.14 272C1968.62 281.173 1974.8 288.533 1982.7 294.08C1990.8 299.627 2000.51 302.4 2011.82 302.4C2021.2 302.4 2028.99 300.8 2035.18 297.6C2041.36 294.187 2046.06 290.347 2049.26 286.08C2052.67 281.6 2055.02 277.76 2056.3 274.56C2057.79 271.36 2058.54 269.76 2058.54 269.76H2081.26C2081.26 269.76 2080.72 271.573 2079.66 275.2C2078.59 278.613 2076.67 282.987 2073.9 288.32C2071.12 293.653 2067.07 298.987 2061.74 304.32C2056.62 309.653 2050 314.133 2041.9 317.76C2033.79 321.387 2023.76 323.2 2011.82 323.2ZM1957.42 222.72H2059.5C2058.86 209.707 2056.19 199.253 2051.5 191.36C2047.02 183.253 2041.15 177.387 2033.9 173.76C2026.64 170.133 2018.86 168.32 2010.54 168.32C1995.39 168.32 1983.12 173.333 1973.74 183.36C1964.35 193.173 1958.91 206.293 1957.42 222.72Z" fill="#73C41D"/>
<path d="M2125.98 320V83.2H2169.5V180.48H2268.38V83.2H2311.9V320H2268.38V218.24H2169.5V320H2125.98ZM2380.25 124.16C2372.79 124.16 2366.6 121.707 2361.69 116.8C2357 111.893 2354.65 106.027 2354.65 99.2C2354.65 92.3733 2357 86.5066 2361.69 81.6C2366.6 76.6933 2372.79 74.24 2380.25 74.24C2387.72 74.24 2393.91 76.6933 2398.81 81.6C2403.72 86.5066 2406.17 92.3733 2406.17 99.2C2406.17 106.027 2403.72 111.893 2398.81 116.8C2393.91 121.707 2387.72 124.16 2380.25 124.16ZM2359.13 320V150.4H2401.69V320H2359.13ZM2445.9 320V150.4H2488.14V173.76H2489.74C2492.73 167.147 2497.64 161.067 2504.46 155.52C2511.29 149.973 2521.53 147.2 2535.18 147.2C2539.45 147.2 2542.97 147.52 2545.74 148.16C2548.52 148.587 2549.9 148.8 2549.9 148.8V190.08C2549.9 190.08 2548.3 189.867 2545.1 189.44C2542.12 189.013 2538.38 188.8 2533.9 188.8C2518.97 188.8 2507.66 192.96 2499.98 201.28C2492.3 209.6 2488.46 223.04 2488.46 241.6V320H2445.9ZM2609.63 124.16C2602.16 124.16 2595.97 121.707 2591.07 116.8C2586.37 111.893 2584.03 106.027 2584.03 99.2C2584.03 92.3733 2586.37 86.5066 2591.07 81.6C2595.97 76.6933 2602.16 74.24 2609.63 74.24C2617.09 74.24 2623.28 76.6933 2628.19 81.6C2633.09 86.5066 2635.55 92.3733 2635.55 99.2C2635.55 106.027 2633.09 111.893 2628.19 116.8C2623.28 121.707 2617.09 124.16 2609.63 124.16ZM2588.51 320V150.4H2631.07V320H2588.51ZM2675.28 320V150.4H2717.84V174.72H2719.76C2721.46 171.733 2724.13 168.107 2727.76 163.84C2731.38 159.36 2736.4 155.52 2742.8 152.32C2749.2 148.907 2757.3 147.2 2767.12 147.2C2780.13 147.2 2790.8 150.187 2799.12 156.16C2807.65 161.92 2813.94 169.6 2818 179.2C2822.26 188.8 2824.4 199.147 2824.4 210.24V320H2781.84V216C2781.84 206.827 2779.28 198.933 2774.16 192.32C2769.04 185.707 2761.36 182.4 2751.12 182.4C2743.22 182.4 2736.82 184.427 2731.92 188.48C2727.01 192.32 2723.38 197.333 2721.04 203.52C2718.9 209.707 2717.84 216.213 2717.84 223.04V320H2675.28ZM2947.9 387.84C2932.75 387.84 2920.16 385.813 2910.14 381.76C2900.32 377.92 2892.54 373.12 2886.78 367.36C2881.02 361.813 2876.75 356.16 2873.98 350.4C2871.2 344.64 2869.39 339.84 2868.54 336C2867.68 332.16 2867.26 330.24 2867.26 330.24H2908.86C2908.86 330.24 2909.28 331.413 2910.14 333.76C2910.99 336.107 2912.7 338.773 2915.26 341.76C2918.03 344.96 2921.98 347.733 2927.1 350.08C2932.22 352.427 2939.04 353.6 2947.58 353.6C2962.51 353.6 2973.28 349.333 2979.9 340.8C2986.51 332.267 2989.82 321.92 2989.82 309.76V290.88H2987.9C2985.55 294.507 2982.14 298.453 2977.66 302.72C2973.39 306.987 2967.74 310.613 2960.7 313.6C2953.87 316.587 2945.55 318.08 2935.74 318.08C2923.15 318.08 2912.16 315.627 2902.78 310.72C2893.39 305.813 2885.5 299.307 2879.1 291.2C2872.7 283.093 2867.9 274.027 2864.7 264C2861.71 253.76 2860.22 243.307 2860.22 232.64C2860.22 221.973 2861.71 211.627 2864.7 201.6C2867.9 191.36 2872.7 182.187 2879.1 174.08C2885.5 165.76 2893.39 159.253 2902.78 154.56C2912.16 149.653 2923.15 147.2 2935.74 147.2C2945.55 147.2 2953.87 148.693 2960.7 151.68C2967.74 154.667 2973.39 158.293 2977.66 162.56C2982.14 166.613 2985.55 170.453 2987.9 174.08H2989.82V150.4H3032.38V309.44C3032.38 324.16 3029.28 337.387 3023.1 349.12C3016.91 361.067 3007.52 370.453 2994.94 377.28C2982.56 384.32 2966.88 387.84 2947.9 387.84ZM2946.94 283.84C2956.54 283.84 2964.54 281.387 2970.94 276.48C2977.34 271.36 2982.14 264.96 2985.34 257.28C2988.54 249.387 2990.14 241.173 2990.14 232.64C2990.14 223.893 2988.54 215.68 2985.34 208C2982.14 200.107 2977.34 193.707 2970.94 188.8C2964.54 183.893 2956.54 181.44 2946.94 181.44C2937.12 181.44 2928.91 183.893 2922.3 188.8C2915.9 193.707 2911.1 200.107 2907.9 208C2904.7 215.68 2903.1 223.893 2903.1 232.64C2903.1 241.173 2904.7 249.387 2907.9 257.28C2911.1 264.96 2915.9 271.36 2922.3 276.48C2928.91 281.387 2937.12 283.84 2946.94 283.84Z" fill="#4379F2"/>
<path d="M858.016 461.051C858.016 468.082 857.059 474.449 855.145 480.152C853.23 485.855 850.379 490.68 846.59 494.625C842.84 498.57 838.152 501.441 832.527 503.238L852.684 524.391H838.445L821.863 505.055C821.355 505.055 820.828 505.074 820.281 505.113C819.773 505.152 819.266 505.172 818.758 505.172C812.117 505.172 806.316 504.117 801.355 502.008C796.434 499.898 792.332 496.891 789.051 492.984C785.809 489.078 783.367 484.41 781.727 478.98C780.125 473.551 779.324 467.535 779.324 460.934C779.324 452.184 780.77 444.508 783.66 437.906C786.551 431.305 790.926 426.168 796.785 422.496C802.684 418.824 810.066 416.988 818.934 416.988C827.41 416.988 834.539 418.805 840.32 422.438C846.141 426.07 850.535 431.188 853.504 437.789C856.512 444.352 858.016 452.105 858.016 461.051ZM789.812 461.051C789.812 468.316 790.848 474.605 792.918 479.918C794.988 485.23 798.152 489.332 802.41 492.223C806.707 495.113 812.156 496.559 818.758 496.559C825.398 496.559 830.828 495.113 835.047 492.223C839.305 489.332 842.449 485.23 844.48 479.918C846.512 474.605 847.527 468.316 847.527 461.051C847.527 449.996 845.203 441.363 840.555 435.152C835.945 428.902 828.738 425.777 818.934 425.777C812.293 425.777 806.824 427.203 802.527 430.055C798.23 432.906 795.027 436.969 792.918 442.242C790.848 447.477 789.812 453.746 789.812 461.051ZM928.68 439.781V504H920.711L919.305 494.977H918.777C917.449 497.203 915.73 499.078 913.621 500.602C911.512 502.125 909.129 503.258 906.473 504C903.855 504.781 901.062 505.172 898.094 505.172C893.016 505.172 888.758 504.352 885.32 502.711C881.883 501.07 879.285 498.531 877.527 495.094C875.809 491.656 874.949 487.242 874.949 481.852V439.781H884.793V481.148C884.793 486.5 886.004 490.504 888.426 493.16C890.848 495.777 894.539 497.086 899.5 497.086C904.266 497.086 908.055 496.188 910.867 494.391C913.719 492.594 915.77 489.957 917.02 486.48C918.27 482.965 918.895 478.668 918.895 473.59V439.781H928.68ZM973.27 438.727C980.926 438.727 986.609 440.445 990.32 443.883C994.031 447.32 995.887 452.809 995.887 460.348V504H988.797L986.922 494.508H986.453C984.656 496.852 982.781 498.824 980.828 500.426C978.875 501.988 976.609 503.18 974.031 504C971.492 504.781 968.367 505.172 964.656 505.172C960.75 505.172 957.273 504.488 954.227 503.121C951.219 501.754 948.836 499.684 947.078 496.91C945.359 494.137 944.5 490.621 944.5 486.363C944.5 479.957 947.039 475.035 952.117 471.598C957.195 468.16 964.93 466.285 975.32 465.973L986.395 465.504V461.578C986.395 456.031 985.203 452.145 982.82 449.918C980.438 447.691 977.078 446.578 972.742 446.578C969.383 446.578 966.18 447.066 963.133 448.043C960.086 449.02 957.195 450.172 954.461 451.5L951.473 444.117C954.363 442.633 957.684 441.363 961.434 440.309C965.184 439.254 969.129 438.727 973.27 438.727ZM986.277 472.359L976.492 472.77C968.484 473.082 962.84 474.391 959.559 476.695C956.277 479 954.637 482.262 954.637 486.48C954.637 490.152 955.75 492.867 957.977 494.625C960.203 496.383 963.152 497.262 966.824 497.262C972.527 497.262 977.195 495.68 980.828 492.516C984.461 489.352 986.277 484.605 986.277 478.277V472.359ZM985.047 416.227C985.047 419.234 984.129 421.578 982.293 423.258C980.457 424.898 978.113 426.051 975.262 426.715L974.734 433.219H968.641L967.879 423.082C970.887 422.574 973.23 421.852 974.91 420.914C976.629 419.938 977.488 418.492 977.488 416.578C977.488 414.664 976.727 413.355 975.203 412.652C973.719 411.949 971.824 411.598 969.52 411.598C968.426 411.598 967.332 411.656 966.238 411.773C965.184 411.852 964.305 411.969 963.602 412.125V406.266C964.383 406.031 965.32 405.855 966.414 405.738C967.508 405.582 968.816 405.504 970.34 405.504C975.066 405.504 978.699 406.402 981.238 408.199C983.777 409.957 985.047 412.633 985.047 416.227ZM1046.34 438.609C1053.95 438.609 1059.71 440.484 1063.62 444.234C1067.53 447.945 1069.48 453.922 1069.48 462.164V504H1059.87V462.809C1059.87 457.457 1058.64 453.453 1056.18 450.797C1053.76 448.141 1050.03 446.812 1044.99 446.812C1037.88 446.812 1032.88 448.824 1029.99 452.848C1027.1 456.871 1025.65 462.711 1025.65 470.367V504H1015.93V439.781H1023.78L1025.24 449.039H1025.77C1027.14 446.773 1028.88 444.879 1030.98 443.355C1033.09 441.793 1035.46 440.621 1038.07 439.84C1040.69 439.02 1043.45 438.609 1046.34 438.609ZM1130.48 504H1120.69V412.828H1130.48V504ZM1140.91 439.781H1151.34L1165.52 477.047C1166.34 479.234 1167.1 481.344 1167.8 483.375C1168.5 485.367 1169.13 487.281 1169.68 489.117C1170.22 490.953 1170.65 492.73 1170.96 494.449H1171.38C1171.92 492.496 1172.7 489.938 1173.72 486.773C1174.73 483.57 1175.83 480.309 1177 476.988L1190.42 439.781H1200.91L1172.96 513.434C1171.47 517.379 1169.73 520.816 1167.74 523.746C1165.79 526.676 1163.41 528.922 1160.59 530.484C1157.78 532.086 1154.38 532.887 1150.4 532.887C1148.56 532.887 1146.94 532.77 1145.54 532.535C1144.13 532.34 1142.92 532.105 1141.9 531.832V524.039C1142.76 524.234 1143.8 524.41 1145.01 524.566C1146.26 524.723 1147.55 524.801 1148.88 524.801C1151.3 524.801 1153.39 524.332 1155.14 523.395C1156.94 522.496 1158.48 521.168 1159.77 519.41C1161.06 517.652 1162.18 515.562 1163.11 513.141L1166.63 504.117L1140.91 439.781ZM1187.78 412.066V413.238C1187 414.371 1185.93 415.738 1184.56 417.34C1183.23 418.902 1181.75 420.562 1180.11 422.32C1178.46 424.039 1176.8 425.68 1175.12 427.242C1173.48 428.805 1171.96 430.152 1170.55 431.285H1164.05V429.879C1165.3 428.395 1166.67 426.617 1168.15 424.547C1169.64 422.438 1171.08 420.289 1172.49 418.102C1173.89 415.875 1175.07 413.863 1176 412.066H1187.78ZM1263.07 497.203C1264.68 497.203 1266.32 497.066 1268 496.793C1269.68 496.52 1271.04 496.188 1272.1 495.797V503.355C1270.96 503.863 1269.38 504.293 1267.35 504.645C1265.36 504.996 1263.41 505.172 1261.49 505.172C1258.09 505.172 1255.01 504.586 1252.23 503.414C1249.46 502.203 1247.23 500.172 1245.55 497.32C1243.91 494.469 1243.09 490.523 1243.09 485.484V447.398H1233.95V442.652L1243.15 438.844L1247.02 424.898H1252.88V439.781H1271.69V447.398H1252.88V485.191C1252.88 489.215 1253.8 492.223 1255.63 494.215C1257.51 496.207 1259.99 497.203 1263.07 497.203ZM1340.48 471.773C1340.48 477.047 1339.79 481.754 1338.43 485.895C1337.06 490.035 1335.09 493.531 1332.51 496.383C1329.93 499.234 1326.8 501.422 1323.13 502.945C1319.5 504.43 1315.38 505.172 1310.77 505.172C1306.47 505.172 1302.53 504.43 1298.93 502.945C1295.38 501.422 1292.29 499.234 1289.68 496.383C1287.1 493.531 1285.09 490.035 1283.64 485.895C1282.23 481.754 1281.53 477.047 1281.53 471.773C1281.53 464.742 1282.72 458.766 1285.11 453.844C1287.49 448.883 1290.89 445.113 1295.3 442.535C1299.75 439.918 1305.05 438.609 1311.18 438.609C1317.04 438.609 1322.16 439.918 1326.53 442.535C1330.95 445.152 1334.36 448.941 1336.79 453.902C1339.25 458.824 1340.48 464.781 1340.48 471.773ZM1291.61 471.773C1291.61 476.93 1292.29 481.402 1293.66 485.191C1295.03 488.98 1297.14 491.91 1299.99 493.98C1302.84 496.051 1306.51 497.086 1311 497.086C1315.46 497.086 1319.11 496.051 1321.96 493.98C1324.85 491.91 1326.98 488.98 1328.35 485.191C1329.71 481.402 1330.4 476.93 1330.4 471.773C1330.4 466.656 1329.71 462.242 1328.35 458.531C1326.98 454.781 1324.87 451.891 1322.02 449.859C1319.17 447.828 1315.48 446.812 1310.95 446.812C1304.27 446.812 1299.36 449.02 1296.24 453.434C1293.15 457.848 1291.61 463.961 1291.61 471.773ZM1381.32 438.727C1388.97 438.727 1394.66 440.445 1398.37 443.883C1402.08 447.32 1403.93 452.809 1403.93 460.348V504H1396.84L1394.97 494.508H1394.5C1392.7 496.852 1390.83 498.824 1388.88 500.426C1386.92 501.988 1384.66 503.18 1382.08 504C1379.54 504.781 1376.41 505.172 1372.7 505.172C1368.8 505.172 1365.32 504.488 1362.27 503.121C1359.27 501.754 1356.88 499.684 1355.12 496.91C1353.41 494.137 1352.55 490.621 1352.55 486.363C1352.55 479.957 1355.09 475.035 1360.16 471.598C1365.24 468.16 1372.98 466.285 1383.37 465.973L1394.44 465.504V461.578C1394.44 456.031 1393.25 452.145 1390.87 449.918C1388.48 447.691 1385.12 446.578 1380.79 446.578C1377.43 446.578 1374.23 447.066 1371.18 448.043C1368.13 449.02 1365.24 450.172 1362.51 451.5L1359.52 444.117C1362.41 442.633 1365.73 441.363 1369.48 440.309C1373.23 439.254 1377.18 438.727 1381.32 438.727ZM1394.32 472.359L1384.54 472.77C1376.53 473.082 1370.89 474.391 1367.61 476.695C1364.32 479 1362.68 482.262 1362.68 486.48C1362.68 490.152 1363.8 492.867 1366.02 494.625C1368.25 496.383 1371.2 497.262 1374.87 497.262C1380.57 497.262 1385.24 495.68 1388.88 492.516C1392.51 489.352 1394.32 484.605 1394.32 478.277V472.359ZM1376.34 412.066C1377.27 413.863 1378.43 415.875 1379.79 418.102C1381.2 420.289 1382.66 422.438 1384.19 424.547C1385.75 426.617 1387.18 428.395 1388.46 429.879V431.285H1381.84C1380.44 430.152 1378.89 428.805 1377.21 427.242C1375.57 425.68 1373.93 424.039 1372.29 422.32C1370.65 420.562 1369.17 418.902 1367.84 417.34C1366.51 415.738 1365.48 414.371 1364.73 413.238V412.066H1376.34ZM1454.38 438.609C1462 438.609 1467.76 440.484 1471.67 444.234C1475.57 447.945 1477.53 453.922 1477.53 462.164V504H1467.92V462.809C1467.92 457.457 1466.69 453.453 1464.23 450.797C1461.8 448.141 1458.07 446.812 1453.04 446.812C1445.93 446.812 1440.93 448.824 1438.04 452.848C1435.14 456.871 1433.7 462.711 1433.7 470.367V504H1423.97V439.781H1431.82L1433.29 449.039H1433.82C1435.18 446.773 1436.92 444.879 1439.03 443.355C1441.14 441.793 1443.5 440.621 1446.12 439.84C1448.74 439.02 1451.49 438.609 1454.38 438.609ZM1551.59 505.172C1543.46 505.172 1537.02 502.398 1532.25 496.852C1527.53 491.305 1525.16 483.062 1525.16 472.125C1525.16 461.07 1527.59 452.73 1532.43 447.105C1537.27 441.441 1543.72 438.609 1551.77 438.609C1555.16 438.609 1558.13 439.059 1560.67 439.957C1563.21 440.855 1565.4 442.066 1567.23 443.59C1569.07 445.074 1570.61 446.773 1571.86 448.688H1572.57C1572.41 447.477 1572.25 445.816 1572.1 443.707C1571.94 441.598 1571.86 439.879 1571.86 438.551V412.828H1581.59V504H1573.74L1572.27 494.859H1571.86C1570.65 496.773 1569.11 498.512 1567.23 500.074C1565.4 501.637 1563.19 502.887 1560.61 503.824C1558.07 504.723 1555.07 505.172 1551.59 505.172ZM1553.11 497.086C1559.99 497.086 1564.85 495.133 1567.7 491.227C1570.55 487.32 1571.98 481.52 1571.98 473.824V472.066C1571.98 463.902 1570.61 457.633 1567.88 453.258C1565.18 448.883 1560.26 446.695 1553.11 446.695C1547.14 446.695 1542.66 449 1539.7 453.609C1536.73 458.18 1535.24 464.43 1535.24 472.359C1535.24 480.25 1536.71 486.344 1539.64 490.641C1542.61 494.938 1547.1 497.086 1553.11 497.086ZM1611.94 439.781V504H1602.21V439.781H1611.94ZM1607.2 415.758C1608.8 415.758 1610.16 416.285 1611.3 417.34C1612.47 418.355 1613.05 419.957 1613.05 422.145C1613.05 424.293 1612.47 425.895 1611.3 426.949C1610.16 428.004 1608.8 428.531 1607.2 428.531C1605.52 428.531 1604.11 428.004 1602.98 426.949C1601.88 425.895 1601.34 424.293 1601.34 422.145C1601.34 419.957 1601.88 418.355 1602.98 417.34C1604.11 416.285 1605.52 415.758 1607.2 415.758ZM1657.29 438.609C1662.76 438.609 1667.45 439.82 1671.36 442.242C1675.26 444.664 1678.25 448.062 1680.32 452.438C1682.39 456.773 1683.43 461.852 1683.43 467.672V473.707H1639.07C1639.19 481.246 1641.06 486.988 1644.7 490.934C1648.33 494.879 1653.45 496.852 1660.05 496.852C1664.11 496.852 1667.7 496.48 1670.83 495.738C1673.95 494.996 1677.2 493.902 1680.55 492.457V501.012C1677.31 502.457 1674.09 503.512 1670.89 504.176C1667.72 504.84 1663.97 505.172 1659.64 505.172C1653.46 505.172 1648.07 503.922 1643.46 501.422C1638.89 498.883 1635.34 495.172 1632.8 490.289C1630.26 485.406 1628.99 479.43 1628.99 472.359C1628.99 465.445 1630.14 459.469 1632.45 454.43C1634.79 449.352 1638.07 445.445 1642.29 442.711C1646.55 439.977 1651.55 438.609 1657.29 438.609ZM1657.18 446.578C1651.98 446.578 1647.84 448.277 1644.75 451.676C1641.67 455.074 1639.83 459.82 1639.25 465.914H1673.23C1673.19 462.086 1672.59 458.727 1671.41 455.836C1670.28 452.906 1668.54 450.641 1666.2 449.039C1663.86 447.398 1660.85 446.578 1657.18 446.578ZM1661.51 412.125C1662.49 413.883 1663.86 415.875 1665.61 418.102C1667.37 420.289 1669.23 422.438 1671.18 424.547C1673.13 426.656 1674.87 428.473 1676.39 429.996V431.285H1669.48C1667.37 429.918 1665.2 428.238 1662.98 426.246C1660.75 424.254 1658.58 422.184 1656.47 420.035C1654.36 422.184 1652.21 424.254 1650.03 426.246C1647.88 428.199 1645.75 429.879 1643.64 431.285H1636.96V429.996C1638.45 428.434 1640.12 426.598 1642 424.488C1643.91 422.379 1645.73 420.23 1647.45 418.043C1649.21 415.855 1650.59 413.883 1651.61 412.125H1661.51ZM1658.17 524.566C1656.53 524.566 1655.14 524.039 1654.01 522.984C1652.88 521.93 1652.31 520.328 1652.31 518.18C1652.31 515.992 1652.88 514.371 1654.01 513.316C1655.14 512.301 1656.53 511.793 1658.17 511.793C1659.85 511.793 1661.26 512.301 1662.39 513.316C1663.52 514.371 1664.09 515.992 1664.09 518.18C1664.09 520.328 1663.52 521.93 1662.39 522.984C1661.26 524.039 1659.85 524.566 1658.17 524.566ZM1730.36 438.609C1737.98 438.609 1743.74 440.484 1747.64 444.234C1751.55 447.945 1753.5 453.922 1753.5 462.164V504H1743.89V462.809C1743.89 457.457 1742.66 453.453 1740.2 450.797C1737.78 448.141 1734.05 446.812 1729.01 446.812C1721.9 446.812 1716.9 448.824 1714.01 452.848C1711.12 456.871 1709.68 462.711 1709.68 470.367V504H1699.95V439.781H1707.8L1709.27 449.039H1709.79C1711.16 446.773 1712.9 444.879 1715.01 443.355C1717.12 441.793 1719.48 440.621 1722.1 439.84C1724.71 439.02 1727.47 438.609 1730.36 438.609ZM1847.78 532.711V505.172C1847.78 503.648 1847.82 501.891 1847.9 499.898C1847.98 497.906 1848.11 496.188 1848.31 494.742H1847.66C1845.87 497.711 1843.31 500.191 1839.99 502.184C1836.67 504.176 1832.39 505.172 1827.16 505.172C1819.3 505.172 1813 502.398 1808.23 496.852C1803.46 491.305 1801.08 483.023 1801.08 472.008C1801.08 464.781 1802.18 458.688 1804.36 453.727C1806.55 448.766 1809.64 445.016 1813.62 442.477C1817.64 439.898 1822.33 438.609 1827.68 438.609C1832.8 438.609 1836.98 439.625 1840.22 441.656C1843.46 443.648 1846 446.09 1847.84 448.98H1848.31L1849.77 439.781H1857.51V532.711H1847.78ZM1828.97 497.086C1833.5 497.086 1837.14 496.246 1839.87 494.566C1842.61 492.848 1844.6 490.27 1845.85 486.832C1847.14 483.395 1847.82 479.117 1847.9 474V471.949C1847.9 463.668 1846.49 457.398 1843.68 453.141C1840.87 448.844 1835.96 446.695 1828.97 446.695C1822.96 446.695 1818.48 449 1815.55 453.609C1812.62 458.18 1811.16 464.391 1811.16 472.242C1811.16 480.094 1812.62 486.207 1815.55 490.582C1818.48 494.918 1822.96 497.086 1828.97 497.086ZM1931.22 439.781V504H1923.25L1921.84 494.977H1921.32C1919.99 497.203 1918.27 499.078 1916.16 500.602C1914.05 502.125 1911.67 503.258 1909.01 504C1906.39 504.781 1903.6 505.172 1900.63 505.172C1895.55 505.172 1891.3 504.352 1887.86 502.711C1884.42 501.07 1881.82 498.531 1880.07 495.094C1878.35 491.656 1877.49 487.242 1877.49 481.852V439.781H1887.33V481.148C1887.33 486.5 1888.54 490.504 1890.96 493.16C1893.39 495.777 1897.08 497.086 1902.04 497.086C1906.8 497.086 1910.59 496.188 1913.41 494.391C1916.26 492.594 1918.31 489.957 1919.56 486.48C1920.81 482.965 1921.43 478.668 1921.43 473.59V439.781H1931.22ZM1941.65 439.781H1952.08L1966.26 477.047C1967.08 479.234 1967.84 481.344 1968.54 483.375C1969.25 485.367 1969.87 487.281 1970.42 489.117C1970.96 490.953 1971.39 492.73 1971.71 494.449H1972.12C1972.66 492.496 1973.45 489.938 1974.46 486.773C1975.48 483.57 1976.57 480.309 1977.74 476.988L1991.16 439.781H2001.65L1973.7 513.434C1972.21 517.379 1970.48 520.816 1968.48 523.746C1966.53 526.676 1964.15 528.922 1961.34 530.484C1958.52 532.086 1955.12 532.887 1951.14 532.887C1949.3 532.887 1947.68 532.77 1946.28 532.535C1944.87 532.34 1943.66 532.105 1942.64 531.832V524.039C1943.5 524.234 1944.54 524.41 1945.75 524.566C1947 524.723 1948.29 524.801 1949.62 524.801C1952.04 524.801 1954.13 524.332 1955.89 523.395C1957.68 522.496 1959.23 521.168 1960.52 519.41C1961.8 517.652 1962.92 515.562 1963.86 513.141L1967.37 504.117L1941.65 439.781ZM2063.82 497.203C2065.42 497.203 2067.06 497.066 2068.74 496.793C2070.42 496.52 2071.79 496.188 2072.84 495.797V503.355C2071.71 503.863 2070.12 504.293 2068.09 504.645C2066.1 504.996 2064.15 505.172 2062.23 505.172C2058.84 505.172 2055.75 504.586 2052.98 503.414C2050.2 502.203 2047.98 500.172 2046.3 497.32C2044.66 494.469 2043.84 490.523 2043.84 485.484V447.398H2034.7V442.652L2043.89 438.844L2047.76 424.898H2053.62V439.781H2072.43V447.398H2053.62V485.191C2053.62 489.215 2054.54 492.223 2056.38 494.215C2058.25 496.207 2060.73 497.203 2063.82 497.203ZM2115.03 438.609C2116.32 438.609 2117.66 438.688 2119.07 438.844C2120.48 438.961 2121.73 439.137 2122.82 439.371L2121.59 448.395C2120.54 448.121 2119.36 447.906 2118.07 447.75C2116.79 447.594 2115.57 447.516 2114.44 447.516C2111.86 447.516 2109.42 448.043 2107.12 449.098C2104.85 450.113 2102.86 451.598 2101.14 453.551C2099.42 455.465 2098.07 457.789 2097.1 460.523C2096.12 463.219 2095.63 466.227 2095.63 469.547V504H2085.85V439.781H2093.93L2094.99 451.617H2095.4C2096.73 449.234 2098.33 447.066 2100.2 445.113C2102.08 443.121 2104.25 441.539 2106.71 440.367C2109.21 439.195 2111.98 438.609 2115.03 438.609ZM2144.68 504H2134.95V439.781H2144.68V504ZM2135.83 412.066C2136.77 413.863 2137.92 415.875 2139.29 418.102C2140.69 420.289 2142.16 422.438 2143.68 424.547C2145.24 426.617 2146.67 428.395 2147.96 429.879V431.285H2141.34C2139.93 430.152 2138.39 428.805 2136.71 427.242C2135.07 425.68 2133.43 424.039 2131.79 422.32C2130.14 420.562 2128.66 418.902 2127.33 417.34C2126 415.738 2124.97 414.371 2124.23 413.238V412.066H2135.83ZM2195.71 438.609C2203.33 438.609 2209.09 440.484 2213 444.234C2216.9 447.945 2218.86 453.922 2218.86 462.164V504H2209.25V462.809C2209.25 457.457 2208.02 453.453 2205.55 450.797C2203.13 448.141 2199.4 446.812 2194.36 446.812C2187.25 446.812 2182.25 448.824 2179.36 452.848C2176.47 456.871 2175.03 462.711 2175.03 470.367V504H2165.3V439.781H2173.15L2174.62 449.039H2175.14C2176.51 446.773 2178.25 444.879 2180.36 443.355C2182.47 441.793 2184.83 440.621 2187.45 439.84C2190.07 439.02 2192.82 438.609 2195.71 438.609ZM2248.62 412.828V440.074C2248.62 441.637 2248.58 443.219 2248.5 444.82C2248.43 446.383 2248.29 447.828 2248.09 449.156H2248.74C2250.07 446.891 2251.75 444.996 2253.78 443.473C2255.85 441.91 2258.19 440.738 2260.81 439.957C2263.43 439.137 2266.2 438.727 2269.13 438.727C2274.29 438.727 2278.58 439.547 2282.02 441.188C2285.5 442.828 2288.09 445.367 2289.81 448.805C2291.57 452.242 2292.45 456.695 2292.45 462.164V504H2282.84V462.809C2282.84 457.457 2281.61 453.453 2279.15 450.797C2276.73 448.141 2273 446.812 2267.96 446.812C2263.19 446.812 2259.38 447.73 2256.53 449.566C2253.72 451.363 2251.69 454.02 2250.44 457.535C2249.23 461.051 2248.62 465.348 2248.62 470.426V504H2238.89V412.828H2248.62ZM2364.4 497.203C2366 497.203 2367.64 497.066 2369.32 496.793C2371 496.52 2372.37 496.188 2373.43 495.797V503.355C2372.29 503.863 2370.71 504.293 2368.68 504.645C2366.69 504.996 2364.73 505.172 2362.82 505.172C2359.42 505.172 2356.34 504.586 2353.56 503.414C2350.79 502.203 2348.56 500.172 2346.88 497.32C2345.24 494.469 2344.42 490.523 2344.42 485.484V447.398H2335.28V442.652L2344.48 438.844L2348.35 424.898H2354.21V439.781H2373.02V447.398H2354.21V485.191C2354.21 489.215 2355.12 492.223 2356.96 494.215C2358.84 496.207 2361.32 497.203 2364.4 497.203ZM2439.46 439.781V504H2431.49L2430.09 494.977H2429.56C2428.23 497.203 2426.51 499.078 2424.4 500.602C2422.29 502.125 2419.91 503.258 2417.25 504C2414.64 504.781 2411.84 505.172 2408.88 505.172C2403.8 505.172 2399.54 504.352 2396.1 502.711C2392.66 501.07 2390.07 498.531 2388.31 495.094C2386.59 491.656 2385.73 487.242 2385.73 481.852V439.781H2395.57V481.148C2395.57 486.5 2396.79 490.504 2399.21 493.16C2401.63 495.777 2405.32 497.086 2410.28 497.086C2415.05 497.086 2418.84 496.188 2421.65 494.391C2424.5 492.594 2426.55 489.957 2427.8 486.48C2429.05 482.965 2429.68 478.668 2429.68 473.59V439.781H2439.46ZM2449.89 439.781H2460.32L2474.5 477.047C2475.32 479.234 2476.08 481.344 2476.79 483.375C2477.49 485.367 2478.11 487.281 2478.66 489.117C2479.21 490.953 2479.64 492.73 2479.95 494.449H2480.36C2480.91 492.496 2481.69 489.938 2482.7 486.773C2483.72 483.57 2484.81 480.309 2485.98 476.988L2499.4 439.781H2509.89L2481.94 513.434C2480.46 517.379 2478.72 520.816 2476.73 523.746C2474.77 526.676 2472.39 528.922 2469.58 530.484C2466.77 532.086 2463.37 532.887 2459.38 532.887C2457.55 532.887 2455.93 532.77 2454.52 532.535C2453.11 532.34 2451.9 532.105 2450.89 531.832V524.039C2451.75 524.234 2452.78 524.41 2453.99 524.566C2455.24 524.723 2456.53 524.801 2457.86 524.801C2460.28 524.801 2462.37 524.332 2464.13 523.395C2465.93 522.496 2467.47 521.168 2468.76 519.41C2470.05 517.652 2471.16 515.562 2472.1 513.141L2475.61 504.117L2449.89 439.781ZM2544.87 438.609C2550.34 438.609 2555.03 439.82 2558.93 442.242C2562.84 444.664 2565.83 448.062 2567.9 452.438C2569.97 456.773 2571 461.852 2571 467.672V473.707H2526.65C2526.77 481.246 2528.64 486.988 2532.27 490.934C2535.91 494.879 2541.02 496.852 2547.62 496.852C2551.69 496.852 2555.28 496.48 2558.41 495.738C2561.53 494.996 2564.77 493.902 2568.13 492.457V501.012C2564.89 502.457 2561.67 503.512 2558.46 504.176C2555.3 504.84 2551.55 505.172 2547.21 505.172C2541.04 505.172 2535.65 503.922 2531.04 501.422C2526.47 498.883 2522.92 495.172 2520.38 490.289C2517.84 485.406 2516.57 479.43 2516.57 472.359C2516.57 465.445 2517.72 459.469 2520.03 454.43C2522.37 449.352 2525.65 445.445 2529.87 442.711C2534.13 439.977 2539.13 438.609 2544.87 438.609ZM2544.75 446.578C2539.56 446.578 2535.42 448.277 2532.33 451.676C2529.25 455.074 2527.41 459.82 2526.82 465.914H2560.81C2560.77 462.086 2560.16 458.727 2558.99 455.836C2557.86 452.906 2556.12 450.641 2553.78 449.039C2551.43 447.398 2548.43 446.578 2544.75 446.578ZM2548.97 414.586C2550.18 416.344 2551.51 418.121 2552.96 419.918C2554.44 421.715 2555.95 423.453 2557.47 425.133C2558.99 426.812 2560.44 428.395 2561.8 429.879V431.285H2556.3C2554.3 429.918 2552.23 428.395 2550.09 426.715C2547.98 425.035 2545.93 423.238 2543.93 421.324C2541.86 423.238 2539.77 425.035 2537.66 426.715C2535.59 428.395 2533.56 429.918 2531.57 431.285H2526V429.879C2527.37 428.395 2528.82 426.812 2530.34 425.133C2531.86 423.453 2533.37 421.715 2534.85 419.918C2536.34 418.121 2537.68 416.344 2538.89 414.586H2548.97ZM2560.81 399.527C2564.36 399.527 2567.12 400.211 2569.07 401.578C2571.02 402.906 2572 404.957 2572 407.73C2572 409.996 2571.26 411.715 2569.77 412.887C2568.33 414.059 2566.55 414.879 2564.44 415.348L2564.09 420.094H2559.46L2558.93 412.535C2561.28 412.184 2563.05 411.695 2564.27 411.07C2565.52 410.445 2566.14 409.41 2566.14 407.965C2566.14 406.559 2565.59 405.582 2564.5 405.035C2563.45 404.488 2562.02 404.215 2560.22 404.215C2559.36 404.215 2558.54 404.254 2557.76 404.332C2557.02 404.41 2556.39 404.508 2555.89 404.625V399.996C2556.43 399.84 2557.12 399.723 2557.94 399.645C2558.76 399.566 2559.71 399.527 2560.81 399.527ZM2617.94 438.609C2625.55 438.609 2631.32 440.484 2635.22 444.234C2639.13 447.945 2641.08 453.922 2641.08 462.164V504H2631.47V462.809C2631.47 457.457 2630.24 453.453 2627.78 450.797C2625.36 448.141 2621.63 446.812 2616.59 446.812C2609.48 446.812 2604.48 448.824 2601.59 452.848C2598.7 456.871 2597.25 462.711 2597.25 470.367V504H2587.53V439.781H2595.38L2596.84 449.039H2597.37C2598.74 446.773 2600.48 444.879 2602.59 443.355C2604.7 441.793 2607.06 440.621 2609.68 439.84C2612.29 439.02 2615.05 438.609 2617.94 438.609ZM2715.14 505.172C2707.02 505.172 2700.57 502.398 2695.81 496.852C2691.08 491.305 2688.72 483.062 2688.72 472.125C2688.72 461.07 2691.14 452.73 2695.98 447.105C2700.83 441.441 2707.27 438.609 2715.32 438.609C2718.72 438.609 2721.69 439.059 2724.23 439.957C2726.77 440.855 2728.95 442.066 2730.79 443.59C2732.62 445.074 2734.17 446.773 2735.42 448.688H2736.12C2735.96 447.477 2735.81 445.816 2735.65 443.707C2735.5 441.598 2735.42 439.879 2735.42 438.551V412.828H2745.14V504H2737.29L2735.83 494.859H2735.42C2734.21 496.773 2732.66 498.512 2730.79 500.074C2728.95 501.637 2726.75 502.887 2724.17 503.824C2721.63 504.723 2718.62 505.172 2715.14 505.172ZM2716.67 497.086C2723.54 497.086 2728.41 495.133 2731.26 491.227C2734.11 487.32 2735.54 481.52 2735.54 473.824V472.066C2735.54 463.902 2734.17 457.633 2731.43 453.258C2728.74 448.883 2723.82 446.695 2716.67 446.695C2710.69 446.695 2706.22 449 2703.25 453.609C2700.28 458.18 2698.8 464.43 2698.8 472.359C2698.8 480.25 2700.26 486.344 2703.19 490.641C2706.16 494.938 2710.65 497.086 2716.67 497.086ZM2818.8 439.781V504H2810.83L2809.42 494.977H2808.89C2807.57 497.203 2805.85 499.078 2803.74 500.602C2801.63 502.125 2799.25 503.258 2796.59 504C2793.97 504.781 2791.18 505.172 2788.21 505.172C2783.13 505.172 2778.88 504.352 2775.44 502.711C2772 501.07 2769.4 498.531 2767.64 495.094C2765.93 491.656 2765.07 487.242 2765.07 481.852V439.781H2774.91V481.148C2774.91 486.5 2776.12 490.504 2778.54 493.16C2780.96 495.777 2784.66 497.086 2789.62 497.086C2794.38 497.086 2798.17 496.188 2800.98 494.391C2803.84 492.594 2805.89 489.957 2807.14 486.48C2808.39 482.965 2809.01 478.668 2809.01 473.59V439.781H2818.8ZM2790.55 524.566C2788.91 524.566 2787.53 524.039 2786.39 522.984C2785.26 521.93 2784.7 520.328 2784.7 518.18C2784.7 515.992 2785.26 514.371 2786.39 513.316C2787.53 512.301 2788.91 511.793 2790.55 511.793C2792.23 511.793 2793.64 512.301 2794.77 513.316C2795.91 514.371 2796.47 515.992 2796.47 518.18C2796.47 520.328 2795.91 521.93 2794.77 522.984C2793.64 524.039 2792.23 524.566 2790.55 524.566ZM2869.77 438.609C2877.39 438.609 2883.15 440.484 2887.06 444.234C2890.96 447.945 2892.92 453.922 2892.92 462.164V504H2883.31V462.809C2883.31 457.457 2882.08 453.453 2879.62 450.797C2877.2 448.141 2873.46 446.812 2868.43 446.812C2861.32 446.812 2856.32 448.824 2853.43 452.848C2850.54 456.871 2849.09 462.711 2849.09 470.367V504H2839.36V439.781H2847.21L2848.68 449.039H2849.21C2850.57 446.773 2852.31 444.879 2854.42 443.355C2856.53 441.793 2858.89 440.621 2861.51 439.84C2864.13 439.02 2866.88 438.609 2869.77 438.609ZM2930.89 532.828C2922.45 532.828 2915.95 531.246 2911.38 528.082C2906.8 524.957 2904.52 520.562 2904.52 514.898C2904.52 510.875 2905.79 507.438 2908.33 504.586C2910.91 501.734 2914.46 499.84 2918.99 498.902C2917.31 498.121 2915.87 496.949 2914.66 495.387C2913.48 493.824 2912.9 492.027 2912.9 489.996C2912.9 487.652 2913.54 485.602 2914.83 483.844C2916.16 482.047 2918.17 480.328 2920.87 478.688C2917.51 477.32 2914.77 475.016 2912.66 471.773C2910.59 468.492 2909.56 464.684 2909.56 460.348C2909.56 455.738 2910.52 451.812 2912.43 448.57C2914.34 445.289 2917.12 442.789 2920.75 441.07C2924.38 439.352 2928.78 438.492 2933.93 438.492C2935.07 438.492 2936.2 438.551 2937.33 438.668C2938.5 438.746 2939.62 438.883 2940.67 439.078C2941.73 439.234 2942.64 439.43 2943.43 439.664H2965.46V445.934L2953.62 447.398C2954.79 448.922 2955.77 450.758 2956.55 452.906C2957.33 455.055 2957.72 457.438 2957.72 460.055C2957.72 466.461 2955.55 471.559 2951.22 475.348C2946.88 479.098 2940.93 480.973 2933.35 480.973C2931.55 480.973 2929.71 480.816 2927.84 480.504C2925.93 481.559 2924.46 482.73 2923.45 484.02C2922.47 485.309 2921.98 486.793 2921.98 488.473C2921.98 489.723 2922.35 490.719 2923.09 491.461C2923.88 492.203 2924.99 492.75 2926.43 493.102C2927.88 493.414 2929.62 493.57 2931.65 493.57H2942.96C2949.95 493.57 2955.3 495.035 2959.01 497.965C2962.76 500.895 2964.64 505.172 2964.64 510.797C2964.64 517.906 2961.75 523.355 2955.96 527.145C2950.18 530.934 2941.82 532.828 2930.89 532.828ZM2931.18 525.211C2936.49 525.211 2940.89 524.664 2944.36 523.57C2947.88 522.516 2950.5 520.973 2952.21 518.941C2953.97 516.949 2954.85 514.566 2954.85 511.793C2954.85 509.215 2954.27 507.262 2953.09 505.934C2951.92 504.645 2950.2 503.785 2947.94 503.355C2945.67 502.887 2942.9 502.652 2939.62 502.652H2928.48C2925.59 502.652 2923.07 503.102 2920.93 504C2918.78 504.898 2917.12 506.227 2915.95 507.984C2914.81 509.742 2914.25 511.93 2914.25 514.547C2914.25 518.023 2915.71 520.66 2918.64 522.457C2921.57 524.293 2925.75 525.211 2931.18 525.211ZM2933.7 473.883C2938.35 473.883 2941.84 472.711 2944.19 470.367C2946.53 468.023 2947.7 464.605 2947.7 460.113C2947.7 455.309 2946.51 451.715 2944.13 449.332C2941.75 446.91 2938.23 445.699 2933.58 445.699C2929.13 445.699 2925.69 446.949 2923.27 449.449C2920.89 451.91 2919.7 455.523 2919.7 460.289C2919.7 464.664 2920.91 468.023 2923.33 470.367C2925.75 472.711 2929.21 473.883 2933.7 473.883Z" fill="black" fill-opacity="0.4"/>
</svg>
