<svg width="3528" height="606" viewBox="0 0 3528 606" fill="none" xmlns="http://www.w3.org/2000/svg">
<path d="M151.47 565.053L20.0819 388.692C9.42681 374.387 2.73301 357.543 0.679011 339.849C-1.38109 322.158 1.2658 304.241 8.35698 287.888L96.0858 86.5569C103.171 70.2297 114.449 56.0503 128.785 45.4462C143.12 34.8426 160.01 28.1893 177.75 26.157L397.007 0.65567C414.754 -1.36188 432.721 1.29605 449.109 8.36183C465.493 15.4282 479.737 26.6557 490.403 40.9217L621.793 217.288C632.447 231.592 639.14 248.434 641.196 266.125C643.253 283.818 640.607 301.736 633.517 318.088L545.787 519.421C538.698 535.743 527.411 549.912 513.076 560.517C498.74 571.113 481.857 577.776 464.123 579.821L244.866 605.318C227.119 607.382 209.141 604.741 192.739 597.669C176.344 590.602 162.113 579.353 151.47 565.053Z" fill="#914F1E"/>
<path d="M304.533 479.695C305.312 479.672 306.624 480.456 307.122 481.617C305.895 481.498 305.48 481 304.533 479.695Z" fill="#914F1E"/>
<g clip-path="url(#clip0_415_81)">
<path fill-rule="evenodd" clip-rule="evenodd" d="M187.473 154L305.325 271.851L258.184 318.992L187.473 248.281C161.439 222.246 161.439 180.035 187.473 154Z" fill="white"/>
<path fill-rule="evenodd" clip-rule="evenodd" d="M416.9 168.118L369.144 226.487C366.148 230.148 366.414 235.484 369.759 238.829C373.104 242.174 378.44 242.44 382.101 239.444L440.47 191.688L452.255 203.473L404.499 261.842C401.503 265.503 401.769 270.839 405.115 274.184C408.46 277.529 413.795 277.795 417.457 274.8L475.825 227.044L487.61 238.829L434.577 291.862C411.797 314.642 374.862 314.642 352.082 291.862C329.301 269.081 329.301 232.147 352.082 209.366L405.115 156.333L416.9 168.118Z" fill="white"/>
<path fill-rule="evenodd" clip-rule="evenodd" d="M305.589 335.077C312.192 341.679 312.46 352.299 306.199 359.226L223.364 450.874C214.561 460.613 199.531 461.372 189.792 452.57C189.495 452.302 189.206 452.026 188.923 451.743C179.64 442.461 179.64 427.411 188.923 418.129C189.206 417.846 189.495 417.57 189.792 417.302L281.44 334.467C288.367 328.206 298.987 328.474 305.589 335.077Z" fill="white"/>
<path fill-rule="evenodd" clip-rule="evenodd" d="M338.923 335.077C345.526 328.474 356.146 328.206 363.073 334.467L454.721 417.302C455.018 417.57 455.307 417.846 455.59 418.129C464.873 427.411 464.873 442.461 455.59 451.743C455.307 452.026 455.018 452.302 454.721 452.57C444.982 461.372 429.951 460.613 421.149 450.874L338.314 359.226C332.053 352.299 332.321 341.679 338.923 335.077Z" fill="white"/>
</g>
<path d="M798.56 320V83.2H881.12C898.613 83.2 913.227 86.9333 924.96 94.4C936.693 101.653 945.44 111.04 951.2 122.56C957.173 134.08 960.16 146.027 960.16 158.4C960.16 171.2 957.173 183.36 951.2 194.88C945.44 206.4 936.693 215.893 924.96 223.36C913.227 230.613 898.613 234.24 881.12 234.24H823.2V320H798.56ZM881.12 105.28H823.2V212.16H881.12C893.28 212.16 903.413 209.6 911.52 204.48C919.627 199.36 925.707 192.747 929.76 184.64C933.813 176.32 935.84 167.68 935.84 158.72C935.84 149.76 933.813 141.227 929.76 133.12C925.707 124.8 919.627 118.08 911.52 112.96C903.413 107.84 893.28 105.28 881.12 105.28ZM1062.7 147.2C1074.43 147.2 1084.14 149.227 1091.82 153.28C1099.5 157.12 1105.58 161.707 1110.06 167.04C1114.75 172.373 1118.16 176.96 1120.3 180.8H1122.22V150.4H1145.9V320H1122.22V289.6H1120.3C1118.16 293.653 1114.75 298.347 1110.06 303.68C1105.58 308.8 1099.5 313.387 1091.82 317.44C1084.14 321.28 1074.43 323.2 1062.7 323.2C1049.9 323.2 1038.7 320.747 1029.1 315.84C1019.5 310.72 1011.5 304 1005.1 295.68C998.695 287.147 993.895 277.653 990.695 267.2C987.708 256.747 986.215 246.08 986.215 235.2C986.215 224.32 987.708 213.653 990.695 203.2C993.895 192.747 998.695 183.36 1005.1 175.04C1011.5 166.507 1019.5 159.787 1029.1 154.88C1038.7 149.76 1049.9 147.2 1062.7 147.2ZM1066.22 168C1053.63 168 1043.18 171.307 1034.86 177.92C1026.54 184.533 1020.35 192.96 1016.3 203.2C1012.24 213.44 1010.22 224.107 1010.22 235.2C1010.22 246.293 1012.24 256.96 1016.3 267.2C1020.35 277.44 1026.54 285.867 1034.86 292.48C1043.18 299.093 1053.63 302.4 1066.22 302.4C1078.59 302.4 1088.83 299.093 1096.94 292.48C1105.26 285.867 1111.44 277.44 1115.5 267.2C1119.76 256.96 1121.9 246.293 1121.9 235.2C1121.9 224.107 1119.76 213.44 1115.5 203.2C1111.44 192.96 1105.26 184.533 1096.94 177.92C1088.83 171.307 1078.59 168 1066.22 168ZM1193.81 320V150.4H1217.81V172.48H1219.09C1222.51 165.653 1227.73 159.787 1234.77 154.88C1241.81 149.76 1251.63 147.2 1264.21 147.2C1268.27 147.2 1271.79 147.413 1274.77 147.84C1277.97 148.267 1279.57 148.48 1279.57 148.48V171.52C1279.57 171.52 1277.87 171.307 1274.45 170.88C1271.04 170.453 1267.41 170.24 1263.57 170.24C1254.83 170.24 1246.93 172.053 1239.89 175.68C1233.07 179.093 1227.63 185.067 1223.57 193.6C1219.73 201.92 1217.81 213.333 1217.81 227.84V320H1193.81ZM1375.2 147.2C1386.93 147.2 1396.64 149.227 1404.32 153.28C1412 157.12 1418.08 161.707 1422.56 167.04C1427.25 172.373 1430.66 176.96 1432.8 180.8H1434.72V150.4H1458.4V320H1434.72V289.6H1432.8C1430.66 293.653 1427.25 298.347 1422.56 303.68C1418.08 308.8 1412 313.387 1404.32 317.44C1396.64 321.28 1386.93 323.2 1375.2 323.2C1362.4 323.2 1351.2 320.747 1341.6 315.84C1332 310.72 1324 304 1317.6 295.68C1311.2 287.147 1306.4 277.653 1303.2 267.2C1300.21 256.747 1298.72 246.08 1298.72 235.2C1298.72 224.32 1300.21 213.653 1303.2 203.2C1306.4 192.747 1311.2 183.36 1317.6 175.04C1324 166.507 1332 159.787 1341.6 154.88C1351.2 149.76 1362.4 147.2 1375.2 147.2ZM1378.72 168C1366.13 168 1355.68 171.307 1347.36 177.92C1339.04 184.533 1332.85 192.96 1328.8 203.2C1324.74 213.44 1322.72 224.107 1322.72 235.2C1322.72 246.293 1324.74 256.96 1328.8 267.2C1332.85 277.44 1339.04 285.867 1347.36 292.48C1355.68 299.093 1366.13 302.4 1378.72 302.4C1391.09 302.4 1401.33 299.093 1409.44 292.48C1417.76 285.867 1423.94 277.44 1428 267.2C1432.26 256.96 1434.4 246.293 1434.4 235.2C1434.4 224.107 1432.26 213.44 1428 203.2C1423.94 192.96 1417.76 184.533 1409.44 177.92C1401.33 171.307 1391.09 168 1378.72 168ZM1577.7 323.2C1564.9 323.2 1553.7 320.747 1544.1 315.84C1534.5 310.72 1526.5 304 1520.1 295.68C1513.7 287.147 1508.9 277.653 1505.7 267.2C1502.71 256.747 1501.22 246.08 1501.22 235.2C1501.22 224.32 1502.71 213.653 1505.7 203.2C1508.9 192.747 1513.7 183.36 1520.1 175.04C1526.5 166.507 1534.5 159.787 1544.1 154.88C1553.7 149.76 1564.9 147.2 1577.7 147.2C1589.43 147.2 1599.14 149.227 1606.82 153.28C1614.5 157.12 1620.58 161.707 1625.06 167.04C1629.75 172.373 1633.16 176.96 1635.3 180.8H1637.22V76.8H1660.9V320H1637.22V289.6H1635.3C1633.16 293.653 1629.75 298.347 1625.06 303.68C1620.58 308.8 1614.5 313.387 1606.82 317.44C1599.14 321.28 1589.43 323.2 1577.7 323.2ZM1581.22 302.4C1593.59 302.4 1603.83 299.093 1611.94 292.48C1620.26 285.867 1626.44 277.44 1630.5 267.2C1634.76 256.96 1636.9 246.293 1636.9 235.2C1636.9 224.107 1634.76 213.44 1630.5 203.2C1626.44 192.96 1620.26 184.533 1611.94 177.92C1603.83 171.307 1593.59 168 1581.22 168C1568.63 168 1558.18 171.307 1549.86 177.92C1541.54 184.533 1535.35 192.96 1531.3 203.2C1527.24 213.44 1525.22 224.107 1525.22 235.2C1525.22 246.293 1527.24 256.96 1531.3 267.2C1535.35 277.44 1541.54 285.867 1549.86 292.48C1558.18 299.093 1568.63 302.4 1581.22 302.4ZM1727.31 117.76C1722.4 117.76 1718.35 116.053 1715.15 112.64C1711.95 109.227 1710.35 105.28 1710.35 100.8C1710.35 96.1067 1711.95 92.16 1715.15 88.96C1718.35 85.5467 1722.4 83.84 1727.31 83.84C1732 83.84 1735.95 85.5467 1739.15 88.96C1742.56 92.16 1744.27 96.1067 1744.27 100.8C1744.27 105.493 1742.56 109.547 1739.15 112.96C1735.95 116.16 1732 117.76 1727.31 117.76ZM1715.47 320V150.4H1739.47V320H1715.47ZM1848.92 323.2C1836.12 323.2 1825.56 321.387 1817.24 317.76C1809.13 314.133 1802.63 309.653 1797.72 304.32C1793.03 298.987 1789.61 293.653 1787.48 288.32C1785.35 282.987 1783.96 278.507 1783.32 274.88C1782.68 271.253 1782.36 269.44 1782.36 269.44H1807C1807 269.44 1807.32 271.147 1807.96 274.56C1808.6 277.76 1810.2 281.6 1812.76 286.08C1815.53 290.347 1819.8 294.187 1825.56 297.6C1831.32 300.8 1839.21 302.4 1849.24 302.4C1860.12 302.4 1868.76 299.627 1875.16 294.08C1881.56 288.533 1884.76 281.707 1884.76 273.6C1884.76 265.92 1882.09 259.947 1876.76 255.68C1871.64 251.413 1864.71 248.32 1855.96 246.4L1833.56 241.28C1825.03 239.147 1817.24 236.267 1810.2 232.64C1803.16 229.013 1797.51 224.213 1793.24 218.24C1788.97 212.053 1786.84 204.48 1786.84 195.52C1786.84 181.227 1792.07 169.6 1802.52 160.64C1812.97 151.68 1826.63 147.2 1843.48 147.2C1854.79 147.2 1864.07 148.907 1871.32 152.32C1878.79 155.52 1884.65 159.573 1888.92 164.48C1893.4 169.387 1896.6 174.293 1898.52 179.2C1900.65 183.893 1902.04 187.947 1902.68 191.36C1903.32 194.56 1903.64 196.16 1903.64 196.16H1880.28C1880.28 196.16 1879.85 194.773 1879 192C1878.36 189.013 1876.87 185.707 1874.52 182.08C1872.39 178.24 1868.76 174.933 1863.64 172.16C1858.73 169.173 1852.01 167.68 1843.48 167.68C1832.39 167.68 1824.07 170.347 1818.52 175.68C1813.19 181.013 1810.52 187.093 1810.52 193.92C1810.52 200.533 1812.87 205.76 1817.56 209.6C1822.47 213.44 1829.08 216.32 1837.4 218.24L1860.12 223.68C1874.41 227.093 1886.04 232.747 1895 240.64C1903.96 248.32 1908.44 258.987 1908.44 272.64C1908.44 281.813 1905.99 290.24 1901.08 297.92C1896.39 305.6 1889.56 311.787 1880.6 316.48C1871.85 320.96 1861.29 323.2 1848.92 323.2ZM2021.82 323.2C2008.16 323.2 1996.32 320.747 1986.3 315.84C1976.27 310.72 1968.06 303.893 1961.66 295.36C1955.26 286.827 1950.46 277.333 1947.26 266.88C1944.27 256.427 1942.78 245.867 1942.78 235.2C1942.78 224.533 1944.27 213.973 1947.26 203.52C1950.46 193.067 1955.26 183.573 1961.66 175.04C1968.06 166.507 1976.06 159.787 1985.66 154.88C1995.47 149.76 2007.1 147.2 2020.54 147.2C2034.62 147.2 2047.1 150.507 2057.98 157.12C2069.07 163.733 2077.71 173.547 2083.9 186.56C2090.3 199.36 2093.5 215.467 2093.5 234.88V241.92H1967.1C1967.52 252.8 1969.87 262.827 1974.14 272C1978.62 281.173 1984.8 288.533 1992.7 294.08C2000.8 299.627 2010.51 302.4 2021.82 302.4C2031.2 302.4 2038.99 300.8 2045.18 297.6C2051.36 294.187 2056.06 290.347 2059.26 286.08C2062.67 281.6 2065.02 277.76 2066.3 274.56C2067.79 271.36 2068.54 269.76 2068.54 269.76H2091.26C2091.26 269.76 2090.72 271.573 2089.66 275.2C2088.59 278.613 2086.67 282.987 2083.9 288.32C2081.12 293.653 2077.07 298.987 2071.74 304.32C2066.62 309.653 2060 314.133 2051.9 317.76C2043.79 321.387 2033.76 323.2 2021.82 323.2ZM1967.42 222.72H2069.5C2068.86 209.707 2066.19 199.253 2061.5 191.36C2057.02 183.253 2051.15 177.387 2043.9 173.76C2036.64 170.133 2028.86 168.32 2020.54 168.32C2005.39 168.32 1993.12 173.333 1983.74 183.36C1974.35 193.173 1968.91 206.293 1967.42 222.72Z" fill="#73C41D"/>
<path d="M2135.98 320V83.2H2193.9L2253.1 211.52L2313.58 83.2H2370.54V320H2327.66V148.8L2273.26 262.72H2232.94L2178.86 148.16V320H2135.98ZM2494.07 323.2C2479.57 323.2 2466.98 320.747 2456.31 315.84C2445.86 310.72 2437.11 304 2430.07 295.68C2423.25 287.147 2418.13 277.653 2414.71 267.2C2411.3 256.747 2409.59 246.08 2409.59 235.2C2409.59 224.32 2411.19 213.76 2414.39 203.52C2417.81 193.067 2422.82 183.573 2429.43 175.04C2436.26 166.507 2444.9 159.787 2455.35 154.88C2465.81 149.76 2478.18 147.2 2492.47 147.2C2507.83 147.2 2521.38 150.613 2533.11 157.44C2544.85 164.267 2554.02 174.293 2560.63 187.52C2567.25 200.533 2570.55 216.747 2570.55 236.16V247.04H2452.47C2453.11 258.56 2457.06 268.587 2464.31 277.12C2471.57 285.44 2481.49 289.6 2494.07 289.6C2501.33 289.6 2507.3 288.427 2511.99 286.08C2516.69 283.733 2520.31 281.067 2522.87 278.08C2525.43 274.88 2527.25 272.213 2528.31 270.08C2529.38 267.733 2529.91 266.56 2529.91 266.56H2569.27C2569.27 266.56 2568.74 268.48 2567.67 272.32C2566.61 275.947 2564.58 280.64 2561.59 286.4C2558.82 291.947 2554.66 297.6 2549.11 303.36C2543.57 308.907 2536.31 313.6 2527.35 317.44C2518.39 321.28 2507.3 323.2 2494.07 323.2ZM2452.47 219.2H2529.59C2528.95 205.973 2525.01 196.16 2517.75 189.76C2510.5 183.36 2501.97 180.16 2492.15 180.16C2481.27 180.16 2472.21 183.68 2464.95 190.72C2457.7 197.547 2453.54 207.04 2452.47 219.2ZM2678.86 147.2C2689.74 147.2 2698.7 149.013 2705.74 152.64C2712.78 156.053 2718.32 159.893 2722.38 164.16C2726.43 168.213 2729.2 171.52 2730.7 174.08H2732.62V150.4H2775.18V320H2732.62V296.32H2730.7C2729.2 298.88 2726.43 302.293 2722.38 306.56C2718.32 310.827 2712.78 314.667 2705.74 318.08C2698.7 321.493 2689.74 323.2 2678.86 323.2C2666.27 323.2 2655.28 320.747 2645.9 315.84C2636.51 310.72 2628.62 304 2622.22 295.68C2616.03 287.147 2611.34 277.653 2608.14 267.2C2605.15 256.747 2603.66 246.08 2603.66 235.2C2603.66 224.32 2605.15 213.653 2608.14 203.2C2611.34 192.747 2616.03 183.36 2622.22 175.04C2628.62 166.507 2636.51 159.787 2645.9 154.88C2655.28 149.76 2666.27 147.2 2678.86 147.2ZM2690.06 182.08C2680.46 182.08 2672.35 184.747 2665.74 190.08C2659.34 195.2 2654.54 201.813 2651.34 209.92C2648.14 218.027 2646.54 226.453 2646.54 235.2C2646.54 243.947 2648.14 252.373 2651.34 260.48C2654.54 268.587 2659.34 275.307 2665.74 280.64C2672.35 285.76 2680.46 288.32 2690.06 288.32C2699.66 288.32 2707.66 285.76 2714.06 280.64C2720.46 275.307 2725.26 268.587 2728.46 260.48C2731.66 252.373 2733.26 243.947 2733.26 235.2C2733.26 226.453 2731.66 218.027 2728.46 209.92C2725.26 201.813 2720.46 195.2 2714.06 190.08C2707.66 184.747 2699.66 182.08 2690.06 182.08ZM2818.79 320L2819.11 76.8H2861.35V320H2818.79Z" fill="#914F1E"/>
<path d="M896.936 466.103C896.936 474.599 895.779 482.293 893.466 489.184C891.153 496.075 887.708 501.905 883.129 506.672C878.598 511.439 872.934 514.908 866.137 517.08L890.493 542.639H873.288L853.251 519.274C852.638 519.274 852.001 519.298 851.34 519.345C850.726 519.392 850.113 519.416 849.499 519.416C841.475 519.416 834.466 518.142 828.471 515.593C822.524 513.044 817.568 509.41 813.603 504.689C809.685 499.969 806.735 494.329 804.753 487.768C802.818 481.207 801.85 473.938 801.85 465.961C801.85 455.389 803.597 446.114 807.089 438.137C810.582 430.16 815.869 423.953 822.949 419.516C830.076 415.079 838.997 412.861 849.711 412.861C859.954 412.861 868.568 415.056 875.554 419.445C882.587 423.835 887.897 430.018 891.484 437.995C895.118 445.925 896.936 455.294 896.936 466.103ZM814.523 466.103C814.523 474.882 815.774 482.482 818.276 488.901C820.778 495.32 824.601 500.276 829.746 503.769C834.938 507.262 841.522 509.008 849.499 509.008C857.523 509.008 864.084 507.262 869.182 503.769C874.326 500.276 878.126 495.32 880.581 488.901C883.035 482.482 884.262 474.882 884.262 466.103C884.262 452.745 881.454 442.314 875.837 434.809C870.267 427.257 861.559 423.481 849.711 423.481C841.687 423.481 835.079 425.204 829.887 428.649C824.695 432.095 820.825 437.004 818.276 443.376C815.774 449.701 814.523 457.277 814.523 466.103ZM982.321 440.402V518H972.692L970.993 507.097H970.356C968.751 509.787 966.674 512.053 964.125 513.894C961.577 515.734 958.697 517.103 955.488 518C952.325 518.944 948.951 519.416 945.363 519.416C939.227 519.416 934.082 518.425 929.929 516.442C925.775 514.46 922.636 511.392 920.512 507.238C918.435 503.085 917.397 497.751 917.397 491.237V440.402H929.292V490.388C929.292 496.854 930.755 501.692 933.681 504.902C936.608 508.064 941.068 509.646 947.062 509.646C952.821 509.646 957.399 508.56 960.798 506.389C964.243 504.217 966.722 501.031 968.232 496.831C969.742 492.583 970.498 487.39 970.498 481.254V440.402H982.321ZM1036.2 439.128C1045.45 439.128 1052.32 441.205 1056.8 445.358C1061.29 449.512 1063.53 456.144 1063.53 465.253V518H1054.96L1052.7 506.53H1052.13C1049.96 509.362 1047.69 511.746 1045.33 513.681C1042.97 515.569 1040.24 517.009 1037.12 518C1034.05 518.944 1030.28 519.416 1025.79 519.416C1021.07 519.416 1016.87 518.59 1013.19 516.938C1009.56 515.286 1006.68 512.784 1004.55 509.433C1002.48 506.082 1001.44 501.834 1001.44 496.689C1001.44 488.948 1004.51 483.001 1010.64 478.847C1016.78 474.694 1026.12 472.428 1038.68 472.05L1052.06 471.484V466.74C1052.06 460.038 1050.62 455.341 1047.74 452.651C1044.86 449.96 1040.8 448.615 1035.56 448.615C1031.5 448.615 1027.63 449.205 1023.95 450.385C1020.27 451.565 1016.78 452.958 1013.47 454.562L1009.86 445.642C1013.36 443.848 1017.37 442.314 1021.9 441.04C1026.43 439.765 1031.2 439.128 1036.2 439.128ZM1051.92 479.768L1040.09 480.263C1030.42 480.641 1023.6 482.222 1019.63 485.007C1015.67 487.792 1013.69 491.733 1013.69 496.831C1013.69 501.267 1015.03 504.548 1017.72 506.672C1020.41 508.796 1023.98 509.858 1028.41 509.858C1035.3 509.858 1040.94 507.946 1045.33 504.123C1049.72 500.3 1051.92 494.565 1051.92 486.918V479.768ZM1050.43 411.94C1050.43 415.575 1049.32 418.407 1047.1 420.437C1044.89 422.419 1042.05 423.811 1038.61 424.614L1037.97 432.473H1030.61L1029.69 420.224C1033.32 419.611 1036.15 418.737 1038.18 417.604C1040.26 416.424 1041.3 414.678 1041.3 412.365C1041.3 410.052 1040.38 408.471 1038.54 407.622C1036.74 406.772 1034.45 406.347 1031.67 406.347C1030.35 406.347 1029.03 406.418 1027.7 406.56C1026.43 406.654 1025.37 406.796 1024.52 406.984V399.904C1025.46 399.621 1026.6 399.409 1027.92 399.267C1029.24 399.078 1030.82 398.984 1032.66 398.984C1038.37 398.984 1042.76 400.069 1045.83 402.241C1048.9 404.365 1050.43 407.598 1050.43 411.94ZM1124.49 438.986C1133.69 438.986 1140.66 441.252 1145.38 445.783C1150.1 450.267 1152.46 457.489 1152.46 467.448V518H1140.84V468.227C1140.84 461.761 1139.36 456.923 1136.38 453.713C1133.46 450.503 1128.95 448.898 1122.86 448.898C1114.27 448.898 1108.23 451.329 1104.74 456.191C1101.24 461.053 1099.5 468.109 1099.5 477.36V518H1087.74V440.402H1097.23L1099 451.589H1099.64C1101.29 448.851 1103.39 446.562 1105.94 444.721C1108.49 442.833 1111.34 441.417 1114.51 440.473C1117.67 439.482 1121 438.986 1124.49 438.986ZM1226.16 518H1214.34V407.834H1226.16V518ZM1238.76 440.402H1251.36L1268.5 485.432C1269.49 488.075 1270.41 490.624 1271.26 493.078C1272.11 495.485 1272.86 497.798 1273.52 500.017C1274.19 502.235 1274.7 504.383 1275.08 506.459H1275.58C1276.24 504.099 1277.18 501.008 1278.41 497.185C1279.64 493.314 1280.96 489.373 1282.38 485.361L1298.59 440.402H1311.26L1277.49 529.399C1275.7 534.166 1273.6 538.32 1271.19 541.86C1268.83 545.4 1265.95 548.114 1262.55 550.002C1259.15 551.937 1255.05 552.905 1250.23 552.905C1248.01 552.905 1246.05 552.763 1244.35 552.48C1242.66 552.244 1241.19 551.961 1239.97 551.63V542.214C1241 542.45 1242.25 542.662 1243.72 542.851C1245.23 543.04 1246.79 543.134 1248.39 543.134C1251.32 543.134 1253.84 542.568 1255.97 541.435C1258.14 540.349 1260 538.745 1261.56 536.621C1263.12 534.497 1264.46 531.971 1265.6 529.045L1269.84 518.142L1238.76 440.402ZM1295.4 406.914V408.33C1294.46 409.698 1293.16 411.35 1291.51 413.286C1289.9 415.174 1288.11 417.18 1286.13 419.304C1284.15 421.381 1282.14 423.363 1280.11 425.251C1278.13 427.139 1276.29 428.767 1274.59 430.136H1266.73V428.437C1268.24 426.643 1269.89 424.496 1271.68 421.994C1273.48 419.445 1275.22 416.849 1276.92 414.206C1278.62 411.516 1280.04 409.085 1281.17 406.914H1295.4ZM1386.38 509.787C1388.32 509.787 1390.3 509.622 1392.33 509.292C1394.36 508.961 1396.01 508.56 1397.28 508.088V517.221C1395.92 517.835 1394 518.354 1391.55 518.779C1389.14 519.204 1386.78 519.416 1384.47 519.416C1380.36 519.416 1376.63 518.708 1373.28 517.292C1369.93 515.829 1367.24 513.374 1365.21 509.929C1363.23 506.483 1362.24 501.716 1362.24 495.627V449.606H1351.19V443.872L1362.31 439.27L1366.98 422.419H1374.06V440.402H1396.79V449.606H1374.06V495.273C1374.06 500.135 1375.17 503.769 1377.39 506.176C1379.66 508.583 1382.65 509.787 1386.38 509.787ZM1479.91 479.06C1479.91 485.432 1479.08 491.119 1477.43 496.123C1475.78 501.126 1473.4 505.35 1470.28 508.796C1467.17 512.242 1463.39 514.885 1458.95 516.726C1454.56 518.519 1449.58 519.416 1444.01 519.416C1438.82 519.416 1434.05 518.519 1429.71 516.726C1425.42 514.885 1421.69 512.242 1418.52 508.796C1415.41 505.35 1412.98 501.126 1411.23 496.123C1409.53 491.119 1408.68 485.432 1408.68 479.06C1408.68 470.563 1410.12 463.342 1413 457.395C1415.88 451.4 1419.99 446.845 1425.32 443.73C1430.7 440.568 1437.1 438.986 1444.51 438.986C1451.59 438.986 1457.77 440.568 1463.06 443.73C1468.39 446.892 1472.52 451.471 1475.45 457.465C1478.42 463.413 1479.91 470.611 1479.91 479.06ZM1420.86 479.06C1420.86 485.29 1421.69 490.694 1423.34 495.273C1424.99 499.851 1427.54 503.391 1430.99 505.893C1434.43 508.395 1438.87 509.646 1444.3 509.646C1449.68 509.646 1454.09 508.395 1457.54 505.893C1461.03 503.391 1463.6 499.851 1465.25 495.273C1466.91 490.694 1467.73 485.29 1467.73 479.06C1467.73 472.876 1466.91 467.543 1465.25 463.059C1463.6 458.527 1461.05 455.035 1457.61 452.58C1454.16 450.126 1449.7 448.898 1444.23 448.898C1436.15 448.898 1430.23 451.565 1426.45 456.899C1422.73 462.233 1420.86 469.619 1420.86 479.06ZM1529.26 439.128C1538.51 439.128 1545.38 441.205 1549.86 445.358C1554.34 449.512 1556.59 456.144 1556.59 465.253V518H1548.02L1545.75 506.53H1545.19C1543.02 509.362 1540.75 511.746 1538.39 513.681C1536.03 515.569 1533.29 517.009 1530.18 518C1527.11 518.944 1523.33 519.416 1518.85 519.416C1514.13 519.416 1509.93 518.59 1506.25 516.938C1502.61 515.286 1499.73 512.784 1497.61 509.433C1495.53 506.082 1494.49 501.834 1494.49 496.689C1494.49 488.948 1497.56 483.001 1503.7 478.847C1509.83 474.694 1519.18 472.428 1531.74 472.05L1545.12 471.484V466.74C1545.12 460.038 1543.68 455.341 1540.8 452.651C1537.92 449.96 1533.86 448.615 1528.62 448.615C1524.56 448.615 1520.69 449.205 1517.01 450.385C1513.33 451.565 1509.83 452.958 1506.53 454.562L1502.92 445.642C1506.41 443.848 1510.42 442.314 1514.96 441.04C1519.49 439.765 1524.25 439.128 1529.26 439.128ZM1544.98 479.768L1533.15 480.263C1523.48 480.641 1516.65 482.222 1512.69 485.007C1508.73 487.792 1506.74 491.733 1506.74 496.831C1506.74 501.267 1508.09 504.548 1510.78 506.672C1513.47 508.796 1517.03 509.858 1521.47 509.858C1528.36 509.858 1534 507.946 1538.39 504.123C1542.78 500.3 1544.98 494.565 1544.98 486.918V479.768ZM1523.24 406.914C1524.37 409.085 1525.76 411.516 1527.42 414.206C1529.12 416.849 1530.89 419.445 1532.73 421.994C1534.61 424.496 1536.34 426.643 1537.9 428.437V430.136H1529.89C1528.2 428.767 1526.33 427.139 1524.3 425.251C1522.32 423.363 1520.34 421.381 1518.35 419.304C1516.37 417.18 1514.58 415.174 1512.97 413.286C1511.37 411.35 1510.12 409.698 1509.22 408.33V406.914H1523.24ZM1617.55 438.986C1626.75 438.986 1633.71 441.252 1638.43 445.783C1643.15 450.267 1645.51 457.489 1645.51 467.448V518H1633.9V468.227C1633.9 461.761 1632.41 456.923 1629.44 453.713C1626.51 450.503 1622.01 448.898 1615.92 448.898C1607.33 448.898 1601.29 451.329 1597.79 456.191C1594.3 461.053 1592.55 468.109 1592.55 477.36V518H1580.8V440.402H1590.29L1592.06 451.589H1592.69C1594.35 448.851 1596.45 446.562 1599 444.721C1601.54 442.833 1604.4 441.417 1607.56 440.473C1610.73 439.482 1614.05 438.986 1617.55 438.986ZM1735 519.416C1725.19 519.416 1717.4 516.065 1711.64 509.362C1705.93 502.66 1703.07 492.701 1703.07 479.484C1703.07 466.127 1706 456.049 1711.85 449.252C1717.71 442.408 1725.49 438.986 1735.22 438.986C1739.32 438.986 1742.91 439.529 1745.98 440.615C1749.05 441.7 1751.69 443.164 1753.91 445.004C1756.13 446.798 1757.99 448.851 1759.5 451.164H1760.35C1760.16 449.701 1759.97 447.695 1759.78 445.146C1759.6 442.597 1759.5 440.52 1759.5 438.916V407.834H1771.25V518H1761.77L1760 506.955H1759.5C1758.04 509.268 1756.17 511.368 1753.91 513.256C1751.69 515.144 1749.02 516.655 1745.91 517.788C1742.84 518.873 1739.21 519.416 1735 519.416ZM1736.85 509.646C1745.15 509.646 1751.03 507.285 1754.47 502.565C1757.92 497.845 1759.64 490.836 1759.64 481.538V479.414C1759.64 469.549 1757.99 461.973 1754.69 456.687C1751.43 451.4 1745.48 448.757 1736.85 448.757C1729.62 448.757 1724.22 451.542 1720.63 457.111C1717.04 462.634 1715.25 470.186 1715.25 479.768C1715.25 489.302 1717.02 496.665 1720.56 501.857C1724.15 507.049 1729.58 509.646 1736.85 509.646ZM1807.93 440.402V518H1796.18V440.402H1807.93ZM1802.19 411.374C1804.13 411.374 1805.78 412.011 1807.15 413.286C1808.57 414.513 1809.27 416.448 1809.27 419.091C1809.27 421.687 1808.57 423.623 1807.15 424.897C1805.78 426.171 1804.13 426.809 1802.19 426.809C1800.16 426.809 1798.47 426.171 1797.1 424.897C1795.78 423.623 1795.11 421.687 1795.11 419.091C1795.11 416.448 1795.78 414.513 1797.1 413.286C1798.47 412.011 1800.16 411.374 1802.19 411.374ZM1862.73 438.986C1869.34 438.986 1875 440.45 1879.72 443.376C1884.44 446.302 1888.05 450.409 1890.55 455.695C1893.06 460.935 1894.31 467.071 1894.31 474.104V481.396H1840.71C1840.85 490.506 1843.12 497.444 1847.51 502.211C1851.9 506.979 1858.08 509.362 1866.06 509.362C1870.97 509.362 1875.31 508.914 1879.08 508.017C1882.86 507.12 1886.78 505.799 1890.84 504.052V514.389C1886.92 516.136 1883.03 517.41 1879.15 518.212C1875.33 519.015 1870.8 519.416 1865.56 519.416C1858.1 519.416 1851.59 517.906 1846.02 514.885C1840.5 511.817 1836.2 507.333 1833.13 501.433C1830.07 495.533 1828.53 488.311 1828.53 479.768C1828.53 471.413 1829.92 464.191 1832.71 458.103C1835.54 451.966 1839.51 447.246 1844.6 443.942C1849.75 440.638 1855.79 438.986 1862.73 438.986ZM1862.59 448.615C1856.31 448.615 1851.31 450.668 1847.58 454.775C1843.85 458.881 1841.63 464.616 1840.92 471.979H1881.99C1881.94 467.354 1881.21 463.295 1879.79 459.802C1878.42 456.262 1876.32 453.524 1873.49 451.589C1870.66 449.606 1867.02 448.615 1862.59 448.615ZM1867.83 406.984C1869.01 409.108 1870.66 411.516 1872.78 414.206C1874.91 416.849 1877.15 419.445 1879.51 421.994C1881.87 424.543 1883.97 426.738 1885.81 428.579V430.136H1877.46C1874.91 428.484 1872.29 426.455 1869.6 424.047C1866.91 421.64 1864.29 419.139 1861.74 416.542C1859.19 419.139 1856.59 421.64 1853.95 424.047C1851.35 426.407 1848.78 428.437 1846.23 430.136H1838.16V428.579C1839.95 426.691 1841.98 424.472 1844.25 421.923C1846.56 419.375 1848.76 416.778 1850.83 414.135C1852.96 411.492 1854.63 409.108 1855.86 406.984H1867.83ZM1863.79 542.851C1861.81 542.851 1860.13 542.214 1858.76 540.939C1857.4 539.665 1856.71 537.73 1856.71 535.134C1856.71 532.491 1857.4 530.532 1858.76 529.257C1860.13 528.03 1861.81 527.417 1863.79 527.417C1865.82 527.417 1867.52 528.03 1868.89 529.257C1870.26 530.532 1870.94 532.491 1870.94 535.134C1870.94 537.73 1870.26 539.665 1868.89 540.939C1867.52 542.214 1865.82 542.851 1863.79 542.851ZM1951.02 438.986C1960.22 438.986 1967.18 441.252 1971.9 445.783C1976.62 450.267 1978.98 457.489 1978.98 467.448V518H1967.37V468.227C1967.37 461.761 1965.89 456.923 1962.91 453.713C1959.99 450.503 1955.48 448.898 1949.39 448.898C1940.8 448.898 1934.76 451.329 1931.26 456.191C1927.77 461.053 1926.02 468.109 1926.02 477.36V518H1914.27V440.402H1923.76L1925.53 451.589H1926.17C1927.82 448.851 1929.92 446.562 1932.47 444.721C1935.02 442.833 1937.87 441.417 1941.03 440.473C1944.2 439.482 1947.52 438.986 1951.02 438.986ZM2091.06 496.76C2091.06 501.716 2089.81 505.893 2087.31 509.292C2084.85 512.643 2081.31 515.168 2076.69 516.867C2072.11 518.566 2066.64 519.416 2060.26 519.416C2054.84 519.416 2050.14 518.991 2046.17 518.142C2042.21 517.292 2038.74 516.088 2035.77 514.531V503.698C2038.93 505.256 2042.7 506.672 2047.09 507.946C2051.48 509.221 2055.97 509.858 2060.55 509.858C2067.25 509.858 2072.11 508.772 2075.13 506.601C2078.15 504.43 2079.66 501.48 2079.66 497.751C2079.66 495.627 2079.05 493.763 2077.82 492.158C2076.64 490.506 2074.64 488.924 2071.8 487.414C2068.97 485.856 2065.05 484.157 2060.05 482.316C2055.09 480.428 2050.8 478.564 2047.17 476.723C2043.58 474.835 2040.79 472.546 2038.81 469.855C2036.88 467.165 2035.91 463.672 2035.91 459.377C2035.91 452.816 2038.55 447.789 2043.84 444.296C2049.17 440.756 2056.16 438.986 2064.79 438.986C2069.47 438.986 2073.83 439.458 2077.89 440.402C2082 441.299 2085.82 442.526 2089.36 444.084L2085.4 453.5C2082.19 452.132 2078.77 450.975 2075.13 450.031C2071.5 449.087 2067.79 448.615 2064.02 448.615C2058.59 448.615 2054.41 449.512 2051.48 451.306C2048.6 453.099 2047.17 455.554 2047.17 458.669C2047.17 461.076 2047.83 463.059 2049.15 464.616C2050.52 466.174 2052.69 467.637 2055.66 469.006C2058.63 470.375 2062.55 471.979 2067.41 473.82C2072.28 475.614 2076.48 477.478 2080.02 479.414C2083.56 481.302 2086.27 483.614 2088.16 486.352C2090.09 489.042 2091.06 492.512 2091.06 496.76ZM2174.04 440.402V518H2164.41L2162.71 507.097H2162.07C2160.47 509.787 2158.39 512.053 2155.84 513.894C2153.3 515.734 2150.42 517.103 2147.21 518C2144.04 518.944 2140.67 519.416 2137.08 519.416C2130.95 519.416 2125.8 518.425 2121.65 516.442C2117.49 514.46 2114.35 511.392 2112.23 507.238C2110.15 503.085 2109.12 497.751 2109.12 491.237V440.402H2121.01V490.388C2121.01 496.854 2122.47 501.692 2125.4 504.902C2128.33 508.064 2132.79 509.646 2138.78 509.646C2144.54 509.646 2149.12 508.56 2152.52 506.389C2155.96 504.217 2158.44 501.031 2159.95 496.831C2161.46 492.583 2162.22 487.39 2162.22 481.254V440.402H2174.04ZM2227.92 439.128C2237.17 439.128 2244.04 441.205 2248.52 445.358C2253.01 449.512 2255.25 456.144 2255.25 465.253V518H2246.68L2244.42 506.53H2243.85C2241.68 509.362 2239.41 511.746 2237.05 513.681C2234.69 515.569 2231.96 517.009 2228.84 518C2225.77 518.944 2222 519.416 2217.51 519.416C2212.79 519.416 2208.59 518.59 2204.91 516.938C2201.27 515.286 2198.4 512.784 2196.27 509.433C2194.19 506.082 2193.16 501.834 2193.16 496.689C2193.16 488.948 2196.22 483.001 2202.36 478.847C2208.5 474.694 2217.84 472.428 2230.4 472.05L2243.78 471.484V466.74C2243.78 460.038 2242.34 455.341 2239.46 452.651C2236.58 449.96 2232.52 448.615 2227.28 448.615C2223.22 448.615 2219.35 449.205 2215.67 450.385C2211.99 451.565 2208.5 452.958 2205.19 454.562L2201.58 445.642C2205.07 443.848 2209.09 442.314 2213.62 441.04C2218.15 439.765 2222.92 439.128 2227.92 439.128ZM2243.64 479.768L2231.81 480.263C2222.14 480.641 2215.32 482.222 2211.35 485.007C2207.39 487.792 2205.4 491.733 2205.4 496.831C2205.4 501.267 2206.75 504.548 2209.44 506.672C2212.13 508.796 2215.69 509.858 2220.13 509.858C2227.02 509.858 2232.66 507.946 2237.05 504.123C2241.44 500.3 2243.64 494.565 2243.64 486.918V479.768ZM2247.96 430.136H2241.3C2238.89 428.484 2236.39 426.643 2233.8 424.614C2231.25 422.584 2228.77 420.413 2226.36 418.1C2223.86 420.413 2221.33 422.584 2218.79 424.614C2216.28 426.643 2213.83 428.484 2211.42 430.136H2204.7V428.437C2206.35 426.643 2208.1 424.732 2209.94 422.702C2211.78 420.673 2213.59 418.572 2215.39 416.401C2217.18 414.23 2218.81 412.082 2220.27 409.958H2232.45C2233.91 412.082 2235.52 414.23 2237.27 416.401C2239.06 418.572 2240.88 420.673 2242.72 422.702C2244.56 424.732 2246.3 426.643 2247.96 428.437V430.136ZM2242.36 414.702C2244.3 412.342 2245.93 410.1 2247.25 407.976C2248.62 405.852 2250.06 403.279 2251.57 400.258H2263.39V401.745C2261.36 404.483 2259.1 407.102 2256.59 409.604C2254.14 412.058 2251.66 414.3 2249.16 416.33H2242.36V414.702ZM2304.53 509.787C2306.46 509.787 2308.44 509.622 2310.47 509.292C2312.5 508.961 2314.15 508.56 2315.43 508.088V517.221C2314.06 517.835 2312.15 518.354 2309.69 518.779C2307.29 519.204 2304.93 519.416 2302.61 519.416C2298.51 519.416 2294.78 518.708 2291.43 517.292C2288.08 515.829 2285.39 513.374 2283.36 509.929C2281.37 506.483 2280.38 501.716 2280.38 495.627V449.606H2269.34V443.872L2280.45 439.27L2285.13 422.419H2292.21V440.402H2314.93V449.606H2292.21V495.273C2292.21 500.135 2293.32 503.769 2295.53 506.176C2297.8 508.583 2300.8 509.787 2304.53 509.787ZM2397.84 439.128C2407.09 439.128 2413.96 441.205 2418.44 445.358C2422.93 449.512 2425.17 456.144 2425.17 465.253V518H2416.6L2414.34 506.53H2413.77C2411.6 509.362 2409.33 511.746 2406.97 513.681C2404.61 515.569 2401.88 517.009 2398.76 518C2395.69 518.944 2391.92 519.416 2387.43 519.416C2382.71 519.416 2378.51 518.59 2374.83 516.938C2371.2 515.286 2368.32 512.784 2366.19 509.433C2364.12 506.082 2363.08 501.834 2363.08 496.689C2363.08 488.948 2366.15 483.001 2372.28 478.847C2378.42 474.694 2387.76 472.428 2400.32 472.05L2413.7 471.484V466.74C2413.7 460.038 2412.26 455.341 2409.38 452.651C2406.5 449.96 2402.44 448.615 2397.2 448.615C2393.14 448.615 2389.27 449.205 2385.59 450.385C2381.91 451.565 2378.42 452.958 2375.11 454.562L2371.5 445.642C2375 443.848 2379.01 442.314 2383.54 441.04C2388.07 439.765 2392.84 439.128 2397.84 439.128ZM2413.56 479.768L2401.74 480.263C2392.06 480.641 2385.24 482.222 2381.27 485.007C2377.31 487.792 2375.33 491.733 2375.33 496.831C2375.33 501.267 2376.67 504.548 2379.36 506.672C2382.05 508.796 2385.62 509.858 2390.05 509.858C2396.94 509.858 2402.58 507.946 2406.97 504.123C2411.36 500.3 2413.56 494.565 2413.56 486.918V479.768ZM2419.22 411.02C2418.89 414.843 2417.81 418.194 2415.97 421.074C2414.17 423.906 2411.67 426.124 2408.46 427.729C2405.25 429.334 2401.38 430.136 2396.85 430.136C2389.91 430.136 2384.65 428.413 2381.06 424.968C2377.52 421.522 2375.56 416.873 2375.19 411.02H2382.55C2382.83 413.663 2383.56 415.669 2384.74 417.038C2385.92 418.407 2387.55 419.351 2389.63 419.87C2391.71 420.342 2394.21 420.578 2397.13 420.578C2399.73 420.578 2402.07 420.319 2404.14 419.799C2406.22 419.233 2407.92 418.265 2409.24 416.896C2410.56 415.48 2411.39 413.522 2411.72 411.02H2419.22ZM2486.13 438.986C2495.33 438.986 2502.3 441.252 2507.02 445.783C2511.74 450.267 2514.1 457.489 2514.1 467.448V518H2502.48V468.227C2502.48 461.761 2501 456.923 2498.02 453.713C2495.1 450.503 2490.59 448.898 2484.5 448.898C2475.91 448.898 2469.87 451.329 2466.38 456.191C2462.88 461.053 2461.14 468.109 2461.14 477.36V518H2449.38V440.402H2458.87L2460.64 451.589H2461.28C2462.93 448.851 2465.03 446.562 2467.58 444.721C2470.13 442.833 2472.98 441.417 2476.15 440.473C2479.31 439.482 2482.64 438.986 2486.13 438.986ZM2607.06 519.416C2600.07 519.416 2593.91 517.976 2588.58 515.097C2583.24 512.218 2579.09 507.828 2576.12 501.928C2573.14 496.028 2571.66 488.594 2571.66 479.626C2571.66 470.233 2573.21 462.563 2576.33 456.616C2579.49 450.621 2583.83 446.184 2589.36 443.305C2594.88 440.426 2601.16 438.986 2608.19 438.986C2612.06 438.986 2615.79 439.388 2619.38 440.19C2623.01 440.945 2625.99 441.913 2628.3 443.093L2624.76 452.934C2622.4 451.99 2619.66 451.14 2616.54 450.385C2613.48 449.63 2610.6 449.252 2607.91 449.252C2602.53 449.252 2598.04 450.409 2594.46 452.722C2590.92 455.035 2588.25 458.433 2586.45 462.917C2584.71 467.401 2583.83 472.924 2583.83 479.484C2583.83 485.762 2584.68 491.119 2586.38 495.556C2588.13 499.993 2590.7 503.391 2594.1 505.751C2597.55 508.064 2601.84 509.221 2606.99 509.221C2611.09 509.221 2614.8 508.796 2618.1 507.946C2621.41 507.049 2624.4 506.011 2627.09 504.831V515.31C2624.5 516.631 2621.6 517.646 2618.39 518.354C2615.22 519.062 2611.45 519.416 2607.06 519.416ZM2657.26 407.834V440.756C2657.26 442.644 2657.21 444.556 2657.11 446.491C2657.02 448.379 2656.85 450.126 2656.62 451.73H2657.4C2659 448.993 2661.03 446.704 2663.49 444.863C2665.99 442.975 2668.82 441.559 2671.98 440.615C2675.14 439.624 2678.5 439.128 2682.04 439.128C2688.27 439.128 2693.46 440.119 2697.61 442.102C2701.81 444.084 2704.95 447.152 2707.03 451.306C2709.15 455.459 2710.21 460.84 2710.21 467.448V518H2698.6V468.227C2698.6 461.761 2697.12 456.923 2694.14 453.713C2691.22 450.503 2686.71 448.898 2680.62 448.898C2674.86 448.898 2670.26 450.008 2666.81 452.226C2663.42 454.397 2660.96 457.607 2659.45 461.855C2657.99 466.103 2657.26 471.295 2657.26 477.431V518H2645.5V407.834H2657.26ZM2801.33 479.06C2801.33 485.432 2800.51 491.119 2798.86 496.123C2797.2 501.126 2794.82 505.35 2791.71 508.796C2788.59 512.242 2784.81 514.885 2780.38 516.726C2775.99 518.519 2771.01 519.416 2765.44 519.416C2760.25 519.416 2755.48 518.519 2751.14 516.726C2746.84 514.885 2743.11 512.242 2739.95 508.796C2736.84 505.35 2734.4 501.126 2732.66 496.123C2730.96 491.119 2730.11 485.432 2730.11 479.06C2730.11 470.563 2731.55 463.342 2734.43 457.395C2737.31 451.4 2741.41 446.845 2746.75 443.73C2752.13 440.568 2758.52 438.986 2765.93 438.986C2773.01 438.986 2779.2 440.568 2784.48 443.73C2789.82 446.892 2793.95 451.471 2796.87 457.465C2799.85 463.413 2801.33 470.611 2801.33 479.06ZM2742.29 479.06C2742.29 485.29 2743.11 490.694 2744.77 495.273C2746.42 499.851 2748.97 503.391 2752.41 505.893C2755.86 508.395 2760.29 509.646 2765.72 509.646C2771.1 509.646 2775.52 508.395 2778.96 505.893C2782.45 503.391 2785.03 499.851 2786.68 495.273C2788.33 490.694 2789.16 485.29 2789.16 479.06C2789.16 472.876 2788.33 467.543 2786.68 463.059C2785.03 458.527 2782.48 455.035 2779.03 452.58C2775.59 450.126 2771.13 448.898 2765.65 448.898C2757.58 448.898 2751.66 451.565 2747.88 456.899C2744.15 462.233 2742.29 469.619 2742.29 479.06ZM2896.07 438.986C2905.27 438.986 2912.23 441.252 2916.95 445.783C2921.67 450.267 2924.03 457.489 2924.03 467.448V518H2912.42V468.227C2912.42 461.761 2910.93 456.923 2907.96 453.713C2905.03 450.503 2900.53 448.898 2894.44 448.898C2885.85 448.898 2879.81 451.329 2876.31 456.191C2872.82 461.053 2871.07 468.109 2871.07 477.36V518H2859.32V440.402H2868.81L2870.58 451.589H2871.22C2872.87 448.851 2874.97 446.562 2877.52 444.721C2880.07 442.833 2882.92 441.417 2886.08 440.473C2889.25 439.482 2892.57 438.986 2896.07 438.986ZM2960 407.834V440.756C2960 442.644 2959.95 444.556 2959.86 446.491C2959.76 448.379 2959.6 450.126 2959.36 451.73H2960.14C2961.75 448.993 2963.78 446.704 2966.23 444.863C2968.73 442.975 2971.56 441.559 2974.73 440.615C2977.89 439.624 2981.24 439.128 2984.78 439.128C2991.01 439.128 2996.2 440.119 3000.36 442.102C3004.56 444.084 3007.7 447.152 3009.77 451.306C3011.9 455.459 3012.96 460.84 3012.96 467.448V518H3001.35V468.227C3001.35 461.761 2999.86 456.923 2996.89 453.713C2993.96 450.503 2989.45 448.898 2983.36 448.898C2977.61 448.898 2973 450.008 2969.56 452.226C2966.16 454.397 2963.7 457.607 2962.19 461.855C2960.73 466.103 2960 471.295 2960 477.431V518H2948.25V407.834H2960ZM3066.2 439.128C3075.45 439.128 3082.32 441.205 3086.8 445.358C3091.29 449.512 3093.53 456.144 3093.53 465.253V518H3084.96L3082.7 506.53H3082.13C3079.96 509.362 3077.69 511.746 3075.33 513.681C3072.97 515.569 3070.24 517.009 3067.12 518C3064.05 518.944 3060.28 519.416 3055.79 519.416C3051.07 519.416 3046.87 518.59 3043.19 516.938C3039.56 515.286 3036.68 512.784 3034.55 509.433C3032.48 506.082 3031.44 501.834 3031.44 496.689C3031.44 488.948 3034.51 483.001 3040.64 478.847C3046.78 474.694 3056.12 472.428 3068.68 472.05L3082.06 471.484V466.74C3082.06 460.038 3080.62 455.341 3077.74 452.651C3074.86 449.96 3070.8 448.615 3065.56 448.615C3061.5 448.615 3057.63 449.205 3053.95 450.385C3050.27 451.565 3046.78 452.958 3043.47 454.562L3039.86 445.642C3043.36 443.848 3047.37 442.314 3051.9 441.04C3056.43 439.765 3061.2 439.128 3066.2 439.128ZM3081.92 479.768L3070.09 480.263C3060.42 480.641 3053.6 482.222 3049.63 485.007C3045.67 487.792 3043.69 491.733 3043.69 496.831C3043.69 501.267 3045.03 504.548 3047.72 506.672C3050.41 508.796 3053.98 509.858 3058.41 509.858C3065.3 509.858 3070.94 507.946 3075.33 504.123C3079.72 500.3 3081.92 494.565 3081.92 486.918V479.768ZM3071.16 406.984C3072.34 409.108 3073.99 411.516 3076.11 414.206C3078.24 416.849 3080.48 419.445 3082.84 421.994C3085.2 424.543 3087.3 426.738 3089.14 428.579V430.136H3080.79C3078.24 428.484 3075.62 426.455 3072.93 424.047C3070.24 421.64 3067.62 419.139 3065.07 416.542C3062.52 419.139 3059.92 421.64 3057.28 424.047C3054.68 426.407 3052.11 428.437 3049.56 430.136H3041.49V428.579C3043.28 426.691 3045.31 424.472 3047.58 421.923C3049.89 419.375 3052.09 416.778 3054.16 414.135C3056.29 411.492 3057.96 409.108 3059.19 406.984H3071.16ZM3154.49 438.986C3163.69 438.986 3170.66 441.252 3175.38 445.783C3180.1 450.267 3182.46 457.489 3182.46 467.448V518H3170.84V468.227C3170.84 461.761 3169.36 456.923 3166.38 453.713C3163.46 450.503 3158.95 448.898 3152.86 448.898C3144.27 448.898 3138.23 451.329 3134.74 456.191C3131.24 461.053 3129.5 468.109 3129.5 477.36V518H3117.74V440.402H3127.23L3129 451.589H3129.64C3131.29 448.851 3133.39 446.562 3135.94 444.721C3138.49 442.833 3141.34 441.417 3144.51 440.473C3147.67 439.482 3151 438.986 3154.49 438.986ZM3261.4 518L3231.95 440.402H3244.55L3261.61 487.343C3262.79 490.553 3263.99 494.093 3265.22 497.963C3266.45 501.834 3267.3 504.949 3267.77 507.309H3268.27C3268.83 504.949 3269.78 501.834 3271.1 497.963C3272.42 494.046 3273.62 490.506 3274.71 487.343L3291.77 440.402H3304.37L3274.85 518H3261.4ZM3328.59 440.402V518H3316.84V440.402H3328.59ZM3322.85 411.374C3324.79 411.374 3326.44 412.011 3327.81 413.286C3329.23 414.513 3329.93 416.448 3329.93 419.091C3329.93 421.687 3329.23 423.623 3327.81 424.897C3326.44 426.171 3324.79 426.809 3322.85 426.809C3320.82 426.809 3319.12 426.171 3317.76 424.897C3316.43 423.623 3315.77 421.687 3315.77 419.091C3315.77 416.448 3316.43 414.513 3317.76 413.286C3319.12 412.011 3320.82 411.374 3322.85 411.374ZM3383.39 438.986C3390 438.986 3395.66 440.45 3400.38 443.376C3405.1 446.302 3408.71 450.409 3411.21 455.695C3413.71 460.935 3414.97 467.071 3414.97 474.104V481.396H3361.37C3361.51 490.506 3363.78 497.444 3368.17 502.211C3372.56 506.979 3378.74 509.362 3386.72 509.362C3391.62 509.362 3395.97 508.914 3399.74 508.017C3403.52 507.12 3407.44 505.799 3411.5 504.052V514.389C3407.58 516.136 3403.68 517.41 3399.81 518.212C3395.99 519.015 3391.46 519.416 3386.22 519.416C3378.76 519.416 3372.25 517.906 3366.68 514.885C3361.16 511.817 3356.86 507.333 3353.79 501.433C3350.73 495.533 3349.19 488.311 3349.19 479.768C3349.19 471.413 3350.58 464.191 3353.37 458.103C3356.2 451.966 3360.17 447.246 3365.26 443.942C3370.41 440.638 3376.45 438.986 3383.39 438.986ZM3383.25 448.615C3376.97 448.615 3371.97 450.668 3368.24 454.775C3364.51 458.881 3362.29 464.616 3361.58 471.979H3402.65C3402.6 467.354 3401.87 463.295 3400.45 459.802C3399.08 456.262 3396.98 453.524 3394.15 451.589C3391.32 449.606 3387.68 448.615 3383.25 448.615ZM3388.49 406.984C3389.67 409.108 3391.32 411.516 3393.44 414.206C3395.57 416.849 3397.81 419.445 3400.17 421.994C3402.53 424.543 3404.63 426.738 3406.47 428.579V430.136H3398.11C3395.57 428.484 3392.95 426.455 3390.26 424.047C3387.57 421.64 3384.95 419.139 3382.4 416.542C3379.85 419.139 3377.25 421.64 3374.61 424.047C3372.01 426.407 3369.44 428.437 3366.89 430.136H3358.82V428.579C3360.61 426.691 3362.64 424.472 3364.91 421.923C3367.22 419.375 3369.42 416.778 3371.49 414.135C3373.62 411.492 3375.29 409.108 3376.52 406.984H3388.49ZM3471.68 438.986C3480.88 438.986 3487.84 441.252 3492.56 445.783C3497.28 450.267 3499.64 457.489 3499.64 467.448V518H3488.03V468.227C3488.03 461.761 3486.54 456.923 3483.57 453.713C3480.64 450.503 3476.14 448.898 3470.05 448.898C3461.46 448.898 3455.42 451.329 3451.92 456.191C3448.43 461.053 3446.68 468.109 3446.68 477.36V518H3434.93V440.402H3444.42L3446.19 451.589H3446.83C3448.48 448.851 3450.58 446.562 3453.13 444.721C3455.68 442.833 3458.53 441.417 3461.69 440.473C3464.86 439.482 3468.18 438.986 3471.68 438.986Z" fill="black" fill-opacity="0.4"/>
<defs>
<clipPath id="clip0_415_81">
<rect width="400" height="400" fill="white" transform="translate(121 103)"/>
</clipPath>
</defs>
</svg>
