<svg width="4013" height="606" viewBox="0 0 4013 606" fill="none" xmlns="http://www.w3.org/2000/svg">
<path d="M151.47 565.053L20.0819 388.692C9.42681 374.387 2.73301 357.543 0.679011 339.849C-1.38109 322.158 1.2658 304.241 8.35698 287.888L96.0858 86.5569C103.171 70.2297 114.449 56.0503 128.785 45.4462C143.12 34.8426 160.01 28.1893 177.75 26.157L397.007 0.65567C414.754 -1.36188 432.721 1.29605 449.109 8.36183C465.493 15.4282 479.737 26.6557 490.403 40.9217L621.793 217.288C632.447 231.592 639.14 248.434 641.196 266.125C643.253 283.818 640.607 301.736 633.517 318.088L545.787 519.421C538.698 535.743 527.411 549.912 513.076 560.517C498.74 571.113 481.857 577.776 464.123 579.821L244.866 605.318C227.119 607.382 209.141 604.741 192.739 597.669C176.344 590.602 162.113 579.353 151.47 565.053Z" fill="#750E21"/>
<path d="M304.533 479.695C305.312 479.672 306.624 480.456 307.122 481.617C305.895 481.498 305.48 481 304.533 479.695Z" fill="#750E21"/>
<path d="M322.835 469.666C300.862 469.711 279.141 464.992 259.168 455.833C256.188 454.388 253.882 451.846 252.733 448.74C251.584 445.634 251.68 442.203 253.001 439.166C254.414 436.157 256.954 433.824 260.072 432.67C263.19 431.516 266.636 431.635 269.668 433C285.916 440.394 303.528 444.316 321.378 444.517C339.228 444.718 356.924 441.193 373.335 434.166C376.37 433.018 379.731 433.078 382.724 434.336C385.716 435.593 388.112 437.951 389.416 440.923C390.72 443.895 390.834 447.255 389.733 450.309C388.633 453.362 386.402 455.877 383.501 457.333C364.343 465.576 343.69 469.775 322.835 469.666Z" fill="white"/>
<path d="M461.667 315.5C458.555 315.476 455.561 314.308 453.256 312.217C450.95 310.127 449.495 307.261 449.167 304.166C447.316 286.806 441.923 270.01 433.323 254.817C424.723 239.624 413.098 226.356 399.167 215.833C396.817 213.714 395.345 210.792 395.041 207.641C394.737 204.491 395.624 201.341 397.526 198.812C399.428 196.283 402.208 194.557 405.319 193.975C408.43 193.393 411.646 193.996 414.334 195.666C431.074 208.271 445.041 224.187 455.363 242.424C465.686 260.66 472.143 280.826 474.334 301.666C474.519 303.31 474.376 304.973 473.913 306.56C473.45 308.148 472.677 309.628 471.639 310.914C470.6 312.201 469.317 313.269 467.862 314.056C466.408 314.843 464.812 315.334 463.167 315.5H461.667Z" fill="white"/>
<path d="M184 315.5H182.667C179.402 315.044 176.449 313.318 174.452 310.695C172.454 308.073 171.573 304.768 172 301.5C174.204 280.292 180.831 259.783 191.453 241.295C202.075 222.807 216.456 206.752 233.667 194.167C234.98 192.957 236.533 192.039 238.226 191.473C239.919 190.906 241.712 190.703 243.489 190.878C245.265 191.053 246.984 191.602 248.534 192.488C250.084 193.373 251.429 194.577 252.481 196.019C253.533 197.461 254.268 199.109 254.638 200.855C255.009 202.601 255.006 204.406 254.63 206.151C254.254 207.896 253.514 209.542 252.457 210.981C251.401 212.42 250.052 213.619 248.5 214.5C234.029 224.964 221.922 238.355 212.963 253.803C204.005 269.25 198.395 286.41 196.5 304.167C196.173 307.261 194.717 310.127 192.412 312.218C190.106 314.308 187.112 315.476 184 315.5Z" fill="white"/>
<path d="M321.668 233.333C348.454 233.333 370.168 211.619 370.168 184.833C370.168 158.047 348.454 136.333 321.668 136.333C294.882 136.333 273.168 158.047 273.168 184.833C273.168 211.619 294.882 233.333 321.668 233.333Z" fill="white"/>
<path d="M205.334 432.5C232.12 432.5 253.834 410.786 253.834 384C253.834 357.214 232.12 335.5 205.334 335.5C178.548 335.5 156.834 357.214 156.834 384C156.834 410.786 178.548 432.5 205.334 432.5Z" fill="white"/>
<path d="M438.668 432.5C465.454 432.5 487.168 410.786 487.168 384C487.168 357.214 465.454 335.5 438.668 335.5C411.882 335.5 390.168 357.214 390.168 384C390.168 410.786 411.882 432.5 438.668 432.5Z" fill="white"/>
<path d="M782.56 320V83.2H865.12C882.613 83.2 897.227 86.9333 908.96 94.4C920.693 101.653 929.44 111.04 935.2 122.56C941.173 134.08 944.16 146.027 944.16 158.4C944.16 171.2 941.173 183.36 935.2 194.88C929.44 206.4 920.693 215.893 908.96 223.36C897.227 230.613 882.613 234.24 865.12 234.24H807.2V320H782.56ZM865.12 105.28H807.2V212.16H865.12C877.28 212.16 887.413 209.6 895.52 204.48C903.627 199.36 909.707 192.747 913.76 184.64C917.813 176.32 919.84 167.68 919.84 158.72C919.84 149.76 917.813 141.227 913.76 133.12C909.707 124.8 903.627 118.08 895.52 112.96C887.413 107.84 877.28 105.28 865.12 105.28ZM1046.7 147.2C1058.43 147.2 1068.14 149.227 1075.82 153.28C1083.5 157.12 1089.58 161.707 1094.06 167.04C1098.75 172.373 1102.16 176.96 1104.3 180.8H1106.22V150.4H1129.9V320H1106.22V289.6H1104.3C1102.16 293.653 1098.75 298.347 1094.06 303.68C1089.58 308.8 1083.5 313.387 1075.82 317.44C1068.14 321.28 1058.43 323.2 1046.7 323.2C1033.9 323.2 1022.7 320.747 1013.1 315.84C1003.5 310.72 995.495 304 989.095 295.68C982.695 287.147 977.895 277.653 974.695 267.2C971.708 256.747 970.215 246.08 970.215 235.2C970.215 224.32 971.708 213.653 974.695 203.2C977.895 192.747 982.695 183.36 989.095 175.04C995.495 166.507 1003.5 159.787 1013.1 154.88C1022.7 149.76 1033.9 147.2 1046.7 147.2ZM1050.22 168C1037.63 168 1027.18 171.307 1018.86 177.92C1010.54 184.533 1004.35 192.96 1000.3 203.2C996.242 213.44 994.215 224.107 994.215 235.2C994.215 246.293 996.242 256.96 1000.3 267.2C1004.35 277.44 1010.54 285.867 1018.86 292.48C1027.18 299.093 1037.63 302.4 1050.22 302.4C1062.59 302.4 1072.83 299.093 1080.94 292.48C1089.26 285.867 1095.44 277.44 1099.5 267.2C1103.76 256.96 1105.9 246.293 1105.9 235.2C1105.9 224.107 1103.76 213.44 1099.5 203.2C1095.44 192.96 1089.26 184.533 1080.94 177.92C1072.83 171.307 1062.59 168 1050.22 168ZM1177.81 320V150.4H1201.81V172.48H1203.09C1206.51 165.653 1211.73 159.787 1218.77 154.88C1225.81 149.76 1235.63 147.2 1248.21 147.2C1252.27 147.2 1255.79 147.413 1258.77 147.84C1261.97 148.267 1263.57 148.48 1263.57 148.48V171.52C1263.57 171.52 1261.87 171.307 1258.45 170.88C1255.04 170.453 1251.41 170.24 1247.57 170.24C1238.83 170.24 1230.93 172.053 1223.89 175.68C1217.07 179.093 1211.63 185.067 1207.57 193.6C1203.73 201.92 1201.81 213.333 1201.81 227.84V320H1177.81ZM1359.2 147.2C1370.93 147.2 1380.64 149.227 1388.32 153.28C1396 157.12 1402.08 161.707 1406.56 167.04C1411.25 172.373 1414.66 176.96 1416.8 180.8H1418.72V150.4H1442.4V320H1418.72V289.6H1416.8C1414.66 293.653 1411.25 298.347 1406.56 303.68C1402.08 308.8 1396 313.387 1388.32 317.44C1380.64 321.28 1370.93 323.2 1359.2 323.2C1346.4 323.2 1335.2 320.747 1325.6 315.84C1316 310.72 1308 304 1301.6 295.68C1295.2 287.147 1290.4 277.653 1287.2 267.2C1284.21 256.747 1282.72 246.08 1282.72 235.2C1282.72 224.32 1284.21 213.653 1287.2 203.2C1290.4 192.747 1295.2 183.36 1301.6 175.04C1308 166.507 1316 159.787 1325.6 154.88C1335.2 149.76 1346.4 147.2 1359.2 147.2ZM1362.72 168C1350.13 168 1339.68 171.307 1331.36 177.92C1323.04 184.533 1316.85 192.96 1312.8 203.2C1308.74 213.44 1306.72 224.107 1306.72 235.2C1306.72 246.293 1308.74 256.96 1312.8 267.2C1316.85 277.44 1323.04 285.867 1331.36 292.48C1339.68 299.093 1350.13 302.4 1362.72 302.4C1375.09 302.4 1385.33 299.093 1393.44 292.48C1401.76 285.867 1407.94 277.44 1412 267.2C1416.26 256.96 1418.4 246.293 1418.4 235.2C1418.4 224.107 1416.26 213.44 1412 203.2C1407.94 192.96 1401.76 184.533 1393.44 177.92C1385.33 171.307 1375.09 168 1362.72 168ZM1561.7 323.2C1548.9 323.2 1537.7 320.747 1528.1 315.84C1518.5 310.72 1510.5 304 1504.1 295.68C1497.7 287.147 1492.9 277.653 1489.7 267.2C1486.71 256.747 1485.22 246.08 1485.22 235.2C1485.22 224.32 1486.71 213.653 1489.7 203.2C1492.9 192.747 1497.7 183.36 1504.1 175.04C1510.5 166.507 1518.5 159.787 1528.1 154.88C1537.7 149.76 1548.9 147.2 1561.7 147.2C1573.43 147.2 1583.14 149.227 1590.82 153.28C1598.5 157.12 1604.58 161.707 1609.06 167.04C1613.75 172.373 1617.16 176.96 1619.3 180.8H1621.22V76.8H1644.9V320H1621.22V289.6H1619.3C1617.16 293.653 1613.75 298.347 1609.06 303.68C1604.58 308.8 1598.5 313.387 1590.82 317.44C1583.14 321.28 1573.43 323.2 1561.7 323.2ZM1565.22 302.4C1577.59 302.4 1587.83 299.093 1595.94 292.48C1604.26 285.867 1610.44 277.44 1614.5 267.2C1618.76 256.96 1620.9 246.293 1620.9 235.2C1620.9 224.107 1618.76 213.44 1614.5 203.2C1610.44 192.96 1604.26 184.533 1595.94 177.92C1587.83 171.307 1577.59 168 1565.22 168C1552.63 168 1542.18 171.307 1533.86 177.92C1525.54 184.533 1519.35 192.96 1515.3 203.2C1511.24 213.44 1509.22 224.107 1509.22 235.2C1509.22 246.293 1511.24 256.96 1515.3 267.2C1519.35 277.44 1525.54 285.867 1533.86 292.48C1542.18 299.093 1552.63 302.4 1565.22 302.4ZM1711.31 117.76C1706.4 117.76 1702.35 116.053 1699.15 112.64C1695.95 109.227 1694.35 105.28 1694.35 100.8C1694.35 96.1067 1695.95 92.16 1699.15 88.96C1702.35 85.5467 1706.4 83.84 1711.31 83.84C1716 83.84 1719.95 85.5467 1723.15 88.96C1726.56 92.16 1728.27 96.1067 1728.27 100.8C1728.27 105.493 1726.56 109.547 1723.15 112.96C1719.95 116.16 1716 117.76 1711.31 117.76ZM1699.47 320V150.4H1723.47V320H1699.47ZM1832.92 323.2C1820.12 323.2 1809.56 321.387 1801.24 317.76C1793.13 314.133 1786.63 309.653 1781.72 304.32C1777.03 298.987 1773.61 293.653 1771.48 288.32C1769.35 282.987 1767.96 278.507 1767.32 274.88C1766.68 271.253 1766.36 269.44 1766.36 269.44H1791C1791 269.44 1791.32 271.147 1791.96 274.56C1792.6 277.76 1794.2 281.6 1796.76 286.08C1799.53 290.347 1803.8 294.187 1809.56 297.6C1815.32 300.8 1823.21 302.4 1833.24 302.4C1844.12 302.4 1852.76 299.627 1859.16 294.08C1865.56 288.533 1868.76 281.707 1868.76 273.6C1868.76 265.92 1866.09 259.947 1860.76 255.68C1855.64 251.413 1848.71 248.32 1839.96 246.4L1817.56 241.28C1809.03 239.147 1801.24 236.267 1794.2 232.64C1787.16 229.013 1781.51 224.213 1777.24 218.24C1772.97 212.053 1770.84 204.48 1770.84 195.52C1770.84 181.227 1776.07 169.6 1786.52 160.64C1796.97 151.68 1810.63 147.2 1827.48 147.2C1838.79 147.2 1848.07 148.907 1855.32 152.32C1862.79 155.52 1868.65 159.573 1872.92 164.48C1877.4 169.387 1880.6 174.293 1882.52 179.2C1884.65 183.893 1886.04 187.947 1886.68 191.36C1887.32 194.56 1887.64 196.16 1887.64 196.16H1864.28C1864.28 196.16 1863.85 194.773 1863 192C1862.36 189.013 1860.87 185.707 1858.52 182.08C1856.39 178.24 1852.76 174.933 1847.64 172.16C1842.73 169.173 1836.01 167.68 1827.48 167.68C1816.39 167.68 1808.07 170.347 1802.52 175.68C1797.19 181.013 1794.52 187.093 1794.52 193.92C1794.52 200.533 1796.87 205.76 1801.56 209.6C1806.47 213.44 1813.08 216.32 1821.4 218.24L1844.12 223.68C1858.41 227.093 1870.04 232.747 1879 240.64C1887.96 248.32 1892.44 258.987 1892.44 272.64C1892.44 281.813 1889.99 290.24 1885.08 297.92C1880.39 305.6 1873.56 311.787 1864.6 316.48C1855.85 320.96 1845.29 323.2 1832.92 323.2ZM2005.82 323.2C1992.16 323.2 1980.32 320.747 1970.3 315.84C1960.27 310.72 1952.06 303.893 1945.66 295.36C1939.26 286.827 1934.46 277.333 1931.26 266.88C1928.27 256.427 1926.78 245.867 1926.78 235.2C1926.78 224.533 1928.27 213.973 1931.26 203.52C1934.46 193.067 1939.26 183.573 1945.66 175.04C1952.06 166.507 1960.06 159.787 1969.66 154.88C1979.47 149.76 1991.1 147.2 2004.54 147.2C2018.62 147.2 2031.1 150.507 2041.98 157.12C2053.07 163.733 2061.71 173.547 2067.9 186.56C2074.3 199.36 2077.5 215.467 2077.5 234.88V241.92H1951.1C1951.52 252.8 1953.87 262.827 1958.14 272C1962.62 281.173 1968.8 288.533 1976.7 294.08C1984.8 299.627 1994.51 302.4 2005.82 302.4C2015.2 302.4 2022.99 300.8 2029.18 297.6C2035.36 294.187 2040.06 290.347 2043.26 286.08C2046.67 281.6 2049.02 277.76 2050.3 274.56C2051.79 271.36 2052.54 269.76 2052.54 269.76H2075.26C2075.26 269.76 2074.72 271.573 2073.66 275.2C2072.59 278.613 2070.67 282.987 2067.9 288.32C2065.12 293.653 2061.07 298.987 2055.74 304.32C2050.62 309.653 2044 314.133 2035.9 317.76C2027.79 321.387 2017.76 323.2 2005.82 323.2ZM1951.42 222.72H2053.5C2052.86 209.707 2050.19 199.253 2045.5 191.36C2041.02 183.253 2035.15 177.387 2027.9 173.76C2020.64 170.133 2012.86 168.32 2004.54 168.32C1989.39 168.32 1977.12 173.333 1967.74 183.36C1958.35 193.173 1952.91 206.293 1951.42 222.72Z" fill="#73C41D"/>
<path d="M2183.02 320V120.96H2110.06V83.2H2299.5V120.96H2226.54V320H2183.02ZM2313.97 320V150.4H2356.21V173.76H2357.81C2360.79 167.147 2365.7 161.067 2372.53 155.52C2379.35 149.973 2389.59 147.2 2403.25 147.2C2407.51 147.2 2411.03 147.52 2413.81 148.16C2416.58 148.587 2417.97 148.8 2417.97 148.8V190.08C2417.97 190.08 2416.37 189.867 2413.17 189.44C2410.18 189.013 2406.45 188.8 2401.97 188.8C2387.03 188.8 2375.73 192.96 2368.05 201.28C2360.37 209.6 2356.53 223.04 2356.53 241.6V320H2313.97ZM2510.67 147.2C2521.55 147.2 2530.51 149.013 2537.55 152.64C2544.59 156.053 2550.13 159.893 2554.19 164.16C2558.24 168.213 2561.01 171.52 2562.51 174.08H2564.43V150.4H2606.99V320H2564.43V296.32H2562.51C2561.01 298.88 2558.24 302.293 2554.19 306.56C2550.13 310.827 2544.59 314.667 2537.55 318.08C2530.51 321.493 2521.55 323.2 2510.67 323.2C2498.08 323.2 2487.09 320.747 2477.71 315.84C2468.32 310.72 2460.43 304 2454.03 295.68C2447.84 287.147 2443.15 277.653 2439.95 267.2C2436.96 256.747 2435.47 246.08 2435.47 235.2C2435.47 224.32 2436.96 213.653 2439.95 203.2C2443.15 192.747 2447.84 183.36 2454.03 175.04C2460.43 166.507 2468.32 159.787 2477.71 154.88C2487.09 149.76 2498.08 147.2 2510.67 147.2ZM2521.87 182.08C2512.27 182.08 2504.16 184.747 2497.55 190.08C2491.15 195.2 2486.35 201.813 2483.15 209.92C2479.95 218.027 2478.35 226.453 2478.35 235.2C2478.35 243.947 2479.95 252.373 2483.15 260.48C2486.35 268.587 2491.15 275.307 2497.55 280.64C2504.16 285.76 2512.27 288.32 2521.87 288.32C2531.47 288.32 2539.47 285.76 2545.87 280.64C2552.27 275.307 2557.07 268.587 2560.27 260.48C2563.47 252.373 2565.07 243.947 2565.07 235.2C2565.07 226.453 2563.47 218.027 2560.27 209.92C2557.07 201.813 2552.27 195.2 2545.87 190.08C2539.47 184.747 2531.47 182.08 2521.87 182.08ZM2673 124.16C2665.54 124.16 2659.35 121.707 2654.44 116.8C2649.75 111.893 2647.4 106.027 2647.4 99.2C2647.4 92.3733 2649.75 86.5066 2654.44 81.6C2659.35 76.6933 2665.54 74.24 2673 74.24C2680.47 74.24 2686.66 76.6933 2691.56 81.6C2696.47 86.5066 2698.92 92.3733 2698.92 99.2C2698.92 106.027 2696.47 111.893 2691.56 116.8C2686.66 121.707 2680.47 124.16 2673 124.16ZM2651.88 320V150.4H2694.44V320H2651.88ZM2738.65 320V150.4H2781.21V174.72H2783.13C2784.84 171.733 2787.51 168.107 2791.13 163.84C2794.76 159.36 2799.77 155.52 2806.17 152.32C2812.57 148.907 2820.68 147.2 2830.49 147.2C2843.51 147.2 2854.17 150.187 2862.49 156.16C2871.03 161.92 2877.32 169.6 2881.37 179.2C2885.64 188.8 2887.77 199.147 2887.77 210.24V320H2845.21V216C2845.21 206.827 2842.65 198.933 2837.53 192.32C2832.41 185.707 2824.73 182.4 2814.49 182.4C2806.6 182.4 2800.2 184.427 2795.29 188.48C2790.39 192.32 2786.76 197.333 2784.41 203.52C2782.28 209.707 2781.21 216.213 2781.21 223.04V320H2738.65ZM2953 124.16C2945.54 124.16 2939.35 121.707 2934.44 116.8C2929.75 111.893 2927.4 106.027 2927.4 99.2C2927.4 92.3733 2929.75 86.5066 2934.44 81.6C2939.35 76.6933 2945.54 74.24 2953 74.24C2960.47 74.24 2966.66 76.6933 2971.56 81.6C2976.47 86.5066 2978.92 92.3733 2978.92 99.2C2978.92 106.027 2976.47 111.893 2971.56 116.8C2966.66 121.707 2960.47 124.16 2953 124.16ZM2931.88 320V150.4H2974.44V320H2931.88ZM3018.65 320V150.4H3061.21V174.72H3063.13C3064.84 171.733 3067.51 168.107 3071.13 163.84C3074.76 159.36 3079.77 155.52 3086.17 152.32C3092.57 148.907 3100.68 147.2 3110.49 147.2C3123.51 147.2 3134.17 150.187 3142.49 156.16C3151.03 161.92 3157.32 169.6 3161.37 179.2C3165.64 188.8 3167.77 199.147 3167.77 210.24V320H3125.21V216C3125.21 206.827 3122.65 198.933 3117.53 192.32C3112.41 185.707 3104.73 182.4 3094.49 182.4C3086.6 182.4 3080.2 184.427 3075.29 188.48C3070.39 192.32 3066.76 197.333 3064.41 203.52C3062.28 209.707 3061.21 216.213 3061.21 223.04V320H3018.65ZM3291.27 387.84C3276.13 387.84 3263.54 385.813 3253.51 381.76C3243.7 377.92 3235.91 373.12 3230.15 367.36C3224.39 361.813 3220.13 356.16 3217.35 350.4C3214.58 344.64 3212.77 339.84 3211.91 336C3211.06 332.16 3210.63 330.24 3210.63 330.24H3252.23C3252.23 330.24 3252.66 331.413 3253.51 333.76C3254.37 336.107 3256.07 338.773 3258.63 341.76C3261.41 344.96 3265.35 347.733 3270.47 350.08C3275.59 352.427 3282.42 353.6 3290.95 353.6C3305.89 353.6 3316.66 349.333 3323.27 340.8C3329.89 332.267 3333.19 321.92 3333.19 309.76V290.88H3331.27C3328.93 294.507 3325.51 298.453 3321.03 302.72C3316.77 306.987 3311.11 310.613 3304.07 313.6C3297.25 316.587 3288.93 318.08 3279.11 318.08C3266.53 318.08 3255.54 315.627 3246.15 310.72C3236.77 305.813 3228.87 299.307 3222.47 291.2C3216.07 283.093 3211.27 274.027 3208.07 264C3205.09 253.76 3203.59 243.307 3203.59 232.64C3203.59 221.973 3205.09 211.627 3208.07 201.6C3211.27 191.36 3216.07 182.187 3222.47 174.08C3228.87 165.76 3236.77 159.253 3246.15 154.56C3255.54 149.653 3266.53 147.2 3279.11 147.2C3288.93 147.2 3297.25 148.693 3304.07 151.68C3311.11 154.667 3316.77 158.293 3321.03 162.56C3325.51 166.613 3328.93 170.453 3331.27 174.08H3333.19V150.4H3375.75V309.44C3375.75 324.16 3372.66 337.387 3366.47 349.12C3360.29 361.067 3350.9 370.453 3338.31 377.28C3325.94 384.32 3310.26 387.84 3291.27 387.84ZM3290.31 283.84C3299.91 283.84 3307.91 281.387 3314.31 276.48C3320.71 271.36 3325.51 264.96 3328.71 257.28C3331.91 249.387 3333.51 241.173 3333.51 232.64C3333.51 223.893 3331.91 215.68 3328.71 208C3325.51 200.107 3320.71 193.707 3314.31 188.8C3307.91 183.893 3299.91 181.44 3290.31 181.44C3280.5 181.44 3272.29 183.893 3265.67 188.8C3259.27 193.707 3254.47 200.107 3251.27 208C3248.07 215.68 3246.47 223.893 3246.47 232.64C3246.47 241.173 3248.07 249.387 3251.27 257.28C3254.47 264.96 3259.27 271.36 3265.67 276.48C3272.29 281.387 3280.5 283.84 3290.31 283.84Z" fill="#750E21"/>
<path d="M851.085 518H837.208L780.78 431.057H780.214C780.355 433.369 780.521 436.013 780.709 438.986C780.898 441.913 781.04 445.052 781.134 448.403C781.276 451.707 781.347 455.082 781.347 458.527V518H770.16V414.489H783.966L840.182 501.149H840.678C840.583 499.497 840.465 497.161 840.324 494.14C840.182 491.072 840.041 487.792 839.899 484.299C839.805 480.759 839.757 477.478 839.757 474.458V414.489H851.085V518ZM907.443 438.986C914.051 438.986 919.715 440.45 924.435 443.376C929.155 446.302 932.766 450.409 935.268 455.695C937.769 460.935 939.02 467.071 939.02 474.104V481.396H885.424C885.565 490.506 887.831 497.444 892.221 502.211C896.61 506.979 902.794 509.362 910.771 509.362C915.679 509.362 920.022 508.914 923.798 508.017C927.574 507.12 931.492 505.799 935.551 504.052V514.389C931.633 516.136 927.739 517.41 923.869 518.212C920.045 519.015 915.514 519.416 910.275 519.416C902.817 519.416 896.304 517.906 890.734 514.885C885.211 511.817 880.916 507.333 877.848 501.433C874.78 495.533 873.246 488.311 873.246 479.768C873.246 471.413 874.639 464.191 877.423 458.103C880.255 451.966 884.22 447.246 889.318 443.942C894.463 440.638 900.504 438.986 907.443 438.986ZM907.301 448.615C901.024 448.615 896.02 450.668 892.292 454.775C888.563 458.881 886.344 464.616 885.636 471.979H926.701C926.653 467.354 925.922 463.295 924.506 459.802C923.137 456.262 921.037 453.524 918.205 451.589C915.373 449.606 911.738 448.615 907.301 448.615ZM885.636 430.136V428.579C887.241 426.785 888.964 424.873 890.805 422.844C892.646 420.814 894.463 418.714 896.256 416.542C898.097 414.371 899.749 412.224 901.212 410.1H913.532C915.042 412.224 916.671 414.371 918.417 416.542C920.211 418.714 922.004 420.814 923.798 422.844C925.639 424.873 927.385 426.785 929.037 428.579V430.136H922.24C919.786 428.484 917.308 426.643 914.806 424.614C912.305 422.584 909.803 420.413 907.301 418.1C904.847 420.413 902.345 422.584 899.796 424.614C897.248 426.643 894.746 428.484 892.292 430.136H885.636ZM884.787 416.33C882.096 414.3 879.524 412.058 877.069 409.604C874.662 407.102 872.42 404.483 870.343 401.745V400.258H882.025C883.536 403.279 884.975 405.875 886.344 408.046C887.713 410.17 889.341 412.436 891.229 414.843V416.33H884.787ZM995.731 438.986C1004.94 438.986 1011.9 441.252 1016.62 445.783C1021.34 450.267 1023.7 457.489 1023.7 467.448V518H1012.09V468.227C1012.09 461.761 1010.6 456.923 1007.63 453.713C1004.7 450.503 1000.19 448.898 994.103 448.898C985.513 448.898 979.471 451.329 975.978 456.191C972.485 461.053 970.739 468.109 970.739 477.36V518H958.986V440.402H968.473L970.243 451.589H970.88C972.532 448.851 974.633 446.562 977.182 444.721C979.73 442.833 982.586 441.417 985.749 440.473C988.911 439.482 992.239 438.986 995.731 438.986ZM1110.64 509.787C1112.58 509.787 1114.56 509.622 1116.59 509.292C1118.62 508.961 1120.27 508.56 1121.54 508.088V517.221C1120.18 517.835 1118.26 518.354 1115.81 518.779C1113.4 519.204 1111.04 519.416 1108.73 519.416C1104.62 519.416 1100.89 518.708 1097.54 517.292C1094.19 515.829 1091.5 513.374 1089.47 509.929C1087.49 506.483 1086.5 501.716 1086.5 495.627V449.606H1075.45V443.872L1086.57 439.27L1091.24 422.419H1098.32V440.402H1121.05V449.606H1098.32V495.273C1098.32 500.135 1099.43 503.769 1101.65 506.176C1103.92 508.583 1106.91 509.787 1110.64 509.787ZM1166.29 439.128C1175.54 439.128 1182.41 441.205 1186.89 445.358C1191.38 449.512 1193.62 456.144 1193.62 465.253V518H1185.05L1182.79 506.53H1182.22C1180.05 509.362 1177.78 511.746 1175.42 513.681C1173.06 515.569 1170.33 517.009 1167.21 518C1164.14 518.944 1160.37 519.416 1155.88 519.416C1151.16 519.416 1146.96 518.59 1143.28 516.938C1139.65 515.286 1136.77 512.784 1134.64 509.433C1132.57 506.082 1131.53 501.834 1131.53 496.689C1131.53 488.948 1134.6 483.001 1140.73 478.847C1146.87 474.694 1156.21 472.428 1168.77 472.05L1182.15 471.484V466.74C1182.15 460.038 1180.71 455.341 1177.83 452.651C1174.95 449.96 1170.89 448.615 1165.65 448.615C1161.59 448.615 1157.72 449.205 1154.04 450.385C1150.36 451.565 1146.87 452.958 1143.56 454.562L1139.95 445.642C1143.45 443.848 1147.46 442.314 1151.99 441.04C1156.52 439.765 1161.29 439.128 1166.29 439.128ZM1182.01 479.768L1170.18 480.263C1160.51 480.641 1153.69 482.222 1149.72 485.007C1145.76 487.792 1143.78 491.733 1143.78 496.831C1143.78 501.267 1145.12 504.548 1147.81 506.672C1150.5 508.796 1154.07 509.858 1158.5 509.858C1165.39 509.858 1171.03 507.946 1175.42 504.123C1179.81 500.3 1182.01 494.565 1182.01 486.918V479.768ZM1180.52 411.94C1180.52 415.575 1179.41 418.407 1177.19 420.437C1174.98 422.419 1172.14 423.811 1168.7 424.614L1168.06 432.473H1160.7L1159.78 420.224C1163.41 419.611 1166.24 418.737 1168.27 417.604C1170.35 416.424 1171.39 414.678 1171.39 412.365C1171.39 410.052 1170.47 408.471 1168.63 407.622C1166.83 406.772 1164.54 406.347 1161.76 406.347C1160.44 406.347 1159.12 406.418 1157.79 406.56C1156.52 406.654 1155.46 406.796 1154.61 406.984V399.904C1155.55 399.621 1156.69 399.409 1158.01 399.267C1159.33 399.078 1160.91 398.984 1162.75 398.984C1168.46 398.984 1172.85 400.069 1175.92 402.241C1178.99 404.365 1180.52 407.598 1180.52 411.94ZM1254.58 438.986C1263.78 438.986 1270.75 441.252 1275.47 445.783C1280.19 450.267 1282.55 457.489 1282.55 467.448V518H1270.93V468.227C1270.93 461.761 1269.45 456.923 1266.47 453.713C1263.55 450.503 1259.04 448.898 1252.95 448.898C1244.36 448.898 1238.32 451.329 1234.83 456.191C1231.33 461.053 1229.59 468.109 1229.59 477.36V518H1217.83V440.402H1227.32L1229.09 451.589H1229.73C1231.38 448.851 1233.48 446.562 1236.03 444.721C1238.58 442.833 1241.43 441.417 1244.6 440.473C1247.76 439.482 1251.09 438.986 1254.58 438.986ZM1328.42 552.834C1318.23 552.834 1310.37 550.922 1304.85 547.099C1299.33 543.323 1296.56 538.013 1296.56 531.169C1296.56 526.307 1298.1 522.154 1301.17 518.708C1304.28 515.262 1308.58 512.973 1314.05 511.84C1312.02 510.896 1310.28 509.48 1308.81 507.592C1307.4 505.704 1306.69 503.533 1306.69 501.079C1306.69 498.247 1307.47 495.769 1309.02 493.645C1310.63 491.473 1313.06 489.396 1316.32 487.414C1312.26 485.762 1308.95 482.977 1306.41 479.06C1303.9 475.095 1302.65 470.493 1302.65 465.253C1302.65 459.684 1303.81 454.94 1306.12 451.022C1308.43 447.058 1311.79 444.037 1316.18 441.96C1320.57 439.883 1325.88 438.845 1332.11 438.845C1333.47 438.845 1334.84 438.916 1336.21 439.057C1337.63 439.152 1338.97 439.317 1340.25 439.553C1341.52 439.742 1342.63 439.978 1343.58 440.261H1370.2V447.836L1355.9 449.606C1357.31 451.447 1358.49 453.666 1359.44 456.262C1360.38 458.858 1360.85 461.737 1360.85 464.899C1360.85 472.64 1358.23 478.8 1352.99 483.378C1347.75 487.91 1340.55 490.175 1331.4 490.175C1329.23 490.175 1327.01 489.986 1324.74 489.609C1322.43 490.883 1320.66 492.299 1319.43 493.857C1318.25 495.415 1317.66 497.208 1317.66 499.238C1317.66 500.748 1318.11 501.952 1319.01 502.849C1319.95 503.745 1321.3 504.406 1323.04 504.831C1324.79 505.209 1326.89 505.397 1329.34 505.397H1343.01C1351.46 505.397 1357.92 507.167 1362.41 510.708C1366.94 514.248 1369.21 519.416 1369.21 526.213C1369.21 534.803 1365.71 541.388 1358.73 545.966C1351.74 550.545 1341.64 552.834 1328.42 552.834ZM1328.78 543.63C1335.2 543.63 1340.51 542.969 1344.71 541.647C1348.96 540.373 1352.12 538.509 1354.2 536.054C1356.32 533.647 1357.38 530.768 1357.38 527.417C1357.38 524.301 1356.67 521.941 1355.26 520.336C1353.84 518.779 1351.76 517.74 1349.03 517.221C1346.29 516.655 1342.94 516.372 1338.97 516.372H1325.52C1322.03 516.372 1318.98 516.914 1316.39 518C1313.79 519.086 1311.79 520.69 1310.37 522.814C1309 524.938 1308.32 527.582 1308.32 530.744C1308.32 534.945 1310.09 538.131 1313.63 540.302C1317.17 542.521 1322.22 543.63 1328.78 543.63ZM1331.82 481.608C1337.44 481.608 1341.66 480.192 1344.5 477.36C1347.33 474.528 1348.74 470.398 1348.74 464.97C1348.74 459.165 1347.3 454.822 1344.43 451.943C1341.55 449.016 1337.3 447.553 1331.68 447.553C1326.3 447.553 1322.15 449.064 1319.22 452.084C1316.34 455.058 1314.9 459.424 1314.9 465.183C1314.9 470.469 1316.36 474.528 1319.29 477.36C1322.22 480.192 1326.39 481.608 1331.82 481.608ZM1475.19 552.692V519.416C1475.19 517.575 1475.24 515.451 1475.34 513.044C1475.43 510.637 1475.6 508.56 1475.83 506.813H1475.05C1472.88 510.401 1469.79 513.398 1465.78 515.805C1461.77 518.212 1456.6 519.416 1450.27 519.416C1440.79 519.416 1433.16 516.065 1427.4 509.362C1421.65 502.66 1418.77 492.653 1418.77 479.343C1418.77 470.611 1420.09 463.247 1422.73 457.253C1425.37 451.258 1429.1 446.727 1433.92 443.659C1438.78 440.544 1444.44 438.986 1450.91 438.986C1457.09 438.986 1462.14 440.214 1466.06 442.668C1469.98 445.075 1473.05 448.025 1475.27 451.518H1475.83L1477.6 440.402H1486.95V552.692H1475.19ZM1452.47 509.646C1457.94 509.646 1462.33 508.631 1465.64 506.601C1468.94 504.524 1471.35 501.409 1472.86 497.255C1474.42 493.102 1475.24 487.933 1475.34 481.75V479.272C1475.34 469.265 1473.64 461.69 1470.24 456.545C1466.84 451.353 1460.92 448.757 1452.47 448.757C1445.2 448.757 1439.79 451.542 1436.25 457.111C1432.71 462.634 1430.94 470.139 1430.94 479.626C1430.94 489.113 1432.71 496.5 1436.25 501.787C1439.79 507.026 1445.2 509.646 1452.47 509.646ZM1576.01 440.402V518H1566.39L1564.69 507.097H1564.05C1562.44 509.787 1560.37 512.053 1557.82 513.894C1555.27 515.734 1552.39 517.103 1549.18 518C1546.02 518.944 1542.64 519.416 1539.06 519.416C1532.92 519.416 1527.78 518.425 1523.62 516.442C1519.47 514.46 1516.33 511.392 1514.21 507.238C1512.13 503.085 1511.09 497.751 1511.09 491.237V440.402H1522.98V490.388C1522.98 496.854 1524.45 501.692 1527.37 504.902C1530.3 508.064 1534.76 509.646 1540.76 509.646C1546.51 509.646 1551.09 508.56 1554.49 506.389C1557.94 504.217 1560.41 501.031 1561.93 496.831C1563.44 492.583 1564.19 487.39 1564.19 481.254V440.402H1576.01ZM1629.89 439.128C1639.15 439.128 1646.01 441.205 1650.5 445.358C1654.98 449.512 1657.22 456.144 1657.22 465.253V518H1648.66L1646.39 506.53H1645.82C1643.65 509.362 1641.39 511.746 1639.03 513.681C1636.67 515.569 1633.93 517.009 1630.81 518C1627.75 518.944 1623.97 519.416 1619.49 519.416C1614.77 519.416 1610.57 518.59 1606.88 516.938C1603.25 515.286 1600.37 512.784 1598.25 509.433C1596.17 506.082 1595.13 501.834 1595.13 496.689C1595.13 488.948 1598.2 483.001 1604.33 478.847C1610.47 474.694 1619.82 472.428 1632.37 472.05L1645.75 471.484V466.74C1645.75 460.038 1644.31 455.341 1641.43 452.651C1638.56 449.96 1634.5 448.615 1629.26 448.615C1625.2 448.615 1621.33 449.205 1617.65 450.385C1613.96 451.565 1610.47 452.958 1607.17 454.562L1603.56 445.642C1607.05 443.848 1611.06 442.314 1615.59 441.04C1620.12 439.765 1624.89 439.128 1629.89 439.128ZM1645.61 479.768L1633.79 480.263C1624.11 480.641 1617.29 482.222 1613.33 485.007C1609.36 487.792 1607.38 491.733 1607.38 496.831C1607.38 501.267 1608.72 504.548 1611.42 506.672C1614.11 508.796 1617.67 509.858 1622.11 509.858C1629 509.858 1634.64 507.946 1639.03 504.123C1643.42 500.3 1645.61 494.565 1645.61 486.918V479.768ZM1644.12 411.94C1644.12 415.575 1643.02 418.407 1640.8 420.437C1638.58 422.419 1635.75 423.811 1632.3 424.614L1631.66 432.473H1624.3L1623.38 420.224C1627.01 419.611 1629.85 418.737 1631.88 417.604C1633.95 416.424 1634.99 414.678 1634.99 412.365C1634.99 410.052 1634.07 408.471 1632.23 407.622C1630.44 406.772 1628.15 406.347 1625.36 406.347C1624.04 406.347 1622.72 406.418 1621.4 406.56C1620.12 406.654 1619.06 406.796 1618.21 406.984V399.904C1619.16 399.621 1620.29 399.409 1621.61 399.267C1622.93 399.078 1624.51 398.984 1626.35 398.984C1632.07 398.984 1636.45 400.069 1639.52 402.241C1642.59 404.365 1644.12 407.598 1644.12 411.94ZM1718.18 438.986C1727.39 438.986 1734.35 441.252 1739.07 445.783C1743.79 450.267 1746.15 457.489 1746.15 467.448V518H1734.54V468.227C1734.54 461.761 1733.05 456.923 1730.08 453.713C1727.15 450.503 1722.64 448.898 1716.55 448.898C1707.96 448.898 1701.92 451.329 1698.43 456.191C1694.94 461.053 1693.19 468.109 1693.19 477.36V518H1681.44V440.402H1690.92L1692.69 451.589H1693.33C1694.98 448.851 1697.08 446.562 1699.63 444.721C1702.18 442.833 1705.04 441.417 1708.2 440.473C1711.36 439.482 1714.69 438.986 1718.18 438.986ZM1819.85 518H1808.03V407.834H1819.85V518ZM1832.46 440.402H1845.06L1862.19 485.432C1863.18 488.075 1864.1 490.624 1864.95 493.078C1865.8 495.485 1866.56 497.798 1867.22 500.017C1867.88 502.235 1868.4 504.383 1868.78 506.459H1869.27C1869.93 504.099 1870.88 501.008 1872.1 497.185C1873.33 493.314 1874.65 489.373 1876.07 485.361L1892.28 440.402H1904.96L1871.18 529.399C1869.39 534.166 1867.29 538.32 1864.88 541.86C1862.52 545.4 1859.64 548.114 1856.24 550.002C1852.85 551.937 1848.74 552.905 1843.92 552.905C1841.71 552.905 1839.75 552.763 1838.05 552.48C1836.35 552.244 1834.89 551.961 1833.66 551.63V542.214C1834.7 542.45 1835.95 542.662 1837.41 542.851C1838.92 543.04 1840.48 543.134 1842.08 543.134C1845.01 543.134 1847.54 542.568 1849.66 541.435C1851.83 540.349 1853.7 538.745 1855.25 536.621C1856.81 534.497 1858.16 531.971 1859.29 529.045L1863.54 518.142L1832.46 440.402ZM1889.1 406.914V408.33C1888.15 409.698 1886.85 411.35 1885.2 413.286C1883.6 415.174 1881.8 417.18 1879.82 419.304C1877.84 421.381 1875.83 423.363 1873.8 425.251C1871.82 427.139 1869.98 428.767 1868.28 430.136H1860.42V428.437C1861.93 426.643 1863.58 424.496 1865.38 421.994C1867.17 419.445 1868.92 416.849 1870.62 414.206C1872.32 411.516 1873.73 409.085 1874.86 406.914H1889.1ZM1982.62 519.416C1972.81 519.416 1965.02 516.088 1959.26 509.433C1953.55 502.731 1950.69 492.842 1950.69 479.768C1950.69 466.221 1953.62 456.097 1959.47 449.394C1965.32 442.692 1973.09 439.34 1982.77 439.34C1986.87 439.34 1990.46 439.883 1993.53 440.969C1996.59 442.054 1999.24 443.518 2001.46 445.358C2003.72 447.199 2005.61 449.252 2007.12 451.518H2007.97C2007.73 450.055 2007.52 448.049 2007.33 445.5C2007.19 442.951 2007.12 440.827 2007.12 439.128V429.853H1975.76V421.003H2007.12V407.834H2018.87V421.003H2029.85V429.853H2018.87V518H2009.24L2007.55 506.955H2006.98C2005.52 509.268 2003.67 511.368 2001.46 513.256C1999.24 515.144 1996.57 516.655 1993.46 517.788C1990.39 518.873 1986.78 519.416 1982.62 519.416ZM1984.54 509.646C1992.84 509.646 1998.7 507.333 2002.09 502.707C2005.49 498.034 2007.19 491.072 2007.19 481.821V479.555C2007.19 469.643 2005.56 462.091 2002.31 456.899C1999.05 451.707 1993.1 449.111 1984.46 449.111C1977.24 449.111 1971.84 451.825 1968.25 457.253C1964.71 462.681 1962.94 470.209 1962.94 479.838C1962.94 489.373 1964.71 496.736 1968.25 501.928C1971.79 507.073 1977.22 509.646 1984.54 509.646ZM2072.97 439.128C2082.22 439.128 2089.08 441.205 2093.57 445.358C2098.05 449.512 2100.29 456.144 2100.29 465.253V518H2091.73L2089.46 506.53H2088.9C2086.72 509.362 2084.46 511.746 2082.1 513.681C2079.74 515.569 2077 517.009 2073.89 518C2070.82 518.944 2067.04 519.416 2062.56 519.416C2057.84 519.416 2053.64 518.59 2049.96 516.938C2046.32 515.286 2043.44 512.784 2041.32 509.433C2039.24 506.082 2038.2 501.834 2038.2 496.689C2038.2 488.948 2041.27 483.001 2047.41 478.847C2053.54 474.694 2062.89 472.428 2075.44 472.05L2088.82 471.484V466.74C2088.82 460.038 2087.39 455.341 2084.51 452.651C2081.63 449.96 2077.57 448.615 2072.33 448.615C2068.27 448.615 2064.4 449.205 2060.72 450.385C2057.04 451.565 2053.54 452.958 2050.24 454.562L2046.63 445.642C2050.12 443.848 2054.13 442.314 2058.66 441.04C2063.19 439.765 2067.96 439.128 2072.97 439.128ZM2088.68 479.768L2076.86 480.263C2067.18 480.641 2060.36 482.222 2056.4 485.007C2052.43 487.792 2050.45 491.733 2050.45 496.831C2050.45 501.267 2051.8 504.548 2054.49 506.672C2057.18 508.796 2060.74 509.858 2065.18 509.858C2072.07 509.858 2077.71 507.946 2082.1 504.123C2086.49 500.3 2088.68 494.565 2088.68 486.918V479.768ZM2066.95 406.914C2068.08 409.085 2069.47 411.516 2071.12 414.206C2072.82 416.849 2074.59 419.445 2076.43 421.994C2078.32 424.496 2080.05 426.643 2081.6 428.437V430.136H2073.6C2071.9 428.767 2070.04 427.139 2068.01 425.251C2066.03 423.363 2064.04 421.381 2062.06 419.304C2060.08 417.18 2058.29 415.174 2056.68 413.286C2055.08 411.35 2053.83 409.698 2052.93 408.33V406.914H2066.95ZM2191.42 479.06C2191.42 485.432 2190.59 491.119 2188.94 496.123C2187.28 501.126 2184.9 505.35 2181.79 508.796C2178.67 512.242 2174.89 514.885 2170.46 516.726C2166.07 518.519 2161.09 519.416 2155.52 519.416C2150.33 519.416 2145.56 518.519 2141.22 516.726C2136.92 514.885 2133.19 512.242 2130.03 508.796C2126.92 505.35 2124.48 501.126 2122.74 496.123C2121.04 491.119 2120.19 485.432 2120.19 479.06C2120.19 470.563 2121.63 463.342 2124.51 457.395C2127.39 451.4 2131.49 446.845 2136.83 443.73C2142.21 440.568 2148.6 438.986 2156.01 438.986C2163.09 438.986 2169.28 440.568 2174.56 443.73C2179.9 446.892 2184.03 451.471 2186.95 457.465C2189.93 463.413 2191.42 470.611 2191.42 479.06ZM2132.37 479.06C2132.37 485.29 2133.19 490.694 2134.85 495.273C2136.5 499.851 2139.05 503.391 2142.49 505.893C2145.94 508.395 2150.37 509.646 2155.8 509.646C2161.18 509.646 2165.6 508.395 2169.04 505.893C2172.53 503.391 2175.11 499.851 2176.76 495.273C2178.41 490.694 2179.24 485.29 2179.24 479.06C2179.24 472.876 2178.41 467.543 2176.76 463.059C2175.11 458.527 2172.56 455.035 2169.11 452.58C2165.67 450.126 2161.21 448.898 2155.73 448.898C2147.66 448.898 2141.74 451.565 2137.96 456.899C2134.23 462.233 2132.37 469.619 2132.37 479.06ZM2274.46 509.787C2276.4 509.787 2278.38 509.622 2280.41 509.292C2282.44 508.961 2284.09 508.56 2285.37 508.088V517.221C2284 517.835 2282.09 518.354 2279.63 518.779C2277.23 519.204 2274.87 519.416 2272.55 519.416C2268.45 519.416 2264.72 518.708 2261.37 517.292C2258.01 515.829 2255.32 513.374 2253.29 509.929C2251.31 506.483 2250.32 501.716 2250.32 495.627V449.606H2239.28V443.872L2250.39 439.27L2255.06 422.419H2262.15V440.402H2284.87V449.606H2262.15V495.273C2262.15 500.135 2263.25 503.769 2265.47 506.176C2267.74 508.583 2270.74 509.787 2274.46 509.787ZM2330.11 439.128C2339.37 439.128 2346.23 441.205 2350.72 445.358C2355.2 449.512 2357.44 456.144 2357.44 465.253V518H2348.88L2346.61 506.53H2346.04C2343.87 509.362 2341.61 511.746 2339.25 513.681C2336.89 515.569 2334.15 517.009 2331.03 518C2327.97 518.944 2324.19 519.416 2319.71 519.416C2314.99 519.416 2310.79 518.59 2307.1 516.938C2303.47 515.286 2300.59 512.784 2298.47 509.433C2296.39 506.082 2295.35 501.834 2295.35 496.689C2295.35 488.948 2298.42 483.001 2304.55 478.847C2310.69 474.694 2320.04 472.428 2332.59 472.05L2345.97 471.484V466.74C2345.97 460.038 2344.53 455.341 2341.65 452.651C2338.78 449.96 2334.72 448.615 2329.48 448.615C2325.42 448.615 2321.55 449.205 2317.87 450.385C2314.18 451.565 2310.69 452.958 2307.39 454.562L2303.78 445.642C2307.27 443.848 2311.28 442.314 2315.81 441.04C2320.34 439.765 2325.11 439.128 2330.11 439.128ZM2345.83 479.768L2334.01 480.263C2324.33 480.641 2317.51 482.222 2313.55 485.007C2309.58 487.792 2307.6 491.733 2307.6 496.831C2307.6 501.267 2308.94 504.548 2311.63 506.672C2314.33 508.796 2317.89 509.858 2322.33 509.858C2329.22 509.858 2334.86 507.946 2339.25 504.123C2343.64 500.3 2345.83 494.565 2345.83 486.918V479.768ZM2328.91 542.851C2326.93 542.851 2325.25 542.214 2323.88 540.939C2322.51 539.665 2321.83 537.73 2321.83 535.134C2321.83 532.491 2322.51 530.532 2323.88 529.257C2325.25 528.03 2326.93 527.417 2328.91 527.417C2330.94 527.417 2332.64 528.03 2334.01 529.257C2335.38 530.532 2336.06 532.491 2336.06 535.134C2336.06 537.73 2335.38 539.665 2334.01 540.939C2332.64 542.214 2330.94 542.851 2328.91 542.851ZM2448.56 479.06C2448.56 485.432 2447.74 491.119 2446.09 496.123C2444.43 501.126 2442.05 505.35 2438.93 508.796C2435.82 512.242 2432.04 514.885 2427.61 516.726C2423.22 518.519 2418.24 519.416 2412.67 519.416C2407.48 519.416 2402.71 518.519 2398.37 516.726C2394.07 514.885 2390.34 512.242 2387.18 508.796C2384.06 505.35 2381.63 501.126 2379.89 496.123C2378.19 491.119 2377.34 485.432 2377.34 479.06C2377.34 470.563 2378.78 463.342 2381.66 457.395C2384.54 451.4 2388.64 446.845 2393.98 443.73C2399.36 440.568 2405.75 438.986 2413.16 438.986C2420.24 438.986 2426.43 440.568 2431.71 443.73C2437.05 446.892 2441.18 451.471 2444.1 457.465C2447.08 463.413 2448.56 470.611 2448.56 479.06ZM2389.52 479.06C2389.52 485.29 2390.34 490.694 2391.99 495.273C2393.65 499.851 2396.19 503.391 2399.64 505.893C2403.09 508.395 2407.52 509.646 2412.95 509.646C2418.33 509.646 2422.74 508.395 2426.19 505.893C2429.68 503.391 2432.26 499.851 2433.91 495.273C2435.56 490.694 2436.39 485.29 2436.39 479.06C2436.39 472.876 2435.56 467.543 2433.91 463.059C2432.26 458.527 2429.71 455.035 2426.26 452.58C2422.82 450.126 2418.36 448.898 2412.88 448.898C2404.81 448.898 2398.88 451.565 2395.11 456.899C2391.38 462.233 2389.52 469.619 2389.52 479.06ZM2523.61 518L2494.16 440.402H2506.76L2523.82 487.343C2525 490.553 2526.21 494.093 2527.44 497.963C2528.66 501.834 2529.51 504.949 2529.98 507.309H2530.48C2531.05 504.949 2531.99 501.834 2533.31 497.963C2534.63 494.046 2535.84 490.506 2536.92 487.343L2553.99 440.402H2566.59L2537.06 518H2523.61ZM2608.08 439.128C2617.33 439.128 2624.2 441.205 2628.68 445.358C2633.16 449.512 2635.41 456.144 2635.41 465.253V518H2626.84L2624.57 506.53H2624.01C2621.84 509.362 2619.57 511.746 2617.21 513.681C2614.85 515.569 2612.11 517.009 2609 518C2605.93 518.944 2602.15 519.416 2597.67 519.416C2592.95 519.416 2588.75 518.59 2585.07 516.938C2581.43 515.286 2578.55 512.784 2576.43 509.433C2574.35 506.082 2573.31 501.834 2573.31 496.689C2573.31 488.948 2576.38 483.001 2582.52 478.847C2588.65 474.694 2598 472.428 2610.56 472.05L2623.94 471.484V466.74C2623.94 460.038 2622.5 455.341 2619.62 452.651C2616.74 449.96 2612.68 448.615 2607.44 448.615C2603.38 448.615 2599.51 449.205 2595.83 450.385C2592.15 451.565 2588.65 452.958 2585.35 454.562L2581.74 445.642C2585.23 443.848 2589.24 442.314 2593.78 441.04C2598.31 439.765 2603.07 439.128 2608.08 439.128ZM2623.8 479.768L2611.97 480.263C2602.3 480.641 2595.48 482.222 2591.51 485.007C2587.55 487.792 2585.56 491.733 2585.56 496.831C2585.56 501.267 2586.91 504.548 2589.6 506.672C2592.29 508.796 2595.85 509.858 2600.29 509.858C2607.18 509.858 2612.82 507.946 2617.21 504.123C2621.6 500.3 2623.8 494.565 2623.8 486.918V479.768ZM2602.06 406.914C2603.19 409.085 2604.58 411.516 2606.24 414.206C2607.94 416.849 2609.71 419.445 2611.55 421.994C2613.43 424.496 2615.16 426.643 2616.72 428.437V430.136H2608.71C2607.02 428.767 2605.15 427.139 2603.12 425.251C2601.14 423.363 2599.16 421.381 2597.17 419.304C2595.19 417.18 2593.4 415.174 2591.79 413.286C2590.19 411.35 2588.94 409.698 2588.04 408.33V406.914H2602.06ZM2733.75 438.986C2743.43 438.986 2751.14 442.314 2756.9 448.969C2762.66 455.625 2765.54 465.631 2765.54 478.989C2765.54 487.815 2764.22 495.226 2761.57 501.22C2758.93 507.215 2755.2 511.746 2750.39 514.814C2745.62 517.882 2739.98 519.416 2733.47 519.416C2729.36 519.416 2725.75 518.873 2722.63 517.788C2719.52 516.702 2716.85 515.239 2714.63 513.398C2712.41 511.557 2710.57 509.551 2709.11 507.38H2708.26C2708.4 509.221 2708.57 511.439 2708.76 514.035C2708.99 516.631 2709.11 518.897 2709.11 520.832V552.692H2697.29V440.402H2706.99L2708.54 451.872H2709.11C2710.62 449.512 2712.46 447.364 2714.63 445.429C2716.8 443.447 2719.45 441.889 2722.56 440.756C2725.72 439.576 2729.45 438.986 2733.75 438.986ZM2731.7 448.898C2726.31 448.898 2721.97 449.937 2718.67 452.014C2715.41 454.09 2713.03 457.206 2711.52 461.359C2710.01 465.466 2709.2 470.634 2709.11 476.865V479.13C2709.11 485.691 2709.82 491.237 2711.23 495.769C2712.7 500.3 2715.08 503.745 2718.39 506.105C2721.74 508.465 2726.22 509.646 2731.84 509.646C2736.65 509.646 2740.66 508.347 2743.87 505.751C2747.08 503.155 2749.47 499.545 2751.02 494.919C2752.63 490.246 2753.43 484.889 2753.43 478.847C2753.43 469.69 2751.64 462.421 2748.05 457.041C2744.51 451.612 2739.06 448.898 2731.7 448.898ZM2797.82 407.834V440.756C2797.82 442.644 2797.78 444.556 2797.68 446.491C2797.59 448.379 2797.42 450.126 2797.19 451.73H2797.97C2799.57 448.993 2801.6 446.704 2804.05 444.863C2806.56 442.975 2809.39 441.559 2812.55 440.615C2815.71 439.624 2819.06 439.128 2822.6 439.128C2828.83 439.128 2834.03 440.119 2838.18 442.102C2842.38 444.084 2845.52 447.152 2847.6 451.306C2849.72 455.459 2850.78 460.84 2850.78 467.448V518H2839.17V468.227C2839.17 461.761 2837.68 456.923 2834.71 453.713C2831.78 450.503 2827.28 448.898 2821.19 448.898C2815.43 448.898 2810.83 450.008 2807.38 452.226C2803.98 454.397 2801.53 457.607 2800.02 461.855C2798.56 466.103 2797.82 471.295 2797.82 477.431V518H2786.07V407.834H2797.82ZM2904.02 439.128C2913.28 439.128 2920.14 441.205 2924.63 445.358C2929.11 449.512 2931.35 456.144 2931.35 465.253V518H2922.79L2920.52 506.53H2919.96C2917.78 509.362 2915.52 511.746 2913.16 513.681C2910.8 515.569 2908.06 517.009 2904.95 518C2901.88 518.944 2898.1 519.416 2893.62 519.416C2888.9 519.416 2884.7 518.59 2881.01 516.938C2877.38 515.286 2874.5 512.784 2872.38 509.433C2870.3 506.082 2869.26 501.834 2869.26 496.689C2869.26 488.948 2872.33 483.001 2878.47 478.847C2884.6 474.694 2893.95 472.428 2906.5 472.05L2919.88 471.484V466.74C2919.88 460.038 2918.44 455.341 2915.57 452.651C2912.69 449.96 2908.63 448.615 2903.39 448.615C2899.33 448.615 2895.46 449.205 2891.78 450.385C2888.09 451.565 2884.6 452.958 2881.3 454.562L2877.69 445.642C2881.18 443.848 2885.19 442.314 2889.72 441.04C2894.25 439.765 2899.02 439.128 2904.02 439.128ZM2919.74 479.768L2907.92 480.263C2898.24 480.641 2891.42 482.222 2887.46 485.007C2883.49 487.792 2881.51 491.733 2881.51 496.831C2881.51 501.267 2882.86 504.548 2885.55 506.672C2888.24 508.796 2891.8 509.858 2896.24 509.858C2903.13 509.858 2908.77 507.946 2913.16 504.123C2917.55 500.3 2919.74 494.565 2919.74 486.918V479.768ZM2923.42 406.914V408.33C2922.48 409.698 2921.18 411.35 2919.53 413.286C2917.93 415.174 2916.13 417.18 2914.15 419.304C2912.17 421.381 2910.16 423.363 2908.13 425.251C2906.15 427.139 2904.31 428.767 2902.61 430.136H2894.75V428.437C2896.26 426.643 2897.91 424.496 2899.71 421.994C2901.5 419.445 2903.25 416.849 2904.95 414.206C2906.64 411.516 2908.06 409.085 2909.19 406.914H2923.42ZM2980.63 509.787C2982.57 509.787 2984.55 509.622 2986.58 509.292C2988.61 508.961 2990.26 508.56 2991.53 508.088V517.221C2990.17 517.835 2988.25 518.354 2985.8 518.779C2983.39 519.204 2981.03 519.416 2978.72 519.416C2974.61 519.416 2970.88 518.708 2967.53 517.292C2964.18 515.829 2961.49 513.374 2959.46 509.929C2957.48 506.483 2956.49 501.716 2956.49 495.627V449.606H2945.44V443.872L2956.56 439.27L2961.23 422.419H2968.31V440.402H2991.04V449.606H2968.31V495.273C2968.31 500.135 2969.42 503.769 2971.64 506.176C2973.91 508.583 2976.9 509.787 2980.63 509.787ZM3069.98 509.787C3071.92 509.787 3073.9 509.622 3075.93 509.292C3077.96 508.961 3079.61 508.56 3080.89 508.088V517.221C3079.52 517.835 3077.6 518.354 3075.15 518.779C3072.74 519.204 3070.38 519.416 3068.07 519.416C3063.96 519.416 3060.24 518.708 3056.88 517.292C3053.53 515.829 3050.84 513.374 3048.81 509.929C3046.83 506.483 3045.84 501.716 3045.84 495.627V449.606H3034.79V443.872L3045.91 439.27L3050.58 422.419H3057.66V440.402H3080.39V449.606H3057.66V495.273C3057.66 500.135 3058.77 503.769 3060.99 506.176C3063.26 508.583 3066.25 509.787 3069.98 509.787ZM3131.86 438.986C3133.42 438.986 3135.05 439.081 3136.75 439.27C3138.45 439.411 3139.96 439.624 3141.28 439.907L3139.79 450.81C3138.52 450.48 3137.1 450.22 3135.54 450.031C3133.99 449.842 3132.52 449.748 3131.15 449.748C3128.04 449.748 3125.09 450.385 3122.3 451.66C3119.57 452.887 3117.16 454.681 3115.08 457.041C3113.01 459.353 3111.38 462.162 3110.2 465.466C3109.02 468.723 3108.43 472.357 3108.43 476.369V518H3096.6V440.402H3106.37L3107.65 454.704H3108.14C3109.75 451.825 3111.68 449.205 3113.95 446.845C3116.21 444.438 3118.83 442.526 3121.81 441.11C3124.83 439.694 3128.18 438.986 3131.86 438.986ZM3167.69 440.402V518H3155.93V440.402H3167.69ZM3161.95 411.374C3163.89 411.374 3165.54 412.011 3166.91 413.286C3168.32 414.513 3169.03 416.448 3169.03 419.091C3169.03 421.687 3168.32 423.623 3166.91 424.897C3165.54 426.171 3163.89 426.809 3161.95 426.809C3159.92 426.809 3158.22 426.171 3156.85 424.897C3155.53 423.623 3154.87 421.687 3154.87 419.091C3154.87 416.448 3155.53 414.513 3156.85 413.286C3158.22 412.011 3159.92 411.374 3161.95 411.374ZM3222.49 438.986C3229.09 438.986 3234.76 440.45 3239.48 443.376C3244.2 446.302 3247.81 450.409 3250.31 455.695C3252.81 460.935 3254.06 467.071 3254.06 474.104V481.396H3200.47C3200.61 490.506 3202.88 497.444 3207.26 502.211C3211.65 506.979 3217.84 509.362 3225.81 509.362C3230.72 509.362 3235.07 508.914 3238.84 508.017C3242.62 507.12 3246.54 505.799 3250.59 504.052V514.389C3246.68 516.136 3242.78 517.41 3238.91 518.212C3235.09 519.015 3230.56 519.416 3225.32 519.416C3217.86 519.416 3211.35 517.906 3205.78 514.885C3200.26 511.817 3195.96 507.333 3192.89 501.433C3189.82 495.533 3188.29 488.311 3188.29 479.768C3188.29 471.413 3189.68 464.191 3192.47 458.103C3195.3 451.966 3199.26 447.246 3204.36 443.942C3209.51 440.638 3215.55 438.986 3222.49 438.986ZM3222.35 448.615C3216.07 448.615 3211.06 450.668 3207.34 454.775C3203.61 458.881 3201.39 464.616 3200.68 471.979H3241.74C3241.7 467.354 3240.97 463.295 3239.55 459.802C3238.18 456.262 3236.08 453.524 3233.25 451.589C3230.42 449.606 3226.78 448.615 3222.35 448.615ZM3227.44 409.958C3228.91 412.082 3230.51 414.23 3232.26 416.401C3234.05 418.572 3235.87 420.673 3237.71 422.702C3239.55 424.732 3241.3 426.643 3242.95 428.437V430.136H3236.29C3233.89 428.484 3231.38 426.643 3228.79 424.614C3226.24 422.584 3223.76 420.413 3221.35 418.1C3218.85 420.413 3216.33 422.584 3213.78 424.614C3211.28 426.643 3208.82 428.484 3206.42 430.136H3199.69V428.437C3201.34 426.643 3203.09 424.732 3204.93 422.702C3206.77 420.673 3208.59 418.572 3210.38 416.401C3212.17 414.23 3213.8 412.082 3215.27 409.958H3227.44ZM3241.74 391.762C3246.04 391.762 3249.37 392.588 3251.73 394.24C3254.09 395.845 3255.27 398.323 3255.27 401.674C3255.27 404.412 3254.37 406.489 3252.58 407.905C3250.83 409.321 3248.68 410.312 3246.13 410.878L3245.71 416.613H3240.12L3239.48 407.48C3242.31 407.055 3244.46 406.465 3245.92 405.71C3247.43 404.955 3248.19 403.704 3248.19 401.958C3248.19 400.258 3247.53 399.078 3246.21 398.417C3244.93 397.757 3243.21 397.426 3241.04 397.426C3240 397.426 3239.01 397.473 3238.06 397.568C3237.17 397.662 3236.41 397.78 3235.8 397.922V392.329C3236.46 392.14 3237.28 391.998 3238.28 391.904C3239.27 391.809 3240.42 391.762 3241.74 391.762ZM3310.78 438.986C3319.98 438.986 3326.94 441.252 3331.66 445.783C3336.38 450.267 3338.74 457.489 3338.74 467.448V518H3327.13V468.227C3327.13 461.761 3325.64 456.923 3322.67 453.713C3319.74 450.503 3315.24 448.898 3309.15 448.898C3300.56 448.898 3294.51 451.329 3291.02 456.191C3287.53 461.053 3285.78 468.109 3285.78 477.36V518H3274.03V440.402H3283.52L3285.29 451.589H3285.92C3287.58 448.851 3289.68 446.562 3292.23 444.721C3294.77 442.833 3297.63 441.417 3300.79 440.473C3303.95 439.482 3307.28 438.986 3310.78 438.986ZM3437.37 438.986C3446.57 438.986 3453.53 441.252 3458.25 445.783C3462.97 450.267 3465.33 457.489 3465.33 467.448V518H3453.72V468.227C3453.72 461.761 3452.24 456.923 3449.26 453.713C3446.34 450.503 3441.83 448.898 3435.74 448.898C3427.15 448.898 3421.11 451.329 3417.61 456.191C3414.12 461.053 3412.37 468.109 3412.37 477.36V518H3400.62V440.402H3410.11L3411.88 451.589H3412.52C3414.17 448.851 3416.27 446.562 3418.82 444.721C3421.37 442.833 3424.22 441.417 3427.38 440.473C3430.55 439.482 3433.87 438.986 3437.37 438.986ZM3501.3 407.834V440.756C3501.3 442.644 3501.25 444.556 3501.16 446.491C3501.06 448.379 3500.9 450.126 3500.66 451.73H3501.44C3503.05 448.993 3505.08 446.704 3507.53 444.863C3510.03 442.975 3512.86 441.559 3516.03 440.615C3519.19 439.624 3522.54 439.128 3526.08 439.128C3532.31 439.128 3537.5 440.119 3541.66 442.102C3545.86 444.084 3549 447.152 3551.07 451.306C3553.2 455.459 3554.26 460.84 3554.26 467.448V518H3542.65V468.227C3542.65 461.761 3541.16 456.923 3538.19 453.713C3535.26 450.503 3530.75 448.898 3524.66 448.898C3518.91 448.898 3514.3 450.008 3510.86 452.226C3507.46 454.397 3505.01 457.607 3503.5 461.855C3502.03 466.103 3501.3 471.295 3501.3 477.431V518H3489.55V407.834H3501.3ZM3607.5 439.128C3616.75 439.128 3623.62 441.205 3628.1 445.358C3632.59 449.512 3634.83 456.144 3634.83 465.253V518H3626.26L3624 506.53H3623.43C3621.26 509.362 3618.99 511.746 3616.63 513.681C3614.27 515.569 3611.54 517.009 3608.42 518C3605.35 518.944 3601.58 519.416 3597.09 519.416C3592.37 519.416 3588.17 518.59 3584.49 516.938C3580.86 515.286 3577.98 512.784 3575.85 509.433C3573.78 506.082 3572.74 501.834 3572.74 496.689C3572.74 488.948 3575.81 483.001 3581.94 478.847C3588.08 474.694 3597.42 472.428 3609.98 472.05L3623.36 471.484V466.74C3623.36 460.038 3621.92 455.341 3619.04 452.651C3616.16 449.96 3612.1 448.615 3606.86 448.615C3602.81 448.615 3598.93 449.205 3595.25 450.385C3591.57 451.565 3588.08 452.958 3584.77 454.562L3581.16 445.642C3584.66 443.848 3588.67 442.314 3593.2 441.04C3597.73 439.765 3602.5 439.128 3607.5 439.128ZM3623.22 479.768L3611.4 480.263C3601.72 480.641 3594.9 482.222 3590.93 485.007C3586.97 487.792 3584.99 491.733 3584.99 496.831C3584.99 501.267 3586.33 504.548 3589.02 506.672C3591.71 508.796 3595.28 509.858 3599.71 509.858C3606.6 509.858 3612.25 507.946 3616.63 504.123C3621.02 500.3 3623.22 494.565 3623.22 486.918V479.768ZM3612.46 406.984C3613.64 409.108 3615.29 411.516 3617.41 414.206C3619.54 416.849 3621.78 419.445 3624.14 421.994C3626.5 424.543 3628.6 426.738 3630.44 428.579V430.136H3622.09C3619.54 428.484 3616.92 426.455 3614.23 424.047C3611.54 421.64 3608.92 419.139 3606.37 416.542C3603.82 419.139 3601.22 421.64 3598.58 424.047C3595.98 426.407 3593.41 428.437 3590.86 430.136H3582.79V428.579C3584.59 426.691 3586.62 424.472 3588.88 421.923C3591.19 419.375 3593.39 416.778 3595.47 414.135C3597.59 411.492 3599.26 409.108 3600.49 406.984H3612.46ZM3695.79 438.986C3704.99 438.986 3711.96 441.252 3716.68 445.783C3721.4 450.267 3723.76 457.489 3723.76 467.448V518H3712.15V468.227C3712.15 461.761 3710.66 456.923 3707.68 453.713C3704.76 450.503 3700.25 448.898 3694.16 448.898C3685.57 448.898 3679.53 451.329 3676.04 456.191C3672.54 461.053 3670.8 468.109 3670.8 477.36V518H3659.04V440.402H3668.53L3670.3 451.589H3670.94C3672.59 448.851 3674.69 446.562 3677.24 444.721C3679.79 442.833 3682.64 441.417 3685.81 440.473C3688.97 439.482 3692.3 438.986 3695.79 438.986ZM3797.46 518H3785.64V407.834H3797.46V518ZM3909.68 428.366L3910.67 429.924C3910.15 433.322 3909.35 436.579 3908.26 439.694C3907.22 442.81 3905.79 445.618 3903.94 448.12C3902.1 450.621 3899.74 452.698 3896.86 454.35C3894.03 456.002 3890.54 457.064 3886.39 457.536V518H3876.76L3875.06 507.097H3874.42C3872.82 509.787 3870.76 512.053 3868.26 513.894C3865.76 515.734 3862.93 517.103 3859.76 518C3856.6 518.944 3853.25 519.416 3849.71 519.416C3843.48 519.416 3838.26 518.425 3834.06 516.442C3829.86 514.46 3826.7 511.392 3824.58 507.238C3822.5 503.085 3821.46 497.751 3821.46 491.237V440.544H3833.36V490.388C3833.36 496.854 3834.82 501.692 3837.75 504.902C3840.67 508.064 3845.13 509.646 3851.13 509.646C3859.72 509.646 3865.76 507.215 3869.25 502.353C3872.79 497.491 3874.56 490.458 3874.56 481.254V440.544H3886.39V449.182C3889.41 448.615 3891.7 447.412 3893.25 445.571C3894.81 443.73 3895.87 441.346 3896.44 438.42C3897.01 435.493 3897.29 432.142 3897.29 428.366H3909.68ZM3852.19 542.851C3850.21 542.851 3848.53 542.214 3847.16 540.939C3845.79 539.665 3845.11 537.73 3845.11 535.134C3845.11 532.491 3845.79 530.532 3847.16 529.257C3848.53 528.03 3850.21 527.417 3852.19 527.417C3854.22 527.417 3855.92 528.03 3857.29 529.257C3858.66 530.532 3859.34 532.491 3859.34 535.134C3859.34 537.73 3858.66 539.665 3857.29 540.939C3855.92 542.214 3854.22 542.851 3852.19 542.851ZM3949.54 519.416C3942.55 519.416 3936.39 517.976 3931.06 515.097C3925.73 512.218 3921.57 507.828 3918.6 501.928C3915.63 496.028 3914.14 488.594 3914.14 479.626C3914.14 470.233 3915.7 462.563 3918.81 456.616C3921.97 450.621 3926.32 446.184 3931.84 443.305C3937.36 440.426 3943.64 438.986 3950.67 438.986C3954.54 438.986 3958.27 439.388 3961.86 440.19C3965.49 440.945 3968.47 441.913 3970.78 443.093L3967.24 452.934C3964.88 451.99 3962.14 451.14 3959.03 450.385C3955.96 449.63 3953.08 449.252 3950.39 449.252C3945.01 449.252 3940.52 450.409 3936.94 452.722C3933.4 455.035 3930.73 458.433 3928.94 462.917C3927.19 467.401 3926.32 472.924 3926.32 479.484C3926.32 485.762 3927.17 491.119 3928.87 495.556C3930.61 499.993 3933.19 503.391 3936.58 505.751C3940.03 508.064 3944.32 509.221 3949.47 509.221C3953.58 509.221 3957.28 508.796 3960.58 507.946C3963.89 507.049 3966.89 506.011 3969.58 504.831V515.31C3966.98 516.631 3964.08 517.646 3960.87 518.354C3957.71 519.062 3953.93 519.416 3949.54 519.416Z" fill="black" fill-opacity="0.4"/>
</svg>
