<svg xmlns="http://www.w3.org/2000/svg" width="24" height="24" fill="none" viewBox="0 0 24 24" id="gallery-add">
  <path fill="#111" fill-rule="evenodd" d="M6.36217 11.6022C5.78516 11.0252 4.85959 10.9944 4.24547 11.5317L2.49389 13.0643C2.18216 13.3371 1.70834 13.3055 1.43558 12.9938 1.16282 12.682 1.19441 12.2082 1.50613 11.9355L3.25772 10.4028C4.46614 9.34547 6.28742 9.40612 7.42283 10.5415L11.7126 14.8313C12.1421 15.2608 12.8182 15.3193 13.3152 14.9701L13.6134 14.7605C15.0437 13.7553 16.9788 13.8718 18.2782 15.0412L21.5017 17.9424C21.8096 18.2195 21.8346 18.6937 21.5575 19.0016 21.2804 19.3095 20.8062 19.3345 20.4983 19.0574L17.2748 16.1562C16.4951 15.4545 15.334 15.3846 14.4759 15.9877L14.1777 16.1973C13.0843 16.9657 11.5968 16.8369 10.6519 15.8919L6.36217 11.6022zM18.5 1.25C18.9142 1.25 19.25 1.58579 19.25 2V4.75H22C22.4142 4.75 22.75 5.08579 22.75 5.5 22.75 5.91421 22.4142 6.25 22 6.25H19.25V9C19.25 9.41421 18.9142 9.75 18.5 9.75 18.0858 9.75 17.75 9.41421 17.75 9V6.25H15C14.5858 6.25 14.25 5.91421 14.25 5.5 14.25 5.08579 14.5858 4.75 15 4.75H17.75V2C17.75 1.58579 18.0858 1.25 18.5 1.25z" clip-rule="evenodd"></path>
  <path fill="#111" fill-rule="evenodd" d="M11.9426 1.25L12 1.25C12.4142 1.25 12.75 1.58579 12.75 2C12.75 2.41421 12.4142 2.75 12 2.75C9.62178 2.75 7.91357 2.75159 6.61359 2.92637C5.33518 3.09825 4.56446 3.42514 3.99481 3.9948C3.65897 4.33063 3.41329 4.73019 3.23175 5.2481C3.09472 5.63899 2.66676 5.8448 2.27587 5.70778C1.88498 5.57076 1.67917 5.1428 1.81619 4.7519C2.06285 4.04824 2.42034 3.44794 2.93415 2.93414C3.82896 2.03933 4.96898 1.63399 6.41372 1.43975C7.8252 1.24998 9.63424 1.24999 11.9426 1.25ZM2.03724 8.2502C2.45134 8.25966 2.77937 8.60304 2.7699 9.01714C2.75005 9.88517 2.75001 10.8692 2.75001 12C2.75001 14.3782 2.7516 16.0864 2.92638 17.3864C3.09826 18.6648 3.42515 19.4355 3.99481 20.0052C4.56446 20.5749 5.33518 20.9018 6.61359 21.0736C7.91357 21.2484 9.62178 21.25 12 21.25C14.3782 21.25 16.0865 21.2484 17.3864 21.0736C18.6648 20.9018 19.4356 20.5749 20.0052 20.0052C20.5749 19.4355 20.9018 18.6648 21.0736 17.3864C21.2484 16.0864 21.25 14.3782 21.25 12C21.25 11.5858 21.5858 11.25 22 11.25C22.4142 11.25 22.75 11.5858 22.75 12V12.0574C22.75 14.3658 22.75 16.1748 22.5603 17.5863C22.366 19.031 21.9607 20.1711 21.0659 21.0659C20.1711 21.9607 19.031 22.366 17.5863 22.5603C16.1748 22.75 14.3658 22.75 12.0574 22.75H11.9426C9.63424 22.75 7.8252 22.75 6.41372 22.5603C4.96898 22.366 3.82896 21.9607 2.93415 21.0659C2.03934 20.1711 1.634 19.031 1.43976 17.5863C1.24999 16.1748 1.25 14.3658 1.25001 12.0574L1.25001 11.9934C1.25001 10.8702 1.25001 9.86978 1.27029 8.98286C1.27976 8.56875 1.62313 8.24073 2.03724 8.2502Z" clip-rule="evenodd"></path>
</svg>