<svg width="24" height="24" viewBox="0 0 24 24" fill="none" xmlns="http://www.w3.org/2000/svg">
<path opacity="0.4" fill-rule="evenodd" clip-rule="evenodd" d="M17 7.25C17.4142 7.25 17.75 7.58579 17.75 8C17.75 8.41421 17.4142 8.75 17 8.75H7C6.58579 8.75 6.25 8.41421 6.25 8C6.25 7.58579 6.58579 7.25 7 7.25H17ZM9 13C9 13.5523 8.55228 14 8 14C7.44772 14 7 13.5523 7 13C7 12.4477 7.44772 12 8 12C8.55228 12 9 12.4477 9 13ZM8 18C8.55228 18 9 17.5523 9 17C9 16.4477 8.55228 16 8 16C7.44772 16 7 16.4477 7 17C7 17.5523 7.44772 18 8 18ZM13 17C13 17.5523 12.5523 18 12 18C11.4477 18 11 17.5523 11 17C11 16.4477 11.4477 16 12 16C12.5523 16 13 16.4477 13 17ZM16 18C16.5523 18 17 17.5523 17 17C17 16.4477 16.5523 16 16 16C15.4477 16 15 16.4477 15 17C15 17.5523 15.4477 18 16 18ZM13 13C13 13.5523 12.5523 14 12 14C11.4477 14 11 13.5523 11 13C11 12.4477 11.4477 12 12 12C12.5523 12 13 12.4477 13 13ZM16 14C16.5523 14 17 13.5523 17 13C17 12.4477 16.5523 12 16 12C15.4477 12 15 12.4477 15 13C15 13.5523 15.4477 14 16 14Z" fill="#22272F"/>
<path fill-rule="evenodd" clip-rule="evenodd" d="M7.25 4V2.87675C6.54969 2.96316 6.04423 3.10418 5.61621 3.32227C4.62859 3.82556 3.82556 4.62859 3.32227 5.61621C3.05814 6.1346 2.90706 6.76657 2.8291 7.7207C2.75047 8.68345 2.75 9.90753 2.75 11.5996V12.4004C2.75 14.0925 2.75047 15.3165 2.8291 16.2793C2.90706 17.2334 3.05814 17.8654 3.32227 18.3838C3.82556 19.3714 4.62859 20.1744 5.61621 20.6777C6.1346 20.9419 6.76657 21.0929 7.7207 21.1709C8.68345 21.2495 9.90753 21.25 11.5996 21.25H12.4004C14.0925 21.25 15.3165 21.2495 16.2793 21.1709C17.2334 21.0929 17.8654 20.9419 18.3838 20.6777C19.3714 20.1744 20.1744 19.3714 20.6777 18.3838C20.9419 17.8654 21.0929 17.2334 21.1709 16.2793C21.2495 15.3165 21.25 14.0925 21.25 12.4004V11.5996C21.25 9.90753 21.2495 8.68345 21.1709 7.7207C21.0929 6.76657 20.9419 6.1346 20.6777 5.61621C20.1744 4.62859 19.3714 3.82556 18.3838 3.32227C17.9558 3.10418 17.4503 2.96316 16.75 2.87675V4C16.75 4.41421 16.4142 4.75 16 4.75C15.5858 4.75 15.25 4.41421 15.25 4V2.77451C14.4709 2.75021 13.5422 2.75 12.4004 2.75H11.5996C10.4578 2.75 9.5291 2.75021 8.75 2.77451V4C8.75 4.41421 8.41421 4.75 8 4.75C7.58579 4.75 7.25 4.41421 7.25 4ZM15.25 1.27379C14.452 1.24999 13.5285 1.24999 12.4483 1.25L12.4004 1.25H11.5996L11.5517 1.25C10.4715 1.24999 9.54798 1.24999 8.75 1.27379V1C8.75 0.585786 8.41421 0.25 8 0.25C7.58579 0.25 7.25 0.585786 7.25 1V1.36665C6.35979 1.46208 5.614 1.63969 4.93555 1.98535C3.66545 2.6325 2.6325 3.66545 1.98535 4.93555C1.59562 5.70049 1.41953 6.55103 1.33398 7.59766C1.24999 8.62575 1.24999 9.90716 1.25 11.5517V11.5996V12.4004V12.4483C1.24999 14.0928 1.24999 15.3742 1.33398 16.4023C1.41953 17.449 1.59562 18.2995 1.98535 19.0645C2.6325 20.3345 3.66545 21.3675 4.93555 22.0146C5.70049 22.4044 6.55103 22.5805 7.59766 22.666C8.62575 22.75 9.90717 22.75 11.5517 22.75H11.5996H12.4004H12.4483C14.0928 22.75 15.3742 22.75 16.4023 22.666C17.449 22.5805 18.2995 22.4044 19.0645 22.0146C20.3345 21.3675 21.3675 20.3345 22.0146 19.0645C22.4044 18.2995 22.5805 17.449 22.666 16.4023C22.75 15.3742 22.75 14.0928 22.75 12.4483V12.4004V11.5996V11.5517C22.75 9.90717 22.75 8.62575 22.666 7.59766C22.5805 6.55103 22.4044 5.70049 22.0146 4.93555C21.3675 3.66545 20.3345 2.6325 19.0645 1.98535C18.386 1.63969 17.6402 1.46208 16.75 1.36665V1C16.75 0.585786 16.4142 0.25 16 0.25C15.5858 0.25 15.25 0.585786 15.25 1V1.27379Z" fill="#22272F"/>
</svg>
