<svg xmlns="http://www.w3.org/2000/svg" width="24" height="24" fill="none" viewBox="0 0 24 24" id="calendar-mark">
  <path fill="#111" fill-rule="evenodd" d="M7 1.75C7.41421 1.75 7.75 2.08579 7.75 2.5V4C7.75 4.41421 7.41421 4.75 7 4.75 6.58579 4.75 6.25 4.41421 6.25 4V2.5C6.25 2.08579 6.58579 1.75 7 1.75zM17 1.75C17.4142 1.75 17.75 2.08579 17.75 2.5V4C17.75 4.41421 17.4142 4.75 17 4.75 16.5858 4.75 16.25 4.41421 16.25 4V2.5C16.25 2.08579 16.5858 1.75 17 1.75zM16.5 15.75C16.0858 15.75 15.75 16.0858 15.75 16.5 15.75 16.9142 16.0858 17.25 16.5 17.25 16.9142 17.25 17.25 16.9142 17.25 16.5 17.25 16.0858 16.9142 15.75 16.5 15.75zM14.25 16.5C14.25 15.2574 15.2574 14.25 16.5 14.25 17.7426 14.25 18.75 15.2574 18.75 16.5 18.75 17.7426 17.7426 18.75 16.5 18.75 15.2574 18.75 14.25 17.7426 14.25 16.5zM22.25 9C22.25 8.58579 21.9142 8.25 21.5 8.25H10.75C10.3358 8.25 10 8.58579 10 9 10 9.41421 10.3358 9.75 10.75 9.75H21.5C21.9142 9.75 22.25 9.41421 22.25 9zM6.625 9C6.625 8.58579 6.28921 8.25 5.875 8.25H2C1.58579 8.25 1.25 8.58579 1.25 9 1.25 9.41421 1.58579 9.75 2 9.75H5.875C6.28921 9.75 6.625 9.41421 6.625 9z" clip-rule="evenodd"></path>
  <path fill="#111" fill-rule="evenodd" d="M9.94358 3.25H14.0564C15.8942 3.24998 17.3498 3.24997 18.489 3.40313C19.6614 3.56076 20.6104 3.89288 21.3588 4.64124C22.1071 5.38961 22.4392 6.33855 22.5969 7.51098C22.75 8.65019 22.75 10.1058 22.75 11.9436V14.0564C22.75 15.8942 22.75 17.3498 22.5969 18.489C22.4392 19.6614 22.1071 20.6104 21.3588 21.3588C20.5238 22.1937 19.4393 22.5106 18.0734 22.6449C17.6612 22.6855 17.2942 22.3841 17.2536 21.9719C17.2131 21.5597 17.5144 21.1927 17.9266 21.1521C19.1609 21.0307 19.8266 20.7695 20.2981 20.2981C20.7213 19.8749 20.975 19.2952 21.1102 18.2892C21.2484 17.2615 21.25 15.9068 21.25 14V12C21.25 10.0932 21.2484 8.73851 21.1102 7.71085C20.975 6.70476 20.7213 6.12511 20.2981 5.7019C19.8749 5.27869 19.2952 5.02502 18.2892 4.88976C17.2615 4.75159 15.9068 4.75 14 4.75H10C8.09318 4.75 6.73851 4.75159 5.71085 4.88976C4.70476 5.02502 4.12511 5.27869 3.7019 5.7019C3.27869 6.12511 3.02502 6.70476 2.88976 7.71085C2.75159 8.73851 2.75 10.0932 2.75 12V14C2.75 15.9068 2.75159 17.2615 2.88976 18.2892C3.02502 19.2952 3.27869 19.8749 3.7019 20.2981C4.12511 20.7213 4.70476 20.975 5.71085 21.1102C6.73851 21.2484 8.09318 21.25 10 21.25H14C14.4142 21.25 14.75 21.5858 14.75 22C14.75 22.4142 14.4142 22.75 14 22.75H9.94359C8.10583 22.75 6.65019 22.75 5.51098 22.5969C4.33856 22.4392 3.38961 22.1071 2.64124 21.3588C1.89288 20.6104 1.56076 19.6614 1.40314 18.489C1.24997 17.3498 1.24998 15.8942 1.25 14.0564V11.9436C1.24998 10.1058 1.24997 8.65019 1.40314 7.51098C1.56076 6.33855 1.89288 5.38961 2.64124 4.64124C3.38961 3.89288 4.33856 3.56076 5.51098 3.40313C6.65019 3.24997 8.10582 3.24998 9.94358 3.25Z" clip-rule="evenodd"></path>
</svg>