<svg width="24" height="24" viewBox="0 0 24 24" fill="none" xmlns="http://www.w3.org/2000/svg">
<path d="M11.7783 1.25C12.3761 1.25 12.8449 1.24892 13.25 1.27051V4C13.25 4.92161 13.2486 5.6887 13.3301 6.29492C13.4145 6.92253 13.6003 7.48898 14.0557 7.94434C14.511 8.3997 15.0775 8.58549 15.7051 8.66992C16.3113 8.75143 17.0784 8.75 18 8.75H20.7217C20.7508 9.24448 20.75 9.81666 20.75 10.5352V14C20.75 15.3876 20.7509 16.4734 20.6797 17.3447C20.6078 18.2249 20.4584 18.9522 20.123 19.6104C19.5718 20.6923 18.6923 21.5718 17.6104 22.123C16.9522 22.4584 16.2249 22.6078 15.3447 22.6797C14.4734 22.7509 13.3876 22.75 12 22.75C10.6124 22.75 9.5266 22.7509 8.65527 22.6797C7.77513 22.6078 7.04778 22.4584 6.38965 22.123C5.30773 21.5718 4.42822 20.6923 3.87695 19.6104C3.54162 18.9522 3.39222 18.2249 3.32031 17.3447C3.24915 16.4734 3.25 15.3876 3.25 14V9.77832C3.25 8.49415 3.24933 7.48895 3.31055 6.68066C3.37236 5.86463 3.50059 5.18787 3.78906 4.56934C4.36032 3.34465 5.34465 2.36032 6.56934 1.78906C7.18787 1.50059 7.86463 1.37236 8.68066 1.31055C9.48895 1.24933 10.4942 1.25 11.7783 1.25ZM9 15.25C8.58579 15.25 8.25001 15.5858 8.25 16C8.25 16.4142 8.58579 16.75 9 16.75H13C13.4142 16.75 13.75 16.4142 13.75 16C13.75 15.5858 13.4142 15.25 13 15.25H9ZM9 11.25C8.58579 11.25 8.25001 11.5858 8.25 12C8.25 12.4142 8.58579 12.75 9 12.75H15C15.4142 12.75 15.75 12.4142 15.75 12C15.75 11.5858 15.4142 11.25 15 11.25H9ZM14.75 1.54688C15.1952 1.69541 15.6215 1.89747 16.0186 2.15039C16.5658 2.49903 17.0314 2.97082 17.8086 3.74805L18.0303 3.96973C19.02 4.95943 19.6219 5.55204 20.0244 6.27539C20.1973 6.5862 20.3396 6.91289 20.4521 7.25H18C17.036 7.25 16.3883 7.24854 15.9053 7.18359C15.4439 7.12155 15.2465 7.0141 15.1162 6.88379C14.9859 6.75348 14.8785 6.55612 14.8164 6.09473C14.7515 5.61169 14.75 4.96401 14.75 4V1.54688Z" fill="#22272F"/>
</svg>
