<svg xmlns="http://www.w3.org/2000/svg" viewBox="0 0 64 64" id="account-profile">
  <path d="M59.68 13.9A9.591 9.591 0 0050.1 4.32H42.61a1.5 1.5 0 000 3H50.1a6.588 6.588 0 016.58 6.58v7.49a1.5 1.5 0 003 0zM4.32 50.1a9.591 9.591 0 009.58 9.58h7.49a1.5 1.5 0 000-3H13.9A6.588 6.588 0 017.32 50.1V42.61a1.5 1.5 0 00-3 0zM21.39 4.32H13.9A9.591 9.591 0 004.32 13.9v7.49a1.5 1.5 0 003 0V13.9A6.588 6.588 0 0113.9 7.32h7.49a1.5 1.5 0 000-3zM42.61 59.68H50.1a9.591 9.591 0 009.58-9.58V42.61a1.5 1.5 0 00-3 0V50.1a6.588 6.588 0 01-6.58 6.58H42.61a1.5 1.5 0 000 3zM32 36.008a11.864 11.864 0 0111.851 11.85 11.41 11.41 0 01-.367 2.913A1.5 1.5 0 0044.555 52.6a1.521 1.521 0 00.382.048 1.5 1.5 0 001.45-1.119 14.509 14.509 0 00.464-3.675 14.851 14.851 0 00-29.7 0 14.509 14.509 0 00.464 3.675 1.5 1.5 0 102.9-.762 11.41 11.41 0 01-.367-2.913A11.864 11.864 0 0132 36.008z"></path>
  <path d="M32,11.348A10.15,10.15,0,1,0,42.15,21.5,10.161,10.161,0,0,0,32,11.348Zm0,17.3a7.15,7.15,0,1,1,7.15-7.15A7.159,7.159,0,0,1,32,28.648Z"></path>
</svg>