<svg width="24" height="24" viewBox="0 0 24 24" fill="none" xmlns="http://www.w3.org/2000/svg">
<g clip-path="url(#clip0_2403_14)">
<path d="M12.075 14.4C12.579 14.4 12.831 14.04 12.906 13.4595C12.966 12.6585 13.203 12.237 14.1765 11.5695C15.186 10.857 15.75 9.9345 15.75 8.5905C15.75 6.603 14.37 5.25 12.357 5.25C10.827 5.25 9.669 5.988 9.207 7.185C9.067 7.51192 8.9965 7.86438 9 8.22C9 8.8095 9.3045 9.18 9.8175 9.18C10.2255 9.18 10.5 8.9595 10.6635 8.415C10.9005 7.527 11.451 7.0425 12.2745 7.0425C13.1895 7.0425 13.8195 7.7115 13.8195 8.6685C13.8195 9.513 13.5075 9.996 12.5865 10.656C11.658 11.3055 11.1975 12.027 11.1975 13.116V13.2825C11.1975 13.9245 11.5095 14.4 12.075 14.4Z" fill="black"/>
<path d="M15.4091 3.76915L14.0276 2.35315L15.1001 1.30615L16.0331 2.26165L17.3681 2.24515C17.946 2.23831 18.5194 2.34708 19.0546 2.56508C19.5898 2.78307 20.076 3.10589 20.4847 3.51454C20.8933 3.92318 21.2162 4.40942 21.4342 4.94464C21.6521 5.47986 21.7609 6.05327 21.7541 6.63115L21.7391 7.96615L22.6931 8.89915C23.1063 9.3029 23.4346 9.78517 23.6588 10.3176C23.8829 10.8501 23.9984 11.4219 23.9984 11.9996C23.9984 12.5774 23.8829 13.1492 23.6588 13.6817C23.4346 14.2141 23.1063 14.6964 22.6931 15.1001L21.7376 16.0331L21.7541 17.3681C21.7609 17.946 21.6521 18.5194 21.4342 19.0547C21.2162 19.5899 20.8933 20.0761 20.4847 20.4848C20.076 20.8934 19.5898 21.2162 19.0546 21.4342C18.5194 21.6522 17.946 21.761 17.3681 21.7541L16.0331 21.7391L15.1001 22.6931C14.6963 23.1063 14.2141 23.4347 13.6816 23.6588C13.1492 23.883 12.5773 23.9984 11.9996 23.9984C11.4219 23.9984 10.85 23.883 10.3176 23.6588C9.78511 23.4347 9.30284 23.1063 8.89909 22.6931L7.96609 21.7376L6.63109 21.7541C6.05321 21.761 5.4798 21.6522 4.94458 21.4342C4.40936 21.2162 3.92312 20.8934 3.51448 20.4848C3.10583 20.0761 2.78301 19.5899 2.56502 19.0547C2.34702 18.5194 2.23825 17.946 2.24509 17.3681L2.26009 16.0331L1.30609 15.1001C0.892897 14.6964 0.564577 14.2141 0.340421 13.6817C0.116264 13.1492 0.000793457 12.5774 0.000793457 11.9996C0.000793457 11.4219 0.116264 10.8501 0.340421 10.3176C0.564577 9.78517 0.892897 9.3029 1.30609 8.89915L2.26159 7.96615L2.24509 6.63115C2.23825 6.05327 2.34702 5.47986 2.56502 4.94464C2.78301 4.40942 3.10583 3.92318 3.51448 3.51454C3.92312 3.10589 4.40936 2.78307 4.94458 2.56508C5.4798 2.34708 6.05321 2.23831 6.63109 2.24515L7.96609 2.26015L8.89909 1.30615C9.30284 0.892958 9.78511 0.564638 10.3176 0.340482C10.85 0.116325 11.4219 0.000854492 11.9996 0.000854492C12.5773 0.000854492 13.1492 0.116325 13.6816 0.340482C14.2141 0.564638 14.6963 0.892958 15.1001 1.30615L14.0276 2.35315C13.7635 2.08283 13.4481 1.86803 13.0998 1.72137C12.7516 1.57472 12.3775 1.49917 11.9996 1.49917C11.6217 1.49917 11.2476 1.57472 10.8994 1.72137C10.5511 1.86803 10.2356 2.08283 9.97159 2.35315L8.59159 3.76915L6.61159 3.74515C6.23385 3.74092 5.85909 3.81223 5.5093 3.95489C5.15951 4.09754 4.84176 4.30866 4.57472 4.57585C4.30768 4.84303 4.09672 5.16089 3.95425 5.51075C3.81178 5.86061 3.74067 6.23542 3.74509 6.61315L3.76909 8.59015L2.35309 9.97165C2.08277 10.2357 1.86796 10.5511 1.72131 10.8994C1.57465 11.2477 1.49911 11.6218 1.49911 11.9996C1.49911 12.3775 1.57465 12.7516 1.72131 13.0999C1.86796 13.4482 2.08277 13.7636 2.35309 14.0276L3.76909 15.4076L3.74509 17.3876C3.74086 17.7654 3.81217 18.1401 3.95483 18.4899C4.09748 18.8397 4.3086 19.1575 4.57579 19.4245C4.84297 19.6916 5.16083 19.9025 5.51069 20.045C5.86055 20.1875 6.23536 20.2586 6.61309 20.2541L8.59009 20.2301L9.97159 21.6461C10.2356 21.9165 10.5511 22.1313 10.8994 22.2779C11.2476 22.4246 11.6217 22.5001 11.9996 22.5001C12.3775 22.5001 12.7516 22.4246 13.0998 22.2779C13.4481 22.1313 13.7635 21.9165 14.0276 21.6461L15.4076 20.2301L17.3876 20.2541C17.7653 20.2584 18.1401 20.1871 18.4899 20.0444C18.8397 19.9018 19.1574 19.6906 19.4245 19.4234C19.6915 19.1563 19.9025 18.8384 20.0449 18.4885C20.1874 18.1387 20.2585 17.7639 20.2541 17.3861L20.2301 15.4091L21.6461 14.0276C21.9164 13.7636 22.1312 13.4482 22.2779 13.0999C22.4245 12.7516 22.5001 12.3775 22.5001 11.9996C22.5001 11.6218 22.4245 11.2477 22.2779 10.8994C22.1312 10.5511 21.9164 10.2357 21.6461 9.97165L20.2301 8.59165L20.2541 6.61165C20.2583 6.23391 20.187 5.85915 20.0443 5.50936C19.9017 5.15957 19.6906 4.84183 19.4234 4.57478C19.1562 4.30774 18.8383 4.09678 18.4885 3.95431C18.1386 3.81184 17.7638 3.74073 17.3861 3.74515L15.4091 3.76915V3.76915Z" fill="black"/>
<path d="M10.5015 16.5C10.5015 16.1022 10.6596 15.7206 10.9409 15.4393C11.2222 15.158 11.6037 15 12.0015 15C12.3994 15 12.7809 15.158 13.0622 15.4393C13.3435 15.7206 13.5015 16.1022 13.5015 16.5C13.5015 16.8978 13.3435 17.2794 13.0622 17.5607C12.7809 17.842 12.3994 18 12.0015 18C11.6037 18 11.2222 17.842 10.9409 17.5607C10.6596 17.2794 10.5015 16.8978 10.5015 16.5V16.5Z" fill="black"/>
</g>
<defs>
<clipPath id="clip0_2403_14">
<rect width="24" height="24" fill="white"/>
</clipPath>
</defs>
</svg>
