<svg width="24" height="24" viewBox="0 0 24 24" fill="none" xmlns="http://www.w3.org/2000/svg">
<path opacity="0.4" d="M12 15C12.5523 15 13 15.4477 13 16C13 16.5523 12.5523 17 12 17C11.4477 17 11 16.5523 11 16C11 15.4477 11.4477 15 12 15ZM12 7.25C12.4142 7.25 12.75 7.58579 12.75 8L12.75 13C12.75 13.4142 12.4142 13.75 12 13.75C11.5858 13.75 11.25 13.4142 11.25 13L11.25 8C11.25 7.58579 11.5858 7.25 12 7.25Z" fill="#22272F"/>
<path d="M11.371 0.815676C11.7817 0.696091 12.218 0.6961 12.6288 0.815676C12.9015 0.895105 13.1293 1.03228 13.3427 1.18872C13.5484 1.33959 13.7812 1.53965 14.0497 1.76978L15.3144 2.85279C15.5878 3.08719 15.6441 3.13016 15.6981 3.15943C15.7605 3.19317 15.8271 3.21867 15.8964 3.23365C15.9565 3.24662 16.0274 3.25025 16.3876 3.25025L17.5995 3.25025C18.0071 3.25025 18.3586 3.24921 18.6464 3.27271C18.9428 3.29694 19.2377 3.35081 19.5214 3.49536C19.9447 3.71108 20.2891 4.0554 20.5048 4.47876C20.6493 4.76244 20.7032 5.05737 20.7274 5.35376C20.7509 5.64148 20.7499 5.99307 20.7499 6.40064L20.7499 7.61255C20.7499 7.97264 20.7535 8.04367 20.7665 8.10376C20.7815 8.17302 20.807 8.23968 20.8407 8.30201C20.87 8.35605 20.9131 8.41249 21.1474 8.68579L22.2304 9.95044C22.4605 10.2189 22.6606 10.4518 22.8114 10.6575C22.9678 10.8708 23.105 11.0987 23.1845 11.3713C23.304 11.7821 23.304 12.2184 23.1845 12.6292C23.105 12.9017 22.9678 13.1297 22.8114 13.343C22.6606 13.5487 22.4604 13.7816 22.2304 14.0501L21.1474 15.3147C20.9131 15.5881 20.87 15.6444 20.8407 15.6985C20.807 15.7608 20.7815 15.8275 20.7665 15.8967C20.7536 15.9568 20.7499 16.0281 20.7499 16.3879L20.7499 17.5999C20.7499 18.0074 20.7509 18.359 20.7274 18.6467C20.7032 18.9431 20.6493 19.2381 20.5048 19.5217C20.2891 19.945 19.9447 20.2895 19.5214 20.5051C19.2377 20.6496 18.9428 20.7036 18.6464 20.7278C18.3586 20.7513 18.0071 20.7502 17.5995 20.7502L16.3876 20.7502C16.0274 20.7502 15.9565 20.7539 15.8964 20.7668C15.8271 20.7818 15.7605 20.8073 15.6981 20.8411C15.6441 20.8703 15.5875 20.9135 15.3143 21.1477L14.0497 22.2307C13.7813 22.4608 13.5484 22.6609 13.3427 22.8118C13.1294 22.9682 12.9014 23.1054 12.6288 23.1848C12.2181 23.3044 11.7817 23.3044 11.371 23.1848C11.0983 23.1054 10.8705 22.9682 10.6571 22.8118C10.4514 22.6609 10.2186 22.4608 9.95009 22.2307L8.68544 21.1477C8.41193 20.9133 8.35573 20.8703 8.30165 20.8411C8.23927 20.8073 8.17274 20.7818 8.10341 20.7668C8.04332 20.7539 7.97235 20.7502 7.6122 20.7502L6.3661 20.7502C5.95849 20.7502 5.60696 20.7513 5.31923 20.7278C5.02283 20.7036 4.72792 20.6497 4.44423 20.5051C4.02091 20.2894 3.67655 19.945 3.46083 19.5217C3.31631 19.2381 3.26242 18.9431 3.23818 18.6467C3.21467 18.359 3.21571 18.0074 3.21571 17.5999L3.21571 16.3801C3.21571 16.0234 3.21185 15.9524 3.19911 15.8928C3.18437 15.8242 3.16001 15.7574 3.12685 15.6956C3.09803 15.6419 3.0547 15.5858 2.82411 15.3137L1.74208 14.0364C1.51599 13.7696 1.31913 13.5378 1.17079 13.3333C1.01694 13.1211 0.882688 12.8946 0.804583 12.6243C0.686885 12.2166 0.68693 11.7839 0.804583 11.3762C0.882657 11.1059 1.01697 10.8794 1.17079 10.6672C1.3191 10.4627 1.51602 10.2309 1.74208 9.96411L2.82411 8.68677C3.05444 8.41496 3.09803 8.35856 3.12685 8.30493C3.16001 8.24308 3.18436 8.17627 3.19911 8.10767C3.21188 8.04803 3.21571 7.9773 3.21572 7.62036L3.21572 6.40064C3.21572 5.99308 3.21469 5.64147 3.23818 5.35376C3.2624 5.0574 3.31636 4.76241 3.46083 4.47876C3.67652 4.05546 4.02095 3.71108 4.44423 3.49536C4.72791 3.35084 5.02284 3.29694 5.31923 3.27271C5.60696 3.2492 5.95849 3.25024 6.36611 3.25025L7.6122 3.25025C7.97218 3.25024 8.04334 3.24659 8.10341 3.23364C8.17267 3.21868 8.23933 3.19313 8.30165 3.15943C8.35572 3.13017 8.41208 3.08709 8.68544 2.85278L9.95009 1.76978C10.2185 1.53971 10.4514 1.33957 10.6571 1.18872C10.8704 1.03231 11.0984 0.895112 11.371 0.815676ZM12.2099 2.25611C12.0729 2.21621 11.9269 2.21621 11.7899 2.25611C11.7517 2.26731 11.6848 2.29434 11.5438 2.39771C11.3948 2.50704 11.2114 2.66357 10.9257 2.90845L9.66201 3.99146C9.43665 4.18462 9.24289 4.35572 9.01552 4.47876C8.82837 4.58 8.62781 4.65456 8.41982 4.69946C8.16713 4.75398 7.909 4.75025 7.6122 4.75025L6.36611 4.75025C5.93376 4.75025 5.65379 4.75046 5.4413 4.76782C5.23782 4.78447 5.16196 4.81339 5.1249 4.83228C4.98415 4.90413 4.86958 5.01866 4.79775 5.15942C4.77886 5.19657 4.74991 5.27268 4.73329 5.47583C4.71595 5.68831 4.71572 5.96837 4.71572 6.40064L4.71572 7.62036C4.71572 7.91457 4.71957 8.17046 4.66591 8.42114C4.62172 8.62748 4.54878 8.82694 4.44911 9.01294C4.32794 9.23891 4.15891 9.43196 3.96865 9.65649L2.88661 10.9338C2.64601 11.2178 2.49299 11.4001 2.38564 11.5481C2.28391 11.6884 2.25599 11.7542 2.24501 11.7922C2.20589 11.928 2.20585 12.0725 2.24501 12.2083C2.25603 12.2463 2.28394 12.3122 2.38564 12.4524C2.49301 12.6004 2.64597 12.7827 2.88661 13.0667L3.96865 14.344C4.15895 14.5686 4.32794 14.7615 4.44911 14.9875C4.54878 15.1736 4.62173 15.373 4.66591 15.5793C4.71954 15.83 4.71572 16.0859 4.71571 16.3801L4.71571 17.5999C4.71571 18.0321 4.71593 18.3122 4.73329 18.5247C4.74995 18.7281 4.77887 18.804 4.79775 18.8411C4.86961 18.9818 4.98411 19.0964 5.12489 19.1682C5.16196 19.1871 5.23779 19.216 5.4413 19.2327C5.65378 19.25 5.93376 19.2502 6.36611 19.2502L7.6122 19.2502C7.90903 19.2502 8.1671 19.2465 8.41982 19.301C8.62787 19.3459 8.82832 19.4204 9.01552 19.5217C9.24294 19.6448 9.43657 19.8158 9.662 20.009L10.9257 21.092C11.2115 21.337 11.3947 21.4934 11.5438 21.6028C11.6849 21.7062 11.7517 21.7332 11.7899 21.7444C11.9269 21.7843 12.0729 21.7842 12.2099 21.7444C12.2481 21.7332 12.3149 21.7062 12.4559 21.6028C12.605 21.4935 12.7884 21.3369 13.0741 21.092L14.3378 20.009C14.5632 19.8159 14.7569 19.6448 14.9843 19.5217C15.1714 19.4205 15.372 19.346 15.58 19.301C15.8327 19.2465 16.0908 19.2502 16.3876 19.2502L17.5995 19.2502C18.0318 19.2502 18.3118 19.25 18.5243 19.2327C18.7275 19.216 18.8036 19.1871 18.8407 19.1682C18.9815 19.0964 19.096 18.9818 19.1679 18.8411C19.1867 18.804 19.2157 18.728 19.2323 18.5247C19.2497 18.3122 19.2499 18.0321 19.2499 17.5999L19.2499 16.3879C19.2499 16.0912 19.2462 15.833 19.3007 15.5803C19.3456 15.3724 19.4201 15.1718 19.5214 14.9846C19.6444 14.7573 19.8155 14.5635 20.0087 14.3381L21.0917 13.0745C21.3366 12.7888 21.4931 12.6054 21.6024 12.4563C21.7057 12.3154 21.7328 12.2485 21.744 12.2102C21.7839 12.0733 21.7839 11.9272 21.744 11.7903C21.7329 11.7521 21.7059 11.6853 21.6024 11.5442C21.4931 11.3951 21.3366 11.2118 21.0917 10.926L20.0087 9.66236C19.8155 9.43697 19.6444 9.24324 19.5214 9.01587C19.4201 8.82872 19.3456 8.62816 19.3007 8.42017C19.2461 8.1675 19.2499 7.90932 19.2499 7.61255L19.2499 6.40064C19.2499 5.96837 19.2497 5.68831 19.2323 5.47583C19.2157 5.27252 19.1868 5.19654 19.1679 5.15943C19.096 5.0186 18.9815 4.90413 18.8407 4.83228C18.8036 4.81339 18.7279 4.78447 18.5243 4.76783C18.3118 4.75047 18.0319 4.75025 17.5995 4.75025L16.3876 4.75025C16.0908 4.75025 15.8327 4.75401 15.58 4.69947C15.3719 4.65455 15.1715 4.58004 14.9843 4.47876C14.7569 4.3557 14.5632 4.18467 14.3378 3.99146L13.0741 2.90845C12.7883 2.66349 12.6051 2.50705 12.456 2.39771C12.3148 2.2942 12.2481 2.26728 12.2099 2.25611Z" fill="#22272F"/>
</svg>
