<svg width="24" height="24" viewBox="0 0 24 24" fill="none" xmlns="http://www.w3.org/2000/svg">
<path fill-rule="evenodd" clip-rule="evenodd" d="M4.00073 12.6084V12.4113C4.02907 11.8282 4.21229 11.2632 4.53149 10.7746C5.0628 10.1877 5.4265 9.46847 5.58445 8.69238C5.58445 8.09255 5.58445 7.48415 5.63582 6.88432C5.9012 3.99657 8.70054 2 11.4656 2H11.5341C14.2992 2 17.0986 3.99657 17.3725 6.88432C17.4239 7.48415 17.3725 8.09255 17.4153 8.69238C17.5754 9.47027 17.9387 10.1918 18.4683 10.7832C18.7899 11.2675 18.9734 11.8304 18.999 12.4113V12.5998C19.0181 13.3832 18.7536 14.1471 18.2543 14.7507C17.5944 15.4563 16.6989 15.8953 15.7374 15.9846C12.9179 16.2931 10.0733 16.2931 7.25379 15.9846C6.29336 15.8915 5.3992 15.4531 4.73695 14.7507C4.24529 14.1467 3.98433 13.3873 4.00073 12.6084ZM9.34259 18.9666C9.78313 19.5306 10.4301 19.8956 11.1402 19.9809C11.8503 20.0661 12.5651 19.8645 13.1264 19.4208C13.299 19.2895 13.4544 19.1369 13.5887 18.9666" fill="#757780"/>
<path d="M9.34259 18.9666C9.78313 19.5306 10.4301 19.8956 11.1402 19.9809C11.8503 20.0661 12.5651 19.8645 13.1264 19.4208C13.299 19.2895 13.4544 19.1369 13.5887 18.9666M4.00073 12.6084V12.4113C4.02907 11.8282 4.21229 11.2632 4.53149 10.7746C5.0628 10.1877 5.4265 9.46847 5.58445 8.69238C5.58445 8.09255 5.58445 7.48415 5.63582 6.88432C5.9012 3.99657 8.70054 2 11.4656 2H11.5341C14.2992 2 17.0986 3.99657 17.3725 6.88432C17.4239 7.48415 17.3725 8.09255 17.4153 8.69238C17.5754 9.47027 17.9387 10.1918 18.4683 10.7832C18.7899 11.2675 18.9734 11.8304 18.999 12.4113V12.5998C19.0181 13.3832 18.7536 14.1471 18.2543 14.7507C17.5944 15.4563 16.6989 15.8953 15.7374 15.9846C12.9179 16.2931 10.0733 16.2931 7.25379 15.9846C6.29336 15.8915 5.3992 15.4531 4.73695 14.7507C4.24529 14.1467 3.98433 13.3873 4.00073 12.6084Z" stroke="#757780" stroke-width="2" stroke-linecap="round" stroke-linejoin="round"/>
</svg>
