<svg xmlns="http://www.w3.org/2000/svg" width="24" height="24" fill="none" viewBox="0 0 24 24" id="shield-user">
  <path fill="#111" fill-rule="evenodd" d="M12 7.75C11.3096 7.75 10.75 8.30964 10.75 9 10.75 9.69036 11.3096 10.25 12 10.25 12.6904 10.25 13.25 9.69036 13.25 9 13.25 8.30964 12.6904 7.75 12 7.75zM9.25 9C9.25 7.48122 10.4812 6.25 12 6.25 13.5188 6.25 14.75 7.48122 14.75 9 14.75 10.5188 13.5188 11.75 12 11.75 10.4812 11.75 9.25 10.5188 9.25 9zM9.50698 14.2566C8.86285 14.5787 8.75 14.8848 8.75 15 8.75 15.6045 8.78849 15.6972 8.93977 15.8067 9.06182 15.895 9.3131 16.0134 9.82031 16.1047 10.3218 16.1949 11.0228 16.25 12 16.25 12.9772 16.25 13.6782 16.1949 14.1797 16.1047 14.6869 16.0134 14.9382 15.895 15.0602 15.8067 15.2115 15.6972 15.25 15.6045 15.25 15 15.25 14.8848 15.1371 14.5787 14.493 14.2566 13.8937 13.957 13.0134 13.75 12 13.75 10.9866 13.75 10.1063 13.957 9.50698 14.2566zM8.83616 12.915C9.68461 12.4907 10.8042 12.25 12 12.25 13.1958 12.25 14.3154 12.4907 15.1638 12.915 15.9674 13.3168 16.75 14.0106 16.75 15 16.75 15.0202 16.7501 15.041 16.7501 15.0625 16.7517 15.5728 16.7542 16.4322 15.9398 17.0218 15.5618 17.2953 15.0631 17.4698 14.4453 17.581 13.8218 17.6932 13.0228 17.75 12 17.75 10.9772 17.75 10.1782 17.6932 9.55469 17.581 8.9369 17.4698 8.43818 17.2953 8.06023 17.0218 7.24576 16.4322 7.24834 15.5728 7.24987 15.0625 7.24994 15.041 7.25 15.0202 7.25 15 7.25 14.0106 8.03258 13.3168 8.83616 12.915z" clip-rule="evenodd"></path>
  <path fill="#111" fill-rule="evenodd" d="M12 2.75C11.3423 2.75 10.6951 2.96164 9.08062 3.5143L8.5078 3.71037C6.99521 4.22814 5.8921 4.60605 5.11759 4.92069C4.731 5.07774 4.4509 5.20935 4.25429 5.32353C4.15722 5.3799 4.09034 5.42642 4.04567 5.46273C4.0078 5.49351 3.99336 5.51095 3.99129 5.51349C3.98936 5.51663 3.97693 5.5374 3.95943 5.58654C3.93944 5.64265 3.91729 5.72309 3.89571 5.83506C3.85204 6.06169 3.81894 6.37301 3.79608 6.79292C3.75028 7.63411 3.75 8.80833 3.75 10.4167C3.75 10.8309 3.41421 11.1667 3 11.1667C2.58579 11.1667 2.25 10.8309 2.25 10.4167V10.3899C2.25 8.81365 2.25 7.59841 2.2983 6.71136C2.32262 6.26464 2.36031 5.87556 2.42281 5.55122C2.48293 5.23924 2.5786 4.91516 2.76363 4.65154C2.95082 4.38484 3.22634 4.1859 3.50098 4.02641C3.78637 3.86067 4.14078 3.69846 4.55303 3.53099C5.37141 3.19852 6.51463 2.8072 7.99596 2.30013L8.59483 2.09514C8.63817 2.0803 8.68101 2.06563 8.72339 2.05112C10.1673 1.55658 11.0625 1.25 12 1.25C12.9375 1.25 13.8327 1.55658 15.2766 2.05112C15.319 2.06563 15.3618 2.0803 15.4052 2.09514L16.004 2.30013C17.4854 2.8072 18.6286 3.19852 19.447 3.53099C19.8592 3.69846 20.2136 3.86067 20.499 4.02641C20.7737 4.1859 21.0492 4.38484 21.2364 4.65154C21.4214 4.91516 21.5171 5.23924 21.5772 5.55122C21.6397 5.87556 21.6774 6.26464 21.7017 6.71136C21.75 7.5984 21.75 8.81361 21.75 10.3898V11.9914C21.75 14.6785 20.8477 16.7716 19.589 18.3684C19.3326 18.6937 18.861 18.7496 18.5357 18.4932C18.2104 18.2367 18.1546 17.7652 18.411 17.4399C19.4788 16.0853 20.25 14.3142 20.25 11.9914V10.4167C20.25 8.80833 20.2497 7.63411 20.2039 6.79292C20.1811 6.37301 20.148 6.06169 20.1043 5.83506C20.0827 5.72309 20.0606 5.64265 20.0406 5.58654C20.0231 5.53737 20.0106 5.5166 20.0087 5.51348C20.0066 5.51092 19.9922 5.49349 19.9543 5.46273C19.9097 5.42642 19.8428 5.3799 19.7457 5.32353C19.5491 5.20935 19.269 5.07774 18.8824 4.92069C18.1079 4.60605 17.0048 4.22814 15.4922 3.71037L14.9194 3.5143C13.3049 2.96164 12.6577 2.75 12 2.75ZM3.04613 13.2645C3.45234 13.1835 3.84732 13.4471 3.92835 13.8533C4.71242 17.784 7.9481 19.8568 10.1988 20.84C10.5703 21.0023 10.7848 21.0941 11.0236 21.1552C11.2517 21.2136 11.53 21.25 12 21.25C12.47 21.25 12.7483 21.2136 12.9764 21.1552C13.2152 21.0941 13.4297 21.0023 13.8012 20.84C14.3521 20.5993 14.9721 20.2887 15.6041 19.8958C15.9559 19.6772 16.4183 19.7851 16.637 20.1369C16.8556 20.4887 16.7477 20.9511 16.3959 21.1698C15.6927 21.6069 15.007 21.9501 14.4017 22.2146L14.3746 22.2264C14.0348 22.3749 13.7154 22.5144 13.3484 22.6084C12.9609 22.7076 12.5493 22.75 12 22.75C11.4507 22.75 11.0391 22.7076 10.6516 22.6084C10.2846 22.5144 9.96523 22.3749 9.62543 22.2264L9.59833 22.2146C7.20473 21.169 3.38809 18.8128 2.45733 14.1467C2.3763 13.7405 2.63991 13.3455 3.04613 13.2645Z" clip-rule="evenodd"></path>
</svg>