<svg width="24" height="24" viewBox="0 0 24 24" fill="none" xmlns="http://www.w3.org/2000/svg">
<path d="M17 4H17.2C18.9913 4 19.887 4 20.4435 4.5565C21 5.11299 21 6.00866 21 7.8V8M17 20H17.2C18.9913 20 19.887 20 20.4435 19.4435C21 18.887 21 17.9913 21 16.2V16M7 4H6.8C5.00866 4 4.11299 4 3.5565 4.5565C3 5.11299 3 6.00866 3 7.8V8M7 20H6.8C5.00866 20 4.11299 20 3.5565 19.4435C3 18.887 3 17.9913 3 16.2V16" stroke="#33363F" stroke-width="2" stroke-linecap="round"/>
<path d="M11.9995 7C15.6556 7 17.5835 9.33275 18.438 10.8115C18.6893 11.2463 18.815 11.4638 18.815 12C18.815 12.5362 18.6893 12.7537 18.438 13.1885C17.5835 14.6672 15.6556 17 11.9995 17C8.34379 16.9998 6.41652 14.6672 5.56204 13.1885C5.31079 12.7537 5.18509 12.5362 5.18509 12C5.18509 11.4638 5.31079 11.2463 5.56204 10.8115C6.41652 9.33282 8.34379 7.0002 11.9995 7ZM11.9995 9C10.3429 9.00025 8.99954 10.3433 8.99954 12C8.99954 13.6567 10.3429 14.9997 11.9995 15C13.6564 15 14.9995 13.6569 14.9995 12C14.9995 10.3431 13.6564 9 11.9995 9Z" fill="#33363F"/>
</svg>
