<svg xmlns="http://www.w3.org/2000/svg" style="display: none;">
  <defs>
    <!-- Color palette from Paradise HR logo -->
    <linearGradient id="paradiseGradient" x1="0%" y1="0%" x2="100%" y2="100%">
      <stop offset="0%" style="stop-color:#73c41d;stop-opacity:1" />
      <stop offset="100%" style="stop-color:#71c11d;stop-opacity:1" />
    </linearGradient>
    
    <linearGradient id="paradiseGradientDark" x1="0%" y1="0%" x2="100%" y2="100%">
      <stop offset="0%" style="stop-color:#004c39;stop-opacity:1" />
      <stop offset="100%" style="stop-color:#004b38;stop-opacity:1" />
    </linearGradient>
  </defs>

  <!-- Dashboard / Home Icon -->
  <symbol id="icon-home" viewBox="0 0 24 24">
    <path class="icon-fill" d="M10.07 2.82L3.14 8.37C2.36 8.99 1.86 10.3 2.03 11.28L3.36 19.24C3.6 20.66 4.96 21.81 6.4 21.81H17.6C19.03 21.81 20.4 20.65 20.64 19.24L21.97 11.28C22.13 10.3 21.63 8.99 20.86 8.37L13.93 2.83C12.86 1.97 11.13 1.97 10.07 2.82Z" fill="url(#paradiseGradient)"/>
    <path class="icon-accent" d="M12 15.5C13.38 15.5 14.5 14.38 14.5 13C14.5 11.62 13.38 10.5 12 10.5C10.62 10.5 9.5 11.62 9.5 13C9.5 14.38 10.62 15.5 12 15.5Z" fill="#004c39"/>
  </symbol>

  <!-- Users / Employees Icon -->
  <symbol id="icon-users" viewBox="0 0 24 24">
    <path class="icon-fill" d="M18 7.16C17.94 7.15 17.87 7.15 17.81 7.16C16.43 7.11 15.33 5.98 15.33 4.58C15.33 3.15 16.48 2 17.91 2C19.34 2 20.49 3.16 20.49 4.58C20.48 5.98 19.38 7.11 18 7.16Z" fill="url(#paradiseGradient)"/>
    <path class="icon-fill" d="M16.97 14.44C18.34 14.67 19.85 14.43 20.91 13.72C22.32 12.78 22.32 11.24 20.91 10.3C19.84 9.59 18.31 9.35 16.94 9.59" fill="url(#paradiseGradient)"/>
    <path class="icon-accent" d="M5.97 7.16C6.03 7.15 6.1 7.15 6.16 7.16C7.54 7.11 8.64 5.98 8.64 4.58C8.64 3.15 7.49 2 6.06 2C4.63 2 3.48 3.16 3.48 4.58C3.49 5.98 4.59 7.11 5.97 7.16Z" fill="#004c39"/>
    <path class="icon-accent" d="M7 14.44C5.63 14.67 4.12 14.43 3.06 13.72C1.65 12.78 1.65 11.24 3.06 10.3C4.13 9.59 5.66 9.35 7.03 9.59" fill="#004c39"/>
    <path class="icon-primary" d="M12 14.63C11.94 14.62 11.87 14.62 11.81 14.63C10.43 14.58 9.33 13.45 9.33 12.05C9.33 10.62 10.48 9.47 11.91 9.47C13.34 9.47 14.49 10.63 14.49 12.05C14.48 13.45 13.38 14.59 12 14.63Z" fill="#72c31d"/>
    <path class="icon-primary" d="M9.09 17.78C7.68 18.72 7.68 20.26 9.09 21.2C10.69 22.27 13.31 22.27 14.91 21.2C16.32 20.26 16.32 18.72 14.91 17.78C13.32 16.72 10.69 16.72 9.09 17.78Z" fill="#72c31d"/>
  </symbol>

  <!-- Document / Requests Icon -->
  <symbol id="icon-document" viewBox="0 0 24 24">
    <path class="icon-fill" d="M21 7V17C21 20 19.5 22 16 22H8C4.5 22 3 20 3 17V7C3 4 4.5 2 8 2H16C19.5 2 21 4 21 7Z" fill="url(#paradiseGradient)"/>
    <path class="icon-accent" d="M14.5 4.5V6.5C14.5 7.6 15.4 8.5 16.5 8.5H18.5" stroke="#004c39" stroke-width="1.5" stroke-miterlimit="10" stroke-linecap="round" stroke-linejoin="round" fill="none"/>
    <path class="icon-light" d="M8 13H12M8 17H16" stroke="#fbfcfc" stroke-width="1.5" stroke-linecap="round" stroke-linejoin="round"/>
  </symbol>

  <!-- Calendar / Attendance Icon -->
  <symbol id="icon-calendar" viewBox="0 0 24 24">
    <path class="icon-fill" d="M8 2V5M16 2V5M3.5 9.09H20.5M21 8.5V17C21 20 19.5 22 16 22H8C4.5 22 3 20 3 17V8.5C3 5.5 4.5 3.5 8 3.5H16C19.5 3.5 21 5.5 21 8.5Z" stroke="url(#paradiseGradient)" stroke-width="1.5" stroke-miterlimit="10" stroke-linecap="round" stroke-linejoin="round" fill="none"/>
    <path class="icon-accent" d="M15.6947 13.7H15.7037M15.6947 16.7H15.7037M11.9955 13.7H12.0045M11.9955 16.7H12.0045M8.29431 13.7H8.30329M8.29431 16.7H8.30329" stroke="#004c39" stroke-width="2" stroke-linecap="round" stroke-linejoin="round"/>
  </symbol>

  <!-- Dollar / Payroll Icon -->
  <symbol id="icon-payroll" viewBox="0 0 24 24">
    <path class="icon-fill" d="M17 20.5H7C4 20.5 2 19 2 15.5V8.5C2 5 4 3.5 7 3.5H17C20 3.5 22 5 22 8.5V15.5C22 19 20 20.5 17 20.5Z" fill="url(#paradiseGradient)"/>
    <path class="icon-accent" d="M12 15C13.6569 15 15 13.6569 15 12C15 10.3431 13.6569 9 12 9C10.3431 9 9 10.3431 9 12C9 13.6569 10.3431 15 12 15Z" stroke="#004c39" stroke-width="1.5" stroke-miterlimit="10" stroke-linecap="round" stroke-linejoin="round" fill="none"/>
    <path class="icon-light" d="M8.25 7.5H5.75M18.25 16.5H15.75" stroke="#fbfcfc" stroke-width="1.5" stroke-miterlimit="10" stroke-linecap="round" stroke-linejoin="round"/>
  </symbol>

  <!-- Organization / Hierarchy Icon -->
  <symbol id="icon-organization" viewBox="0 0 24 24">
    <path class="icon-fill" d="M17 2H7C4 2 2 4 2 7V21C2 21.55 2.45 22 3 22H21C21.55 22 22 21.55 22 21V7C22 4 20 2 17 2Z" fill="url(#paradiseGradient)"/>
    <path class="icon-accent" d="M7 10.5H17M12 10.5V22" stroke="#004c39" stroke-width="1.5" stroke-miterlimit="10" stroke-linecap="round" stroke-linejoin="round"/>
    <path class="icon-light" d="M9 6.5H7M12 6.5H10M17 6.5H14.5" stroke="#fbfcfc" stroke-width="1.5" stroke-miterlimit="10" stroke-linecap="round" stroke-linejoin="round"/>
  </symbol>

  <!-- Settings Icon -->
  <symbol id="icon-settings" viewBox="0 0 24 24">
    <path class="icon-fill" d="M12 15C13.6569 15 15 13.6569 15 12C15 10.3431 13.6569 9 12 9C10.3431 9 9 10.3431 9 12C9 13.6569 10.3431 15 12 15Z" fill="url(#paradiseGradient)"/>
    <path class="icon-accent" d="M2 12.88V11.12C2 10.08 2.85 9.22 3.9 9.22C5.71 9.22 6.45 7.94 5.54 6.37C5.02 5.47 5.33 4.3 6.24 3.78L7.97 2.79C8.76 2.32 9.78 2.6 10.25 3.39L10.36 3.58C11.26 5.15 12.74 5.15 13.65 3.58L13.76 3.39C14.23 2.6 15.25 2.32 16.04 2.79L17.77 3.78C18.68 4.3 18.99 5.47 18.47 6.37C17.56 7.94 18.3 9.22 20.11 9.22C21.15 9.22 22.01 10.07 22.01 11.12V12.88C22.01 13.92 21.16 14.78 20.11 14.78C18.3 14.78 17.56 16.06 18.47 17.63C18.99 18.54 18.68 19.7 17.77 20.22L16.04 21.21C15.25 21.68 14.23 21.4 13.76 20.61L13.65 20.42C12.75 18.85 11.27 18.85 10.36 20.42L10.25 20.61C9.78 21.4 8.76 21.68 7.97 21.21L6.24 20.22C5.33 19.7 5.02 18.53 5.54 17.63C6.45 16.06 5.71 14.78 3.9 14.78C2.85 14.78 2 13.92 2 12.88Z" stroke="#004c39" stroke-width="1.5" stroke-miterlimit="10" stroke-linecap="round" stroke-linejoin="round" fill="none"/>
  </symbol>

  <!-- Bell / Notification Icon -->
  <symbol id="icon-notification" viewBox="0 0 24 24">
    <path class="icon-fill" d="M12.02 2.91C8.71 2.91 6.02 5.6 6.02 8.91V11.8C6.02 12.41 5.76 13.34 5.45 13.86L4.3 15.77C3.59 16.95 4.08 18.26 5.38 18.7C9.69 20.14 14.34 20.14 18.65 18.7C19.86 18.3 20.39 16.87 19.73 15.77L18.58 13.86C18.28 13.34 18.02 12.41 18.02 11.8V8.91C18.02 5.61 15.32 2.91 12.02 2.91Z" fill="url(#paradiseGradient)"/>
    <path class="icon-accent" d="M13.87 3.2C13.56 3.11 13.24 3.04 12.91 3C11.95 2.88 11.03 2.95 10.17 3.2C10.46 2.46 11.18 1.94 12.02 1.94C12.86 1.94 13.58 2.46 13.87 3.2Z" fill="#004c39"/>
    <path class="icon-accent" d="M15.02 19.06C15.02 20.71 13.67 22.06 12.02 22.06C11.2 22.06 10.44 21.72 9.90002 21.18C9.36002 20.64 9.02002 19.88 9.02002 19.06" stroke="#004c39" stroke-width="1.5" stroke-miterlimit="10"/>
  </symbol>

  <!-- Search Icon -->
  <symbol id="icon-search" viewBox="0 0 24 24">
    <path class="icon-fill" d="M11.5 21C16.7467 21 21 16.7467 21 11.5C21 6.25329 16.7467 2 11.5 2C6.25329 2 2 6.25329 2 11.5C2 16.7467 6.25329 21 11.5 21Z" stroke="url(#paradiseGradient)" stroke-width="1.5" stroke-linecap="round" stroke-linejoin="round" fill="none"/>
    <path class="icon-accent" d="M22 22L20 20" stroke="#004c39" stroke-width="1.5" stroke-linecap="round" stroke-linejoin="round"/>
  </symbol>

  <!-- Check / Success Icon -->
  <symbol id="icon-check" viewBox="0 0 24 24">
    <path class="icon-fill" d="M12 22C17.5 22 22 17.5 22 12C22 6.5 17.5 2 12 2C6.5 2 2 6.5 2 12C2 17.5 6.5 22 12 22Z" fill="url(#paradiseGradient)"/>
    <path class="icon-light" d="M7.75 12L10.58 14.83L16.25 9.17" stroke="#fbfcfc" stroke-width="2" stroke-linecap="round" stroke-linejoin="round"/>
  </symbol>

  <!-- Close / X Icon -->
  <symbol id="icon-close" viewBox="0 0 24 24">
    <path class="icon-accent" d="M12 22C17.5 22 22 17.5 22 12C22 6.5 17.5 2 12 2C6.5 2 2 6.5 2 12C2 17.5 6.5 22 12 22Z" stroke="#004c39" stroke-width="1.5" stroke-linecap="round" stroke-linejoin="round" fill="none"/>
    <path class="icon-fill" d="M9.17 14.83L14.83 9.17M14.83 14.83L9.17 9.17" stroke="url(#paradiseGradient)" stroke-width="1.5" stroke-linecap="round" stroke-linejoin="round"/>
  </symbol>

  <!-- Warning / Alert Icon -->
  <symbol id="icon-warning" viewBox="0 0 24 24">
    <path class="icon-fill" d="M12 2C6.49 2 2 6.49 2 12C2 17.51 6.49 22 12 22C17.51 22 22 17.51 22 12C22 6.49 17.51 2 12 2Z" fill="url(#paradiseGradient)"/>
    <path class="icon-light" d="M12 8V13M12 16H12.01" stroke="#fbfcfc" stroke-width="2" stroke-linecap="round"/>
  </symbol>

  <!-- Info Icon -->
  <symbol id="icon-info" viewBox="0 0 24 24">
    <path class="icon-fill" d="M12 22C17.5 22 22 17.5 22 12C22 6.5 17.5 2 12 2C6.5 2 2 6.5 2 12C2 17.5 6.5 22 12 22Z" fill="url(#paradiseGradient)"/>
    <path class="icon-light" d="M12 8H12.01M12 12V16" stroke="#fbfcfc" stroke-width="2" stroke-linecap="round"/>
  </symbol>

  <!-- Upload Icon -->
  <symbol id="icon-upload" viewBox="0 0 24 24">
    <path class="icon-fill" d="M9 17V11L7 13M9 11L11 13" stroke="url(#paradiseGradient)" stroke-width="1.5" stroke-linecap="round" stroke-linejoin="round" fill="none"/>
    <path class="icon-accent" d="M22 10V15C22 20 20 22 15 22H9C4 22 2 20 2 15V9C2 4 4 2 9 2H14" stroke="#004c39" stroke-width="1.5" stroke-linecap="round" stroke-linejoin="round" fill="none"/>
    <path class="icon-fill" d="M22 10H18C15 10 14 9 14 6V2L22 10Z" fill="url(#paradiseGradient)"/>
  </symbol>

  <!-- Download Icon -->
  <symbol id="icon-download" viewBox="0 0 24 24">
    <path class="icon-fill" d="M9 11V17L7 15M9 17L11 15" stroke="url(#paradiseGradient)" stroke-width="1.5" stroke-linecap="round" stroke-linejoin="round" fill="none"/>
    <path class="icon-accent" d="M22 10V15C22 20 20 22 15 22H9C4 22 2 20 2 15V9C2 4 4 2 9 2H14" stroke="#004c39" stroke-width="1.5" stroke-linecap="round" stroke-linejoin="round" fill="none"/>
    <path class="icon-fill" d="M22 10H18C15 10 14 9 14 6V2L22 10Z" fill="url(#paradiseGradient)"/>
  </symbol>

  <!-- Menu / Hamburger Icon -->
  <symbol id="icon-menu" viewBox="0 0 24 24">
    <path class="icon-fill" d="M3 7H21M3 12H21M3 17H21" stroke="url(#paradiseGradient)" stroke-width="2" stroke-linecap="round"/>
  </symbol>

  <!-- Arrow Right Icon -->
  <symbol id="icon-arrow-right" viewBox="0 0 24 24">
    <path class="icon-fill" d="M8.91 19.92L15.43 13.4C16.2 12.63 16.2 11.37 15.43 10.6L8.91 4.08" stroke="url(#paradiseGradient)" stroke-width="1.5" stroke-miterlimit="10" stroke-linecap="round" stroke-linejoin="round" fill="none"/>
  </symbol>

  <!-- Arrow Left Icon -->
  <symbol id="icon-arrow-left" viewBox="0 0 24 24">
    <path class="icon-fill" d="M15.09 19.92L8.57 13.4C7.8 12.63 7.8 11.37 8.57 10.6L15.09 4.08" stroke="url(#paradiseGradient)" stroke-width="1.5" stroke-miterlimit="10" stroke-linecap="round" stroke-linejoin="round" fill="none"/>
  </symbol>

  <!-- Plus / Add Icon -->
  <symbol id="icon-plus" viewBox="0 0 24 24">
    <path class="icon-fill" d="M6 12H18M12 18V6" stroke="url(#paradiseGradient)" stroke-width="2" stroke-linecap="round" stroke-linejoin="round"/>
  </symbol>

  <!-- Edit / Pencil Icon -->
  <symbol id="icon-edit" viewBox="0 0 24 24">
    <path class="icon-fill" d="M11 2H9C4 2 2 4 2 9V15C2 20 4 22 9 22H15C20 22 22 20 22 15V13" stroke="url(#paradiseGradient)" stroke-width="1.5" stroke-linecap="round" stroke-linejoin="round" fill="none"/>
    <path class="icon-accent" d="M16.04 3.02001L8.16 10.9C7.86 11.2 7.56 11.79 7.5 12.22L7.07 15.23C6.91 16.32 7.68 17.08 8.77 16.93L11.78 16.5C12.2 16.44 12.79 16.14 13.1 15.84L20.98 7.96001C22.34 6.60001 22.98 5.02001 20.98 3.02001C18.98 1.02001 17.4 1.66001 16.04 3.02001Z" stroke="#004c39" stroke-width="1.5" stroke-miterlimit="10" stroke-linecap="round" stroke-linejoin="round" fill="none"/>
    <path class="icon-accent" d="M14.91 4.15C15.58 6.54 17.45 8.41 19.85 9.09" stroke="#004c39" stroke-width="1.5" stroke-miterlimit="10" stroke-linecap="round" stroke-linejoin="round" fill="none"/>
  </symbol>

  <!-- Delete / Trash Icon -->
  <symbol id="icon-delete" viewBox="0 0 24 24">
    <path class="icon-fill" d="M21 5.98C17.67 5.65 14.32 5.48 10.98 5.48C9 5.48 7.02 5.58 5.04 5.78L3 5.98" stroke="url(#paradiseGradient)" stroke-width="1.5" stroke-linecap="round" stroke-linejoin="round" fill="none"/>
    <path class="icon-accent" d="M8.5 4.97L8.72 3.66C8.88 2.71 9 2 10.69 2H13.31C15 2 15.13 2.75 15.28 3.67L15.5 4.97M18.85 9.14L18.2 19.21C18.09 20.78 18 22 15.21 22H8.79C6 22 5.91 20.78 5.8 19.21L5.15 9.14" stroke="#004c39" stroke-width="1.5" stroke-linecap="round" stroke-linejoin="round" fill="none"/>
    <path class="icon-accent" d="M10.33 16.5H13.66M9.5 12.5H14.5" stroke="#004c39" stroke-width="1.5" stroke-linecap="round" stroke-linejoin="round" fill="none"/>
  </symbol>

  <!-- Filter Icon -->
  <symbol id="icon-filter" viewBox="0 0 24 24">
    <path class="icon-fill" d="M5.4 2.1H18.6C19.7 2.1 20.6 3 20.6 4.1V6.3C20.6 7.1 20.1 8.1 19.6 8.6L15.3 12.4C14.7 12.9 14.3 13.9 14.3 14.7V19C14.3 19.6 13.9 20.4 13.4 20.7L12 21.6C10.7 22.4 8.9 21.5 8.9 19.9V14.6C8.9 13.9 8.5 13 8.1 12.5L4.3 8.5C3.8 8 3.4 7.1 3.4 6.5V4.2C3.4 3 4.3 2.1 5.4 2.1Z" stroke="url(#paradiseGradient)" stroke-width="1.5" stroke-miterlimit="10" stroke-linecap="round" stroke-linejoin="round" fill="none"/>
  </symbol>

  <!-- Eye / View Icon -->
  <symbol id="icon-eye" viewBox="0 0 24 24">
    <path class="icon-fill" d="M15.58 12C15.58 13.98 13.98 15.58 12 15.58C10.02 15.58 8.42 13.98 8.42 12C8.42 10.02 10.02 8.42 12 8.42C13.98 8.42 15.58 10.02 15.58 12Z" stroke="url(#paradiseGradient)" stroke-width="1.5" stroke-linecap="round" stroke-linejoin="round" fill="none"/>
    <path class="icon-accent" d="M12 20.27C15.53 20.27 18.82 18.19 21.11 14.59C22.01 13.18 22.01 10.81 21.11 9.4C18.82 5.8 15.53 3.72 12 3.72C8.47 3.72 5.18 5.8 2.89 9.4C1.99 10.81 1.99 13.18 2.89 14.59C5.18 18.19 8.47 20.27 12 20.27Z" stroke="#004c39" stroke-width="1.5" stroke-linecap="round" stroke-linejoin="round" fill="none"/>
  </symbol>

  <!-- Clock / Time Icon -->
  <symbol id="icon-clock" viewBox="0 0 24 24">
    <path class="icon-fill" d="M12 22C17.5228 22 22 17.5228 22 12C22 6.47715 17.5228 2 12 2C6.47715 2 2 6.47715 2 12C2 17.5228 6.47715 22 12 22Z" fill="url(#paradiseGradient)"/>
    <path class="icon-light" d="M15.71 15.18L12.61 13.33C12.07 13.01 11.63 12.24 11.63 11.61V7.51" stroke="#fbfcfc" stroke-width="1.5" stroke-linecap="round" stroke-linejoin="round"/>
  </symbol>

  <!-- Component Testing Icon -->
  <symbol id="icon-component" viewBox="0 0 24 24">
    <path class="icon-fill" d="M12.37 8.88H17.62C19.72 8.88 20.76 7.84 20.76 5.74V5.01C20.76 2.91 19.72 1.87 17.62 1.87H12.37C10.27 1.87 9.23 2.91 9.23 5.01V5.74C9.23 7.84 10.27 8.88 12.37 8.88Z" fill="url(#paradiseGradient)"/>
    <path class="icon-accent" d="M6.38 22.13H11.62C13.72 22.13 14.76 21.09 14.76 19V18.26C14.76 16.16 13.72 15.12 11.62 15.12H6.38C4.28 15.12 3.24 16.16 3.24 18.26V19C3.24 21.09 4.28 22.13 6.38 22.13Z" fill="#004c39"/>
    <path class="icon-primary" d="M6.38 8.88H11.62C13.72 8.88 14.76 7.84 14.76 5.74V5.01C14.76 2.91 13.72 1.87 11.62 1.87H6.38C4.28 1.87 3.24 2.91 3.24 5.01V5.74C3.24 7.84 4.28 8.88 6.38 8.88Z" stroke="#72c31d" stroke-width="1.5" stroke-linecap="round" stroke-linejoin="round" fill="none"/>
    <path class="icon-primary" d="M12.37 22.13H17.62C19.72 22.13 20.76 21.09 20.76 19V18.26C20.76 16.16 19.72 15.12 17.62 15.12H12.37C10.27 15.12 9.23 16.16 9.23 18.26V19C9.23 21.09 10.27 22.13 12.37 22.13Z" stroke="#72c31d" stroke-width="1.5" stroke-linecap="round" stroke-linejoin="round" fill="none"/>
  </symbol>

  <!-- Loading / Spinner Icon -->
  <symbol id="icon-loading" viewBox="0 0 24 24">
    <path class="icon-fill" d="M12 2V6M12 18V22M6 12H2M22 12H18M19.07 19.07L16.24 16.24M19.07 4.93L16.24 7.76M4.93 19.07L7.76 16.24M4.93 4.93L7.76 7.76" stroke="url(#paradiseGradient)" stroke-width="2" stroke-linecap="round"/>
  </symbol>

</svg>
